<svg xmlns="http://www.w3.org/2000/svg" xmlns:xlink="http://www.w3.org/1999/xlink" viewBox="0 0 1920 1080"><defs><style>.cls-1{fill:url(#Dégradé_sans_nom_28);}</style><linearGradient id="Dégradé_sans_nom_28" x1="74.24" y1="1051.4" x2="1591.97" y2="175.13" gradientUnits="userSpaceOnUse"><stop offset="0.02" stop-color="#3fffec"/><stop offset="0.2" stop-color="#3df6ee"/><stop offset="0.51" stop-color="#36dcf4"/><stop offset="0.91" stop-color="#2cb3fd"/><stop offset="0.99" stop-color="#2aa9ff"/></linearGradient></defs><title>bg</title><g id="Calque_2" data-name="Calque 2"><g id="Calque_1-2" data-name="Calque 1"><path id="bg" class="cls-1" d="M315.05,928.38c49.36,0,99.37,36.76,146.68,30.44,16-2.14,30.52-11.21,45.21-18.79,84-43.34,185.3-38.72,266.16,12.16,13,8.21,26.69,17.85,41.48,16.43,8.68-.83,16.7-5.45,24.64-9.6a265.52,265.52,0,0,1,241-2.53c9.88,4.9,19.86,10.52,30.59,11,14.94.59,28.59-8.88,41.83-16.93a273.27,273.27,0,0,1,282.33-1.13c10.13,6.06,20.5,13,31.89,13.24,10.38.26,20.17-5,29.77-9.57A249.92,249.92,0,0,1,1608,928.41c98.29,1.35,192,60.91,250.88,151.59H1920V320s-245-163-511-163C1135,157,1091,0,1091,0H0V1080H60.4C117.32,988.17,210.17,928.38,315.05,928.38Z"/></g></g></svg>