<svg xmlns="http://www.w3.org/2000/svg" viewBox="0 0 192 164.16"><defs><style>.cls-1{fill:#fefefe;}.cls-2{fill:#fbd2d1;}.cls-3{fill:#fae8da;}.cls-4{fill:#fbd2cf;}.cls-5{fill:#030743;}.cls-6{fill:#fbd1ce;}.cls-7{fill:#fad2d0;}.cls-8{fill:#fad3d1;}.cls-9{fill:#fae8d9;}.cls-10{fill:#f79888;}.cls-11{fill:#edcbb4;}.cls-12{fill:#fbe8d8;}.cls-13{fill:#fdf1ee;}.cls-14{fill:#f9f8f6;}.cls-15{fill:#f15f3f;}.cls-16{fill:#e7d8da;}.cls-17{fill:#f19a8a;}.cls-18{fill:#f89a89;}.cls-19{fill:#fd9985;}.cls-20{fill:#100a3c;}.cls-21{fill:#f8cec8;}.cls-22{fill:#fcfbfa;}.cls-23{fill:#f45d3c;}.cls-24{fill:#ef9483;}.cls-25{fill:#e3725e;}.cls-26{fill:#f69a8a;}.cls-27{fill:#fb9986;}.cls-28{fill:#f8a99b;}.cls-29{fill:#fdfdfd;}.cls-30{fill:#b5c2e6;}</style></defs><title>Fichier 2</title><g id="Calque_2" data-name="Calque 2"><g id="Calque_1-2" data-name="Calque 1"><path class="cls-1" d="M0,164.16V0H192V164.16ZM49,86.62a.36.36,0,0,0,0,.23l-.86,1.66-.93-2.18-.91,1.92H40.83c-.17-1-.39-2-.51-3-.2-1.69-.31-3.4-.52-5.09a1.52,1.52,0,0,0-.58-1,24,24,0,0,0-2.52-1.56,4.32,4.32,0,0,0-4.11-.31c-1.76.91-2.26,2.42-1.69,4.39s1.41,4.11,2,6.2a3.61,3.61,0,0,1-2.21,4.24A18.49,18.49,0,0,0,28,93.56a1.69,1.69,0,0,0-.6,1,3.48,3.48,0,0,0,1.19,2.84c1.37,1.61,2.49,3.25,2.2,5.56a2.72,2.72,0,0,1-1.05,2c-1.46,1.15-3.11.75-4.68.47A8.41,8.41,0,0,0,18.28,107a6.18,6.18,0,0,0-1.73,7.1c1.09,2.17,2.2,4.27,4.27,5.69.92.63,1.7,1.48,2.66,2,2.24,1.22,4.6,2.22,6.82,3.47a11.42,11.42,0,0,1,2.92,2.4c1.78,2,1.42,3.36-1,4.24-1.77.64-2.23,3.11-1.09,4.73a16.61,16.61,0,0,0,5.26,4.26c1.41.86,2.93,1.56,4.39,2.33A11.87,11.87,0,0,0,47.85,145q34.28-.08,68.56,0h.71a7.8,7.8,0,0,0,1.25.22c1.94,0,3.89,0,5.83,0,1.37,0,2.74.18,4.11.18.27,0,.55-.4.83-.62l1.17.19h.25l1.9.22.75-.43h.68l.51.18,3.84.25,2.4-.23.47,0,1-.06h3.34l.49,0,.26.19,1.19-.24.5.24,2.38,0h.48l7.92-.24c.09.07.19.2.28.2,2.06-.05,4.12-.15,6.19-.18,2.87,0,5.74,0,8.61,0,1.54,0,2.45-1.24,1.59-2.27a5.17,5.17,0,0,0-2.49-1.29,23.42,23.42,0,0,0-3.37-.53,1.59,1.59,0,0,1,.86-1.79c1.18-.69,2.27-1.53,3.43-2.26a1.74,1.74,0,0,0,.8-2.42l-.29-.49a3.17,3.17,0,0,0-3.8-.6,21.4,21.4,0,0,1-2.87,1.61,7.76,7.76,0,0,1-2.23.2l-.24-.47c-.18-2.7,1.36-4.89,2.13-7.3.33-1.07.49-2.2.73-3.29l-.67-.5c-.32-.14-.68-.44-1-.38a8.56,8.56,0,0,0-5.34,4c-.79,1.26-1.39,2.77-3.34,2.41l-.47,0a7.34,7.34,0,0,1-.66-2.59,24.91,24.91,0,0,1,1.22-5.27c1.16-3.26,3.2-6.15,4-9.6a7.42,7.42,0,0,0-1.9-7.27,3.42,3.42,0,0,0-3.56-.5,8.94,8.94,0,0,0-3.64,2.77,18.5,18.5,0,0,0-3.39,6.56c-.31,1.34-.59,2.66-1.92,3.4l-.2.05c-1,0-1.28-.62-1.27-1.49.24-1.75.38-3.52.75-5.25s1-3.4,1.41-5.11c.07-.27-.13-.6-.2-.91v-.46c1.36-.71,1.39-2.06,1.41-3.28.05-6.67,0-13.34,0-20h.46q0,9.24,0,18.47l-.2.52.2.08.24-.61c1.45-4.71,3.39-9.26,3.69-14.3a34.37,34.37,0,0,0-.57-8.72l0-.51a28.64,28.64,0,0,0-5-11.75c-2.35-3.13-5.24-5.64-9.14-6.52a66.63,66.63,0,0,0-7.07-.9c-2.24-.26-4.51-.38-6.73-.79a18.57,18.57,0,0,1-3.51-1.39l-.31-.36-.16.38,0,.47h-.48v-.49c.17-1.59-1.25-1.76-2.15-2.39l-.47-.48-1.45-1.68-.49-.71c-1.49-1.54-2.89-3.18-4.5-4.57a29.17,29.17,0,0,0-3.87-2.4l0-1.45s.08,0,.07-.06a.8.8,0,0,0-.08-.16c.55-.73,1.49-1.42,1.57-2.21a6.58,6.58,0,0,1,2.23-4.21c1.94-1.89,2-3,.43-5.22a5.47,5.47,0,0,1-1.22-4.44c.25-1.34-.26-1.9-1.58-2.21-.35-.08-.7-.15-1-.2A1.83,1.83,0,0,1,106.35,20c-.16-1.61-.83-2-2.33-1.5-1.17.4-1.74,0-1.68-1.26,0-.4.12-.79.13-1.19,0-1.24-.65-2-1.89-1.88a6.83,6.83,0,0,0-2.33.82c-2.38,1.29-4.66,2.75-7.07,4a6.89,6.89,0,0,0-4.09,7.18,17.46,17.46,0,0,0,.81,3.2l-1.05,8.33c-1.35.09-2.71.11-4,.28A47.69,47.69,0,0,0,76.25,39c-3.33.9-6.61,2-9.84,3.2a40.86,40.86,0,0,0-9.77,5.33l-.48.48a21.19,21.19,0,0,0-6.74,5.75l-.7.73L46,58.32l-.2.23-.24.25c-1,.25-1.22.8-.73,1.68l-.26,1c-1,.16-1.24.83-.71,2.4l0,.72-.22.72,0,1c-.85.9-.47,1.9-.2,2.88l.23,2.4.22.49,0,.95c-.4.57-.38,1.06.25,1.44v.46l.43.51,0,.47.24,1.68c.69,1.28,1.29,2.63,2.1,3.83A4.34,4.34,0,0,1,48,84.24c0,.39.25.81.38,1.22a1.8,1.8,0,0,1,.08.21l.49.93Z"/><path class="cls-2" d="M43.67,71.52l-.23-2.4.2-2.88c0-.32,0-.65,0-1s.15-.48.22-.72,0-.48,0-.72c.24-.8.48-1.6.71-2.4.09-.31.18-.63.26-1,.25-.56.49-1.12.73-1.68l.24-.25.2-.23,2.68-3.84a26.34,26.34,0,0,0,1.14,2.74c2,3.78,5.5,6.25,8.63,9a1.11,1.11,0,0,0,1-.13,39.3,39.3,0,0,0,7.28-7c1.42-1.92,2.66-3.93,2.33-6.47-.63-4.83-3.6-6.34-8.13-4.9-1.62.52-2.92.68-4.34-.2a40.86,40.86,0,0,1,9.77-5.33c3.23-1.22,6.51-2.3,9.84-3.2a47.69,47.69,0,0,1,6.56-1.05c1.33-.17,2.69-.19,4-.28-.1,3.84,1.78,6.38,5.17,8a1.14,1.14,0,0,1,.61.74,23.26,23.26,0,0,1,0,3.34,2.68,2.68,0,0,1-1.77,2.47c-.13-.38-.25-.75-.38-1.12-.07-.58,0-1.29-.28-1.7a1.49,1.49,0,0,0-1.47-.16,9.43,9.43,0,0,0-1.41,2.08c-1.19.17-1.45.59-1.23,2.51a16.54,16.54,0,0,0-1.68.56c-2,.89-4.21,1.43-5.68,3.26L76.79,59.5a10.89,10.89,0,0,0-1.65,2.1C74,64.07,73,66.6,72,69.11l-.2.25c-.71,2.14-1.41,4.29-2.11,6.43-.48,0-1,0-1.44,0H44.64c0-.16,0-.32,0-.47l-.43-.51V74.4c-.08-.48-.17-1-.25-1.44l0-.95C43.82,71.84,43.75,71.68,43.67,71.52Z"/><path class="cls-3" d="M40.8,143.27c-1.46-.77-3-1.47-4.39-2.33a16.61,16.61,0,0,1-5.26-4.26c-1.14-1.62-.68-4.09,1.09-4.73,2.4-.88,2.76-2.22,1-4.24a11.42,11.42,0,0,0-2.92-2.4c-2.22-1.25-4.58-2.25-6.82-3.47-1-.53-1.74-1.38-2.66-2-2.07-1.42-3.18-3.52-4.27-5.69a6.18,6.18,0,0,1,1.73-7.1A8.41,8.41,0,0,1,25,105.48c1.57.28,3.22.68,4.68-.47a2.72,2.72,0,0,0,1.05-2c.29-2.31-.83-4-2.2-5.56a3.48,3.48,0,0,1-1.19-2.84,1.69,1.69,0,0,1,.6-1,18.49,18.49,0,0,1,2.72-1.42,3.61,3.61,0,0,0,2.21-4.24c-.6-2.09-1.4-4.12-2-6.2s-.07-3.48,1.69-4.39a4.32,4.32,0,0,1,4.11.31,24,24,0,0,1,2.52,1.56,1.52,1.52,0,0,1,.58,1c.21,1.69.32,3.4.52,5.09.12,1,.34,2,.51,3h5.45l.91-1.92.93,2.18L49,86.85l.25-.06.27.29-1,4.79a6.23,6.23,0,0,0-6.42-3.17c1.31,1.44,2.63,3,4.06,4.38a7.09,7.09,0,0,0,1.83,1l.29-.07.22.09c-.1,1.11-.17,2.23-.3,3.34s-.31,2.31-.47,3.47l-.26-.28-.22-.21c-2-1.79-4.09-3.24-6.89-3.1.52.6,1,1.18,1.49,1.74,1.26,1.38,2.53,2.74,3.79,4.11a1.3,1.3,0,0,1-.24,1.82l-1.72,1.89-.48-.11-.48-.17-5-.57-.1.32L41.28,110a9.09,9.09,0,0,0-1.5,1.33c-1,1.26-1.8,2.6-2.71,3.9a14.61,14.61,0,0,0-2.52,8,33.12,33.12,0,0,0,1.26,11.56c.68,2.13,1.22,4.37,2.87,6.07C39.43,141.61,40.1,142.45,40.8,143.27Zm6.73-54.48-.3-.36-.08.08.36.3.07,1.13.34.11.54-.8Z"/><path class="cls-4" d="M40.8,143.27c-.7-.82-1.37-1.66-2.12-2.44-1.65-1.7-2.19-3.94-2.87-6.07a33.12,33.12,0,0,1-1.26-11.56,14.61,14.61,0,0,1,2.52-8c.91-1.3,1.76-2.64,2.71-3.9a9.09,9.09,0,0,1,1.5-1.33c1,.66,2,1.41,3.11,2,1.33.71,2.69,1.53,4.33,1.11a2.12,2.12,0,0,1,.23.41c.46,2,.93,4.06,1.34,6.11,0,.18-.4.45-.61.68a12.35,12.35,0,0,0-7.92-4,14.25,14.25,0,0,0-3,.29c.71.91,1.13,1.54,1.63,2.09,2.31,2.54,5,4.43,8.55,4.72l.43.05,1.5.24c0,.19,0,.45-.15.55a4.23,4.23,0,0,0-1.3,3.49c0,1.29-.13,2.57-.2,3.85,0-.6,0-1.2,0-1.79,0-2.81,0-2.86-2.79-3.17a9.9,9.9,0,0,0-6.22,1.15,13.4,13.4,0,0,0,9,4l0,2.48-4.34-1.12c1.55,3,3.51,5.35,6.87,6.11,1.25.65,2.43,1.49,4,1.24a6.86,6.86,0,0,0,1.25.23h52.51a6,6,0,0,1,.63.29c1.23.82,2.44,1.67,3.69,2.47.86.56,1.76,1.06,2.65,1.58q-34.27,0-68.56,0A11.87,11.87,0,0,1,40.8,143.27Z"/><path class="cls-5" d="M87.9,29.33a17.46,17.46,0,0,1-.81-3.2A6.89,6.89,0,0,1,91.18,19c2.41-1.21,4.69-2.67,7.07-4a6.83,6.83,0,0,1,2.33-.82c1.24-.14,1.93.64,1.89,1.88,0,.4-.12.79-.13,1.19-.06,1.23.51,1.66,1.68,1.26,1.5-.5,2.17-.11,2.33,1.5a1.83,1.83,0,0,0,1.82,1.84c.35.05.7.12,1,.2,1.32.31,1.83.87,1.58,2.21A5.47,5.47,0,0,0,112,28.69c1.61,2.21,1.51,3.33-.43,5.22a6.58,6.58,0,0,0-2.23,4.21c-.08.79-1,1.48-1.57,2.21a.17.17,0,0,0,0,.22l0,1.45c-.53,1.55-1.8,1.93-3.25,2.15a18.23,18.23,0,0,0-2.55.78,3.4,3.4,0,0,1-3,.63,9.2,9.2,0,0,1-6.86-6.51,3,3,0,0,1,.14-1.31,12.21,12.21,0,0,0,.59-3,2.29,2.29,0,0,0-1.24-1.66c-.49-.2-1.3.23-1.91.52-.27.12-.38.56-.55.85C88.67,32.58,88.28,31,87.9,29.33Z"/><path class="cls-6" d="M48.42,85.46c-.13-.41-.42-.83-.38-1.22A4.34,4.34,0,0,0,47,81.35c-.81-1.2-1.41-2.55-2.1-3.83l.43-1.18h20a2.2,2.2,0,0,1,.24,2.38l-.36,2.37a2.16,2.16,0,0,0-3.24.75L61.5,82l.11.15.31-.34h.48c0,.11,0,.26-.11.34a3.37,3.37,0,0,0-.08,4.45,2.94,2.94,0,0,0,1.76.84,7.11,7.11,0,0,0,2.14-.58l0,.61h.31c.05-.53.13-1.07.14-1.6.05-2.21.1-4.41.08-6.62,0-.19-.44-.38-.68-.57l1.15-1.87.74,0v1l-.21.72v.23c-.14.07-.38.14-.38.21,0,1.84-.55,3.73.36,5.51a8,8,0,0,0-.44,1.33c-.23,1.45-.44,2.9-.59,4.36-.55,5.36-1.07,10.73-1.61,16.1-.15,1.48-.33,3-.49,4.44l-1.05.19a16.32,16.32,0,0,0-8.28,3.89l-.3.41h0l-1.21,1.21h0l-.23.18L51.82,119l-.53,1.2c-.14,0-.38,0-.39-.12-.51-2.43-1-4.87-1.49-7.3a4.4,4.4,0,0,0,1.16-.2c4.11-1.77,7.43-4.65,10.74-7.64-4.52-1.15-9.6,1.55-12.13,6.39l-.63-8,.61,0,.55,0c3.56-.94,5.7-3.85,8.64-6.15a10.87,10.87,0,0,0-7.07,1.54c-.8.52-1.53,1.14-2.29,1.71.14-.42.28-.83.43-1.25s.35-.95.5-1.43c.33-1,.64-2.07,1-3.11l0-.34c3.06-1.7,4.93-4.6,7.26-7.15a10.74,10.74,0,0,0-7.25,2.75c-.14-.94.28-2-.78-2.72,1.57-1,2.07-2,1.46-3.81a37.82,37.82,0,0,0-1.81-3.81l-.37.11C48.85,81.5,48.11,83.38,48.42,85.46Z"/><path class="cls-7" d="M121.2,54.72c0-.16,0-.32,0-.47l.47,0a18.57,18.57,0,0,0,3.51,1.39c2.22.41,4.49.53,6.73.79a66.63,66.63,0,0,1,7.07.9c3.9.88,6.79,3.39,9.14,6.52a28.64,28.64,0,0,1,5,11.75H126.21c-.14-.48-.29-1-.43-1.43a4.05,4.05,0,0,0-.12-1.06c-1-2.61-2-5.21-3-7.82l-1-3.11-.48-.71ZM140,71.45c1.93-1.62,3.85-3.12,5-5.33a4,4,0,0,0-.38-4.29,3,3,0,0,0-3.55-.53,3.06,3.06,0,0,1-2.41,0,2.82,2.82,0,0,0-3.33.47,3.41,3.41,0,0,0-.67,4C135.87,68.2,137.88,69.87,140,71.45ZM126.44,61.4c.38-1.45,0-2.43-.73-2.59-1.1-.24-1.69.12-1.95,1.09s-.27,1.67,1.06,1.82l-.59-1.3.55-1C126.45,59.14,126,60.69,126.44,61.4Z"/><path class="cls-8" d="M149.28,80.64c0,6.67,0,13.34,0,20,0,1.22-.05,2.57-1.41,3.28H131.11c-.27-3-.54-6.09-.8-9.13l2.17.36c0,.86,0,1.66,0,2.44-.06,1.07.37,1.56,1.47,1.52s2.39,0,3.59,0c1.48,0,1.68-.19,1.67-1.65,0-2.76-.09-2.71,2.69-2.66a.48.48,0,0,1,.12,0c1.13.12,1.5-.52,1.51-1.51V90.55c0-2.31-.16-2.47-2.43-2.47-1.73,0-1.85-.12-1.89-1.89a4.31,4.31,0,0,1,0-.72c.21-1.25-.53-1.66-1.57-1.69a18.7,18.7,0,0,0-3.59,0c-.57.09-1.06.75-1.59,1.15-.15.51-.31,1-.46,1.53-.09.36-.16.73-.24,1.09-.43-1.57-.66-1.8-2-1.86.27-.31.52-.63.81-.92s.67-.55.95-.78l-.92-2.19h0l1.2,1.14c.25-1.66-1.78-2.81-3.86-2.09L127.38,79c6.42,0,12.83,0,19.25-.07C148,78.92,149,79.21,149.28,80.64Z"/><path class="cls-2" d="M49.42,53.75A21.19,21.19,0,0,1,56.16,48c1.59,1,3.21,1.44,4.92.29l.22-.1c1.77-.54,3.54-.75,5.13.42,2.19,1.61,2.81,5.62,1.07,8.34-2.1,3.27-5,5.77-7.87,8.25a1.6,1.6,0,0,1-1.56-.14c-2.29-2.16-4.6-4.34-6.7-6.69A6.47,6.47,0,0,1,49.42,53.75Z"/><path class="cls-8" d="M147.84,104.39c.07.31.27.64.2.91-.45,1.71-1,3.39-1.41,5.11s-.51,3.5-.75,5.25c-.24-.23-.59-.42-.69-.7-.52-1.42-1-2.88-1.43-4.32l-1.19-1.19h-.5a4.68,4.68,0,0,0-1.36.55c-1.75,1.42-1.61,3.41-1.4,5.36.22,2.12.56,4.22.85,6.34l-6.72.2-2.15-4.8a9.64,9.64,0,0,0,.2-1.5c-.11-3.74-.25-7.48-.38-11.22Z"/><path class="cls-9" d="M147.35,117.1c1.33-.74,1.61-2.06,1.92-3.4a18.5,18.5,0,0,1,3.39-6.56,8.94,8.94,0,0,1,3.64-2.77,3.42,3.42,0,0,1,3.56.5l0,0a6.16,6.16,0,0,0-1,1c-1.81,2.69-2.07,5.77-2.13,8.89a6.46,6.46,0,0,1-2.09,4.85A9.64,9.64,0,0,0,153.6,121h0a3.58,3.58,0,0,0-2,4.52,6.19,6.19,0,0,1-.93,5.31,15.94,15.94,0,0,0-2.78,7c-.18,1.7-1.26,2.88-2.31,4.13a4.59,4.59,0,0,1,.23-1.94,13.94,13.94,0,0,0,1.13-5.81,7.86,7.86,0,0,1,.44-2.92,10,10,0,0,0,.08-7.51c-.5-1.2-.28-2.71-.3-4.08A25.13,25.13,0,0,1,147.35,117.1Z"/><path class="cls-10" d="M87.9,29.33c.38,1.63.77,3.25,1.22,5.15.17-.29.28-.73.55-.85.61-.29,1.42-.72,1.91-.52a2.29,2.29,0,0,1,1.24,1.66,12.21,12.21,0,0,1-.59,3,3,3,0,0,0-.14,1.31A9.2,9.2,0,0,0,99,45.56a3.4,3.4,0,0,0,3-.63c.09,1.48.19,3,.25,4.45a2.42,2.42,0,0,0,1.82,2.46l1.56.46L104.87,54l.22.33-1.52,2.85-1.09-1.35-.82-1.82-.39.15a2.79,2.79,0,0,0-1.16-3.59c-1.42-1.8-4.54-1.46-5.83.55a6.41,6.41,0,0,0-.69,3.55l-2.07,1.61A4.5,4.5,0,0,0,89.24,53L90.45,51l.38,1.12a2.68,2.68,0,0,0,1.77-2.47,23.26,23.26,0,0,0,0-3.34,1.14,1.14,0,0,0-.61-.74c-3.39-1.57-5.27-4.11-5.17-8Z"/><path class="cls-9" d="M133.21,144.75l-.75.43a10.78,10.78,0,0,0-2.65-.9c-2.1-.16-4.29.26-6.21-1h0c-.42-.4-.8-1.09-1.27-1.16-1.44-.22-2.93-.07-4.35-.32a22.57,22.57,0,0,1-3.63-1.17c-.37-.13-.72-.31-1.07-.47h0l-.24-.24h0a4.62,4.62,0,0,0-4.57-1.68l-.23-.24v-.45c.15-.05.37-.06.43-.17.93-1.41,2.19-1.27,3.46-.67a12.21,12.21,0,0,0,5.6.82c1.21,0,2.42,0,3.63,0l.22-.43a19,19,0,0,0-2.75-2.57,20.27,20.27,0,0,1-5.82-5.43c-.85-1.21-1.68-2.67-.68-4.29a8.2,8.2,0,0,0,.68,1.73c1.45,2.13,3.64,3.1,6,3.8,1.68.5,3.26,1.26,3.74,3.15a5,5,0,0,0,4.35,3.84,3.59,3.59,0,0,1,2.86,2.25,3.45,3.45,0,0,0,2.91,2.52,21,21,0,0,1,3,.73l-.48,1.64c-.93-.28-1.88-.53-2.8-.86s-1.61-.79-2.45-1.06c-1.31-.43-2.9-.1-3.84-1.51a5.57,5.57,0,0,0-4.1-2.3c-.38-.24-.75-.66-1.15-.69-1.26-.09-2.52,0-3.78,0a4.62,4.62,0,0,0-.74.15,9.33,9.33,0,0,0,5.4,1.28,4.87,4.87,0,0,1,4,1.94,3.6,3.6,0,0,0,2.85,1.45A6.35,6.35,0,0,1,133.21,144.75Z"/><path class="cls-9" d="M159.86,104.87a7.42,7.42,0,0,1,1.9,7.27c-.8,3.45-2.84,6.34-4,9.6a24.91,24.91,0,0,0-1.22,5.27,7.34,7.34,0,0,0,.66,2.59,11.6,11.6,0,0,1-5,5.91,4.71,4.71,0,0,0-2.18,3.24,5.62,5.62,0,0,1-2.17,3.27,20.69,20.69,0,0,0-2.46,2.95H145c.44-.88.89-1.76,1.32-2.65.76-1.55,1.86-3,2.18-4.67a17.37,17.37,0,0,1,1.63-4.67c1-1.89,2.41-3.58,2.31-5.89a28,28,0,0,1,1.2-6.12h0a5.64,5.64,0,0,0,3.35-4,29.09,29.09,0,0,0,.48-4.48,12.52,12.52,0,0,1,1.66-5.62,13.86,13.86,0,0,0,.74-1.92Z"/><path class="cls-8" d="M149.76,99.12q0-9.24,0-18.47c.18-1.59-1.09-2.18-2.45-2.18-6.69,0-13.39,0-20.08,0-.18-.64-.36-1.28-.53-1.92v-.42c.4,0,.79,0,1.19,0q12.63,0,25.26,0a34.37,34.37,0,0,1,.57,8.72c-.3,5-2.24,9.59-3.69,14.3Z"/><path class="cls-7" d="M105.61,52.3l-1.56-.46a2.42,2.42,0,0,1-1.82-2.46c-.06-1.48-.16-3-.25-4.45a18.23,18.23,0,0,1,2.55-.78c1.45-.22,2.72-.6,3.25-2.15a29.17,29.17,0,0,1,3.87,2.4c1.61,1.39,3,3,4.5,4.57,0,2.48-.09,5-.13,7.45-1.49-.71-3-1.42-4.45-2.11,0,0-.19.12-.28.19l-2-.8c-.3-.52-.61-1-.92-1.55a1.37,1.37,0,0,0,.15-2,2.3,2.3,0,0,0-1.7-.66c-.27,0-.5.87-.75,1.34l.33,1,0,.68Z"/><path class="cls-11" d="M153.6,121a28,28,0,0,0-1.2,6.12c.1,2.31-1.34,4-2.31,5.89a17.37,17.37,0,0,0-1.63,4.67c-.32,1.64-1.42,3.12-2.18,4.67-.43.89-.88,1.77-1.32,2.65h-2.88l-1.2-.71h0c-.06-.14-.1-.36-.2-.4a9.36,9.36,0,0,1-4.35-3.61,1.77,1.77,0,0,0-.75-.56,9.22,9.22,0,0,1-4.8-4.37,9.56,9.56,0,0,0-2.37-2.38c-1.85-1.59-4.2-2.68-5-5.23l.45-.29a8.82,8.82,0,0,0,3.5,3.93,13.3,13.3,0,0,1,4.87,4.95c.42.82,1.45,1.32,2.2,2a14.24,14.24,0,0,1,3.63,3.17,12.53,12.53,0,0,0,2.82,2l.3-.41c-.4-.33-.79-.66-1.2-1-1.16-.93-2.46-1.71-3.05-3.21a11.52,11.52,0,0,0-1-1.75c-.19-3.78-1.41-7-4.67-9.28a8,8,0,0,1-3.56-5.13,16.35,16.35,0,0,0-4.13-7.91,10.82,10.82,0,0,1-3-6.7l.49-.47a9.27,9.27,0,0,0,2.29,5.9,20.85,20.85,0,0,1,5.1,9.56,6.32,6.32,0,0,0,2.72,3.92,11.51,11.51,0,0,1,5.21,8.32c.49,4.06,3.55,6,6.47,8.15a5.13,5.13,0,0,0-.63-1.69,4.43,4.43,0,0,1-.6-2.81c.16-1.57.55-3.3-.73-4.68-1.77-1.92-2.9-4.07-2.57-6.78l.5-.45a7.42,7.42,0,0,0,2.28,6.51,4.16,4.16,0,0,1,1.29,3.86c-.47,2.94-.24,3.41,1.6,5.87a28,28,0,0,0-.45-2.79c-.11-.75-.37-1.71,0-2.25a6,6,0,0,0,.34-5.61,7.83,7.83,0,0,1-.13-4.81,30,30,0,0,0,.63-3.27c.27-2.08-.68-3.88-1.44-5.72-1.26-3-2.14-6.08-.72-9.31h.5l0,.94-.23.49a1.62,1.62,0,0,1,0,.22c-.06,1.37-.13,2.73-.2,4.1a31.89,31.89,0,0,0,1.19,3.23,11.2,11.2,0,0,1,1,8.54,8.84,8.84,0,0,0,.28,6.51,4.94,4.94,0,0,1-.41,4.47,4.21,4.21,0,0,0-.24,2.24,6.76,6.76,0,0,0,.65,1.71l1.11-3.65.23-.71v-.72c.15-.28.42-.54.44-.82.13-1.81.2-3.62.29-5.43l.23-.48a5.23,5.23,0,0,0,.5-4.61,23.12,23.12,0,0,1-.94-5,11.45,11.45,0,0,1,.46-2.91l.24-.46.2-.05a25.13,25.13,0,0,0-.22,2.59c0,1.37-.2,2.88.3,4.08a10,10,0,0,1-.08,7.51,7.86,7.86,0,0,0-.44,2.92,13.94,13.94,0,0,1-1.13,5.81,4.59,4.59,0,0,0-.23,1.94c1-1.25,2.13-2.43,2.31-4.13a15.94,15.94,0,0,1,2.78-7,6.19,6.19,0,0,0,.93-5.31A3.58,3.58,0,0,1,153.6,121Z"/><path class="cls-12" d="M147.86,145.18l-.5-.23c.62-.57,1.22-1.17,1.86-1.71a10.6,10.6,0,0,1,2.71-2.09,6.4,6.4,0,0,0,3.68-3.31,7.55,7.55,0,0,1,3.52-3.85,9.36,9.36,0,0,0,4.9-5.7c.7-1.89,1.53-3.85,3.94-4.23-.24,1.09-.4,2.22-.73,3.29-.77,2.41-2.31,4.6-2.13,7.3-.46.44-1.12.81-1.34,1.36a3.8,3.8,0,0,1-4,2.52c-1,0-2.24.14-2.35,1.63h0c-1,.24-2.05.43-3.06.73a4.81,4.81,0,0,0-1.94.85,8.69,8.69,0,0,1-3.79,2.54C148.33,144.36,148.12,144.87,147.86,145.18Z"/><path class="cls-12" d="M157.67,129.62c2,.36,2.55-1.15,3.34-2.41a8.56,8.56,0,0,1,5.34-4c.27-.06.63.24,1,.38a6.36,6.36,0,0,0-3.64,4.17,9.56,9.56,0,0,1-5,5.91,7.48,7.48,0,0,0-3.12,3.28,9.16,9.16,0,0,1-2.12,2.69c-1.53,1.24-3.23,2.26-4.88,3.35a9.59,9.59,0,0,1-1.16.57l0,0c.26-.33.51-.66.78-1,.67-.76,1.75-1.41,2-2.29a8,8,0,0,1,3.69-5.1A8.66,8.66,0,0,0,157.67,129.62Z"/><path class="cls-12" d="M174.54,134.4a1.74,1.74,0,0,1-.8,2.42c-1.16.73-2.25,1.57-3.43,2.26a1.59,1.59,0,0,0-.86,1.79l0,0c-.35.16-.82.22-1,.49-1,1.19-2.27.92-3.54.89a6.71,6.71,0,0,0-2.19.24c-.93.31-1.78.86-2.7,1.24a15,15,0,0,1-6.1,1,16.16,16.16,0,0,0,3.26-1.55,7.94,7.94,0,0,1,4.28-1.84,5.85,5.85,0,0,0,4-2c1.14-1.3,2.34-2.52,4.25-2.63a4.89,4.89,0,0,0,3.2-1.67C173.23,134.63,174,134.59,174.54,134.4Z"/><path class="cls-12" d="M165.35,135.12a7.76,7.76,0,0,0,2.23-.2,21.4,21.4,0,0,0,2.87-1.61,3.17,3.17,0,0,1,3.8.6c-.63.27-1.28.49-1.88.81s-1.38,1.17-2.1,1.23a7.58,7.58,0,0,0-5.17,2.88,5.33,5.33,0,0,1-4.06,2,4.76,4.76,0,0,0-3.58,1.37,7,7,0,0,1-6.31,1.7c1.13-1.56,2.29-2.9,4.49-2.58a1.46,1.46,0,0,0,1.8-1.17h0a11.5,11.5,0,0,1,2.9-1c2.15-.13,3.28-1.34,4.11-3.11C164.62,135.65,165,135.41,165.35,135.12Z"/><path class="cls-3" d="M116.41,145c-.89-.52-1.79-1-2.65-1.58-1.25-.8-2.46-1.65-3.69-2.47a6,6,0,0,0-.63-.29l-.26-.24-.46-1.67,3.21.88,1.11.32h0l.24.24h0c.61,1.32,3.34,2.69,5.2,2.35a7.06,7.06,0,0,1,5.12.77h0a2,2,0,0,0,2.07,1.44l3.47,0c-.28.22-.56.62-.83.62-1.37,0-2.74-.15-4.11-.18-1.94,0-3.89,0-5.83,0a7.8,7.8,0,0,1-1.25-.22h-.71Z"/><path class="cls-3" d="M169.45,140.87a23.42,23.42,0,0,1,3.37.53,5.17,5.17,0,0,1,2.49,1.29c.86,1-.05,2.25-1.59,2.27-2.87,0-5.74,0-8.61,0-2.07,0-4.13.13-6.19.18-.09,0-.19-.13-.28-.2a40.47,40.47,0,0,1,4-1.8,6.25,6.25,0,0,1,2.68-.28,3.73,3.73,0,0,0,4.12-2Z"/><path class="cls-9" d="M147.15,117.15l-.24.46a7.09,7.09,0,0,0-1.25.56,1,1,0,0,0-.25.78c.11.56.41,1.09.49,1.66.2,1.29.3,2.59.45,3.89.18,1.6,1.13,3.18.14,4.83-.08.13.26.5.4.76l-.23.48c-.25.26-.65.49-.71.79a12.53,12.53,0,0,0,0,1.94l-.46.07a6.37,6.37,0,0,1-.47-1.81c.1-3.15.18-6.32.53-9.45a4,4,0,0,0-.87-2.61,7.35,7.35,0,0,1-1.2-2.87c-.1-.67-.22-1.61-1.35-1.43.07-1.37.14-2.73.2-4.1l.41.05-.4-.27c.08-.16.15-.33.23-.49l1.22.25c.47,1.44.91,2.9,1.43,4.32.1.28.45.47.69.7C145.87,116.53,146.15,117.14,147.15,117.15Z"/><path class="cls-11" d="M169.42,140.9a3.73,3.73,0,0,1-4.12,2,6.25,6.25,0,0,0-2.68.28,40.47,40.47,0,0,0-4,1.8l-7.92.24h-.48l-2.38,0c.26-.31.47-.82.79-.9a8.69,8.69,0,0,0,3.79-2.54,4.81,4.81,0,0,1,1.94-.85c1-.3,2-.49,3.06-.73a1.46,1.46,0,0,1-1.8,1.17c-2.2-.32-3.36,1-4.49,2.58a7,7,0,0,0,6.31-1.7,4.76,4.76,0,0,1,3.58-1.37,5.33,5.33,0,0,0,4.06-2,7.58,7.58,0,0,1,5.17-2.88c.72-.06,1.38-.85,2.1-1.23s1.25-.54,1.88-.81l.29.49c-.58.19-1.31.23-1.69.61a4.89,4.89,0,0,1-3.2,1.67c-1.91.11-3.11,1.33-4.25,2.63a5.85,5.85,0,0,1-4,2,7.94,7.94,0,0,0-4.28,1.84,16.16,16.16,0,0,1-3.26,1.55,15,15,0,0,0,6.1-1c.92-.38,1.77-.93,2.7-1.24a6.71,6.71,0,0,1,2.19-.24c1.27,0,2.55.3,3.54-.89C168.6,141.12,169.07,141.06,169.42,140.9Z"/><path class="cls-13" d="M49.42,53.75a6.47,6.47,0,0,0,1.95,4.62c2.1,2.35,4.41,4.53,6.7,6.69a1.6,1.6,0,0,0,1.56.14c2.9-2.48,5.77-5,7.87-8.25,1.74-2.72,1.12-6.73-1.07-8.34-1.59-1.17-3.36-1-5.13-.42l-.22.1c-1.71,1.15-3.33.67-4.92-.29l.48-.48c1.42.88,2.72.72,4.34.2,4.53-1.44,7.5.07,8.13,4.9.33,2.54-.91,4.55-2.33,6.47a39.3,39.3,0,0,1-7.28,7,1.11,1.11,0,0,1-1,.13c-3.13-2.76-6.58-5.23-8.63-9a26.34,26.34,0,0,1-1.14-2.74Z"/><path class="cls-11" d="M157.67,129.62a8.66,8.66,0,0,1-3.89,5.52,8,8,0,0,0-3.69,5.1c-.21.88-1.29,1.53-2,2.29-.27.32-.52.65-.78,1l-.48.48-.09.11.11-.09.48-.48a9.59,9.59,0,0,0,1.16-.57c1.65-1.09,3.35-2.11,4.88-3.35a9.16,9.16,0,0,0,2.12-2.69,7.48,7.48,0,0,1,3.12-3.28,9.56,9.56,0,0,0,5-5.91,6.36,6.36,0,0,1,3.64-4.17l.67.5c-2.41.38-3.24,2.34-3.94,4.23a9.36,9.36,0,0,1-4.9,5.7,7.55,7.55,0,0,0-3.52,3.85,6.4,6.4,0,0,1-3.68,3.31,10.6,10.6,0,0,0-2.71,2.09c-.64.54-1.24,1.14-1.86,1.71l-1.19.23-.26-.19-.49,0a20.69,20.69,0,0,1,2.46-2.95,5.62,5.62,0,0,0,2.17-3.27,4.71,4.71,0,0,1,2.18-3.24,11.6,11.6,0,0,0,5-5.91Z"/><path class="cls-14" d="M65.28,76.34h-20l-.43,1.18-.24-1.68H68.21c.48,0,1,0,1.44,0l16.75.06v.46l-13.17,0h-.55c-.92,0-1.83,0-2.75,0s-1.2.42-1.08,1.36h3.84v.59l-2-.06c-2.09,0-2.24.17-2,2.38,1.18,0,2.36,0,3.55,0,.19,0,.37-.28.56-.44l.23,1-.27,0H67.92l-.23-2.41v-.23l.21-.72c0-.32,0-.65,0-1-.21-.16-.42-.43-.64-.45C66.6,76.29,65.94,76.34,65.28,76.34Z"/><path class="cls-11" d="M135.84,142.82a21,21,0,0,0-3-.73,3.45,3.45,0,0,1-2.91-2.52,3.59,3.59,0,0,0-2.86-2.25,5,5,0,0,1-4.35-3.84c-.48-1.89-2.06-2.65-3.74-3.15-2.38-.7-4.57-1.67-6-3.8a8.2,8.2,0,0,1-.68-1.73h0l1.44,1.8c1.47,1.85,3.53,2.64,5.71,3.26a5.47,5.47,0,0,1,4,3.71,4.21,4.21,0,0,0,3.71,3.21,3.78,3.78,0,0,1,3.36,2.79,2.48,2.48,0,0,0,2.12,1.84,14.27,14.27,0,0,1,3,.77c.69.28,1.19,1.06,1.89,1.31a22.71,22.71,0,0,0,3.31.75h0l.23.77-.47,0c-.34-.16-.69-.46-1-.45A4.17,4.17,0,0,1,135.84,142.82Z"/><path class="cls-15" d="M48.42,85.46c-.31-2.08.43-4,1-5.87l.37-.11a37.82,37.82,0,0,1,1.81,3.81c.61,1.77.11,2.84-1.46,3.81l-.21,0-.43,0-.27-.29L49,86.62v0c-.17-.31-.33-.62-.49-.93A1.8,1.8,0,0,0,48.42,85.46Z"/><path class="cls-13" d="M153.12,76.09q-12.63,0-25.26,0c-.4,0-.79,0-1.19,0l-.67-.07v-.46l.21,0H153.1C153.11,75.75,153.11,75.92,153.12,76.09Z"/><path class="cls-13" d="M116,56.42c0-2.49.09-5,.13-7.45l.49.71c0,1.67,0,1.67,1.45,1.68l.47.48a7.53,7.53,0,0,1-1,0c-.93-.12-1,.43-1,1.15s0,1.34,1,1.26,2.06,0,3.08,0v.49h-4l-.35,2.39h2c2.39,0,2.39,0,2.38-2.39h.48v6.72l-.49-.95h0V57.65h-2.45l-.9-.09L116,57.11C116,56.88,116,56.65,116,56.42Z"/><path class="cls-13" d="M127.21,78.48c6.69,0,13.39,0,20.08,0,1.36,0,2.63.59,2.45,2.18h-.46c-.33-1.43-1.27-1.72-2.65-1.7-6.42.08-12.83.06-19.25.07Z"/><path class="cls-11" d="M122.17,138.73a5.57,5.57,0,0,1,4.1,2.3c.94,1.41,2.53,1.08,3.84,1.51.84.27,1.62.75,2.45,1.06s1.87.58,2.8.86l3.89.34-1,.39-3.84-.25-.51-.18h-.68a6.35,6.35,0,0,0-4.46-1.92,3.6,3.6,0,0,1-2.85-1.45,4.87,4.87,0,0,0-4-1.94Z"/><path class="cls-8" d="M120.71,54.23c-1,0-2,0-3.08,0s-1-.55-1-1.26.06-1.27,1-1.15a7.53,7.53,0,0,0,1,0C119.46,52.47,120.88,52.64,120.71,54.23Z"/><path class="cls-14" d="M147.84,104.39H131.11v-.44h16.73Z"/><path class="cls-11" d="M165.35,135.12c-.31.29-.73.53-.9.89-.83,1.77-2,3-4.11,3.11a11.5,11.5,0,0,0-2.9,1c.11-1.49,1.36-1.63,2.35-1.63a3.8,3.8,0,0,0,4-2.52c.22-.55.88-.92,1.34-1.36Z"/><path class="cls-11" d="M129.14,144.76l-3.47,0a2,2,0,0,1-2.07-1.44c1.92,1.26,4.11.84,6.21,1a10.78,10.78,0,0,1,2.65.9l-1.9-.22h-.25Z"/><path class="cls-12" d="M138.24,145.19l1-.39-3.89-.34.48-1.64a4.17,4.17,0,0,0,3.76,1.69c.35,0,.7.29,1,.45Z"/><path class="cls-16" d="M118.09,51.36c-1.46,0-1.46,0-1.45-1.68Z"/><path class="cls-14" d="M44.61,61.43c-.23.8-.47,1.6-.71,2.4C43.37,62.26,43.57,61.59,44.61,61.43Z"/><path class="cls-14" d="M43.64,66.24l-.2,2.88C43.17,68.14,42.79,67.14,43.64,66.24Z"/><path class="cls-14" d="M45.6,58.8c-.24.56-.48,1.12-.73,1.68C44.38,59.6,44.65,59.05,45.6,58.8Z"/><path class="cls-3" d="M141.11,145l-.23-.77,1.2.71Z"/><path class="cls-14" d="M43.92,73c.08.48.17,1,.25,1.44C43.54,74,43.52,73.53,43.92,73Z"/><path class="cls-17" d="M48.5,85.67c.16.31.32.62.49.93C48.82,86.29,48.66,86,48.5,85.67Z"/><path class="cls-14" d="M43.88,64.55c-.07.24-.15.48-.22.72C43.73,65,43.81,64.79,43.88,64.55Z"/><path class="cls-13" d="M149.76,99.12H150l-.24.61-.2-.08Z"/><path class="cls-12" d="M150.24,145.2h0Z"/><path class="cls-14" d="M44.17,74.86l.43.51Z"/><path class="cls-14" d="M43.67,71.52c.08.16.15.32.22.49C43.82,71.84,43.75,71.68,43.67,71.52Z"/><path class="cls-12" d="M121.69,54.23l-.47,0c0-.13.11-.26.16-.38Z"/><path class="cls-9" d="M133.89,144.76l.51.18Z"/><path class="cls-14" d="M46,58.32l-.2.23Z"/><path class="cls-7" d="M107.8,40.55a.17.17,0,0,1,0-.22.8.8,0,0,1,.08.16S107.83,40.53,107.8,40.55Z"/><path class="cls-17" d="M49,86.62l.23.17-.25.06A.36.36,0,0,1,49,86.62Z"/><path class="cls-4" d="M116.87,145h0Z"/><path class="cls-3" d="M130.31,145h0Z"/><path class="cls-9" d="M145.91,145l.26.19Z"/><path class="cls-18" d="M73.23,76.35l13.17,0h4.69l0-.45-1.35.07.42-.79-2.06.2h0c-.69-.26-1.44-.73-1.67.5l-16.75-.06c.7-2.14,1.4-4.29,2.11-6.43A3,3,0,0,1,72,70.47c-.23,1.17-.55,2.31-.89,3.67,1.21-.08,2.37-.11,3.52-.23.85-.09,2,.5,2.43-.82,0-.13.59-.12.9-.12,2.07,0,4.15,0,6.23,0,1,0,1.16-.27,1.34-1.23.33-1.72-1-3-.92-4.56s-.06-3.44-.09-5.17a.49.49,0,0,1,0-.12c.15-1.43.31-2.86.46-4.3l.37-.29-.08-.08L85,57.6c-.16-.47-.31-.94-.48-1.4s-.25-.91-.42-.92a2,2,0,0,0-1.13.37c-.43.26-.9,1-1.17.89-1-.3-1.41.46-2.07.79a5.33,5.33,0,0,1-1,.26c1.47-1.83,3.68-2.37,5.68-3.26a16.54,16.54,0,0,1,1.68-.56l.33.44c-.23,1.6-.52,3.2-.67,4.81-.2,2.1-.22,4.21-.46,6.29-.14,1.21-.13,2.21,1.11,2.79-.09,1.84-.15,3.68-.28,5.51,0,.66.12,1.34.76,1.12,1-.33,2.14.78,2.89-.48,0,0,0-.08,0-.12.32-2.17.63-4.34.95-6.51a5.54,5.54,0,0,0,.48-1.4c.06-2,0-4,0-6.07a1.89,1.89,0,0,1,.09-.93c.81-1.28,1.69-2.52,2.54-3.78l1.41,1.48a2.11,2.11,0,0,0-.34.48c-.23.92-.43,1.82-1.69,1.77,0,0-.22.72-.08.95a2.88,2.88,0,0,0,3.13,1.19,6.53,6.53,0,0,1,2.29,0,3.14,3.14,0,0,0,3.06-1.13c.15-.26,0-.69,0-1-1.22,0-1.61-.72-1.76-1.77,0-.14-.38-.23-.58-.34.49-.53,1-1,1.49-1.57l1.17.67c.29.85.6,1.69.89,2.54.38,1.12,1,1.52,1.93.43a8.72,8.72,0,0,1,.24,1.28c0,1.87,0,3.74.06,5.61a9.36,9.36,0,0,0,.27,1.46c.5,2.38,1,4.75,1.49,7.13l-.3.74-.52.24c-1,0-1,0-.92.56l.7.2a6.71,6.71,0,0,1-1.27.41c-.1,0-.35-.43-.4-.69a1.23,1.23,0,0,0-1.45-1.17l1-2.38-3.66,2.75,1,.59.59,1.52a13.11,13.11,0,0,1,1.92.63,7.39,7.39,0,0,1-.35,1.21.81.81,0,0,0-.22,0,4.24,4.24,0,0,0-1.1-.52,1.13,1.13,0,0,1-1.11-1.14c-.14-1.32-.7-1.61-2-1.4a7.92,7.92,0,0,1-2.57,0c-1.3-.22-1.82.11-2.12,1.37-.11.43-.62,1.08-1,1.08-1.25,0-1.29.6-.91,1.51-.22.2-.4.48-.65.58-.65.27-1.33.46-2,.68l-.48.48-.48,1a1.77,1.77,0,0,1,0,.23l-.23.73.23,1v.42L87.36,85V83.42h-.48V85h-.47c0-.2,0-.4,0-.6a2.79,2.79,0,0,0-1.86-2.76,2.66,2.66,0,0,0-3.2,1.63A6.15,6.15,0,0,0,81.11,85h-.46V83.26l-.73,2.18-1.2.72h-.24l-.66-.6.9-2.76.09-.06a1,1,0,0,0-.09-.18h0l-.48-.48h0L78,81.6h-.72l-.48-.23a1.26,1.26,0,0,0-1.92.47h0l-.95.25a5.63,5.63,0,0,1-.47-1.38c-.12-1.3-.15-2.6-.22-3.89Zm7.65,6.21.43-.51-.3-.11-.13.62-.06.1Zm19.08-8a20.25,20.25,0,0,0,2.51-1.76c.52-.49.17-1-.52-1-.94,0-1.3-.51-1.43-1.41s-.79-1.25-1.83-1a6.53,6.53,0,0,1-2.53,0c-1-.21-1.66,0-1.81,1.08a1.36,1.36,0,0,1-1.45,1.37c-.83.06-.89.55-.43,1.16a3.77,3.77,0,0,0,3.94,1.21,6.65,6.65,0,0,1,2.09,0A8.84,8.84,0,0,1,100,74.53Zm-4-11.43-.28-.46a5,5,0,0,0-1,1.26c-.25.63-.43,1.11-1.23,1.23s-1,.72-.36,1.34a3.12,3.12,0,0,0,3.33,1,5,5,0,0,1,2.3,0A3.3,3.3,0,0,0,102,66.32c.43-.62.33-1.08-.46-1.18a1.23,1.23,0,0,1-1.25-1.29c-.07-.82-.65-1-1.37-1Zm-22,17.67c.45-.22.75-.3.76-.39.07-1.1.11-2.2.11-3.29,0-.09-.35-.28-.46-.23a.71.71,0,0,0-.39.48C73.91,78.4,73.93,79.46,73.93,80.77Zm11.53.42c-1.19-1-2.2-.28-3.21,0Zm1.28,1.7.05-.16-.09,0Z"/><path class="cls-19" d="M85,57.6c-.15,1.44-.31,2.87-.46,4.3a.49.49,0,0,0,0,.12c0,1.73.13,3.45.09,5.17s1.25,2.84.92,4.56c-.18,1-.38,1.26-1.34,1.23-2.08-.06-4.16,0-6.23,0-.31,0-.85,0-.9.12-.48,1.32-1.58.73-2.43.82-1.15.12-2.31.15-3.52.23.34-1.36.66-2.5.89-3.67a3,3,0,0,0-.21-1.11l.2-.25c.17-.14.4-.23.5-.4.49-.87.5-2.09,1.82-2.35.13,0,.26-.61.2-.89a3.28,3.28,0,0,1,.58-2.58c.67-1.07,1.16-2.26,1.73-3.39l1.91-1.91a5.33,5.33,0,0,0,1-.26c.66-.33,1.09-1.09,2.07-.79.27.08.74-.63,1.17-.89a2,2,0,0,1,1.13-.37c.17,0,.29.59.42.92s.32.93.48,1.4ZM74.87,65l.36.36.65-.64-.36-.36Zm1.52-1.27h.28l0-.69-.27,0Z"/><path class="cls-20" d="M86.39,54.21l-.33-.44c-.22-1.92,0-2.34,1.23-2.51a9.43,9.43,0,0,1,1.41-2.08,1.49,1.49,0,0,1,1.47.16c.31.41.21,1.12.28,1.7-.4.65-.8,1.3-1.21,1.94C88.71,54.36,87.59,54.38,86.39,54.21Z"/><path class="cls-18" d="M76.79,59.5c-.57,1.13-1.06,2.32-1.73,3.39a3.28,3.28,0,0,0-.58,2.58c.06.28-.07.87-.2.89-1.32.26-1.33,1.48-1.82,2.35-.1.17-.33.26-.5.4,1.05-2.51,2.05-5,3.18-7.51A10.89,10.89,0,0,1,76.79,59.5Z"/><path class="cls-15" d="M49.18,111.33c2.53-4.84,7.61-7.54,12.13-6.39-3.31,3-6.63,5.87-10.74,7.64a4.4,4.4,0,0,1-1.16.2l-.69.26c-1.64.42-3-.4-4.33-1.11-1.09-.57-2.08-1.32-3.11-2l-3.65-3.63.1-.32,5,.57.48.17.48.11c2.11,1,3.45,2.75,4.81,4.5C48.73,111.72,49,112.13,49.18,111.33Z"/><path class="cls-15" d="M49.16,103.29l-.61,0-1,.33-1.87-.5c-1.26-1.37-2.53-2.73-3.79-4.11-.5-.56-1-1.14-1.49-1.74,2.8-.14,4.92,1.31,6.89,3.1l.22.21.26.28c.25.54.51.58.76,0l.51-.54h0c.76-.57,1.49-1.19,2.29-1.71a10.87,10.87,0,0,1,7.07-1.54c-2.94,2.3-5.08,5.21-8.64,6.15Z"/><path class="cls-15" d="M50.92,89.82a10.74,10.74,0,0,1,7.25-2.75c-2.33,2.55-4.2,5.45-7.26,7.15l-2.16-.11-.26,0L48.27,94l-.29.07a7.09,7.09,0,0,1-1.83-1c-1.43-1.42-2.75-2.94-4.06-4.38a6.23,6.23,0,0,1,6.42,3.17c.46.58.7.26.92-.21Z"/><path class="cls-21" d="M45.63,103.14l1.87.5c.19.29.52.57.56.88.18,1.6.3,3.2.4,4.81,0,.67,0,1.35,0,2-1.36-1.75-2.7-3.54-4.81-4.5L45.39,105A1.3,1.3,0,0,0,45.63,103.14Z"/><path class="cls-17" d="M48.49,94.07l.26,0q-.14,3.11-.25,6.21l0,.56c-.25.58-.51.54-.76,0,.16-1.16.34-2.31.47-3.47S48.39,95.18,48.49,94.07Z"/><path class="cls-17" d="M49.43,91.66c-.22.47-.46.79-.92.21l1-4.79.43,0c-.19,1-.41,1.9-.54,2.86A10.38,10.38,0,0,0,49.43,91.66Z"/><path class="cls-1" d="M47.53,88.79l.93.46-.54.8-.34-.11-.07-1.13Z"/><path class="cls-1" d="M47.51,88.81l-.36-.3.08-.08.3.36Z"/><path class="cls-21" d="M43.19,106.74l-.48-.17Z"/><path class="cls-17" d="M47.46,100.6l-.22-.21Z"/><path class="cls-17" d="M48,94.05l.29-.07Z"/><path class="cls-22" d="M108.72,138.72c.15.56.31,1.11.46,1.67H55.68c-1.53.25-2.71-.59-4-1.24a8.1,8.1,0,0,1-2.53-5c0-.82,0-1.65,0-2.48a.29.29,0,0,1,.1-.16c.07-1.28.18-2.56.2-3.85a4.23,4.23,0,0,1,1.3-3.49c.12-.1.11-.36.15-.55L54,121.88l4.22,0,4.62-.23,3.95.27h.67l5.07,0h1l.47,0,1-.19h6.24l1.2.21.72-.17c.74,0,1.48-.08,2.21-.1.29,0,.59.1.88.08.72,0,1.45-.15,2.17-.23.81.82,1.69.27,2.68.33-1.17-1.77-1-2.07.75-2.34a1.56,1.56,0,0,0,1.4-1.65c.12-1.35.72-1.81,2.07-1.7,1.06.08,2.13.18,3.2.28a11.54,11.54,0,0,1,1.52-.27c1-.07,1.77.37,1.81,1.45,0,1.37.67,2,2,1.91.94,0,1,.61.79,1.32a5.47,5.47,0,0,1-.71,1.08h3.66l3.93-.17h.66l1,.12h.09l2,0,7.68.11.72,2.17H56.5a2.09,2.09,0,0,0-.71,0c-1,.35-2.29.15-2.75,1.47l-.71.38-.25.29h0l-.24.49h0l-.24.49h0c-.14.31-.41.63-.41,1,0,2-.07,4.11,0,6.16,0,.36.43.7.66,1.05h0a3,3,0,0,0,2.46,2.34,22.2,22.2,0,0,0,4.6.51q23,0,45.89,0c1.15,0,2.3-.14,3.45-.22l.23.24Z"/><path class="cls-15" d="M49.24,131.53a.29.29,0,0,0-.1.16,13.4,13.4,0,0,1-9-4,9.9,9.9,0,0,1,6.22-1.15c2.81.31,2.8.36,2.79,3.17C49.2,130.33,49.23,130.93,49.24,131.53Z"/><path class="cls-15" d="M49,123.35c-3.56-.29-6.24-2.18-8.55-4.72-.5-.55-.92-1.18-1.63-2.09a14.25,14.25,0,0,1,3-.29,12.35,12.35,0,0,1,7.92,4,.87.87,0,0,0,0,.23,4.88,4.88,0,0,1-1.08-.59c-1.3-1.21-2.72-1.11-4,.52l1.42.44c.18,1.34.75,1.86,2.25,2.06C48.51,122.93,48.73,123.19,49,123.35Z"/><path class="cls-15" d="M49.19,134.17a8.1,8.1,0,0,0,2.53,5c-3.36-.76-5.32-3.15-6.87-6.11Z"/><path class="cls-16" d="M55.68,140.4h53.5l.26.24H56.93A6.86,6.86,0,0,1,55.68,140.4Z"/><path class="cls-23" d="M49,123.35c-.23-.16-.45-.42-.69-.45-1.5-.2-2.07-.72-2.25-2.06l-1.42-.44c1.29-1.63,2.71-1.73,4-.52a4.88,4.88,0,0,0,1.08.59l.46,0c-.61.95.16,1.28.76,1.67l-.49.25-.44-.05.44.49.11.31-1.14.22Zm-1.23-3.29c-.88.45-.77.94-.15,1.45a3,3,0,0,0,.79.51,4.64,4.64,0,0,0,1,.15c-.11-.4-.1-.91-.34-1.19A5.93,5.93,0,0,0,47.73,120.06Z"/><path class="cls-24" d="M50.15,120.51l-.46,0a.87.87,0,0,1,0-.23c.21-.23.64-.5.61-.68-.41-2-.88-4.08-1.34-6.11a2.12,2.12,0,0,0-.23-.41l.69-.26c.49,2.43,1,4.87,1.49,7.3,0,.07.25.08.39.12l-.52,1.34Z"/><path class="cls-25" d="M50.42,122.43l.49-.25.46-.24,1.92-.49h0l.76.07-.1.36-3.06,1.76-1.5-.24,1.14-.22a2.83,2.83,0,0,1-.11-.31Z"/><path class="cls-26" d="M67.41,121.87h-.67L65,121.52c-.08-.93-.2-1.88-.22-2.82,0-2,0-4.07,0-6.11a7.75,7.75,0,0,0-.24-1.24v-.68c.16-1.48.34-3,.49-4.44.54-5.37,1.06-10.74,1.61-16.1.15-1.46.36-2.91.59-4.36a8,8,0,0,1,.44-1.33l.23,0h0c0,2.39,0,4.79,0,7.19,0,1.7,0,3.4,0,5.11,0,4.64-.12,9.28-.16,13.93,0,1.42,0,2.84,0,4.26v2.63l.14,1.46v1.61Z"/><path class="cls-23" d="M64.54,110.67v.68c-1.74,3.15-4.37,5.49-7.1,7.72-.4.09-.86.35-1.19.24a2.54,2.54,0,0,0-3.14,1c-.13.17-.6.19-.87.12s-.33-.37-.39-.6a3.73,3.73,0,0,1,0-.82l1.65-2.47a1.55,1.55,0,0,0,.22.12v-.3h0a1.26,1.26,0,0,0,1.21-1.21h0l.3-.41a16.32,16.32,0,0,1,8.28-3.89Z"/><path class="cls-21" d="M62.4,81.84h-.48a2.16,2.16,0,0,1,3.24-.75q.18-1.17.36-2.37h0v6.82c.8-2.22.34-4.54.48-6.82h0c.24.19.68.38.68.57,0,2.21,0,4.41-.08,6.62,0,.53-.09,1.07-.14,1.6h-.31l0-.61a7.11,7.11,0,0,1-2.14.58,2.94,2.94,0,0,1-1.76-.84,3.37,3.37,0,0,1,.08-4.45c.08-.08.08-.23.11-.34l.31-.09-.06-.09Zm.48,1.44a1.46,1.46,0,0,0-.21,1.9l.21-1.9.06-.1Zm.72,3v.1h1v-.1Zm2.48-.43c.07-.12.14-.19.13-.23s-.11-.08-.17-.12Z"/><path class="cls-15" d="M51.82,119a3.73,3.73,0,0,0,0,.82c.06.23.21.56.39.6s.74,0,.87-.12a2.54,2.54,0,0,1,3.14-1c.33.11.79-.15,1.18-.24l-1.76,1.41v-.06l-.12-1.11-.82,1.2-.47.46-1,.48h0c-.64.18-1.62-1-1.92.49l-.46.24c-.6-.39-1.37-.72-.76-1.67.15.26.3.51.62,1l.52-1.34Zm2.11,1.1-.08.2c.06,0,.15.09.19.08s.07-.13.09-.19Z"/><path class="cls-12" d="M48.5,100.32q.12-3.1.25-6.21l2.16.11,0,.34H49.8c-.27,1.39-.52,2.51-.69,3.65,0,.27.2.59.31.89-.15.42-.29.83-.43,1.25h0Z"/><path class="cls-13" d="M49.43,91.66a10.38,10.38,0,0,1,0-1.67c.13-1,.35-1.91.54-2.86l.21,0c1.06.68.64,1.78.78,2.72C50.42,90.43,49.92,91,49.43,91.66Z"/><path class="cls-14" d="M49.42,99.1c-.11-.3-.35-.62-.31-.89.17-1.14.42-2.26.69-3.65h1.08c-.32,1-.63,2.08-1,3.11C49.77,98.15,49.58,98.62,49.42,99.1Z"/><path class="cls-21" d="M67.9,84.49l-.23,0c-.91-1.78-.37-3.67-.36-5.51,0-.07.24-.14.38-.21.07.8.15,1.6.23,2.41C67.91,82.25,67.9,83.37,67.9,84.49Z"/><path class="cls-24" d="M48.48,111.35c0-.67,0-1.35,0-2-.1-1.61-.22-3.21-.4-4.81,0-.31-.37-.59-.56-.88l1-.33.63,8C49,112.13,48.73,111.72,48.48,111.35Z"/><path class="cls-21" d="M65.28,76.34c.66,0,1.32,0,2,0,.22,0,.43.29.64.45l-.74,0L66,78.72h-.48A2.2,2.2,0,0,0,65.28,76.34Z"/><path class="cls-15" d="M54.92,115.15a1.26,1.26,0,0,1-1.21,1.21Z"/><path class="cls-21" d="M67.9,77.77l-.21.72Z"/><path class="cls-21" d="M61.92,81.84l-.31.34L61.5,82l.42-.19Z"/><path class="cls-15" d="M53.7,116.35v.3a1.55,1.55,0,0,1-.22-.12Z"/><path class="cls-15" d="M55.21,114.75l-.3.41Z"/><path class="cls-24" d="M49.16,103.29l.55,0Z"/><path class="cls-23" d="M140,71.45c-2.16-1.58-4.17-3.25-5.32-5.72a3.41,3.41,0,0,1,.67-4,2.82,2.82,0,0,1,3.33-.47,3.06,3.06,0,0,0,2.41,0,3,3,0,0,1,3.55.53,4,4,0,0,1,.38,4.29C143.89,68.33,142,69.83,140,71.45Z"/><path class="cls-12" d="M105.14,76.13c-.12-.54-.12-.54.92-.56l3.61,0a1.07,1.07,0,0,1,.36-.14l5.87-.1.09-.26s.07,0,.06-.07a.94.94,0,0,0-.06-.15V71.76s.06-.06.06-.07a1.22,1.22,0,0,0-.07-.17l0-1.93s.06,0,.06-.07a.94.94,0,0,0-.06-.15V66s0,0,0-.07a.94.94,0,0,0-.06-.15l0-1.93v-.48l.06-.25.12-.29L116,58.31s0-.05,0-.07a.88.88,0,0,0,0-.15l0-1,1.34.45c-1.57.4-.39,1.5-.84,2.39l3.48-.42.71.23c0,.24,0,.49,0,.73l-2.5,0c-1.79,0-2,.33-1.36,2.12h3.86V60.49l.49.95.48.71c-.15.23-.42.44-.44.67a19.09,19.09,0,0,0,0,2v1.91l0,8.15,0,.46a7,7,0,0,0,1.08.24c1.22,0,2.43,0,3.65,0v.46l-10.79.06h-.71l-1.28,0-2.35.16-.44,0Zm15.46-13c-1.2,0-2.34,0-3.48,0-.24,0-.59.38-.65.64-.25,1.15.21,1.68,1.37,1.69H119c1.82,0,1.82,0,1.7-1.84A5.29,5.29,0,0,0,120.6,63.15Zm-3.95,2.94c.14.85-.65,2,.69,2.21a17.19,17.19,0,0,0,3.29,0V66.09Zm4.08,5a7.18,7.18,0,0,0,0-1.51c-.06-.26-.38-.63-.6-.64-1.18-.07-2.36,0-3.63,0,.1.92-.51,2,.78,2.15A26.59,26.59,0,0,0,120.73,71.06Zm-.1,2.79c.24-2.12.24-2.12-1.74-2.11h-2.22l-.22,2.11Zm-2.08,1.73h0a13.27,13.27,0,0,0,1.67,0,.69.69,0,0,0,.47-.51c0-.19-.24-.57-.39-.58a31,31,0,0,0-3.34,0c-.19,0-.42.4-.5.65,0,.1.33.41.53.44A13.51,13.51,0,0,0,118.55,75.58Z"/><path class="cls-27" d="M121.26,65.29v-.47l1.41.44c1,2.61,2,5.21,3,7.82a4.05,4.05,0,0,1,.12,1.06c0,.38-.07.76-.11,1.2h-4.4l0-.46a4.18,4.18,0,0,0,.54-1.29c0-.55-.29-1.11-.32-1.67-.1-1.73-.14-3.46-.2-5.19,0-.17,0-.33,0-.5C121.27,65.91,121.26,65.6,121.26,65.29Z"/><path class="cls-3" d="M126.44,61.4c-.49-.71,0-2.26-1.66-1.93l-.55,1,.59,1.3c-1.33-.15-1.3-.92-1.06-1.82s.85-1.33,1.95-1.09C126.47,59,126.82,60,126.44,61.4Z"/><path class="cls-28" d="M122.67,65.26l-1.41-.44a19.09,19.09,0,0,1,0-2c0-.23.29-.44.44-.67Z"/><path class="cls-28" d="M121.27,75.34h4.4c0-.44.07-.82.11-1.2.14.47.29,1,.43,1.43l-.21,0c-1.22,0-2.43,0-3.65,0A7,7,0,0,1,121.27,75.34Z"/><path class="cls-27" d="M131.11,103.94v.44c.13,3.74.27,7.48.38,11.22a9.64,9.64,0,0,1-.2,1.5c-1-1.71-1.9-3.5-3.06-5.09a11.22,11.22,0,0,0-6.51-4.76,72.26,72.26,0,0,0-3-13,47.19,47.19,0,0,0-1.79,5.3c-.76,2.84-1.56,5.68-2.1,8.57-.39,2.14-.38,4.35-.57,6.53a1.92,1.92,0,0,1-.28.62c-.05,1.55-.11,3.09-.14,4.64,0,1.77-.06,1.82-1.78,1.47l-.22-1.15c-.17-1.51-.35-3-.53-4.54,0-.07.07-.13.1-.2.94-.37,1-1.24.93-2-.06-1.36-.3-2.71-.47-4.06.31-2.56-.54-5.12.14-7.7.17-.68-.39-1.55-.61-2.33l-.48-.49-.45-.68c.31-.5.82-1,.87-1.51a2.45,2.45,0,0,0-.63-1.62,1.51,1.51,0,0,0-2.06,0c-.26.2-.16.88-.23,1.34-.62,1.13.59,1.65.83,2.49l-1.66.32H107l-1.41-1.25-.22-.25-.26-.25-.56-.4-.4.15-.48-1.37-.53-1.35-1.44-.37-.36.06c.13-1.17.16-2.28-1.51-2.23-.31-1.14-1.36-1-2.16-1.21l.65-.93-1.09-.31v.39l-2.67.59a14.88,14.88,0,0,1-1.2,2.08A13.72,13.72,0,0,1,91.63,94c-.35-.47-1.2-.92-.22-1.48A7.69,7.69,0,0,1,91,91.11c-.12-1.08-.17-2.18-.24-3.27a1.64,1.64,0,0,1,0-.23v-.48l1,0h.21l0,.26c-.42,1.1.25,1.33,1.13,1.38s1.71.64,2.37.4a6.42,6.42,0,0,1,4.47.12c.22.14.47.43.67.4a3.15,3.15,0,0,0,1.4-.47,5.79,5.79,0,0,0,1.65-1.66c.21-.37,0-1.41-.25-1.53a1.26,1.26,0,0,1-.71-1.84c.16-.39.88-.55,1.35-.81l.15.21.3-1,.48-.24c0,1.11-.06,2.22,0,3.31,0,.36.45.67.69,1,0,.07,0,.15,0,.23a2.18,2.18,0,0,0,3.35,1c.41-.12,1.24.3,1-.73l.48-.72.25-.47,1-1.1.47,1.58.47.48,1,.48h.26c.15-.43.31-.86.47-1.29s.3-.77.46-1.15l.51.14a12.13,12.13,0,0,0,0,2.09,1.69,1.69,0,0,0,.81,1c.23.12.7-.23,1.06-.37,0-1.52,0-3,0-4.54h0V83l.48-.48h.73l.48.24L119,83c0,1.06,0,2.12,0,3.18,0,.31.29.61.45.92v.21l.76.44a2.88,2.88,0,0,0,.42-.89c.12-1.28.18-2.57.26-3.85h0l1.21-.24.47.47.24,4.33h0c.18.15.34.37.55.43s.27-.29.41-.44v-.22c.16-.31.47-.63.45-.92-.11-1.31.5-2.77-.69-3.89l-.72-.72c-.47-1.07-1.33-.67-2.14-.61-.58,0-1.17,0-1.76,0s-1.41-.54-1.86.39l-.24.23L116,82l-.34-3.3h0l.78-2.39h9.67a2.26,2.26,0,0,1,.55.22c.17.64.35,1.28.53,1.92l.17.53c.17.63.35,1.25.52,1.88-.06.16-.13.32-.19.47a.39.39,0,0,0,0,.24c0,.31,0,.63,0,1a6.44,6.44,0,0,0,.72,3.85c-1.14-.42-1.56-1.24-1.14-2.64.19-.63.16-.92-.54-.94-1,2.38-.51,3.47,1.95,4.8l.65.7.05.24q.45,2.88.91,5.76l0,.49C130.57,97.85,130.84,100.9,131.11,103.94Zm-2-.45a9.78,9.78,0,0,1-3,1.08,9.79,9.79,0,0,1-3-1.09C124.66,105.84,127.66,106,129.11,103.49Z"/><path class="cls-13" d="M129.37,88.56a2,2,0,0,0-.05-.24l.7-.18c.8-.18,2-.11,2.32-.61s.12-1.69.12-2.56c.53-.4,1-1.06,1.59-1.15a18.7,18.7,0,0,1,3.59,0c1,0,1.78.44,1.57,1.69a4.31,4.31,0,0,0,0,.72c0,1.77.16,1.89,1.89,1.89,2.27,0,2.43.16,2.43,2.47V93.3c0,1-.38,1.63-1.51,1.51a.48.48,0,0,0-.12,0c-2.78,0-2.72-.1-2.69,2.66,0,1.46-.19,1.64-1.67,1.65-1.2,0-2.39,0-3.59,0s-1.53-.45-1.47-1.52c0-.78,0-1.58,0-2.44l-2.17-.36,0-.49c2.71,0,2.72,0,2.68,2.59,0,.92.17,1.55,1.28,1.56s2.06.09,3.09.17,1.29-.43,1.38-1.26-.08-2.18.44-2.68,1.77-.33,2.71-.37c.75,0,1-.39.95-1.06,0-1.08-.05-2.16,0-3.24s-.35-1.15-1.25-1.27c-3.26-.46-2.84.18-2.85-2.86,0-.2,0-.4,0-.6.06-.64-.26-.84-.86-.83-1.28,0-2.56,0-3.83,0-.75,0-.89.37-.84,1l-.26,2.88Z"/><path class="cls-21" d="M132.46,85c0,.87.29,2-.12,2.56s-1.52.43-2.32.61l-.7.18-.65-.7.15-1.21c-.23-1.18-.45-2.37-.71-3.54,0-.13-.28-.22-.43-.32,0-.32,0-.64,0-1l.46-.08v-.13l-.46,0c.06-.15.13-.31.19-.47,2.08-.72,4.11.43,3.86,2.09l-1.2-1.14-.24-.24L129,81l-.12.32,1.47.3.24.24.92,2.19c-.28.23-.64.48-.95.78s-.54.61-.81.92c1.38.06,1.61.29,2,1.86.08-.36.15-.73.24-1.09C132.15,86,132.31,85.48,132.46,85Zm-3.25.13-.16,0,0,.09Z"/><path class="cls-9" d="M121.72,107.25a11.22,11.22,0,0,1,6.51,4.76c1.16,1.59,2.05,3.38,3.06,5.09l2.15,4.8c-.33,1.33.87,2.13,1.22,3.24a3,3,0,0,0,3.55,2.28c-.33,2.71.8,4.86,2.57,6.78,1.28,1.38.89,3.11.73,4.68a4.43,4.43,0,0,0,.6,2.81,5.13,5.13,0,0,1,.63,1.69c-2.92-2.14-6-4.09-6.47-8.15a11.51,11.51,0,0,0-5.21-8.32,6.32,6.32,0,0,1-2.72-3.92,20.85,20.85,0,0,0-5.1-9.56,9.27,9.27,0,0,1-2.29-5.9Z"/><path class="cls-9" d="M142.07,109.45c-1.42,3.23-.54,6.29.72,9.31.76,1.84,1.71,3.64,1.44,5.72a30,30,0,0,1-.63,3.27,7.83,7.83,0,0,0,.13,4.81,6,6,0,0,1-.34,5.61c-.33.54-.07,1.5,0,2.25a28,28,0,0,1,.45,2.79c-1.84-2.46-2.07-2.93-1.6-5.87a4.16,4.16,0,0,0-1.29-3.86,7.42,7.42,0,0,1-2.28-6.51c1.19-.79,1.31-2,.18-2.61l1.27-.49V121.7c-.29-2.12-.63-4.22-.85-6.34-.21-2-.35-3.94,1.4-5.36A4.68,4.68,0,0,1,142.07,109.45Z"/><path class="cls-22" d="M140.16,121.7v2.17l-1.27.49c1.13.6,1,1.82-.18,2.61l-.5.45a3,3,0,0,1-3.55-2.28c-.35-1.11-1.55-1.91-1.22-3.24Z"/><path class="cls-12" d="M143.76,110.64l-1.22-.25,0-.94Z"/><path class="cls-11" d="M159.83,104.89a13.86,13.86,0,0,1-.74,1.92,12.52,12.52,0,0,0-1.66,5.62,29.09,29.09,0,0,1-.48,4.48,5.64,5.64,0,0,1-3.35,4,9.64,9.64,0,0,1,1.05-1.38,6.46,6.46,0,0,0,2.09-4.85c.06-3.12.32-6.2,2.13-8.89A6.16,6.16,0,0,1,159.83,104.89Z"/><path class="cls-14" d="M105.39,67.46a9.36,9.36,0,0,1-.27-1.46c0-1.87,0-3.74-.06-5.61a8.72,8.72,0,0,0-.24-1.28c-1,1.09-1.55.69-1.93-.43-.29-.85-.6-1.69-.89-2.54l.48-.27,1.09,1.35,1.52-2.85,2.54-.28.6.35.29.64.24,0,.18-1.22.39-.12,2,.8.28.69-.18.49,0,1h0a16.42,16.42,0,0,0-.36,2.68c.05,2.25.23,4.5.35,6.74l-.19.92-.51.5-2.52,0-.37,0Zm1.83-8.27.56,0v-2.6h-.36Z"/><path class="cls-22" d="M86.39,54.21c1.2.17,2.32.15,2.85-1.23a4.5,4.5,0,0,1,2.28,3.34l2.07-1.61c.1.25.19.49.28.73-.85,1.26-1.73,2.5-2.54,3.78a1.89,1.89,0,0,0-.09.93c0,2,0,4.05,0,6.07a5.54,5.54,0,0,1-.48,1.4,6,6,0,0,0-1.84.3,2.94,2.94,0,0,1-2.5.18c-1.24-.58-1.25-1.58-1.11-2.79.24-2.08.26-4.19.46-6.29C85.87,57.41,86.16,55.81,86.39,54.21Z"/><path class="cls-25" d="M93.87,55.44c-.09-.24-.18-.48-.28-.73a6.41,6.41,0,0,1,.69-3.55c1.29-2,4.41-2.35,5.83-.55l-.07.07c-.9-.21-1.66-1.12-3-.49,1.77.62,3.38,1.22,3.26,3.36l-1,2.12,0,.56.72-.58.58-.37.2.19c-.5.52-1,1-1.49,1.57a6.63,6.63,0,0,1-4.06-.12Zm.67-1.66h0c-.09.71-.49,1.49.5,1.92a2.59,2.59,0,0,0,3.43.81,10.43,10.43,0,0,0-1-.23,8.22,8.22,0,0,1-1.17-.62l1.91,0a2.2,2.2,0,0,0,1.65-3,1.3,1.3,0,0,0-1.75-1c.83.84,1.56,1.56.82,2.65,0-1.57-.55-2.24-1.95-2.42l-1.15-.2L97.06,50c-1.85.64-3.13,1.5-3,3.52Z"/><path class="cls-25" d="M108.23,54.44l-.6-.35-2.54.28-.22-.33.74-1.74.81.23c.83.77,1.41.22,2-.38.31.52.62,1,.92,1.55l-.39.12Z"/><path class="cls-25" d="M102.48,55.87l-.48.27-1.17-.67-.19-.19c.13-.59.26-1.18.4-1.77l-1-2.83.07-.07a2.79,2.79,0,0,1,1.16,3.59l.39-.15Z"/><path class="cls-29" d="M52.33,126l.71-.38a9.5,9.5,0,0,1,5.48-1.26q26.91.15,53.8.23v.26h0c-1,1.62-.17,3.08.68,4.29a20.27,20.27,0,0,0,5.82,5.43,19,19,0,0,1,2.75,2.57l-.22.43c-1.21,0-2.42,0-3.63,0a12.21,12.21,0,0,1-5.6-.82c-1.27-.6-2.53-.74-3.46.67-.06.11-.28.12-.43.17q-25.41,0-50.81,0c-2,0-3.81-.15-5.05-2-.09-.13-.35-.15-.53-.22h0c-.16-1.77-.37-3.54-.45-5.32a20.88,20.88,0,0,1,.21-2.84h0l.24-.49h0l.24-.49h0Z"/><path class="cls-16" d="M51.84,135.36c.18.07.44.09.53.22,1.24,1.83,3.05,2,5.05,2q25.41-.06,50.81,0c0,.15,0,.3,0,.45-1.15.08-2.3.22-3.45.22q-23,0-45.89,0a22.2,22.2,0,0,1-4.6-.51A3,3,0,0,1,51.84,135.36Z"/><path class="cls-22" d="M122.17,138.73l-.27.71a9.33,9.33,0,0,1-5.4-1.28,4.62,4.62,0,0,1,.74-.15c1.26,0,2.52-.06,3.78,0C121.42,138.07,121.79,138.49,122.17,138.73Z"/><path class="cls-11" d="M123.6,143.28a7.06,7.06,0,0,0-5.12-.77c-1.86.34-4.59-1-5.2-2.35.35.16.7.34,1.07.47A22.57,22.57,0,0,0,118,141.8c1.42.25,2.91.1,4.35.32C122.8,142.19,123.18,142.88,123.6,143.28Z"/><path class="cls-11" d="M108.72,138.72l-.25-.48a4.62,4.62,0,0,1,4.57,1.68l-1.11-.32Z"/><path class="cls-11" d="M113.28,140.16l-.24-.24Z"/><path class="cls-28" d="M126.68,76.56a2.26,2.26,0,0,0-.55-.22h-9.67l-.78,2.39c.14-.92.39-1.85-.47-2.59L126,76.07l.67.07C126.67,76.28,126.67,76.42,126.68,76.56Z"/><path class="cls-17" d="M111.57,55.19l-.28-.69c.09-.07.23-.21.28-.19,1.49.69,3,1.4,4.45,2.11,0,.23,0,.46,0,.69s0,.65,0,1a.22.22,0,0,0,0,.22c0,1.51.07,3,.11,4.51l-.12.29-.06.25c-.71.07-.77-.38-.74-.92,0-1,.08-1.94.12-2.92,0-.81.12-1.62.12-2.43a1,1,0,0,0-.35-.75C114,55.82,113,54.91,111.57,55.19Z"/><path class="cls-20" d="M108.41,52.15c-.58.6-1.16,1.15-2,.38,0-.22,0-.45,0-.68.62.07,1.26.17,1.29-1h-1.62c.25-.47.48-1.33.75-1.34a2.3,2.3,0,0,1,1.7.66A1.37,1.37,0,0,1,108.41,52.15Z"/><path class="cls-25" d="M106.11,50.86h1.62c0,1.16-.67,1.06-1.29,1Z"/><path class="cls-4" d="M121.72,107.25l-.77.28-.49.47c-.17,0-.45,0-.51,0a5.87,5.87,0,0,0-.51,5.24c1,2.92,2.28,5.75,3.44,8.63l-7.68-.11-2,0,.72-.31v-6.3a1.92,1.92,0,0,0,.28-.62c.19-2.18.18-4.39.57-6.53.54-2.89,1.34-5.73,2.1-8.57a47.19,47.19,0,0,1,1.79-5.3A72.26,72.26,0,0,1,121.72,107.25Z"/><path class="cls-3" d="M122.88,121.91c-1.16-2.88-2.41-5.71-3.44-8.63A5.87,5.87,0,0,1,120,108c.06-.08.34,0,.51,0a10.82,10.82,0,0,0,3,6.7,16.35,16.35,0,0,1,4.13,7.91,8,8,0,0,0,3.56,5.13c3.26,2.26,4.48,5.5,4.67,9.28.24,1.28-.58,1.28-1.46,1.22-.75-.64-1.78-1.14-2.2-2a13.3,13.3,0,0,0-4.87-4.95,8.82,8.82,0,0,1-3.5-3.93,12.13,12.13,0,0,0,.22-2.07c0-.27-.44-.52-.68-.78l.24-.47Z"/><path class="cls-3" d="M112.32,124.8v-.26l2.9-.2c0,.11,0,.28.12.32,1.58,1,3.22,1.82,4.74,2.86a2.78,2.78,0,0,0,3.29.17c.84,2.55,3.19,3.64,5,5.23a9.56,9.56,0,0,1,2.37,2.38,9.22,9.22,0,0,0,4.8,4.37,1.77,1.77,0,0,1,.75.56,9.36,9.36,0,0,0,4.35,3.61c.1,0,.14.26.2.4a22.71,22.71,0,0,1-3.31-.75c-.7-.25-1.2-1-1.89-1.31a14.27,14.27,0,0,0-3-.77,2.48,2.48,0,0,1-2.12-1.84,3.78,3.78,0,0,0-3.36-2.79,4.21,4.21,0,0,1-3.71-3.21,5.47,5.47,0,0,0-4-3.71c-2.18-.62-4.24-1.41-5.71-3.26Z"/><path class="cls-12" d="M142.1,115.2c1.13-.18,1.25.76,1.35,1.43a7.35,7.35,0,0,0,1.2,2.87,4,4,0,0,1,.87,2.61c-.35,3.13-.43,6.3-.53,9.45a6.37,6.37,0,0,0,.47,1.81l.46-.07a12.53,12.53,0,0,1,0-1.94c.06-.3.46-.53.71-.79-.09,1.81-.16,3.62-.29,5.43,0,.28-.29.54-.44.82v-2.27a13.29,13.29,0,0,0-.88,3.38c0,.07.42.21.65.32l-1.11,3.65a6.76,6.76,0,0,1-.65-1.71,4.21,4.21,0,0,1,.24-2.24,4.94,4.94,0,0,0,.41-4.47,8.84,8.84,0,0,1-.28-6.51,11.2,11.2,0,0,0-1-8.54A31.89,31.89,0,0,1,142.1,115.2Z"/><path class="cls-22" d="M123.37,127.69a2.78,2.78,0,0,1-3.29-.17c-1.52-1-3.16-1.91-4.74-2.86-.08,0-.08-.21-.12-.32l8.14.21c.24.26.67.51.68.78a12.13,12.13,0,0,1-.22,2.07Z"/><path class="cls-12" d="M146.89,130.09c-.14-.26-.48-.63-.4-.76,1-1.65,0-3.23-.14-4.83-.15-1.3-.25-2.6-.45-3.89-.08-.57-.38-1.1-.49-1.66a1,1,0,0,1,.25-.78,7.09,7.09,0,0,1,1.25-.56,11.45,11.45,0,0,0-.46,2.91,23.12,23.12,0,0,0,.94,5A5.23,5.23,0,0,1,146.89,130.09Z"/><path class="cls-12" d="M134.39,138.24c.88.06,1.7.06,1.46-1.22a11.52,11.52,0,0,1,1,1.75c.59,1.5,1.89,2.28,3.05,3.21.41.32.8.65,1.2,1l-.3.41a12.53,12.53,0,0,1-2.82-2A14.24,14.24,0,0,0,134.39,138.24Z"/><path class="cls-9" d="M145.7,138.25c-.23-.11-.66-.25-.65-.32a13.29,13.29,0,0,1,.88-3.38v3Z"/><path class="cls-12" d="M142.31,110.88l.4.27-.41-.05A1.62,1.62,0,0,0,142.31,110.88Z"/><path class="cls-12" d="M145.93,137.54v0Z"/><path class="cls-12" d="M146.87,144l.48-.48,0,0-.48.48Z"/><path class="cls-12" d="M146.89,144l-.11.09.09-.11Z"/><path class="cls-3" d="M67.9,84.49c0-1.12,0-2.24,0-3.36h.5a7.38,7.38,0,0,1,0,.94c-.15,1.08.27,1.57,1.38,1.41a3.84,3.84,0,0,1,.59,0c2.63,0,2.33.34,2.31-2.32l.27,0,.22.26v4.79c0,1.84,0,3.68,0,5.52v10.8s-.07,0-.07.07a.51.51,0,0,0,.07.17v.48l-.18.49-.48,0c-1.11,0-2.21,0-3.32,0-.73,0-.91.29-.76.93-.22.61-.31,1.29.52,1.37a34.83,34.83,0,0,0,3.56,0V104.4l.07-.42.62,1.39V106l-.1.52c0,.73,0,1.46,0,2.19v5.78c0,1.15-.07,2.31,0,3.46s.12,2.43.19,3.64l.24,0v.25h-1a1.48,1.48,0,0,0,0-.21l0,0,.08-.06a1.27,1.27,0,0,0-.06-.18V121a.38.38,0,0,0,.07-.08,1,1,0,0,0-.09-.18l0,0-.29-.17-3.3,0-.73.34c-.07,0-.17.08-.21,0s-.06-.13-.08-.21v-.4c0-.1,0-.21,0-.31v-.9c0-.49-.1-1-.14-1.46,0-.33,0-.65,0-1,0-.55,0-1.1,0-1.65,0-1.42,0-2.84,0-4.26,0-4.65.11-9.29.16-13.93,0-1.71,0-3.41,0-5.11h.48l4.14.27c.31-1.78.27-2-.53-2.44l-.24-.44c.95.09.93-.52,1-1.21s-.28-1.11-1-1.16c-.55,0-1.11,0-1.66,0v-.47H72.6V84c-1.25,0-2.4,0-3.55,0-.23,0-.45.3-.67.47H67.9Zm4.55,27.61H70.06c-1.8,0-1.8,0-1.68,1.77a4.68,4.68,0,0,0,.11.5h4Zm-4-9h4.08a11.87,11.87,0,0,0,0-1.59c0-.25-.3-.64-.48-.65-1.18-.06-2.36,0-3.58,0Zm0-2.88h4V98h-4Zm4,9.08c-.37,0-.64-.06-.91-.07a18.86,18.86,0,0,0-2.38,0,1.07,1.07,0,0,0-.73.69c-.29,1.37-.06,1.64,1.28,1.65H71c1.55,0,1.56,0,1.51-1.59C72.5,109.82,72.47,109.62,72.43,109.3Zm-4,10.61h4.09c-.27-.77.6-1.84-.64-2a22.92,22.92,0,0,0-3.73,0Zm2-22.45h0a4.33,4.33,0,0,1,.72,0c1.15.2,1.64-.29,1.37-1.41a1.18,1.18,0,0,0-.74-.78,15,15,0,0,0-2.12,0c-.78,0-1.36,0-1.35,1.09s.43,1.23,1.29,1.13A7.66,7.66,0,0,1,70.47,97.46Zm0,17.49h0a9.73,9.73,0,0,1-1.08,0c-.85-.09-1.06.28-1.08,1.1s.32,1.21,1.18,1.12a7.3,7.3,0,0,1,1.55,0c.75.09,1.4.29,1.47-.89s-.41-1.48-1.45-1.33A3.87,3.87,0,0,1,70.5,115Zm-2-8.35c-.29,2.13-.29,2.13,1.69,2.13.48,0,1,0,1.44,0,.69,0,1-.27.89-.93,0-.38-.06-.77-.09-1.22Zm0-14.16v2.15h2.35c1.88,0,2-.21,1.45-2.15Z"/><path class="cls-17" d="M72.68,81.15c0,2.66.32,2.32-2.31,2.32a3.84,3.84,0,0,0-.59,0c-1.11.16-1.53-.33-1.38-1.41a7.38,7.38,0,0,0,0-.94Z"/><path class="cls-26" d="M72.72,80.16c-.19.16-.37.44-.56.44-1.19,0-2.37,0-3.55,0-.19-2.21,0-2.38,2-2.38l2,.05C72.69,78.92,72.71,79.54,72.72,80.16Z"/><path class="cls-26" d="M72.69,77.71H68.85c-.12-.94.29-1.34,1.08-1.36s1.83,0,2.75,0C72.68,76.81,72.68,77.26,72.69,77.71Z"/><path class="cls-3" d="M87.12,76.32H86.4v-.46c.23-1.23,1-.76,1.67-.5l.19.33.14-.14-.33-.19,2.06-.2-.42.79Z"/><path class="cls-21" d="M72.69,77.71c0-.45,0-.9,0-1.35h.55c0,.15,0,.31,0,.47,0,1.51,0,3-.07,4.55L73,81.11c-.07-.31-.15-.63-.23-1,0-.62,0-1.24,0-1.87C72.68,78.1,72.68,77.91,72.69,77.71Z"/><path class="cls-8" d="M120.72,54.72c0,2.39,0,2.39-2.38,2.39h-2l.35-2.39Z"/><path class="cls-26" d="M120,59.53l-3.48.42c.45-.89-.73-2,.84-2.39l.9.09Z"/><path class="cls-21" d="M120,59.53l-1.74-1.88h2.45v2.11Z"/><path class="cls-17" d="M104.4,82.56l-.3,1-.15-.21c-.47.26-1.19.42-1.35.81a1.26,1.26,0,0,0,.71,1.84c.28.12.46,1.16.25,1.53a5.79,5.79,0,0,1-1.65,1.66,3.15,3.15,0,0,1-1.4.47c-.2,0-.45-.26-.67-.4a18.11,18.11,0,0,0,3.08-1.64c.83-.66.54-1.33-.56-1.46a1.49,1.49,0,0,1-1.52-1.36c-.19-1.21-.63-1.42-1.85-1.31a29.33,29.33,0,0,1-3.38,0c-.45,0-.91-.08-1.47-.13L94.05,85a.37.37,0,0,0,0,.21h0l-1.66,1a.23.23,0,0,0-.21,0l-.48.92-1,0,0-1.21c1.21.14,1-.71.9-1.38,0-.27-.4-.49-.61-.74a4.26,4.26,0,0,0-.3.82,3.84,3.84,0,0,0,0,.83h-.47l-1.69-.29v-.43a3.34,3.34,0,0,0,.45-.8c.46-2.15,1.09-2.62,3.15-2.32h0c.69.71,1.22.43,1.69-.27l.24.06.76.17a7.18,7.18,0,0,1,4.51-.21c1.39.49,2.25-.45,3.19-1.18h.18l1.43.47v.24l.24.24ZM90.48,83H92l0-.34c-.5,0-1.05-.59-1.45.34-.72.25-.78.71-.36,1.32ZM92.21,85l.4,0-.22-1.39-.18,0Z"/><path class="cls-14" d="M100,74.53a8.84,8.84,0,0,0-1.46-.42,6.65,6.65,0,0,0-2.09,0,3.77,3.77,0,0,1-3.94-1.21c-.46-.61-.4-1.1.43-1.16a1.36,1.36,0,0,0,1.45-1.37c.15-1.06.79-1.29,1.81-1.08a6.53,6.53,0,0,0,2.53,0c1-.21,1.7,0,1.83,1S101,71.7,102,71.75c.69,0,1,.53.52,1A20.25,20.25,0,0,1,100,74.53Z"/><path class="cls-14" d="M94.09,81.39l-.24-.06-.25-.21-1.42-1c-.38-.91-.34-1.48.91-1.51.34,0,.85-.65,1-1.08.3-1.26.82-1.59,2.12-1.37a7.92,7.92,0,0,0,2.57,0c1.33-.21,1.89.08,2,1.4a1.13,1.13,0,0,0,1.11,1.14,4.24,4.24,0,0,1,1.1.52c-.67,0-1.34,0-2,0A6.61,6.61,0,0,0,99.52,79c-.16,0-.41.88-.3,1a5.58,5.58,0,0,0,1.34.66l-1.2.75a7.18,7.18,0,0,0-4.51.21Z"/><path class="cls-14" d="M95.92,63.1l3-.22c.72-.05,1.3.15,1.37,1a1.23,1.23,0,0,0,1.25,1.29c.79.1.89.56.46,1.18a3.3,3.3,0,0,1-3.39,1.17,5,5,0,0,0-2.3,0,3.12,3.12,0,0,1-3.33-1c-.6-.62-.57-1.2.36-1.34s1-.6,1.23-1.23a5,5,0,0,1,1-1.26Z"/><path class="cls-14" d="M95.28,56.92a6.63,6.63,0,0,0,4.06.12c.2.11.56.2.58.34.15,1,.54,1.81,1.76,1.77,0,.35.12.78,0,1a3.14,3.14,0,0,1-3.06,1.13,6.53,6.53,0,0,0-2.29,0,2.88,2.88,0,0,1-3.13-1.19c-.14-.23.06-.95.08-.95,1.26,0,1.46-.85,1.69-1.77A2.11,2.11,0,0,1,95.28,56.92Z"/><path class="cls-20" d="M86.37,68.1a2.94,2.94,0,0,0,2.5-.18,6,6,0,0,1,1.84-.3c-.32,2.17-.63,4.34-.95,6.51,0,0,0,.09,0,.12-.75,1.26-1.92.15-2.89.48-.64.22-.81-.46-.76-1.12C86.22,71.78,86.28,69.94,86.37,68.1Zm1.54,5.1.24,0V69.29h-.24Z"/><path class="cls-20" d="M105.39,67.46h2.36c.08,1.44.15,2.87.23,4.31h.14V67.44l2.52,0c-.07,1-.15,2-.19,3,0,1.38-.06,2.76-.09,4.13l-2.94.15h0l-.5-.11C106.39,72.21,105.89,69.84,105.39,67.46Zm.79.35a9.74,9.74,0,0,0,1.15,6,1.21,1.21,0,0,0,.31-.88c-.16-1-.4-2.05-.57-3.08a1.19,1.19,0,0,1,.16-.67C107.74,68.06,107.52,67.74,106.18,67.81Z"/><path class="cls-24" d="M78.72,82.8l-.9,2.76.66.6-3.36-.48a3.47,3.47,0,0,1,0-1.41,3.38,3.38,0,0,1,1.12-1c.16-.11.44,0,.66-.08,0,0,.06-.38,0-.41a1.17,1.17,0,0,0-.65-.17c-1.39.1-1.93,1.58-1.16,3.1a1.61,1.61,0,0,0,1.91.78,2.45,2.45,0,0,1,1.17,0,3.7,3.7,0,0,1,1,.66,2.87,2.87,0,0,1-1,.49c-.86.06-1.73,0-2.61,0h-.22l-.49-.48-.71-.72a4.49,4.49,0,0,1,.71-4.56h0l1.92-.47.48.23H78l.24.48h0l.48.48h0ZM76.8,85h-.72l0-1-.37.11.41.87.42.44.3-.44.74-.31-.19-.29Z"/><path class="cls-17" d="M81.11,85a6.15,6.15,0,0,1,.23-1.74,2.66,2.66,0,0,1,3.2-1.63,2.79,2.79,0,0,1,1.86,2.76c0,.2,0,.4,0,.6a14,14,0,0,1-4.2-.11Z"/><path class="cls-19" d="M104.16,80.64l-1.43-.47c.15-.32.31-.65.47-1a7.39,7.39,0,0,0,.35-1.21,13.11,13.11,0,0,0-1.92-.63L101,75.84h0c.5.29,1,.62,1.49.87a5.19,5.19,0,0,0,1,.25l.4-.52c-1.54.06-1.23-.84-1.26-1.56h0a1.23,1.23,0,0,1,1.45,1.17c0,.26.3.71.4.69a6.71,6.71,0,0,0,1.27-.41l2.16.47.48-.24H109l.24-.22c.78-.1.73.43.72.94-2.29-.14-4.43.13-6,2.29C105.4,79.72,104,80.27,104.16,80.64Z"/><path class="cls-17" d="M79.92,85.44l.73-2.18V85c.18.21.36.6.54.6,1.9,0,3.79-.07,5.69-.11.32.48.64,1,1,1.43a7.83,7.83,0,0,0-1.36-.13c-1.44.12-2.88.29-4.39.44v.63H80.36a1.11,1.11,0,0,1,0-.19l-.2-.28q.09-.9.15-1.8s-.24-.07-.37-.11Z"/><path class="cls-17" d="M73.17,81.37c0-1.52,0-3,.07-4.55.07,1.29.1,2.59.22,3.89a5.63,5.63,0,0,0,.47,1.38c-.44,1.44-.92,2.87,0,4.31a24.88,24.88,0,0,0-.46,3.28c0,4.67,0,9.33,0,14H73.2l-.06-.48v-2.88c0-.24,0-.48,0-.73V92.16c0-.16,0-.32,0-.48,0-1.84,0-3.68,0-5.52,0-.24,0-.48,0-.72V81.37Z"/><path class="cls-28" d="M103.2,79.2c-.16.32-.32.65-.47,1h-.18c-.87-.84-1.44-.22-2,.43a5.58,5.58,0,0,1-1.34-.66c-.11-.09.14-1,.3-1a6.61,6.61,0,0,1,1.45.18c.67,0,1.34,0,2,0A.81.81,0,0,1,103.2,79.2Z"/><path class="cls-11" d="M86.88,85.47c-1.9,0-3.79.11-5.69.11-.18,0-.36-.39-.54-.6h.46l1.1-.12a14,14,0,0,0,4.2.11h1l1.2.18,1.69.29h-.49a.65.65,0,0,0-.24,0h-1.2Z"/><path class="cls-19" d="M73.93,80.77c0-1.31,0-2.37,0-3.43a.71.71,0,0,1,.39-.48c.11,0,.46.14.46.23,0,1.09,0,2.19-.11,3.29C74.68,80.47,74.38,80.55,73.93,80.77Z"/><path class="cls-19" d="M101,75.84l-1-.59,3.66-2.75-1,2.38h0c-.69.1-1.7-.37-1.68,1Z"/><path class="cls-28" d="M75.12,85.68l3.36.48h.24c1.11.19,1,.9.71,1.67-1.13,0-2.25.11-3.38.13-.15,0-.3-.24-.46-.36.88,0,1.75,0,2.61,0a2.87,2.87,0,0,0,1-.49,3.7,3.7,0,0,0-1-.66,2.45,2.45,0,0,0-1.17,0,1.61,1.61,0,0,1-1.91-.78Z"/><path class="cls-17" d="M108.72,76.56h-.24l-.48.24-2.16-.47-.7-.2,5.29.14c-.26.85-.69,1.71.21,2.45l-3.12.21a3.05,3.05,0,0,1,1-.19c1.17.15,1.58-.34,1.39-1.46,0-.51.06-1-.72-.94l-.24.22h-.24Z"/><path class="cls-28" d="M92.16,81.6c-2.06-.3-2.69.17-3.15,2.32a3.34,3.34,0,0,1-.45.8c-.08-.31-.15-.63-.23-1,.08-.24.16-.49.23-.73a1.77,1.77,0,0,0,0-.23l.48-1,.48-.48a5.51,5.51,0,0,1,1.37-.22A4.77,4.77,0,0,1,92.16,81.6Z"/><path class="cls-17" d="M92.16,81.6a4.77,4.77,0,0,0-1.26-.45,5.51,5.51,0,0,0-1.37.22c.67-.22,1.35-.41,2-.68.25-.1.43-.38.65-.58l1.42,1-1.44.48Z"/><path class="cls-28" d="M73.92,86.4c-.91-1.44-.43-2.87,0-4.31l.95-.25a4.49,4.49,0,0,0-.71,4.56Z"/><path class="cls-24" d="M79.43,87.83c.27-.77.4-1.48-.71-1.67l1.2-.72,0,0-.06,6.7h-.22C79.6,90.72,79.52,89.28,79.43,87.83Z"/><path class="cls-30" d="M107.38,74.7h0a3.78,3.78,0,0,0,.77.53,12.81,12.81,0,0,0,1.48.37l-3.61,0,.52-.24Z"/><path class="cls-14" d="M87.12,76.32l2.59-.38,1.35-.07,0,.45Z"/><path class="cls-17" d="M85.46,81.19H82.25C83.26,80.91,84.27,80.24,85.46,81.19Z"/><path class="cls-17" d="M87.36,85h-.48V83.42h.48Z"/><path class="cls-28" d="M76.8,81.37l-1.92.47A1.26,1.26,0,0,1,76.8,81.37Z"/><path class="cls-28" d="M107.38,74.7l-.8.63.3-.74Z"/><path class="cls-17" d="M80.88,82.56l.13-.62.3.11-.43.51Z"/><path class="cls-17" d="M89.05,81.85l-.48,1Z"/><path class="cls-19" d="M85,57.6l.29-.37.08.08L85,57.6Z"/><path class="cls-28" d="M78,81.6h0Z"/><path class="cls-28" d="M78.72,82.56l-.48-.48Z"/><path class="cls-17" d="M88.56,83c-.07.24-.15.49-.23.73C88.41,83.53,88.49,83.28,88.56,83Z"/><path class="cls-17" d="M86.74,82.89l0-.13.09,0Z"/><path class="cls-28" d="M78.24,82.08,78,81.6Z"/><path class="cls-28" d="M78.72,82.8v-.24a1,1,0,0,1,.09.18Z"/><path class="cls-17" d="M80.88,82.56l-.06.1.06-.1Z"/><path class="cls-18" d="M74.87,65l.65-.64.36.36-.65.64Z"/><path class="cls-18" d="M76.39,63.71l0-.7.27,0,0,.69Z"/><path class="cls-6" d="M48.5,100.32l.49,0-.51.54Z"/><path class="cls-4" d="M73.44,121.92v-.25l.24-8.39A108.28,108.28,0,0,1,77.54,93.4c.48,1.45.86,2.52,1.19,3.61.81,2.7,1.59,5.41,2.39,8.11l.44,1.48,0,.92.25,1.92.26,2.87.21,2.41,0,.47,0,1c-.09,1.44-.17,2.87-.26,4.31l-1,1.21H74.88l-1,.2Z"/><path class="cls-26" d="M107.49,121.9h-3.66a5.47,5.47,0,0,0,.71-1.08c.24-.71.15-1.34-.79-1.32-1.35,0-2-.54-2-1.91,0-1.08-.78-1.52-1.81-1.45a11.54,11.54,0,0,0-1.52.27l.5-1.47L96,114.68a3.06,3.06,0,0,1,2.84-.14,4.41,4.41,0,0,0,5.23-1.72c.53-.95.29-1.48-.78-1.45s-1.62-.58-1.74-1.64a1.61,1.61,0,0,0-2.34-1.49,4.5,4.5,0,0,1-3.58,0,1.57,1.57,0,0,0-2.25,1.37c-.13,1.23-.61,1.89-2,1.82-.8,0-1.11.63-.67,1.3A12.33,12.33,0,0,0,91.92,114l-1.55-.46.07.15-.64.06-.06-2.06c-.25-1.89-.49-3.78-.74-5.68s-.26-1.93,1.63-2.8c1.35,2.29,3.05,3,5.6,2.4a6,6,0,0,1,2.67,0,4.19,4.19,0,0,0,5.08-2.25c.06-.24.12-.48.19-.72.61-.11,1.21-.25,1.83-.31a8.05,8.05,0,0,1,1.29.08.6.6,0,0,0,0,.23l-.26,1a1.09,1.09,0,0,0-.18.42c-.08,2.93-.17,5.85-.19,8.77a10.09,10.09,0,0,0,.4,2.07l.48,2.67.48,2.9.47.38C107.79,120.88,107.39,121.15,107.49,121.9Z"/><path class="cls-21" d="M55.68,120.48l1.76-1.41c2.74-2.23,5.37-4.57,7.11-7.72a7.75,7.75,0,0,1,.24,1.24c0,2,0,4.07,0,6.11,0,.94.14,1.89.22,2.82l1.71.36-3.95-.27c.3-.64.61-1.27,1-2.18-2.23.42-4.15.88-5.66,2.41l-4.22,0c0-.12.07-.24.1-.36v0Z"/><path class="cls-18" d="M96,114.68l2.92.26-.5,1.47c-1.07-.1-2.14-.2-3.2-.28-1.35-.11-2,.35-2.07,1.7a1.56,1.56,0,0,1-1.4,1.65c-1.79.27-1.92.57-.75,2.34-1-.06-1.87.49-2.68-.33,0-.66,0-1.31,0-2a5.4,5.4,0,0,0,1.42-4.45l.06-1.31.64-.06-.07-.15,1.55.46,1.22.66a2.06,2.06,0,0,0,2.84,0Zm-5.7.34a.21.21,0,0,0-.1,0s0,0,0,.08.08,0,.1,0S90.29,115.05,90.28,115Z"/><path class="cls-16" d="M123.36,124.55l-8.14-.21-2.9.2q-26.89-.11-53.8-.23A9.5,9.5,0,0,0,53,125.57c.46-1.32,1.76-1.12,2.75-1.47a2.09,2.09,0,0,1,.71,0h67.1Z"/><path class="cls-24" d="M88.32,119.52c0,.66,0,1.31,0,2-.72.08-1.45.18-2.17.23-.29,0-.59-.08-.88-.08-.73,0-1.47.06-2.21.1l-.71-.08-.22-1.17c.09-1.44.17-2.87.26-4.31,1.11-.11.56-.57.2-1,.76-.11,1.05.24,1,1,0,.16,0,.32,0,.47l-.48.48.23,1c-.07.42-.1.86-.2,1.27-.23.88.2,1.09,1,1.13,1.11.06.79-1,1.23-1.45h.65c.08.44,0,1,.3,1.28s.85,0,1.19-.14.44-.61.66-.93Z"/><path class="cls-15" d="M58.17,121.84c1.51-1.53,3.43-2,5.66-2.41-.43.91-.74,1.54-1,2.18Z"/><path class="cls-25" d="M108.47,120.88l-.47-.38,3.79-.32.22,1.15c1.72.35,1.76.3,1.78-1.47,0-1.55.09-3.09.14-4.64v6.3l-.72.31h-.09l-1-.12h-.66c0-.58-.21-.84-.82-.81S109.18,120.9,108.47,120.88Z"/><path class="cls-30" d="M108.47,120.88c.71,0,1.42.07,2.13,0s.86.23.82.81l-3.93.17C107.39,121.15,107.79,120.88,108.47,120.88Z"/><path class="cls-16" d="M51.6,127.2a20.88,20.88,0,0,0-.21,2.84c.08,1.78.29,3.55.45,5.32-.23-.35-.65-.69-.66-1.05-.06-2.05,0-4.11,0-6.16C51.19,127.83,51.46,127.51,51.6,127.2Z"/><path class="cls-21" d="M67.88,120.68c0,.08,0,.18.08.21s.14,0,.21,0l.73-.34-.46.87a3.35,3.35,0,0,0,.94.31c1,0,2.07,0,3.11,0a1.48,1.48,0,0,1,0,.21l-5.07,0Z"/><path class="cls-3" d="M82.11,120.49c.08.39.15.78.22,1.17v.25l-1.2-.21Z"/><path class="cls-3" d="M73.91,121.9l1-.2Z"/><path class="cls-3" d="M76.32,121.7h0Z"/><path class="cls-4" d="M112.08,121.72l1,.12Z"/><path class="cls-4" d="M82.32,121.91v-.25l.71.08Z"/><path class="cls-16" d="M52.08,126.24l-.24.49Z"/><path class="cls-16" d="M51.84,126.72l-.24.49Z"/><path class="cls-16" d="M52.33,126l-.25.29Z"/><path class="cls-15" d="M47.73,120.06A5.93,5.93,0,0,1,49,121c.24.28.23.79.34,1.19a4.64,4.64,0,0,1-1-.15,3,3,0,0,1-.79-.51C47,121,46.85,120.51,47.73,120.06Z"/><path class="cls-15" d="M50.42,122.43v.44l-.44-.49Z"/><path class="cls-23" d="M51.37,121.94c.3-1.48,1.28-.31,1.92-.49Z"/><path class="cls-23" d="M53.29,121.45l1-.48c-.07.17-.14.35-.2.53v0Z"/><path class="cls-9" d="M70.08,86.19v.47l-1.58.08C68.23,89,68.23,89,70.35,89c.47,0,.94,0,1.41,0l.24.44H68.39v2.17h-.48c0-2.4,0-4.8,0-7.19h.46c0,.58.05,1.15.07,1.71Z"/><path class="cls-21" d="M67.75,115c0,.55,0,1.1,0,1.65C67.74,116.08,67.75,115.53,67.75,115Z"/><path class="cls-21" d="M67.75,117.61c0,.49.09,1,.14,1.46C67.84,118.58,67.79,118.1,67.75,117.61Z"/><path class="cls-21" d="M67.89,120c0,.1,0,.21,0,.31C67.89,120.18,67.89,120.07,67.89,120Z"/><path class="cls-8" d="M65.52,78.72H66c-.14,2.28.32,4.6-.48,6.82Z"/><path class="cls-8" d="M62.88,83.28l-.21,1.9a1.46,1.46,0,0,1,.21-1.9Z"/><ellipse class="cls-8" cx="64.08" cy="86.28" rx="0.68" ry="0.08"/><path class="cls-6" d="M66.08,85.8l0-.35c.06,0,.15.07.17.12S66.15,85.68,66.08,85.8Z"/><path class="cls-6" d="M62.4,81.84l.25-.18.06.09-.31.09Z"/><path class="cls-8" d="M62.88,83.28l.06-.1-.06.1Z"/><path class="cls-25" d="M54.06,121.5c.06-.18.13-.36.2-.53l.47-.46.94-.09v.06Z"/><path class="cls-23" d="M55.67,120.42l-.94.09c.22-.32.44-.63.82-1.2Z"/><path class="cls-23" d="M53.93,120.1l.2.09c0,.06,0,.17-.09.19s-.13,0-.19-.08A1.67,1.67,0,0,0,53.93,120.1Z"/><path class="cls-19" d="M111.57,55.19c1.39-.28,2.4.63,3.52,1.15a1,1,0,0,1,.35.75c0,.81-.08,1.62-.12,2.43,0,1-.07,1.95-.12,2.92,0,.54,0,1,.74.92,0,.16,0,.32,0,.48-.25.26-.7.52-.71.79,0,.68.23,1.36.21,2,0,1.59-.45,3.23-.15,4.74.23,1.22-.4,1.72-.74,2.35a17.26,17.26,0,0,1-2.39.12,1.07,1.07,0,0,1-.77-.7c-.13-1.58-.15-3.16-.21-4.74,0-.49,0-1,0-1.47l.19-.92c0-3.14,0-6.28,0-9.42h0l.69-.28-.64-.67Zm2.3,2.31,0-.36-.93.1,0,.26Z"/><path class="cls-17" d="M111.15,67c0,.49,0,1,0,1.47.06,1.58.08,3.16.21,4.74a1.07,1.07,0,0,0,.77.7,17.26,17.26,0,0,0,2.39-.12c.34-.63,1-1.13.74-2.35-.3-1.51.12-3.15.15-4.74,0-.68-.24-1.36-.21-2,0-.27.46-.53.71-.79,0,.64,0,1.29,0,1.93a.24.24,0,0,0,0,.22c0,1.13,0,2.25,0,3.38a.22.22,0,0,0,0,.22c0,.65,0,1.29,0,1.93a1.93,1.93,0,0,0,0,.24v3.12a.3.3,0,0,0,0,.23l-.09.26c-.12,0-.27,0-.35,0a3.56,3.56,0,0,0-4.35-.1c-.64.41-.8-.14-.84-.67,0-1.37,0-2.75.09-4.13,0-1,.12-2,.19-3Z"/><path class="cls-26" d="M120.6,63.15a5.29,5.29,0,0,1,.13.52c.12,1.84.12,1.84-1.7,1.84h-1.19c-1.16,0-1.62-.54-1.37-1.69.06-.26.41-.63.65-.64C118.26,63.11,119.4,63.15,120.6,63.15Z"/><path class="cls-17" d="M116.65,66.09h4v2.25a17.19,17.19,0,0,1-3.29,0C116,68.05,116.79,66.94,116.65,66.09Z"/><path class="cls-26" d="M120.73,71.06a26.59,26.59,0,0,1-3.48,0c-1.29-.18-.68-1.23-.78-2.15,1.27,0,2.45,0,3.63,0,.22,0,.54.38.6.64A7.18,7.18,0,0,1,120.73,71.06Z"/><path class="cls-26" d="M120.63,73.85h-4.18l.22-2.11h2.22C120.87,71.73,120.87,71.73,120.63,73.85Z"/><path class="cls-26" d="M120.71,60.49v2.08h-3.86c-.64-1.79-.43-2.13,1.36-2.12l2.5,0Z"/><path class="cls-17" d="M110.87,76.32l2.35-.17c-.29.11-.73.12-.85.32a2.36,2.36,0,0,0-.43,1.46c.07.33.7.66,1.13.74.26,0,.62-.35.93-.56l-.21-.32a1.78,1.78,0,0,1-.49.17,6.35,6.35,0,0,1-.87,0c.11-.34.12-.83.36-1a1.09,1.09,0,0,1,1.68.82,11.81,11.81,0,0,1,0,1.19l-3.33-.2Z"/><path class="cls-28" d="M110.36,74.56c0,.53.2,1.08.84.67a3.56,3.56,0,0,1,4.35.1c.08.06.23,0,.35,0l-5.87.1a1.07,1.07,0,0,0-.36.14,12.81,12.81,0,0,1-1.48-.37,3.78,3.78,0,0,1-.77-.53Z"/><path class="cls-28" d="M118.55,75.58a13.51,13.51,0,0,1-1.56,0c-.2,0-.55-.34-.53-.44.08-.25.31-.64.5-.65a31,31,0,0,1,3.34,0c.15,0,.4.39.39.58a.69.69,0,0,1-.47.51,13.27,13.27,0,0,1-1.67,0Z"/><path class="cls-28" d="M114.47,78.91a11.81,11.81,0,0,0,0-1.19,1.09,1.09,0,0,0-1.68-.82c-.24.18-.25.67-.36,1a6.35,6.35,0,0,0,.87,0,1.78,1.78,0,0,0,.49-.17l.21.32c-.31.21-.67.61-.93.56-.43-.08-1.06-.41-1.13-.74a2.36,2.36,0,0,1,.43-1.46c.12-.2.56-.21.85-.32l1.28,0a2.45,2.45,0,0,1,.47,2.81Z"/><path class="cls-28" d="M121.26,66.73c.06,1.73.1,3.46.2,5.19,0,.56.34,1.12.32,1.67a4.18,4.18,0,0,1-.54,1.29C121.25,72.16,121.25,69.45,121.26,66.73Z"/><path class="cls-18" d="M110.87,76.32l.27,2.39h-.5c-.9-.74-.47-1.6-.21-2.45Z"/><path class="cls-24" d="M115,78.94a2.45,2.45,0,0,0-.47-2.81h.71c.86.74.61,1.67.47,2.59h0l-.5.26Z"/><path class="cls-28" d="M121.26,65.29c0,.31,0,.62,0,.94C121.27,65.91,121.27,65.6,121.26,65.29Z"/><path class="cls-7" d="M116,63.11l.12-.29Z"/><path class="cls-7" d="M116,66a.24.24,0,0,1,0-.22.94.94,0,0,1,.06.15S116,66,116,66Z"/><path class="cls-7" d="M116,69.59a.22.22,0,0,1,0-.22.94.94,0,0,1,.06.15S116,69.57,116,69.59Z"/><path class="cls-7" d="M116,71.76a1.93,1.93,0,0,1,0-.24,1.22,1.22,0,0,1,.07.17S116,71.73,116,71.76Z"/><path class="cls-7" d="M116,58.31a.22.22,0,0,1,0-.22.88.88,0,0,1,0,.15S116,58.29,116,58.31Z"/><path class="cls-7" d="M116,75.11a.3.3,0,0,1,0-.23,1.66,1.66,0,0,1,.06.16S116,75.09,116,75.11Z"/><path class="cls-8" d="M129.37,88.56l3.57-.25,2.18-.23.06.1,0-.05-.1,0c-.15-.43-.51-.92-.41-1.28.41-1.57-.66-1.32-1.52-1.37-.05-.6.09-1,.84-1,1.27.05,2.55,0,3.83,0,.6,0,.92.19.86.83,0,.2,0,.4,0,.6,0,3-.41,2.4,2.85,2.86.9.12,1.3.33,1.25,1.27s0,2.16,0,3.24c0,.67-.2,1-.95,1.06-.94,0-2.18-.14-2.71.37s-.33,1.76-.44,2.68-.44,1.34-1.38,1.26-2.06-.16-3.09-.17-1.3-.64-1.28-1.56c0-2.59,0-2.59-2.68-2.59Q129.82,91.44,129.37,88.56Z"/><path class="cls-22" d="M107.27,102.7a.6.6,0,0,1,0-.23c.08-.33.15-.67.28-1.3-1.09.9-1.6.5-2-.33l.34-.52L107,99.18h.53l3.81.19c.22.78.78,1.65.61,2.33-.68,2.58.17,5.14-.14,7.7-.06,1.42-.1,2.83-.21,4.25a5.52,5.52,0,0,1-.43,1.26l-.65-.05h-2.9l-.59.07a10.09,10.09,0,0,1-.4-2.07c0-2.92.11-5.84.19-8.77a1.09,1.09,0,0,1,.18-.42C107.09,103.34,107.18,103,107.27,102.7Z"/><path class="cls-14" d="M94.05,85l.09-1.61c.56,0,1,.11,1.47.13a29.33,29.33,0,0,0,3.38,0c1.22-.11,1.66.1,1.85,1.31a1.49,1.49,0,0,0,1.52,1.36c1.1.13,1.39.8.56,1.46a18.11,18.11,0,0,1-3.08,1.64,6.42,6.42,0,0,0-4.47-.12c-.66.24-1.57-.24-2.37-.4-.06-.14-.12-.29-.17-.43l3.35-.19-.74-2.6-.66,1.3c-.24-.4-.48-.78-.69-1.19a1.2,1.2,0,0,1,0-.47h0Z"/><path class="cls-28" d="M115.18,79l.5-.26L116,82l.86-.18a3.29,3.29,0,0,0-1,2.85,15.44,15.44,0,0,1-.21,2.43l-.37-2.46-1.48.16-.12,1.82a4.23,4.23,0,0,1-.21-1.13,2.69,2.69,0,0,0-.49-.75c-.15.23-.39.45-.43.7a9.6,9.6,0,0,0,0,1.42l-.47-.48c0-.54,0-1.08.07-1.61-1.41-.09-1.41-.09-1.76,1.13v.47l-.48.72h-.47a7.74,7.74,0,0,0,.6-1.27,1.71,1.71,0,0,0-.05-1,11.18,11.18,0,0,0-2.45-.11c-.25,0-.46.55-.63.78l-1-.8-.31.92-.25-1.2.29-.26.78.07L107,81.4h3V81a3.11,3.11,0,0,0-.66-.1c-.86.06-1.72.15-2.57.23-.44-.18,0-1.85-1.2-.72l-.46-.24.47-1h0c1.81,1.45,3.94.81,6,1l-.51-.92h3.39L112.7,80.5a7,7,0,0,1,.84,1.16,1.16,1.16,0,0,1-.11.82c-1.31.12-.81,1-.76,1.75a17.83,17.83,0,0,0,2.08,0c.25,0,.65-.4.65-.6,0-1.47-.12-2.94-.2-4.4A1.79,1.79,0,0,0,115.18,79ZM107,84.14h5.33l-.34-1.28h-4.79ZM111.19,82l0-.24h-3.53V82Z"/><path class="cls-5" d="M111.79,120.18l-3.79.32-.48-2.9c0-.48,0-1,0-1.43a1.61,1.61,0,0,1,.24-.87c.32-.34,3,0,3.49.34Z"/><path class="cls-24" d="M115.68,87.12a15.44,15.44,0,0,0,.21-2.43,3.29,3.29,0,0,1,1-2.85l.24-.23c.75.09,1.5.19,2.25.26a1.94,1.94,0,0,0,1.08-.05,2.17,2.17,0,0,1,2.43,0l.72.72.24,4.81v.22h-1l-.24-4.33-.47-.47c-.48-.3-.94-.52-1.21.24h0a2.94,2.94,0,0,0-.46.92c-.06.83,0,1.67,0,2.51,0,.66-.3,1-1,.87v-.21c0-1,0-2,0-3A4,4,0,0,0,119,83l-.23-.23-.48-.24h-.73l-.48.48v.24h0c-.13,1.32-.26,2.65-.39,4.06l-1-.22Z"/><path class="cls-24" d="M90.73,87.84c.07,1.09.12,2.19.24,3.27a7.69,7.69,0,0,0,.44,1.41c-1,.56-.13,1,.22,1.48a13.72,13.72,0,0,0,1.74-1.47,14.88,14.88,0,0,0,1.2-2.08l2.67-.59v-.39l1.09.31-.65.93-1.61.36,3.06.58-.56.27.78,1c-.25-.08-.52-.14-.76-.24a2.33,2.33,0,0,0-3.33,1.44l-.67.91v-.62l1.7-2.63a11.17,11.17,0,0,0-1.18.2c-1.1.33-.84,1.35-1.06,2.13l-.2.06-.75.36-.45,0H92.4l-1.19.27-1.46.86.35,1.22-1,.08c0-.48,0-1,0-1.44-.08-.12-.16-.23-.23-.35l1.44-.62h0a6.12,6.12,0,0,0,.45-1.5C90.75,91.32,90.72,89.58,90.73,87.84Z"/><path class="cls-20" d="M108.37,96.36c.07-.46,0-1.14.23-1.34a1.51,1.51,0,0,1,2.06,0,2.45,2.45,0,0,1,.63,1.62c-.05.52-.56,1-.87,1.51a1.13,1.13,0,0,1-1.46-.94A4,4,0,0,0,108.37,96.36Z"/><path class="cls-3" d="M94.05,85.18a1.2,1.2,0,0,0,0,.47c.21.41.45.79.69,1.19l.66-1.3.74,2.6-3.35.19-.23-.22,1-.57-.14-.42H91.7l.48-.92.21,0Zm.71,2.24v.14l.52,0v-.11ZM93,86.49l-.11,0,.08.12Z"/><path class="cls-13" d="M101.35,94.15l.36-.06,1.44.37c.18.45.36.9.53,1.35L102.47,97l-2.16.48.26-.48h0l.25-.49h0Z"/><path class="cls-24" d="M112.56,86.88a9.6,9.6,0,0,1,0-1.42c0-.25.28-.47.43-.7a2.69,2.69,0,0,1,.49.75,4.23,4.23,0,0,0,.21,1.13l.12-1.82,1.48-.16.37,2.46h0c.12,1,.85.67,1.43.7-.36.14-.83.49-1.06.37a1.69,1.69,0,0,1-.81-1,12.13,12.13,0,0,1,0-2.09l-.51-.14c-.16.38-.31.76-.46,1.15s-.32.86-.47,1.29h-.26Z"/><path class="cls-13" d="M107,99.18,106,100.32l-2.21-2.83.42-.31.4-.15.56.4.26.25.22.25Z"/><path class="cls-24" d="M128.82,86.41l-.15,1.21c-2.46-1.33-2.91-2.42-1.95-4.8.7,0,.73.31.54.94-.42,1.4,0,2.22,1.14,2.64Z"/><path class="cls-25" d="M129.11,103.49c-1.45,2.52-4.45,2.35-6,0a9.79,9.79,0,0,0,3,1.09A9.78,9.78,0,0,0,129.11,103.49Z"/><path class="cls-11" d="M90.73,87.84c0,1.74,0,3.48,0,5.22a6.12,6.12,0,0,1-.45,1.5c0-2.31,0-4.63,0-6.94h.45A1.64,1.64,0,0,0,90.73,87.84Z"/><path class="cls-26" d="M111.18,114.9a5.52,5.52,0,0,0,.43-1.26c.11-1.42.15-2.83.21-4.25.17,1.35.41,2.7.47,4.06,0,.75,0,1.62-.93,2Z"/><path class="cls-28" d="M122.88,81.84a2.17,2.17,0,0,0-2.43,0,1.94,1.94,0,0,1-1.08.05c-.75-.07-1.5-.17-2.25-.26.45-.93,1.22-.37,1.86-.39s1.18,0,1.76,0C121.55,81.17,122.41,80.77,122.88,81.84Z"/><path class="cls-25" d="M101.35,94.15c-.18.78-.37,1.56-.55,2.34.34-1.66.31-3.24-1-4.54l0,0C101.51,91.87,101.48,93,101.35,94.15Z"/><path class="cls-17" d="M128.82,86.41h-.42a6.44,6.44,0,0,1-.72-3.85c.15.1.41.19.43.32C128.37,84,128.59,85.23,128.82,86.41Z"/><path class="cls-28" d="M123.84,87.37l-.24-4.81c1.19,1.12.58,2.58.69,3.89C124.31,86.74,124,87.06,123.84,87.37Z"/><path class="cls-25" d="M108.37,96.36a4,4,0,0,1,.59.89,1.13,1.13,0,0,0,1.46.94l.45.68-1.67,0C109,98,107.75,97.49,108.37,96.36Z"/><path class="cls-20" d="M111.18,114.9l.18.54c0,.07-.07.13-.1.2-.47-.37-3.17-.68-3.49-.34a1.61,1.61,0,0,0-.24.87c0,.47,0,1,0,1.43l-.48-2.67.58-.07h2.91Z"/><path class="cls-28" d="M119,83a4,4,0,0,1,.46,1.12c.06,1,0,2,0,3-.16-.31-.44-.61-.45-.92C119,85.15,119,84.09,119,83Z"/><path class="cls-25" d="M104.16,97.18l-.42.31-1-.09-.27-.44,1.21-1.15Z"/><path class="cls-17" d="M105.36,84.48c.08.4.17.8.25,1.2l.23.48-.24.48c-.24-.34-.66-.65-.69-1-.09-1.09,0-2.2,0-3.31h.23C105.19,83,105.28,83.76,105.36,84.48Z"/><path class="cls-25" d="M99.13,91.65l-3.06-.58,1.61-.36c.8.25,1.85.07,2.16,1.21l0,0Z"/><path class="cls-13" d="M109.2,98.85l1.67,0,.48.49-3.81-.19Z"/><path class="cls-28" d="M119.52,87.34c.66.08,1-.21,1-.87,0-.84,0-1.68,0-2.51A2.94,2.94,0,0,1,121,83c-.08,1.28-.14,2.57-.26,3.85a2.88,2.88,0,0,1-.42.89Z"/><path class="cls-17" d="M109,87.84a2.18,2.18,0,0,1-3.35-1h.71c.54,1.25,1.66.89,2.63,1Z"/><path class="cls-28" d="M117.11,87.82c-.58,0-1.31.26-1.43-.7l1,.22c.13-1.41.26-2.74.39-4.06C117.12,84.79,117.11,86.3,117.11,87.82Z"/><path class="cls-28" d="M90.71,87.61h-.45c0-.17,0-.33,0-.5l-.45-.49V85.45h1v.47l0,1.21Z"/><path class="cls-14" d="M91.91,87.12H93.5l.14.42-1,.57-.73-.73Z"/><path class="cls-24" d="M110.4,85.92c.35-1.22.35-1.22,1.76-1.13,0,.53,0,1.07-.07,1.61-.13-.43-.26-.86-.47-1.58l-1,1.1Z"/><path class="cls-28" d="M122.64,83.27l.24,4.33Z"/><path class="cls-19" d="M105.11,82.32h-.23l-.48.24V81.12h0l.24.24.24.24h.24Z"/><path class="cls-17" d="M91.87,87.38l.73.73.23.22c0,.14.11.29.17.43C92.12,88.71,91.45,88.48,91.87,87.38Z"/><path class="cls-25" d="M103.15,94.46l-1.44-.37Z"/><path class="cls-17" d="M109.44,87.12h.47c.29,1-.54.61-1,.73h0l.49-.71Z"/><path class="cls-28" d="M122.88,87.6h1c-.14.15-.32.46-.41.44S123.06,87.75,122.88,87.6Z"/><path class="cls-28" d="M106.32,86.88h-.71c0-.08,0-.16,0-.23l.24-.48Z"/><path class="cls-28" d="M121,83c.27-.76.73-.54,1.21-.24Z"/><path class="cls-25" d="M105.12,97.43l-.56-.4Z"/><path class="cls-8" d="M127.71,81.36l.46,0v.13l-.46.08A.39.39,0,0,1,127.71,81.36Z"/><path class="cls-17" d="M110.4,85.92h.24l-.25.47C110.39,86.23,110.4,86.07,110.4,85.92Z"/><path class="cls-28" d="M118.33,82.56l.48.24Z"/><path class="cls-28" d="M117.6,82.56h0Z"/><path class="cls-25" d="M105.6,97.93l-.22-.25Z"/><path class="cls-28" d="M113.51,87.36h0Z"/><path class="cls-28" d="M117.12,83.28v0Z"/><path class="cls-21" d="M133.19,85.43c.86,0,1.93-.2,1.52,1.37-.1.36.26.85.41,1.28l-2.18.23C133,87.35,133.1,86.39,133.19,85.43Z"/><path class="cls-8" d="M130.32,81.6l-1.47-.3L129,81l1.35.62Z"/><path class="cls-8" d="M129.21,85.1l-.13,0,0-.09Z"/><path class="cls-8" d="M130.56,81.84l-.24-.24h0l.24.24Z"/><path class="cls-17" d="M111.35,56.63c0,3.14,0,6.28,0,9.42-.12-2.24-.3-4.49-.35-6.74A16.42,16.42,0,0,1,111.35,56.63Z"/><path class="cls-20" d="M107.22,59.19l.2-2.57h.36v2.6Z"/><path class="cls-24" d="M108.12,67.44v4.33H108c-.08-1.44-.15-2.87-.23-4.31Z"/><path class="cls-7" d="M108.23,54.44l.71-.62L108.76,55l-.24,0Z"/><path class="cls-17" d="M111.39,55.68l.64.67-.69.28C111.36,56.31,111.38,56,111.39,55.68Z"/><path class="cls-15" d="M96.93,51.82c1.4.18,1.94.85,1.95,2.42l-.95.75c-1.52-.06-2.33-.94-1.86-2.1A4.55,4.55,0,0,1,96.93,51.82Z"/><path class="cls-8" d="M96.93,51.82a4.55,4.55,0,0,0-.86,1.07c-.47,1.16.34,2,1.86,2.1.08.21.16.43.23.64l-1.91,0v0l-.74-.46-1-1.44h0l.51-.68.21-.75.51-.74h0Z"/><path class="cls-9" d="M98.16,55.63c-.07-.21-.15-.43-.23-.64l.95-.75c.74-1.09,0-1.81-.82-2.65a1.3,1.3,0,0,1,1.75,1A2.2,2.2,0,0,1,98.16,55.63Z"/><path class="cls-19" d="M100,50.68c.34.94.67,1.89,1,2.83l-.69,0c.12-2.14-1.49-2.74-3.26-3.36C98.38,49.56,99.14,50.47,100,50.68Z"/><path class="cls-19" d="M95.26,52.35l-.21.75-.94.45c-.18-2,1.1-2.88,3-3.52l-1.28,1.59h0Z"/><path class="cls-19" d="M96.25,55.65a8.22,8.22,0,0,0,1.17.62,10.43,10.43,0,0,1,1,.23A2.59,2.59,0,0,1,95,55.69l.69,0h.53Z"/><path class="cls-12" d="M100.35,53.55l.69,0c-.14.59-.27,1.18-.4,1.77l-.59.37-.67,0Z"/><path class="cls-6" d="M95.73,55.67l-.69,0c-1-.43-.59-1.21-.5-1.92l1,1.44Z"/><path class="cls-19" d="M99.38,55.67l.67,0-.72.58Z"/><path class="cls-6" d="M94.11,53.55l.94-.45-.51.68Z"/><path class="cls-18" d="M83.53,116.17c.09-.73-.2-1.08-1-1h-.23l0-.47c.27-.83.63-1.67-.21-2.41-.08-1-.17-1.92-.26-2.87.24-.68.64-1.39-.25-1.92,0-.3,0-.61,0-.92-.14-.49-.29-1-.44-1.48-.8-2.7-1.58-5.41-2.39-8.11-.33-1.09-.71-2.16-1.19-3.61a108.28,108.28,0,0,0-3.86,19.88h-.62c0-.64,0-1.28,0-1.92h.13V109l-.14-.21c0-.73,0-1.46,0-2.19h.12l.24-1.19v-1.68c0-4.67,0-9.33,0-14a24.88,24.88,0,0,1,.46-3.28h.25l.71.72.49.48h.22c.16.12.31.36.46.36,1.13,0,2.25-.08,3.38-.13.09,1.45.17,2.89.25,4.33a11.47,11.47,0,0,1-.35,1.31c-.26.69.21,1.91.83,2,1.36-.38.91,1.31,1.92,1.69,0-1,0-1.86,0-2.7a1.31,1.31,0,0,1,.65-.82c.14-.08.5.25.76.39h0L83,94.8c-.13.29-.38.58-.37.86A3.62,3.62,0,0,0,83,96.72l-.1.06,0,0,.05-.1.47-.24c.56.72,1.13,1.44,1.69,2.17l-.5.7c-1.33.85-.79,2-.45,3.1a4.13,4.13,0,0,1,.11,3.11,11,11,0,0,0-.56,5.74c0,.29.45.54.69.81l-.58,4.11Z"/><path class="cls-17" d="M68.39,91.68V89.51H72c.8.48.84.66.53,2.44Z"/><path class="cls-17" d="M71.76,89.07c-.47,0-.94,0-1.41,0-2.12,0-2.12,0-1.85-2.29l1.58-.08c.55,0,1.11,0,1.66,0,.7,0,1,.4,1,1.16S72.71,89.16,71.76,89.07Z"/><path class="cls-26" d="M72.45,112.1v2.27h-4a4.68,4.68,0,0,1-.11-.5c-.12-1.77-.12-1.77,1.68-1.77Z"/><path class="cls-26" d="M68.44,103.1v-2.27c1.22,0,2.4,0,3.58,0,.18,0,.44.4.48.65a11.87,11.87,0,0,1,0,1.59Z"/><path class="cls-26" d="M68.46,100.22V98h4v2.2Z"/><path class="cls-26" d="M72.43,109.3c0,.32.07.52.08.71,0,1.6,0,1.59-1.51,1.59H69.69c-1.34,0-1.57-.28-1.28-1.65a1.07,1.07,0,0,1,.73-.69,18.86,18.86,0,0,1,2.38,0C71.79,109.24,72.06,109.27,72.43,109.3Z"/><path class="cls-17" d="M70.08,86.19H68.45c0-.56,0-1.13-.07-1.71.22-.17.44-.46.67-.47,1.15-.05,2.3,0,3.55,0v2.21Z"/><path class="cls-26" d="M68.43,119.91l-.28-2.09a22.92,22.92,0,0,1,3.73,0c1.24.21.37,1.28.64,2Z"/><path class="cls-26" d="M70.47,97.46a7.66,7.66,0,0,0-.83,0c-.86.1-1.28-.11-1.29-1.13s.57-1.12,1.35-1.09a15,15,0,0,1,2.12,0,1.18,1.18,0,0,1,.74.78c.27,1.12-.22,1.61-1.37,1.41a4.33,4.33,0,0,0-.72,0Z"/><path class="cls-26" d="M70.5,115a3.87,3.87,0,0,0,.59,0c1-.15,1.52.15,1.45,1.33s-.72,1-1.47.89a7.3,7.3,0,0,0-1.55,0c-.86.09-1.2-.2-1.18-1.12s.23-1.19,1.08-1.1a9.73,9.73,0,0,0,1.08,0Z"/><path class="cls-10" d="M68.5,106.6h3.93c0,.45,0,.84.09,1.22.06.66-.2,1-.89.93-.47,0-1,0-1.44,0C68.21,108.73,68.21,108.73,68.5,106.6Z"/><path class="cls-26" d="M68.49,92.44h3.8c.59,1.94.43,2.16-1.45,2.15H68.49Z"/><path class="cls-25" d="M68.4,104.64c-.15-.64,0-1,.76-.93,1.11,0,2.21,0,3.32,0l.07.26-.07.42a2.57,2.57,0,0,1-2.41.7A14.27,14.27,0,0,1,68.4,104.64Z"/><path class="cls-26" d="M72.49,121.71c-1,0-2.08,0-3.11,0a3.35,3.35,0,0,1-.94-.31l.46-.87,3.3,0,.29.17,0,0c0,.09,0,.17,0,.26v.47c0,.08,0,.16,0,.24Z"/><path class="cls-26" d="M68.4,104.64a14.27,14.27,0,0,0,1.67.46,2.57,2.57,0,0,0,2.41-.7V106a34.83,34.83,0,0,1-3.56,0C68.09,105.93,68.18,105.25,68.4,104.64Z"/><path class="cls-17" d="M73.06,113.28h.62l-.24,8.39-.24,0c0-2.37-.09-4.74-.14-7.11Z"/><path class="cls-26" d="M73.06,114.53c0,2.37.09,4.74.14,7.11-.07-1.22-.17-2.43-.19-3.65S73,115.68,73.06,114.53Z"/><path class="cls-26" d="M72.55,104l-.07-.26.48,0h.48v1.68h-.27Z"/><path class="cls-21" d="M73.15,96.73v0Z"/><path class="cls-26" d="M73.2,111.35h-.13v-2.61l.14.21C73.2,109.76,73.2,110.56,73.2,111.35Z"/><path class="cls-17" d="M73.17,105.37h.27l-.24,1.19,0-.51Z"/><path class="cls-21" d="M73.16,83.28v0Z"/><path class="cls-21" d="M73.15,94.32v0Z"/><path class="cls-21" d="M73.16,85.44c0,.24,0,.48,0,.72C73.16,85.92,73.16,85.68,73.16,85.44Z"/><path class="cls-21" d="M73.16,91.68c0,.16,0,.32,0,.48C73.15,92,73.15,91.84,73.16,91.68Z"/><path class="cls-21" d="M73.14,100.32v0Z"/><path class="cls-21" d="M73.2,103.68H73l.18-.49Z"/><path class="cls-26" d="M73.18,106l0,.51h-.12C73.11,106.39,73.15,106.21,73.18,106Z"/><path class="cls-21" d="M72.51,121.68c0-.08,0-.16,0-.24a1.27,1.27,0,0,1,.06.18Z"/><path class="cls-21" d="M73.14,102.48v.24a.51.51,0,0,1-.07-.17S73.11,102.5,73.14,102.48Z"/><path class="cls-21" d="M72.49,120.69l-.29-.17Z"/><path class="cls-21" d="M72.53,121c0-.09,0-.17,0-.26a1,1,0,0,1,.09.18A.38.38,0,0,1,72.53,121Z"/><path class="cls-14" d="M88.07,75.35l.33.19-.14.14-.19-.33Z"/><path class="cls-18" d="M105.59,79.2l-.47,1v.25l-.71.47h-.24v-.24c-.16-.37,1.24-.92-.2-1.07,1.53-2.16,3.67-2.43,6-2.29.19,1.12-.22,1.61-1.39,1.46a3.05,3.05,0,0,0-1,.19Z"/><path class="cls-3" d="M100.56,80.6c.55-.65,1.12-1.27,2-.43-.94.73-1.8,1.67-3.19,1.18Z"/><path class="cls-19" d="M90.73,85.92v-.47a3.84,3.84,0,0,1,0-.83,4.26,4.26,0,0,1,.3-.82c.21.25.56.47.61.74C91.73,85.21,91.94,86.06,90.73,85.92Z"/><path class="cls-28" d="M90.48,83c.4-.93,1-.35,1.45-.34L92,83Z"/><path class="cls-28" d="M92.16,81.6l1.44-.48.25.21C93.38,82,92.85,82.31,92.16,81.6Z"/><path class="cls-28" d="M90.48,83l-.36,1.32c-.42-.61-.36-1.07.36-1.32Z"/><path class="cls-28" d="M92.21,85v-1.4l.18,0L92.61,85Z"/><path class="cls-28" d="M94.09,81.39l.76.17Z"/><path class="cls-19" d="M104.16,80.88h.24v.24h0Z"/><path class="cls-14" d="M92.39,86.17l-.21,0A.23.23,0,0,1,92.39,86.17Z"/><path class="cls-3" d="M94.05,85v.21A.38.38,0,0,1,94.05,85Z"/><path class="cls-5" d="M87.91,73.2V69.29h.24v3.87Z"/><path class="cls-5" d="M106.18,67.81c1.34-.07,1.56.25,1,1.37a1.19,1.19,0,0,0-.16.67c.17,1,.41,2.05.57,3.08a1.21,1.21,0,0,1-.31.88A9.74,9.74,0,0,1,106.18,67.81Z"/><path class="cls-28" d="M75.12,85.68c-.77-1.52-.23-3,1.16-3.1a1.17,1.17,0,0,1,.65.17c.07,0,0,.4,0,.41-.22.06-.5,0-.66.08a3.38,3.38,0,0,0-1.12,1,3.47,3.47,0,0,0,0,1.41Z"/><path class="cls-28" d="M76.08,85l-.41-.87L76,84c0,.33,0,.65,0,1Z"/><path class="cls-28" d="M76.8,85l-.3.44L76.08,85h.72Z"/><path class="cls-28" d="M75.37,87.6l-.49-.48Z"/><path class="cls-28" d="M76.8,85l.55-.6.19.29L76.8,85Z"/><path class="cls-18" d="M101,75.84c0-1.33,1-.86,1.68-1,0,.72-.28,1.62,1.26,1.56l-.4.52a5.19,5.19,0,0,1-1-.25C102,76.46,101.54,76.13,101,75.84Z"/><path class="cls-18" d="M108,76.8l.48-.24Z"/><path class="cls-18" d="M109,76.56l.24-.22Z"/><path class="cls-18" d="M108.72,76.56h0Z"/><path class="cls-10" d="M89.76,85.45c0,.39,0,.79,0,1.18l.45.49c0,.17,0,.33,0,.5,0,2.31,0,4.63,0,6.94h0l-.5.19c-.08-.19-.12-.49-.26-.55a8.5,8.5,0,0,0-1.31-.37c-.47-.11-.94-.23-1.41-.3a7.85,7.85,0,0,0-1,0c.16-.35.4-.63.35-.83C85.89,91.63,83.91,91,83,91.51c-.74.44-1.54.76-2.32,1.13h-.27v-.46a13.75,13.75,0,0,1,.3-1.68c.08-.26.39-.7.53-.67a15.3,15.3,0,0,1,3.1.78,2.55,2.55,0,0,0,2.59-.35l1.44-.49c-.41-.24-.79-.64-1.22-.69a20.8,20.8,0,0,0-2.62,0l-.71-.88.23-.53c1.09.06,2.17.18,3.25.17.46,0,1-.21.58-.9-.31-.48-.63-1-1-1.43l1.44,0c.24.8.47,1.6.71,2.4-.06.17-.13.35-.2.52l.22,0v-.56l.47-2.41A.65.65,0,0,1,89.76,85.45Zm-.48,6.71H87.47a2.19,2.19,0,0,0,1.24.61c.17,0,1.22.36.57-.61l0-.1Zm-.58-2,.44.16a10.61,10.61,0,0,0,.51-1.15c0-.06-.33-.23-.51-.35ZM89,91l0-.1s-.06.06-.07.09,0,.06,0,.09Z"/><path class="cls-11" d="M87.83,86.9c.42.69-.12.89-.58.9-1.08,0-2.16-.11-3.25-.17l-1.19.18-.73,0v-.63c1.51-.15,3-.32,4.39-.44A7.83,7.83,0,0,1,87.83,86.9Z"/><path class="cls-10" d="M82.08,87.84l.73,0c-.56.49-1.13,1-1.7,1.45L80.37,88a.61.61,0,0,1,0-.19Z"/><path class="cls-21" d="M80.36,87.84a.61.61,0,0,0,0,.19c0,1.39,0,2.77,0,4.15,0,.16,0,.31,0,.46-.11.48-.22,1-.32,1.43H79.9V92.16l.06-6.7c.13,0,.37.08.37.11q-.06.9-.15,1.8l.2.28A1.11,1.11,0,0,0,80.36,87.84Z"/><path class="cls-10" d="M80.38,87.65l-.2-.28A2.83,2.83,0,0,1,80.38,87.65Z"/><path class="cls-26" d="M89.52,85.44l-.47,2.41h0l-.71-2.4Z"/><path class="cls-21" d="M105.59,79.2l1.93-.27,3.12-.21h.5l3.33.2.5,0,.21,0a1.79,1.79,0,0,1,0,.23l-.71,0H111.1l-5.5,0Z"/><path class="cls-17" d="M79.9,92.16v1.91h.15c.1-.48.21-.95.32-1.43h.27l.24.48h0l-.24.24-.48,2.16c-.62-.14-1.09-1.36-.83-2a11.47,11.47,0,0,0,.35-1.31Z"/><path class="cls-28" d="M81.6,107.52c.89.53.49,1.24.25,1.92C81.77,108.8,81.68,108.16,81.6,107.52Z"/><path class="cls-28" d="M82.11,112.31c.84.74.48,1.58.21,2.41Z"/><path class="cls-28" d="M81.12,105.12c.15.5.3,1,.44,1.48C81.41,106.11,81.26,105.62,81.12,105.12Z"/><path class="cls-28" d="M82.34,115.19h.23c.36.41.91.87-.2,1Z"/><path class="cls-14" d="M84.49,112.11c-.24-.27-.66-.52-.69-.81a11,11,0,0,1,.56-5.74,4.13,4.13,0,0,0-.11-3.11c-.34-1.06-.88-2.25.45-3.1l.51,1.35c.17.43.35.87.52,1.31,0,.57.14.84.73.55L87.6,102l1.25-.26.35.12c.48,1.11,1.69-.08,2.37.74.14.17,1.07-.28,1.61-.48.11,0,.15-.27.21-.41.31-.7.45-1.72,1-2s1.55,0,2.35.12a1.93,1.93,0,0,0,.24,0l1.42,0,1.51-.35h.51l.62.22a4.94,4.94,0,0,1,.24,1c0,1.36.55,2.07,2,2,.23,0,.48.46.72.7a4.19,4.19,0,0,1-5.08,2.25,6,6,0,0,0-2.67,0c-2.55.55-4.25-.11-5.6-2.4-1.89.87-1.89.86-1.63,2.8s.49,3.79.74,5.68l-1.38.2-.49-2.3c0-1.71,0-3.41-.05-5.12,0-1.08-.43-1.31-1.31-.7a1.45,1.45,0,0,0-.55,1c0,1.62.12,3.24.2,4.86C86.06,111.84,86.06,111.84,84.49,112.11Z"/><path class="cls-22" d="M93.14,114.67,91.92,114a12.33,12.33,0,0,1-1.19-1.32c-.44-.67-.13-1.34.67-1.3,1.35.07,1.83-.59,2-1.82a1.57,1.57,0,0,1,2.25-1.37,4.5,4.5,0,0,0,3.58,0,1.61,1.61,0,0,1,2.34,1.49c.12,1.06.53,1.68,1.74,1.64s1.31.5.78,1.45a4.41,4.41,0,0,1-5.23,1.72,3.06,3.06,0,0,0-2.84.14h0Z"/><path class="cls-20" d="M84.49,112.11c1.57-.27,1.57-.27,1.67-2.44l1.71-.07.49,2.3,1.38-.2.06,2.06-.06,1.31c-.55,1.4-1.11,2.8-1.66,4.19-.22.32-.36.76-.66.93s-1,.32-1.19.14-.22-.84-.3-1.28l.24-.25,1.16.62L88,116l.39.51.25,0v-3.4l-1.47,1.65A4.56,4.56,0,0,0,87,110.6l-.35,5.06L85.28,119c-.44.46-.12,1.51-1.23,1.45-.78,0-1.21-.25-1-1.13.1-.41.13-.85.2-1.27l.29-.94.35-.93C84.11,114.85,84.3,113.48,84.49,112.11Z"/><path class="cls-13" d="M105.61,100.84c.36.83.87,1.23,2,.33-.13.63-.2,1-.28,1.3a8.05,8.05,0,0,0-1.29-.08c-.62.06-1.22.2-1.83.31a26.18,26.18,0,0,1-2-1.83c-.21-.23-.14-.7-.2-1.06l.49-.06.67.39,1,1,.45,1,.47-1Z"/><path class="cls-28" d="M102,99.81c.06.36,0,.83.2,1.06a26.18,26.18,0,0,0,2,1.83c-.07.24-.13.48-.19.72-.24-.24-.49-.71-.72-.7-1.45,0-2-.68-2-2a4.94,4.94,0,0,0-.24-1l1-.05A1.48,1.48,0,0,0,102,99.81Z"/><path class="cls-13" d="M107.27,102.7c-.09.32-.18.64-.26,1C107.09,103.34,107.18,103,107.27,102.7Z"/><path class="cls-26" d="M88.08,119.26c.55-1.39,1.11-2.79,1.66-4.19a5.4,5.4,0,0,1-1.42,4.45Z"/><path class="cls-26" d="M93.14,114.67l2.84,0A2.06,2.06,0,0,1,93.14,114.67Z"/><path class="cls-26" d="M90.28,115s0,.08,0,.09-.06,0-.1,0,0-.08,0-.08A.21.21,0,0,1,90.28,115Z"/><path class="cls-17" d="M86.17,118.8l-.24.25h-.65l1.33-3.38.28.25Z"/><path class="cls-28" d="M83.56,117.15l-.29.94c-.08-.32-.15-.65-.23-1l.46,0Z"/><path class="cls-28" d="M83.91,116.22l-.35.93-.06-.05,0-.46c0-.15,0-.31,0-.47Z"/><path class="cls-18" d="M83.52,116.64l0,.46-.46,0Z"/><path class="cls-17" d="M113.87,57.5H113l0-.26.93-.1Z"/><polygon class="cls-21" points="135.12 88.08 135.22 88.14 135.18 88.18 135.12 88.08"/><path class="cls-27" d="M102,99.81a1.48,1.48,0,0,1,0-.21l-1.67-.93c-.14-.69.32-.93,1-.69a1,1,0,0,0,1.44-.58l1,.09,2.21,2.83-.34.52-.51.36h-.92l-1-1-.67-.39Z"/><path class="cls-26" d="M110.53,114.85h0Z"/><path class="cls-17" d="M114.49,79.25l.71,0c.08,1.46.18,2.93.2,4.4,0,.2-.4.56-.65.6a17.83,17.83,0,0,1-2.08,0c0-.8-.55-1.63.76-1.75a1.16,1.16,0,0,0,.11-.82,7,7,0,0,0-.84-1.16Z"/><path class="cls-24" d="M106.32,86.88l-.48-.72-.23-.48c.11-.3.21-.61.31-.92l1,.8c.17-.23.38-.76.63-.78a11.18,11.18,0,0,1,2.45.11,1.71,1.71,0,0,1,.05,1,7.74,7.74,0,0,1-.6,1.27h0a2.82,2.82,0,0,1-3.12-.24Z"/><path class="cls-17" d="M107,84.14l.2-1.28h4.79l.34,1.28Z"/><path class="cls-27" d="M105.6,79.21l5.5,0,.51.92C109.54,80,107.41,80.66,105.6,79.21Z"/><path class="cls-24" d="M105.58,80.4c1.23-1.13.76.54,1.2.72l.24.28-.59,2.89-.78-.07C105.63,82.94,105.61,81.67,105.58,80.4Z"/><path class="cls-11" d="M105.58,80.4c0,1.27,0,2.54.07,3.82l-.29.26c-.08-.72-.17-1.44-.25-2.16,0-.24,0-.48,0-.72,0-.4,0-.8,0-1.19v-.25Z"/><path class="cls-24" d="M111.19,82h-3.51v-.24h3.53Z"/><path class="cls-21" d="M107,81.4l-.24-.28c.85-.08,1.71-.17,2.57-.23a3.11,3.11,0,0,1,.66.1v.41Z"/><path class="cls-27" d="M89.05,97l1-.08-.35-1.22,1.46-.86A2.05,2.05,0,0,0,93,97l.59.59.76.7c-.67.88-1.48,1.62-1.29,2.83,0,.18-.29.41-.45.62-.48-.88-1-.52-1.44,0l-.72-.48c.19-1-.68-.78-1.18-1l-1-1.31Z"/><path class="cls-20" d="M85.2,98.65l-1.69-2.17c.06-.14.18-.29.17-.43-.05-1.7.58-2.36,2.21-2a20.44,20.44,0,0,1,2.89,1.11l0,0,.23.35c-1.54.28-2.65,1-2.76,2.71,0,.07-.18.12-.28.18l-.54.09-.28.12Z"/><path class="cls-3" d="M95.26,94.07a2.33,2.33,0,0,1,3.33-1.44c.24.1.51.16.76.24l0,0a6.54,6.54,0,0,0,.24.75,2.46,2.46,0,0,1-1,3.19,2.36,2.36,0,0,1-3.13-1L96,95.4c.22.23.44.63.67.64.65,0,1.49.11,1.91-.24a1.81,1.81,0,0,0,.3-1.76,2.09,2.09,0,0,0-1.73-.8c-.49.07-.86.87-1.29,1.34Z"/><path class="cls-25" d="M86,98.42c.1-.06.28-.11.28-.18.11-1.73,1.22-2.43,2.76-2.71,0,.48,0,1,0,1.44-.24.68-.49,1.36-.74,2-.33-.06-.75-.28-1-.15C86.67,99.19,86.35,98.82,86,98.42Z"/><path class="cls-13" d="M93,97a2.05,2.05,0,0,1-1.81-2.21l1.19-.27.09.29.16-.3.45,0,.38.51.37-.87.2-.06.54.3V95L94,96l-.35-.09.59.88Z"/><path class="cls-3" d="M99.13,91.65l.69.3c1.29,1.3,1.32,2.88,1,4.54h0l-.25.49h0l-.51.47h0l-.49.25h-.47c-.57-.42-.12-.56.18-.81a2.49,2.49,0,0,0,.07-4l0,0-.78-1Z"/><path class="cls-9" d="M93,97l1.26-.21-.59-.88L94,96l.55-1,.67-.91.57.51c0,.28.09.55.14.82l-.49.43-.4-.44-.31.26,1.53,2H93.61Z"/><path class="cls-9" d="M94.59,94.36l-.54-.3c.22-.78,0-1.8,1.06-2.13a11.17,11.17,0,0,1,1.18-.2Z"/><path class="cls-9" d="M93.85,94.12l-.37.87-.38-.51Z"/><path class="cls-11" d="M89.75,94.75l.5-.19-1.44.62,0,0Z"/><path class="cls-9" d="M92.65,94.53l-.16.3-.09-.29Z"/><path class="cls-14" d="M94.76,87.42h.52v.11l-.52,0Z"/><path class="cls-14" d="M93,86.49l0,.09-.08-.12Z"/><path class="cls-24" d="M93.61,97.61H96.3l-1.53-2,.31-.26.4.44a2.36,2.36,0,0,0,3.13,1,2.46,2.46,0,0,0,1-3.19,6.54,6.54,0,0,1-.24-.75,2.49,2.49,0,0,1-.07,4c-.3.25-.75.39-.18.81l-3.72.61c.86.16,1.49.25,2.12.39a1.71,1.71,0,0,0,2.07-1h0l.49-.25h.23l2.16-.48.27.44a1,1,0,0,1-1.44.58c-.65-.24-1.11,0-1,.69l1.67.93-1,.05-.62-.23-.51,0-1.51.35-1.33-.88-.09.92a1.93,1.93,0,0,1-.24,0c-.8-.07-1.74-.43-2.35-.12s-.67,1.29-1,2c-.06.14-.1.37-.21.41-.54.2-1.47.65-1.61.48-.68-.82-1.89.37-2.37-.74l.09-.11,1.18-.47.72.48c.48.89,1,.31,1.44,0,.16-.21.48-.44.45-.62-.19-1.21.62-2,1.29-2.83Zm5.57,1.66c0-.06.09-.15.08-.19s-.13-.07-.19-.09-.1.14-.08.19S99.11,99.24,99.18,99.27Z"/><path class="cls-25" d="M100.31,97.44h-.25l.51-.47Z"/><path class="cls-25" d="M100.56,97l.25-.49Z"/><path class="cls-28" d="M106.32,86.88a2.82,2.82,0,0,0,3.12.24l-.49.71C108,87.77,106.86,88.13,106.32,86.88Z"/><path class="cls-26" d="M90.22,87.12l-.45-.49Z"/><path class="cls-17" d="M105.11,80.41c0,.39,0,.79,0,1.19h-.24l-.24-.24-.24-.24v-.24Z"/><path class="cls-18" d="M104.64,81.36l.24.24Z"/><path class="cls-25" d="M95.26,52.35l.51-.74Z"/><path class="cls-25" d="M95.73,55.67l-.21-.46.74.46Z"/><path class="cls-24" d="M89.75,94.75l-1,.4A20.44,20.44,0,0,0,85.89,94c-1.63-.35-2.26.31-2.21,2,0,.14-.11.29-.17.43l-.47.24a3.62,3.62,0,0,1-.37-1.06c0-.28.24-.57.37-.86l.48-.72h0l.44-.41a2,2,0,0,0-.44-.29c-.31-.11-.64-.16-1-.24h2.82v-.46a4.14,4.14,0,0,0-3-.16c-.13,0-.2.38-.29.59H80.88l-.24-.48c.78-.37,1.58-.69,2.32-1.13,1-.56,2.93.12,3.19,1.18,0,.2-.19.48-.35.83a7.85,7.85,0,0,1,1,0c.47.07.94.19,1.41.3a8.5,8.5,0,0,1,1.31.37C89.63,94.26,89.67,94.56,89.75,94.75Z"/><path class="cls-13" d="M86,98.42c.35.4.67.77,1.32.44.24-.13.66.09,1,.15.33.43.65.87,1,1.31l-.24.72-.2.7L87.6,102c0-.56,0-1.11,0-1.67s0-1.3-1-.76c-.16.08-.43,0-.65-.07L85.73,102c-.17-.44-.35-.88-.52-1.31l-.51-1.35.5-.7,0,0,.28-.12Z"/><path class="cls-10" d="M82.56,93.14c.32.08.65.13,1,.24a2,2,0,0,1,.44.29l-.44.41c-.26-.14-.62-.47-.76-.39a1.31,1.31,0,0,0-.65.82c-.08.84,0,1.7,0,2.7-1-.38-.56-2.07-1.92-1.69l.48-2.16.24-.24h1.23Z"/><path class="cls-17" d="M73.2,111.35c0-.79,0-1.59,0-2.39C73.2,109.76,73.2,110.56,73.2,111.35Z"/><path class="cls-10" d="M83.52,94.08,83,94.8Z"/><polygon class="cls-24" points="83.04 96.72 82.98 96.82 82.94 96.78 83.04 96.72"/><path class="cls-17" d="M80.36,92.18c0-1.38,0-2.76,0-4.15.24.41.49.82.74,1.23.57-.48,1.14-1,1.7-1.45L84,87.63l-.23.53.71.88v.71H82.71v.51h4.16a2.55,2.55,0,0,1-2.59.35,15.3,15.3,0,0,0-3.1-.78c-.14,0-.45.41-.53.67A13.75,13.75,0,0,0,80.36,92.18Z"/><path class="cls-28" d="M86.88,90.26H82.72v-.51h1.78l3.83,0Z"/><path class="cls-19" d="M88.32,89.77l-3.83,0c0-.23,0-.47,0-.71a20.8,20.8,0,0,1,2.62,0C87.53,89.13,87.91,89.53,88.32,89.77Z"/><path class="cls-26" d="M88.7,90.18l.44-1.34c.18.12.53.29.51.35a10.61,10.61,0,0,1-.51,1.15Z"/><path class="cls-26" d="M89.28,92.16c.65,1-.4.61-.57.61a2.19,2.19,0,0,1-1.24-.61Z"/><path class="cls-26" d="M89.05,87.85v.56l-.22,0c.07-.17.14-.35.2-.52Z"/><path class="cls-26" d="M89,91l-.07.08s0-.06,0-.09,0-.06.07-.09Z"/><path class="cls-26" d="M89.28,92.16l0-.1,0,.1Z"/><path class="cls-24" d="M80.88,93.12l-.24.24Z"/><path class="cls-30" d="M87.87,109.6l-1.71.07c-.08-1.62-.19-3.24-.2-4.86a1.45,1.45,0,0,1,.55-1c.88-.61,1.29-.38,1.31.7C87.86,106.19,87.86,107.89,87.87,109.6Z"/><path class="cls-30" d="M85.73,102,86,99.5c.22,0,.49.15.65.07,1-.54,1,.11,1,.76s0,1.11,0,1.67l-1.14.56C85.87,102.85,85.68,102.58,85.73,102Z"/><path class="cls-27" d="M97,99.83l.09-.92,1.33.88Z"/><path class="cls-24" d="M88.85,101.74l.2-.7.24.71-.09.11Z"/><path class="cls-28" d="M99.89,99.44l.51,0Z"/><path class="cls-5" d="M86.17,118.8l.72-2.89.26-1.19,1.47-1.65v3.4l-.25,0L88,116l-.65,3.42Z"/><path class="cls-24" d="M87.15,114.72l-.26,1.19-.28-.25c.12-1.78.24-3.55.35-5.06A4.56,4.56,0,0,1,87.15,114.72Z"/><path class="cls-22" d="M104.18,101.19h.92l-.47,1Z"/><path class="cls-28" d="M102.5,99.75l.67.39Z"/><path class="cls-25" d="M89.29,101.75l-.24-.71.24-.72c.5.18,1.37-.08,1.18,1Z"/><path class="cls-25" d="M92.63,101.76c-.48.31-1,.89-1.44,0C91.67,101.24,92.15,100.88,92.63,101.76Z"/><path class="cls-25" d="M85.46,98.51l-.28.12Z"/><path class="cls-15" d="M96,95.4c0-.27-.09-.54-.14-.82.43-.47.8-1.27,1.29-1.34a2.09,2.09,0,0,1,1.73.8,1.81,1.81,0,0,1-.3,1.76c-.42.35-1.26.27-1.91.24C96.41,96,96.19,95.63,96,95.4Z"/><path class="cls-25" d="M99.59,97.66a1.71,1.71,0,0,1-2.07,1c-.63-.14-1.26-.23-2.12-.39l3.72-.61Z"/><path class="cls-25" d="M100.08,97.42l-.49.25Z"/><path class="cls-27" d="M99.18,99.27c-.07,0-.17,0-.19-.09s.05-.13.08-.19.17,0,.19.09S99.21,99.21,99.18,99.27Z"/><path class="cls-12" d="M82.56,93.14l-.45,0c.09-.21.16-.57.29-.59a4.14,4.14,0,0,1,3,.16v.46Z"/></g></g></svg>