<svg xmlns="http://www.w3.org/2000/svg" viewBox="0 0 592.01 413.51"><defs><style>.cls-1{fill:#3f8f7d;}.cls-2{fill:#f4ca7f;}.cls-3{fill:#97d7c9;}.cls-4{fill:#ed6349;}.cls-5{fill:#f1b761;}.cls-6{fill:#3a5d8d;}.cls-7{fill:#e8b057;}.cls-8{fill:#f0755b;}.cls-9{fill:#337f6c;}.cls-10{fill:#173a5d;}.cls-11{fill:#51bda5;}.cls-12{fill:#eda295;}.cls-13{fill:#f7e3bf;}.cls-14{fill:#bd5844;}.cls-15{fill:#539585;}.cls-16{fill:#df5d49;}.cls-17{fill:#e4f6f8;}.cls-18{fill:#aab1af;}.cls-19{fill:#a1c4fc;}.cls-20{fill:#88b1fc;}.cls-21{fill:#5283cd;}.cls-22{fill:#c4daf6;}.cls-23{fill:#abcafc;}.cls-24{fill:#a2c4fd;}.cls-25{fill:#6d97d6;}.cls-26{fill:#6491d3;}.cls-27{fill:#e9faf9;}.cls-28{fill:#f4f1ed;}.cls-29{fill:#a1c4fd;}</style></defs><title>fat</title><g id="Calque_2" data-name="Calque 2"><g id="Calque_1-2" data-name="Calque 1"><path class="cls-1" d="M559.64,317.1c0,.6,0,1.2,0,1.8l-.45,1.19c-3.71,2.31-7.16,5.56-11.21,6.75-8.9,2.62-18.13,4.13-27.19,6.24a78.06,78.06,0,0,0-7.63,2.62c.07.73.15,1.46.22,2.19,2.17.2,4.46,1,6.49.51,4.7-1,9.26-2.66,13.89-4a30.57,30.57,0,0,1,4.85-1.17c3.16-.37,6.74-.93,7.94,3.11,1.13,3.81-1.6,6.13-4.6,7.26-5.59,2.1-11.38,3.63-17.09,5.38-4.61,1.41-9.22,2.78-13.83,4.17a6.59,6.59,0,0,1-1-2.05c-.87-9.41-5.39-12.22-14-8.51A35.63,35.63,0,0,0,490,346c-4.17,2.89-8.23,5.94-12.39,9-2.9-7.84-4.34-8.27-11.46-3.64-.55.36-1.15.63-1.73.94l.21-20.67,9.06,1.86c-2.19-6.2-5.84-5.71-9.47-5.25l.39-17.57,5.12,5.75a27.14,27.14,0,0,1,3.82,1.41c8.24,4.26,17,2.59,22.09-4.42-6.79-6.32-14.58-5-22.62-2.21.43-2.58.72-4.35,1-6.12.32-.68.65-1.36,1-2,.92-1.29,1.85-2.59,2.76-3.84,11.62,5.25,20.33,4,24.33-3.6-7.11-5.6-14.64-5.83-22.66-1.3-.12-5.45,1.55-7.58,6.93-7.45,8.25.2,15.73-7.51,14.93-14.37-7.2-1.2-8.16-.9-17.91,5.73-1-6.63,5.27-9,7.93-13.53l1.46-1.07-.07-.16a13.92,13.92,0,0,0,2.37-1.57q13-13,25.87-26.15a68.71,68.71,0,0,0,4.45-5.57l6-6.87,7.44-7.24,2.94-3,3.3-2.34L554.9,206l4.08,3q1,6,2,12l-4.77,13.33-9.45,14.81-1.59,2.08.07-.05L536,260.86q-10.26,10.69-20.53,21.4l-1.17,5c1.73,0,3.67.57,5.15,0,10.47-4.21,20.75-8.92,31.31-12.92a109.49,109.49,0,0,1,19.11-5.19c2-.37,5.65,1.28,6.51,3s.2,5.66-1.28,7.18c-4.12,4.24-8.59,8.46-13.68,11.37-11.53,6.59-23.53,12.36-35.31,18.53-2.56,1.35-5,3-7.43,4.5l.34,1.47a47.62,47.62,0,0,0,6.52.28c8.6-.79,17.17-2.05,25.78-2.47,2.58-.13,5.27,1.9,7.9,2.94C559.38,316.31,559.51,316.71,559.64,317.1Z" transform="translate(-21.77 -27.09)"/><path class="cls-2" d="M199.63,411.36q.66-3.15,1.34-6.32a2.66,2.66,0,0,0,.16-.83l1-2.47L205,389.87c1.13-3.69,2.4-7.34,3.37-11.06,2.25-8.59,4.35-17.21,6.52-25.82l2.19-10c4.42-1.64,0-3.49-.07-5.15-.31-7.41-1.37-14.79-1.79-22.21-.34-6.29-.17-12.6-.23-18.9,4.09,2.11,8,4.67,12.31,6.25,11.71,4.34,23.79,3.54,35.86,1.7a13,13,0,0,1-.3,2.95c-4.2,12.66-8.57,25.26-12.63,38-2,6.37-3.54,12.92-5.29,19.39-.47.12-1.18.09-1.38.39Q235.39,377.68,227.3,390l-7,10.92c-.72.9-1.44,1.79-2.77,3.47h23.54a3.83,3.83,0,0,1-.22.56c-6.15,0-12.31.2-18.45-.08-3.71-.17-6.31.92-8.26,4.11-2.15,3.51-4.57,6.85-6.88,10.27l-6.46-6.34Z" transform="translate(-21.77 -27.09)"/><path class="cls-3" d="M312.9,82.61c0-2.33,0-4.66,0-7,.05-7,.05-7.21,7.19-7.41,3.72-.11,6.55-.42,8.23-4.64,1.76-4.41,3.17-8-1-12-1.61-1.54-3.31-5.48-2.53-6.55a39.88,39.88,0,0,1,9.39-8.58c.56-.4,3.42,1.62,4.58,3.05,3.66,4.45,7.49,4.85,12.71,2.49,3.73-1.68,4.1-4.37,4.46-7.45.84-7.42.79-7.43,8.25-7.4,1,0,2,.08,3,0,4.22-.34,6.3,1.36,5.78,5.79-.66,5.62,2,8.56,7.16,10.88,5,2.24,7.68-.46,10.44-3.06,3.72-3.51,6.48-3.05,9.33.84,1.66,2.27,3.58,4.36,5.86,7.11a65.82,65.82,0,0,1-5.59,6.45c-2.6,2.35-2.67,4.78-1.21,7.58,1.57,3,1.52,7.58,6.74,7.33,1,0,2,.43,2.95.4,5.46-.17,7.12,2.54,6.48,7.7-.18,1.44,1.19,3.08,1.86,4.63H385c.65-1.08,1.83-2.13,1.87-3.22.63-14.46-12.47-26-25.53-24.16-13.27,1.92-22.15,12.89-20.18,27.25Z" transform="translate(-21.77 -27.09)"/><path class="cls-4" d="M561,221q-1-6-2-12l1.4-1.53c2.87,2.94,4.44.48,6.13-1.47,1.58-6.78-4.89-6.54-8-9.19-1.9-1.52-3.6-3.49-5.75-4.39-1.55-.65-3.71.13-5.6.27.28,2.05-.12,4.64,1,6,1.55,1.88,4.23,2.82,6.42,4.16l.36,3.12-9.84,4.76c-2.63-2.93-5.24-5.89-9.24-1.8-2.37,3.79.79,5.25,3,7.1l-7.44,7.24c-2,.16-5-.38-5.7.65-1,1.47-.28,4.09-.29,6.22a68.71,68.71,0,0,1-4.45,5.57q-12.86,13.16-25.87,26.15a14.24,14.24,0,0,1-2.36,1.57c.19-1.8.37-3.59.56-5.38,1-3.21,1.6-6.67,3.18-9.58,2.09-3.87,5-7.31,7.52-10.92,7.44-10.49,14.95-20.93,22.33-31.46,11.48-16.38,22.84-32.84,34.36-49.2.72-1,2.38-1.35,3.6-2,8.44,5.84,17,11.53,25.27,17.6,4,2.9,5.14,8.62,2.46,12.51-9.5,13.78-19.3,27.36-29,41Zm4-33.76c2.31,1.8,4.45,4,7,5.24,1.06.51,3.1-1,4.69-1.6.69-5.09-1.35-7.84-7.32-9.89-3.43-2.29-5.76-7.77-11.32-3.89-.1,1.74-1,4.19-.14,5.08C559.87,184.29,562.6,185.62,565,187.26Z" transform="translate(-21.77 -27.09)"/><path class="cls-3" d="M56.72,392.14,48,383.55c2.33-3.14,2.44-12.95-.28-16.8-1.19,1.44-3.22,2.81-3.12,4,.25,3.08,1.43,6.1,2.33,9.45l-2.72.91-1.31-1.62.12.06c-.35-.52-.71-1-1.07-1.55l0,.11c-2.73-7.49-6-14.84-8-22.53-.92-3.59.71-7.83,1.18-11.77l9.18-.95L60,347c-.83,4-3.46,8.25,2,11.06l1,1,1,1,1,1,1,1,1,1c.34.32.67.65,1,1l1,1,1,1,1,1,1,1,1,1,.93,1.06q1.94,2.06,3.88,4.1l1,1.09-.63-1.4-4-4L73,369c-.34-.33-.67-.66-1-1l-1-1-1-1-1-1.06-1-1-1-1-1.05-1L65,361l-1-1-1-1-1-1c-.73-3.67.51-6.37,3.93-8l8,7.27,1-.76c-2.69-9.4-7.47-18.61-3-28.65l0,.13,0-1.05,5.85-1.55,3,3.81,5,9.89c.76,1.62,1.53,3.25,2.29,4.88q3.44,8,6.86,16.08L97,365q-1.56,6.5-3.11,13c-.18,1-.37,1.92-.55,2.88,0,2.74,0,5.47,0,8.21l-2.18-.27-2.93-3.07-1-1-1.14-1.86-2-2.12L82,378l-1.5-.78.38.79-4.29,14.23,5.27,1.85,13,7,2.24,3.74c-11.9,1.35-22.8-1.8-33.19-7.32-1.29-.69-2.7-1.17-4.06-1.75,2.09-3.31,4.65-6.44,6.07-10,.9-2.26.29-5.23,0-7.84-.2-1.57-1.14-3.05-1.75-4.57-1.09,1.6-3.11,3.22-3.08,4.79.07,2.91,1.33,5.79,1.94,8.11ZM50,347l-1-1.8-.6.49L50,347c-2.76,1.24-5.7,2.22-8.2,3.86-.9.59-.75,2.77-1.08,4.22,1.35,0,2.9.47,4,0,3.25-1.41,6.33-3.2,10.06-5.15Z" transform="translate(-21.77 -27.09)"/><path class="cls-5" d="M509.1,127.15c-.29,1.62-.58,3.24-.73,4l13.67,12c-1.12,5.84-2.18,11.68-3.36,17.5-.49,2.38-1.23,4.7-1.86,7-.54,1.1-1.08,2.2-1.61,3.3-.61,1.25-1.21,2.5-1.81,3.75q-1.68,5.21-3.37,10.4-1,3.78-1.94,7.56l-6,12.21-.19,3-.92,4.9c-1.29,2.14-2.54,4.3-3.94,6.38-.15.22-1.13-.12-1.72-.19-.34-5.22-3.65-6.34-8.11-5.88,5.42-14.68,10.8-29.38,16.28-44,2.63-7,2-8.65-5-11.16q-16.74-6.06-33.5-12.07V134c2.06-5.68,4.09-11.37,6.18-17,1.46-3.93,4-5,8-3.4,6.58,2.69,13.64,4.41,19.85,7.74C502.41,123.09,507.83,121.83,509.1,127.15Z" transform="translate(-21.77 -27.09)"/><path class="cls-6" d="M97.14,404.86c-.75-1.24-1.5-2.49-2.24-3.74l.18-1.82-2.19-7.15.47-3c0-2.74,0-5.47,0-8.2.18-1,.36-1.93.55-2.89q1.56-6.51,3.11-13a1.41,1.41,0,0,0,0-.79L113.94,346c1.17-.62,2.31-1.31,3.51-1.85,5.71-2.55,11.2-5.84,17.86-5.15,6.19.64,6.77.09,6.78-6.1q0-24.66,0-49.33c0-1.72-.16-3.44-.28-5.86-9.61,5.24-19.07,8.05-29.22,7.12-5.23-.47-10.38-1.83-15.56-2.8-4.63-3.27-9.24-6.57-13.92-9.78a15.78,15.78,0,0,0-3-1.29l-4.14-4.06q-2.47-4.42-5-8.86l-1.92-3,0,0c-.68-7.56-1.42-15.11-2-22.67-.19-2.45,0-4.93,0-7.4l11.34-21.94c6-7.42,13.8-12,22.69-15l8.08-1.72c.78.12,1.83.63,2.3.3,3.59-2.52,6.93-1.4,10.37.33.64.32,1.61,0,2.42,0,4.68,1.53,9.36,3.07,14,4.57,1.49.48,3,.86,4.51,1.29l1.43,3.13c.83-2.86,1.14-3.94,1.46-5,0,7.78,6.85,10.57,11.07,15.29a44.19,44.19,0,0,0,1.88,4.54c7.82,14.34,8.7,29.06,2.48,44.18-1.38,3.35-2.91,6.64-4.37,10L145.18,275c-.73,1.9-2.08,3.79-2.1,5.7-.16,18.15-.1,36.3-.07,54.44a20.91,20.91,0,0,0,.56,3.38l1.45-.12c0-1.71,0-3.42,0-5.13l.3-45.43a46.08,46.08,0,0,1,.63,5.33c.05,13.23.3,26.47-.11,39.69-.15,4.62,1.36,6.6,5.62,7.18,1.79.25,3.54.74,5.3,1.11a5.35,5.35,0,0,0,1.11,1q29.85,14.53,28.29,47.7-1.08,5.73-2.15,11.44l-1.51,2.31,8.49,1c-6.61-.7-10.17,2.6-14,8-19.2,26.9-59.54,25.05-76.94-3.09C99.09,407.93,98.11,406.4,97.14,404.86Zm18.67-215a45.58,45.58,0,0,0-45.75,45.65C70,260.29,90.61,281,115.48,281a45.61,45.61,0,1,0,.33-91.21Zm26.5,152.27C118.52,340.85,98,359,96.83,382.33c-1.2,24.12,16.71,44.66,39.87,45.75,24.79,1.15,44.94-16.83,46.13-41.19C184,363.85,165.34,343.27,142.31,342.08Z" transform="translate(-21.77 -27.09)"/><path class="cls-7" d="M244.94,365c1.75-6.47,3.25-13,5.29-19.39,4.06-12.7,8.43-25.3,12.63-38a13,13,0,0,0,.3-2.95l7.56-4.64c.72,15.38,1.29,30.76,2.23,46.13.77,12.74-.45,25.08-5.86,36.79l-2.29,6.72q-2.49,5.5-5,11l-.91,3.55c0,.19,0,.38,0,.57-2,4-3.89,8.08-5.86,12.11-1,2-2,4-3.07,6.08l-10.72.94,1.59-19.05a3.83,3.83,0,0,0,.22-.56c0-.85,0-1.7-.07-2.55l2-12a18.5,18.5,0,0,0,.75-2.81C244.5,379.73,248.52,372.58,244.94,365Z" transform="translate(-21.77 -27.09)"/><path class="cls-8" d="M502.07,205l6-12.21,2,.72c1.63,5.07,6.49,8,10.95,6.57,3.19-2.6,2.73-5-.45-7.18-1.77-1.21-3.66-2.24-5.5-3.35l-5-4.32q1.68-5.2,3.37-10.4l8.05,5c2,1.59,3.81,3.71,6.09,4.57,1.54.59,4.55,0,5.42-1.16s.07-4-1-5.39c-1.31-1.75-3.61-2.76-5.49-4.09l-9.69-6c.63-2.35,1.37-4.67,1.86-7,1.18-5.82,2.24-11.66,3.36-17.5,1.35-1.67,2.59-3.45,4.07-5,3.46-3.63,8.07-4.53,12.18-1.74,8.78,6,17.33,12.27,26,18.43-1.22.65-2.88,1-3.6,2-11.52,16.36-22.88,32.82-34.36,49.2-7.38,10.53-14.89,21-22.33,31.46-2.56,3.61-5.43,7.05-7.52,10.92-1.58,2.91-2.16,6.37-3.18,9.58-.77-4.09,1.17-8.83-2.88-12.14.22-1.46.09-3.09.71-4.35,1.88-3.79.37-9,4.87-11.66l4.73-.07c-.49-1.73-.61-3.71-1.58-5.11-.66-1-2.48-1.11-3.78-1.63l0-4c.59.07,1.57.41,1.72.19,1.4-2.08,2.65-4.24,3.94-6.38,1.5,1,3,2,4.49,2.86,2.7,1.59,4.88,1.18,6.28-1.82C511.66,209.1,507.9,205.6,502.07,205Zm23-49.93c-.16,1.33-.94,3.36-.37,3.87a85.52,85.52,0,0,0,8,5.8c2,1.42,3.85,3.31,6.09,4.1,1.42.49,4.41-.16,4.91-1.18a6.06,6.06,0,0,0-.66-5.43c-1.49-1.84-4-2.84-6.07-4.2-2.15-1.54-4.12-3.6-6.52-4.43C529,153.05,526.92,154.46,525.1,155Z" transform="translate(-21.77 -27.09)"/><path class="cls-3" d="M464.43,352.25c.58-.31,1.18-.58,1.73-.94,7.12-4.63,8.56-4.2,11.46,3.64,4.16-3,8.22-6.08,12.39-9a35.63,35.63,0,0,1,6.05-3.4c8.59-3.71,13.11-.9,14,8.51a6.59,6.59,0,0,0,1,2.05l-2.8,2.53c6.83-.64,13-1.44,19.14-1.71,3.62-.16,7.32.45,9.42,4.16-11.69,4.68-23.41,9.29-35.06,14.06-12.57,5.16-25.08,10.47-37.62,15.71Q464.27,370.07,464.43,352.25Z" transform="translate(-21.77 -27.09)"/><path class="cls-9" d="M124.2,186.88c-.81,0-1.78.33-2.42,0-3.44-1.73-6.78-2.85-10.37-.33-.47.33-1.52-.18-2.3-.3-1.15-5-2.08-10.11-3.48-15.07-3.53-12.41-3.53-25-2.18-37.67,1.16-10.85.93-21.53-1.87-32.2A57.32,57.32,0,0,1,100.06,86c0-2.19,1.8-5.53,3.57-6.17,1.52-.54,4.78,1.5,6.19,3.27,6.62,8.27,9.84,17.8,8.12,28.44-2.2,13.58-.19,26.84,1.91,40.2C121.69,163.41,122.78,175.17,124.2,186.88Z" transform="translate(-21.77 -27.09)"/><path class="cls-10" d="M464.43,352.25q-.17,17.82-.31,35.64c-2.14,6.43-4.94,12.3-12.2,14.38l-4.42,1.94h-.07l-21.84.38c-.21-1.19-.42-2.38-.64-3.57l16.2.31c14.33.87,20.13-9.22,20.09-20.75q-.45-137.41-.06-274.83c0-8.86-3.29-15-11.15-18.85L447,86l-3-.11a34,34,0,0,0-5.25-.81q-72.28-.06-144.55,0a34.07,34.07,0,0,0-5.25.82l-12.93,0H257l-3,.21-9-.23a31.86,31.86,0,0,0-4.79-.78c-7.34-.08-14.67.08-22-.12-1.41,0-2.78-1.33-4.16-2l2.69-.22,24.08-.08,16,.07,15-.1,13,.1,28-.11,28.24,0,43.84.13H417l30.95.49,1.11.63h0l1,1L453,85l4.75,3.13L461,91c.57,1.29,1.15,2.57,1.72,3.86l1.38,5.2.08,72c0,3.28,0,6.57,0,9.86l.12,52.75,0,56.61q.18,9.66.35,19.32l-.39,17.57c.14,1.13.27,2.26.41,3.39Z" transform="translate(-21.77 -27.09)"/><path class="cls-11" d="M451.92,402.27c7.26-2.08,10.06-7.95,12.2-14.38,12.54-5.24,25.05-10.55,37.62-15.71,11.65-4.77,23.37-9.38,35.06-14.06l.6,1.53L537,363c-3,3.38-5.37,7.66-9,10-6.68,4.23-14.11,7.3-22,11.25,2.28.36,4.37.18,5.85,1.05,2.26,1.33,5.62,3.29,5.74,5.16.13,2.21-2.25,6.09-4.28,6.67-8.41,2.39-17,4.64-25.71,5.38-11.26,1-22.64.43-34,.49C453.07,403,452.5,402.53,451.92,402.27Z" transform="translate(-21.77 -27.09)"/><path class="cls-1" d="M101,188c-8.89,3-16.73,7.53-22.69,15-7.09-21.28-14-42.6-21.32-63.81-2.37-6.9-5.83-13.42-8.3-20.29a52.78,52.78,0,0,1-2.43-12.06c-.13-1.24,1.46-2.66,2.26-4,1.1.89,2.57,1.55,3.24,2.69,5.7,9.75,11.1,19.68,16.91,29.37,9.21,15.36,18.69,30.57,28,45.86C98.21,183.1,99.6,185.55,101,188Z" transform="translate(-21.77 -27.09)"/><path class="cls-12" d="M425,401c.22,1.19.43,2.38.64,3.57,1.38,6.09,2.74,12.19,4.19,18.26a16,16,0,0,0,1.45,3l-9.44,5.1c-2.07-7.41-4.21-14.79-6.16-22.23-.77-2.93-2.39-3.91-5.35-3.83-6.11.18-12.23.06-19,.06-.4,8.18-.78,16-1.16,23.89-3.52,1.31-7,3.53-10.7.42,5.48-7.67,2.27-15.77,1.6-24.31h-7.3q-52.11,0-104.23,0a41.18,41.18,0,0,1-4.41-.45c11.66-.08,23.31-.22,35-.24,25.49,0,51,0,76.47-.09,1.61,0,4.81,1.64,4.41-2.46q-.92-6-1.82-11.94,0-3.37-.11-6.75-1-11.5-2-23h6.92V295.09l1-.06c.06,27.58.16,55.16.1,82.73,0,3.74.87,5.78,5,5.15a16.71,16.71,0,0,1,3,.1q0,3.44.11,6.87l-.39,10.84c-.68.84-1.35,1.69-2.81,3.53,8.16,0,14.92.05,21.67-.13.39,0,.73-1.88,1.09-2.88q-2.71-5.75-5.45-11.49c-.7-2.48-1.41-5-2.11-7.45l17.58-.13.36,7.74Z" transform="translate(-21.77 -27.09)"/><path class="cls-8" d="M457.71,88.17,453,85c2-5.07,4.08-10.12,6-15.21s3.79-6.12,8.64-4.35c14,5.1,27.93,10.38,41.95,15.42,4.27,1.53,5.24,4.12,3.76,8.1q-3.74,10-7.42,20l-6.94-1.9c1.74-5.18,3.58-10.32,5.13-15.55.39-1.3-.17-2.87-.3-4.31-1,1-2.44,1.72-2.91,2.88-2.12,5.21-4,10.53-5.9,15.82l-5-2.08a11.57,11.57,0,0,1,.29-2.45c1.69-4.82,3.54-9.59,5.09-14.46.3-1-.45-2.27-.72-3.42-.9.68-2.28,1.19-2.62,2.08-2.12,5.7-4,11.48-6,17.23L479,100.08c3.36-6.22,6.23-12.58,6.9-19.57l-2.57-.85q-3.26,9.77-6.5,19.54L468,96.06c4.16-1.38,9.67-15.28,7-21l-8.25,20.16-4-.39c-.57-1.29-1.15-2.57-1.72-3.86l7.62-17.11c-4.24-1.69-4.7.62-5.61,2.85C461.4,80.63,459.48,84.37,457.71,88.17Z" transform="translate(-21.77 -27.09)"/><path class="cls-6" d="M214.12,83c1.38.7,2.75,2,4.16,2,7.33.2,14.66,0,22,.12a31.86,31.86,0,0,1,4.79.78H214.84V97.52c-1.56,4.34-2.92,8.76-4.71,13-4.17,9.91-12.21,16.33-20.71,22.26-10.47,3.91-21.16,5.68-32.27,3.34L146,132.58c0,12.41.05,24.54,0,36.67,0,3.28-.42,6.56-.64,9.84-.1-14.44-.14-28.89-.39-43.33,0-1.59-1.27-3.16-1.95-4.73,0-.39,0-.78,0-1.17-17.4-11.87-25.1-31.76-19.82-51.2a46.51,46.51,0,0,1,87.68-6.37c1.39,3.18,2.29,6.57,3.41,9.86A1.37,1.37,0,0,0,214.12,83Zm-3,12.23c.12-28-18.72-47.26-42.42-47.49-24-.23-43.95,18.87-43.55,42.63.49,28.77,21.19,42.88,42.81,44.06,11,.59,22-4.42,30.33-12.95S211,102.87,211.11,95.18Z" transform="translate(-21.77 -27.09)"/><path class="cls-3" d="M576.94,318c-.27-2-.05-4.16-.87-5.85-3.92-8.06-4.58-17.79,3.73-25.71l5.94,15.87c3.58-6.47,7.91-12.46,7.48-20.87s9-19.05,15.93-18c2.69,8.94-2.16,20-10.71,24.33C594,290,594,290,592.35,295.31c3.69-1.08,7.24-2.77,10.88-3,3.47-.21,7,1.13,10.54,1.79-2.14,10.59-14.15,15.29-27.29,11.14l-4.07,6.9c5,.29,9.92-.26,14.28,1.07,4.18,1.27,7.77,4.47,11.69,6.87-6.66,8.8-18.91,6.28-26.23.57a27.94,27.94,0,0,0-5-2.54Z" transform="translate(-21.77 -27.09)"/><path class="cls-1" d="M75.94,266.87l4.14,4.06c1.28,3.22,3.19,6.33,3.72,9.67a48.79,48.79,0,0,0,8.2,20c2.7,4,4.77,8.38,7.53,12.3,2.51,3.56,5.58,6.73,8.4,10.08l-3.09,7.19L89.59,313.85l-9.9,9.2-1.9,2.34-5.85,1.55c-.09.12-.27.24-.26.34a3.91,3.91,0,0,0,.23.71l0-.13a22.88,22.88,0,0,1-4,1.55,15.63,15.63,0,0,1-3.67-.09c.21-1.38,0-3.59.72-4,2.35-1.25,5.08-2.54,7.64-2.49,3,.07,4.19-.46,4.32-3.59.21-5.27,2.82-8.69,8.58-9.19a61.45,61.45,0,0,0-11.29-26.8c-5.34-7.17-9.76-15-15-22.3-3.38-4.69-7.61-8.77-11.18-13.35-1-1.33-1.12-3.42-1.63-5.16,2.18-.26,4.74-1.36,6.45-.58,2.41,1.09,4.44,3.36,6.18,5.5,2.8,3.44,5.24,7.18,7.83,10.8Z" transform="translate(-21.77 -27.09)"/><path class="cls-2" d="M479,100.08l7.12,2.75,3.93,1,5,2.08,4,1.16,6.94,1.9c2.68,1.35,5.55,2.44,8,4.15,1.41,1,3,3,3,4.54.12,5.29-2.85,8.54-7.79,9.47-1.27-5.32-6.69-4.06-10-5.85-6.21-3.33-13.27-5-19.85-7.74-4.07-1.65-6.57-.53-8,3.4-2.09,5.66-4.12,11.35-6.18,17q0-12.51,0-25a9.24,9.24,0,0,1,1.49,0c7.75,1.44,7.75,1.45,10.48-6.59.27-.78.64-1.52,1-2.28Z" transform="translate(-21.77 -27.09)"/><path class="cls-3" d="M573.18,324.2c-.93,2-1.85,4.07-3,6.55,10.17-2.11,19-.73,25.25,8.19-6.57,7.55-17.87,6.17-29.09-3.78l-9.21,10.44c3.55,2.15,8.32,3,7.57,10.21l-11.19-5.95L544,357.05l-.15-.17c2.7-3.05,5.35-6.14,8.12-9.13,4.36-4.71,8.8-9.34,13.06-13.85-6.24-12.39-5.85-21.26,1.25-28.82,3.88,4.88,5.88,10.11,5.1,16.36-.09.75,1,1.63,1.47,2.45Z" transform="translate(-21.77 -27.09)"/><path class="cls-13" d="M284.9,82.72l-13-.1c-.5-6.46-2.89-10.12-7.62-11.34-4.19-1.09-7.43.62-9.84,4-2.63,3.64-1.83,5.92,2.43,7.48l-16-.07c.75-1.23,1.21-3.05,2.3-3.58,3.88-1.89,4.94-3.94,2-7.68-.84-1.07-.61-3.35-.16-4.87.19-.69,2.19-1.42,3.21-1.23,7.71,1.42,7.7,1.49,9.38-5.79,2.73-.88,5.14-1,6.24,2.47,1.34,4.29,3.91,3.44,6.94,1.79,1.2-.65,3.44-1.14,4.16-.51,1.1,1,2.11,3.21,1.73,4.5-1.22,4.21-.7,6.61,4.22,7.35,3.43.51,3.78,3.56.92,6.35Z" transform="translate(-21.77 -27.09)"/><path class="cls-9" d="M67,224.87c0,2.47-.17,4.95,0,7.4.6,7.56,1.34,15.11,2,22.67-6-12.37-12.19-24.62-17.73-37.17-2-4.43-2.68-9.57-3.06-14.46-.14-1.85,2.28-5.47,3.56-5.48,2.1,0,4.63,1.88,6.2,3.66,1.18,1.32.94,3.8,1.67,5.64C62,213.07,64.55,219,67,224.87Z" transform="translate(-21.77 -27.09)"/><path class="cls-10" d="M380.87,401.71c.4,4.1-2.8,2.46-4.41,2.46-25.49.11-51,.06-76.47.09-11.65,0-23.3.16-35,.24l-2.67.17-3.44-.38c.3-1.18.61-2.37.92-3.55l13.19.35h79Z" transform="translate(-21.77 -27.09)"/><path class="cls-11" d="M199.63,411.36l1.17,1.54L207,427.47l7.62,7.27-19.09,0,3.74-1c-1.4-4.79-2.61-9.37-4.07-13.88C193.14,413.36,193.07,413.38,199.63,411.36Z" transform="translate(-21.77 -27.09)"/><path class="cls-8" d="M265,434.67a37.13,37.13,0,0,1,6.42.09c1.61.28,3.08,1.36,4.62,2.09-1.67,1.31-3.72,4-4.94,3.72-14.29-3.88-28.83-.36-43.15-1.85.05-1.25.09-2.51.14-3.76l7.38-.19Z" transform="translate(-21.77 -27.09)"/><path class="cls-14" d="M228.09,435c-.05,1.25-.09,2.51-.14,3.76-7.51,2.5-15.07-1.09-22.58.18-3.34.56-6.68,1.64-10,1.58-2.92-.05-5.82-1.35-9.44-2.28l.62-3.42v0l5.29,0h.28l3.44,0,19.11,0Z" transform="translate(-21.77 -27.09)"/><path class="cls-4" d="M515.49,282.26q10.26-10.71,20.53-21.4l9.24-9.67c-6.34,9.23-12.52,18.58-19.11,27.65C523.68,282.25,519.8,283.45,515.49,282.26Z" transform="translate(-21.77 -27.09)"/><path class="cls-15" d="M68.43,310.63a80.87,80.87,0,0,1,4.36-10.08c.57-1,3.16-.84,4.83-1.21-.2,1.61,0,3.39-.68,4.79a94.42,94.42,0,0,1-4.82,8.46,4.22,4.22,0,0,1-1.54,1.62,95.44,95.44,0,0,1-8.93,4.05c-1.21.44-2.73,0-4.11,0,.34-1.49.24-3.92,1.1-4.32C61.74,312.44,65.17,311.66,68.43,310.63Z" transform="translate(-21.77 -27.09)"/><path class="cls-11" d="M265,434.67l-29.54.1,2.59-5.08,12.68-.94Z" transform="translate(-21.77 -27.09)"/><path class="cls-10" d="M143,131c.68,1.57,1.92,3.14,1.95,4.73.25,14.44.29,28.89.39,43.33,0,1.27,0,2.54,0,3.8.13,1.06.25,2.12.38,3.18l0,4.79-1.45,5-1.43-3.13c-.07-1.21-.15-2.41-.22-3.61V176.88l0-44.76.3-1Z" transform="translate(-21.77 -27.09)"/><path class="cls-10" d="M379.37,429.28c3.69,3.11,7.18.89,10.7-.42,2.21,5.88,1.69,6.76-4.23,6.88-6.1.13-12.2.18-18.3.24-.26,0-.52-.27-2.07-1.14Z" transform="translate(-21.77 -27.09)"/><path class="cls-1" d="M44.19,381.12l2.72-.91c-.9-3.35-2.08-6.37-2.33-9.45-.1-1.2,1.93-2.57,3.12-4,2.72,3.85,2.61,13.66.28,16.8A51.31,51.31,0,0,1,44.31,388a14.59,14.59,0,0,1-3.11,1.87c-.36-1.31-1.38-2.95-.93-3.88C41.15,384.18,42.84,382.73,44.19,381.12Z" transform="translate(-21.77 -27.09)"/><path class="cls-1" d="M56.72,392.14,63,386.26c-.61-2.32-1.87-5.2-1.94-8.11,0-1.57,2-3.19,3.08-4.79.61,1.52,1.55,3,1.75,4.57.33,2.61.94,5.58,0,7.84-1.42,3.58-4,6.71-6.07,10C56.43,396.67,57.19,393.87,56.72,392.14Z" transform="translate(-21.77 -27.09)"/><path class="cls-15" d="M44.37,342.87l-9.18.95-6.06,1c-.16-1.05-.81-2.65-.39-3,1.75-1.55,3.72-3.58,5.81-3.85C38.56,337.47,43.28,336.93,44.37,342.87Z" transform="translate(-21.77 -27.09)"/><path class="cls-15" d="M60.07,297c.33-1.14.6-2.31,1-3.41.75-2,1.25-4.18,2.55-5.7.76-.89,2.85-.64,4.35-.91,0,1.38.42,2.93-.07,4.1-1.38,3.28-3.14,6.39-5,10l-2.81-4.17Z" transform="translate(-21.77 -27.09)"/><path class="cls-15" d="M62,358c-5.48-2.81-2.85-7.1-2-11.06.84-.76,1.65-2.14,2.5-2.16a30.48,30.48,0,0,1,5.83.93Q67.12,347.85,66,350c-3.42,1.62-4.66,4.32-3.93,8Z" transform="translate(-21.77 -27.09)"/><path class="cls-10" d="M421.79,431l9.44-5.1c1.91,3.27,3.65,6.79-.5,9.44C427.48,437.39,424.33,435.62,421.79,431Z" transform="translate(-21.77 -27.09)"/><path class="cls-12" d="M250.73,428.75l-12.68.94q.6-2.85,1.21-5.7l10.72-.94Z" transform="translate(-21.77 -27.09)"/><path class="cls-15" d="M43,379.56l-.12-.06c-5.16-2.46-9.53-1.32-13,3.85l-1.35-1.54,2.93-5.21L31,370.94l1.48-.51c2.42,3.6,1.95,11.14,9.52,7.69l0-.11C42.29,378.52,42.65,379,43,379.56Z" transform="translate(-21.77 -27.09)"/><path class="cls-15" d="M30.53,330.45l-7.6,4-1.16-1.34,5-5,.3-5.94,2-.18C29.52,324.75,30,327.49,30.53,330.45Z" transform="translate(-21.77 -27.09)"/><path class="cls-15" d="M57,295l-9,2.21-1-.53,4.81-5.44v-5.41l1.09-.06L56.94,295Z" transform="translate(-21.77 -27.09)"/><path class="cls-10" d="M191,404.59l-8.49-1,1.51-2.31,1.88,0,1.22,0,3.81,0,4.16,0h1.82l2.2,0,3.05.4-1,2.47-2.12.42h-6Z" transform="translate(-21.77 -27.09)"/><path class="cls-16" d="M561,221l2,5-6.79,8.36Q558.62,227.69,561,221Z" transform="translate(-21.77 -27.09)"/><path class="cls-17" d="M75.94,266.87l-9-8.69,2.35-1.26L71,258Q73.47,262.43,75.94,266.87Z" transform="translate(-21.77 -27.09)"/><path class="cls-3" d="M537,363l.36-3.39,6.5-2.77.14.17Q540.53,360,537,363Z" transform="translate(-21.77 -27.09)"/><path class="cls-3" d="M572.89,323.89l4.05-5.94.21.18-4,6.06Z" transform="translate(-21.77 -27.09)"/><path class="cls-9" d="M71,258l-1.69-1.09c-.08-.65-.16-1.3-.23-2Z" transform="translate(-21.77 -27.09)"/><path class="cls-4" d="M545.19,251.24l1.59-2.08Z" transform="translate(-21.77 -27.09)"/><path class="cls-12" d="M258.92,404.29l3.44.38-3.44.19A5.42,5.42,0,0,1,258.92,404.29Z" transform="translate(-21.77 -27.09)"/><path class="cls-6" d="M193,404.62h0Z" transform="translate(-21.77 -27.09)"/><path class="cls-13" d="M214.12,83a1.37,1.37,0,0,1,.11-.8l2.58.58Z" transform="translate(-21.77 -27.09)"/><path class="cls-18" d="M142.54,182.88v0Z" transform="translate(-21.77 -27.09)"/><path class="cls-18" d="M142.54,176.88v0Z" transform="translate(-21.77 -27.09)"/><path class="cls-6" d="M199,404.63l2.12-.42a2.66,2.66,0,0,1-.16.83Z" transform="translate(-21.77 -27.09)"/><path class="cls-15" d="M58,296.07l2.09.89.06-.06L58,296Z" transform="translate(-21.77 -27.09)"/><path class="cls-11" d="M192.12,434.72h-.28s.16-.18.16-.18Z" transform="translate(-21.77 -27.09)"/><path class="cls-10" d="M143,129.86c0,.39,0,.78,0,1.17l-.1.09-.77-.21Z" transform="translate(-21.77 -27.09)"/><path class="cls-18" d="M142.1,130.91l.77.21-.3,1C142.41,131.72,142.25,131.31,142.1,130.91Z" transform="translate(-21.77 -27.09)"/><path class="cls-6" d="M450.11,85l-1-1Z" transform="translate(-21.77 -27.09)"/><path class="cls-6" d="M449.1,83.9,448,83.27Z" transform="translate(-21.77 -27.09)"/><path class="cls-15" d="M56.94,295l1,1.06L58,296,57,295Z" transform="translate(-21.77 -27.09)"/><polygon class="cls-12" points="425.66 377.14 425.73 377.13 425.71 377.38 425.66 377.14"/><path class="cls-3" d="M559.2,320.09l.45-1.19Z" transform="translate(-21.77 -27.09)"/><path class="cls-3" d="M559.64,317.1c-.13-.39-.26-.79-.4-1.18C559.38,316.31,559.51,316.71,559.64,317.1Z" transform="translate(-21.77 -27.09)"/><path class="cls-11" d="M186.55,434.76v0Z" transform="translate(-21.77 -27.09)"/><path class="cls-18" d="M142.54,187.87v0Z" transform="translate(-21.77 -27.09)"/><path class="cls-3" d="M490.39,245.89c4.05,3.31,2.11,8.05,2.88,12.14-.19,1.79-.37,3.58-.56,5.38a1,1,0,0,0,.06.16l-1.46,1.07c-2.66,4.5-8.9,6.9-7.93,13.53,9.75-6.63,10.71-6.93,17.91-5.73.8,6.86-6.68,14.57-14.93,14.37-5.38-.13-7.05,2-6.93,7.45,8-4.53,15.55-4.3,22.66,1.3-4,7.64-12.71,8.85-24.33,3.6-.91,1.25-1.84,2.55-2.76,3.84h0c.9-4.18.29-7.5-3-11-4.35-4.66-4.33-13.47-.43-19.72l8.32,13c1.11-6.67,4.5-13,1.51-19.95-.48-1.1-.09-2.6,0-3.92C481.72,254.68,485.88,250.19,490.39,245.89Z" transform="translate(-21.77 -27.09)"/><path class="cls-3" d="M464.62,310.62q-.17-9.66-.35-19.32c2.53,3.95,5,7.93,7.61,11.83A11,11,0,0,0,474,305l.06,0-1,6.12c8-2.82,15.83-4.11,22.62,2.21-5.08,7-13.85,8.68-22.09,4.42a27.14,27.14,0,0,0-3.82-1.41Z" transform="translate(-21.77 -27.09)"/><path class="cls-15" d="M554.9,206l-.36-3.12,2.31-3.14,9.66,6.29c-1.69,2-3.26,4.41-6.13,1.47L559,209Z" transform="translate(-21.77 -27.09)"/><path class="cls-13" d="M525.39,230.12c0-2.13-.71-4.75.29-6.22.69-1,3.72-.49,5.7-.65Z" transform="translate(-21.77 -27.09)"/><path class="cls-3" d="M464.64,331.58c-.14-1.13-.27-2.26-.41-3.39,3.63-.46,7.28-.95,9.47,5.25Z" transform="translate(-21.77 -27.09)"/><path class="cls-13" d="M535.82,208.91c4-4.09,6.61-1.13,9.24,1.8l-3.3,2.34Z" transform="translate(-21.77 -27.09)"/><path class="cls-12" d="M535.82,208.91l5.94,4.14-2.94,3C536.61,214.16,533.45,212.7,535.82,208.91Z" transform="translate(-21.77 -27.09)"/><path class="cls-3" d="M475,303c-.32.67-.65,1.35-1,2l-.06,0c.35-.66.69-1.32,1-2Z" transform="translate(-21.77 -27.09)"/><path class="cls-4" d="M491.31,264.64l1.46-1.07Z" transform="translate(-21.77 -27.09)"/><path class="cls-19" d="M157.15,136.13c11.11,2.34,21.8.57,32.27-3.34,1.12,1.34,2.54,2.53,3.27,4.06.6,1.26.13,3,.57,4.37,2.91,9.07,6,18.08,8.85,27.17A87.58,87.58,0,0,1,204,178c-1.33,0-2.66,0-4,0-12.15.25-22.45,8.69-23.95,19.76-1.78,13.22,4.32,24.71,17.91,28,3.77.91,5,2.94,5,6.24.07,8.16,0,16.33,0,24.49,0,2.18,0,4.36,0,6.54-6.67,11.49-9.57,24.18-12,37a15.22,15.22,0,0,1-7.89,11l-6,3.71c1.75,1.05,3.44,2.19,5.26,3.1a6.28,6.28,0,0,0,2.4.16l2.26,5L183,323c1.36,2.52,2.61,3.07,4,0,1-2.22,2.59-4.21,3.26-6.49,1.2-4,3.06-4.67,6.87-1.53-3.91-7.49-4.66-14.21,1.82-20,0,9-.16,18.08,0,27.12.05,3,.06,5.12-3.56,6.49-8.35,3.16-13.53,8.93-11.45,19,2.38,11.55,14.58,17.1,24.46,10.6,2.3-1.51,4.36-3.38,6.53-5.08-2.17,8.61-4.27,17.23-6.52,25.82-1,3.72-2.24,7.37-3.37,11.06l-18.84-.05q1.5-33.13-28.29-47.7a5.06,5.06,0,0,1-1.1-1c.09-12.3.26-24.61.25-36.91,0-13.13-.2-26.27-.31-39.4,1.46-3.32,3-6.61,4.37-10,6.22-15.12,5.34-29.84-2.48-44.18a44.19,44.19,0,0,1-1.88-4.54c.11-2,.3-4,.31-5.93Q157.12,168.18,157.15,136.13Z" transform="translate(-21.77 -27.09)"/><path class="cls-9" d="M270.72,300.08l-7.56,4.64c-12.07,1.84-24.15,2.64-35.86-1.7-4.29-1.58-8.22-4.14-12.31-6.25-.63-2.69-1.84-5.39-1.77-8.06.19-6.63,1-13.25,1.5-19.87l2.05-3.9c1.3-.48,3.09-.58,3.84-1.51,4.56-5.64,9.23-11.23,13.1-17.33a13,13,0,0,0,1.49-9.25c-1.36-5.15-4.08-9.93-6.23-14.86l3.77-1.5c3.59,4.24,6.72,9,10.91,12.57,4.94,4.18,9.93,1.87,11.29-4.51.65-3.05,1.08-6.15,1.61-9.23a1.44,1.44,0,0,1,.51.79c6.6,6.11,9.43,14.27,11.9,22.53,1.38,4.61,2.22,9.37,3.3,14.06l1.95,14Q272.47,285.38,270.72,300.08Z" transform="translate(-21.77 -27.09)"/><path class="cls-20" d="M214.89,353c-2.17,1.7-4.23,3.57-6.53,5.08-9.88,6.5-22.08.95-24.46-10.6-2.08-10,3.1-15.81,11.45-19,3.62-1.37,3.61-3.45,3.56-6.49-.16-9,0-18.08,0-27.12.1-.63.2-1.27.29-1.9.6,1.5,1.69,3,1.72,4.5.16,8.77,0,17.55.16,26.32,0,1.37.82,3.74,1.66,3.94,8.28,1.93,11.9,8,14.34,15.28Z" transform="translate(-21.77 -27.09)"/><path class="cls-19" d="M217.08,343c-2.44-7.27-6.06-13.35-14.34-15.28-.84-.2-1.64-2.57-1.66-3.94-.15-8.77,0-17.55-.16-26.32,0-1.51-1.12-3-1.72-4.5a32.16,32.16,0,0,1,2-4.33c4.34-6.72,6.69-14.81,13.52-19.83-.53,6.63-1.31,13.25-1.5,19.88-.07,2.67,1.14,5.37,1.77,8.06.06,6.3-.11,12.61.23,18.9.42,7.42,1.48,14.8,1.79,22.21C217.08,339.54,221.5,341.39,217.08,343Z" transform="translate(-21.77 -27.09)"/><path class="cls-19" d="M244.94,365c3.58,7.56-.44,14.71-1.21,22a18.5,18.5,0,0,1-.75,2.81L227.3,390q8.12-12.3,16.26-24.58C243.76,365.11,244.47,365.14,244.94,365Z" transform="translate(-21.77 -27.09)"/><path class="cls-21" d="M227.3,390l15.68-.13-2,12-20.7-.92Z" transform="translate(-21.77 -27.09)"/><path class="cls-21" d="M186.16,389.82l18.84.05-2.85,11.87-3.05-.41-2.2,0h-1.82l-4.16,0-3.81,0h-1.22l-1.88,0Q185.09,395.54,186.16,389.82Z" transform="translate(-21.77 -27.09)"/><path class="cls-10" d="M220.3,400.91l20.7.92c0,.85.05,1.7.07,2.55H217.53C218.86,402.7,219.58,401.81,220.3,400.91Z" transform="translate(-21.77 -27.09)"/><path class="cls-12" d="M207.26,419.24q-.1,4.11-.22,8.23L200.8,412.9Z" transform="translate(-21.77 -27.09)"/><path class="cls-13" d="M556.85,199.69l-2.31,3.14c-2.19-1.34-4.87-2.28-6.42-4.16-1.11-1.36-.71-3.95-1-6,1.89-.14,4-.92,5.6-.27,2.15.9,3.85,2.87,5.74,4.39Z" transform="translate(-21.77 -27.09)"/><path class="cls-11" d="M556.85,199.69l1.62-2.9c3.15,2.65,9.62,2.41,8,9.19Z" transform="translate(-21.77 -27.09)"/><path class="cls-11" d="M569.42,181c6,2.05,8,4.8,7.32,9.89L567,185.05c-.06-.35-.11-.7-.17-1.05C567.71,183,568.56,182,569.42,181Z" transform="translate(-21.77 -27.09)"/><path class="cls-13" d="M569.42,181c-.86,1-1.71,2-2.57,3l-8.75-6.88C563.66,173.24,566,178.72,569.42,181Z" transform="translate(-21.77 -27.09)"/><path class="cls-15" d="M567,185.05l9.72,5.85c-1.59.6-3.63,2.11-4.69,1.6-2.59-1.25-4.73-3.44-7-5.25C565.67,186.52,566.35,185.79,567,185.05Z" transform="translate(-21.77 -27.09)"/><path class="cls-12" d="M567,185.05c-.67.74-1.35,1.47-2,2.2-2.4-1.63-5.13-3-7-5.05-.83-.89,0-3.34.14-5.08l8.75,6.88C566.91,184.35,567,184.7,567,185.05Z" transform="translate(-21.77 -27.09)"/><path class="cls-1" d="M88.08,344c-.76-1.63-1.53-3.26-2.29-4.88.07-.35.13-.69.19-1l7.19-8.78c3.58.21,7.52,0,6.29,5.61A44.13,44.13,0,0,1,94.52,337c-3.59,1-5.7,3.14-5.72,7Z" transform="translate(-21.77 -27.09)"/><path class="cls-1" d="M82,378l2.15,2.74c-.05.38-.09.76-.14,1.14a12.14,12.14,0,0,0-.67,12l-1.48.21-5.27-1.85L80.88,378Z" transform="translate(-21.77 -27.09)"/><path class="cls-15" d="M50,347l4.86,2.87c-3.73,2-6.81,3.74-10.06,5.15-1.13.49-2.68,0-4,0,.33-1.45.18-3.63,1.08-4.22,2.5-1.64,5.44-2.62,8.2-3.86Z" transform="translate(-21.77 -27.09)"/><path class="cls-15" d="M88.08,344h.73q3.14,8,6.28,15.95l-.15.12Q91.52,352,88.08,344Z" transform="translate(-21.77 -27.09)"/><path class="cls-15" d="M81.86,394.09l1.48-.21,11.74,5.42-.18,1.82Z" transform="translate(-21.77 -27.09)"/><path class="cls-11" d="M86,338.06c-.06.34-.12.68-.19,1l-5-9.89.39-.32Q83.56,333.47,86,338.06Z" transform="translate(-21.77 -27.09)"/><path class="cls-15" d="M74.12,369.87l4,4-.37.31-3.87-4.1Z" transform="translate(-21.77 -27.09)"/><path class="cls-11" d="M77.79,325.39c.64-.78,1.27-1.56,1.9-2.35.17.94.33,1.88.49,2.82l1,3-.39.32Z" transform="translate(-21.77 -27.09)"/><path class="cls-15" d="M88.25,385.76l2.93,3.07-.59.57-2.74-3.27Z" transform="translate(-21.77 -27.09)"/><path class="cls-15" d="M97,364.22a1.38,1.38,0,0,1,0,.78l-2.07-4.95.15-.12Q96,362.08,97,364.22Z" transform="translate(-21.77 -27.09)"/><path class="cls-15" d="M93.36,389.1c-.15,1-.31,2-.47,3-.76-.92-1.53-1.83-2.3-2.75l.59-.57Z" transform="translate(-21.77 -27.09)"/><path class="cls-15" d="M84,381.88c0-.38.09-.76.14-1.14l2,2.12-.46.44Z" transform="translate(-21.77 -27.09)"/><path class="cls-15" d="M93.9,378c-.19,1-.37,1.93-.55,2.89C93.53,379.93,93.72,379,93.9,378Z" transform="translate(-21.77 -27.09)"/><path class="cls-15" d="M50,347l-1.64-1.27.6-.49,1,1.8Z" transform="translate(-21.77 -27.09)"/><path class="cls-15" d="M82,378H80.88c-.13-.26-.26-.53-.38-.79Z" transform="translate(-21.77 -27.09)"/><path class="cls-15" d="M86.15,382.86l1.14,1.86-.41.39-1.19-1.8Z" transform="translate(-21.77 -27.09)"/><path class="cls-15" d="M78.13,373.89l.63,1.4-1-1.09Z" transform="translate(-21.77 -27.09)"/><path class="cls-15" d="M68.13,363.86l1,1.05-.15.15-1-1Z" transform="translate(-21.77 -27.09)"/><path class="cls-15" d="M70,366l-1-1,.15-.15c.32.34.63.69,1,1Z" transform="translate(-21.77 -27.09)"/><path class="cls-15" d="M71.05,366.94l1,1L72,368l-1-1Z" transform="translate(-21.77 -27.09)"/><path class="cls-15" d="M87.29,384.72l1,1-.4.37-1-1Z" transform="translate(-21.77 -27.09)"/><path class="cls-15" d="M63,359l-1-1,0,0,1,1Z" transform="translate(-21.77 -27.09)"/><path class="cls-15" d="M63,359l1,1L64,360l-1-1Z" transform="translate(-21.77 -27.09)"/><path class="cls-15" d="M64,360c.33.33.66.67,1,1l0,0-1-1Z" transform="translate(-21.77 -27.09)"/><path class="cls-15" d="M73.89,370.1,73,369,73,369l1.08.92Z" transform="translate(-21.77 -27.09)"/><path class="cls-15" d="M66.93,363.08l-1-1,.16-.16,1,1Z" transform="translate(-21.77 -27.09)"/><path class="cls-15" d="M66,362.05l-1-1,0,0,1.08.91Z" transform="translate(-21.77 -27.09)"/><path class="cls-15" d="M67.15,362.86l1,1-.19.19c-.33-.33-.66-.66-1-1Z" transform="translate(-21.77 -27.09)"/><path class="cls-15" d="M73,369l-1-1L72,368c.33.34.66.67,1,1Z" transform="translate(-21.77 -27.09)"/><path class="cls-15" d="M71,367l-1-1,.08-.08,1,1Z" transform="translate(-21.77 -27.09)"/><path class="cls-13" d="M464.19,181.94c0-3.29,0-6.58,0-9.86l27.17,9,.77-2.14-26.77-10V159c9,3.32,17.48,6.51,26,9.54a24.4,24.4,0,0,0,5,.71l.16-1.69c-7.56-2.82-15.09-5.71-22.68-8.42-10.86-3.89-8.81-2.1-8.84-13.22q16.75,6,33.5,12.07c7,2.51,7.58,4.12,5,11.16-5.48,14.66-10.86,29.36-16.28,44l-2.25.87L465.1,208V197.81l18.79,6.32c-.24-1.71-.19-2.25-.35-2.31-4-1.63-7.93-3.27-11.94-4.78-7.53-2.84-7.83-3.36-5.93-11.89l21.54,7.49.74-2A140.49,140.49,0,0,0,464.19,181.94Z" transform="translate(-21.77 -27.09)"/><path class="cls-1" d="M484.93,214.07l2.26-.87c4.46-.46,7.77.66,8.11,5.88,0,1.33,0,2.66,0,4l.63,6.81c-4.5,2.67-3,7.87-4.87,11.66-.62,1.26-.49,2.89-.71,4.35-4.51,4.3-8.67,8.79-9,15.51-.06,1.32-.45,2.82,0,3.92,3,7-.4,13.28-1.51,19.95l-8.32-13c-3.9,6.25-3.92,15.06.43,19.72,3.25,3.49,3.86,6.81,3,11-.35.65-.69,1.31-1,2a11,11,0,0,1-2.09-1.85c-2.59-3.9-5.08-7.88-7.61-11.83q0-28.31,0-56.61c.73-1.17,1.47-2.34,2.2-3.52C470.44,223.09,476.74,217.56,484.93,214.07Z" transform="translate(-21.77 -27.09)"/><path class="cls-18" d="M465,145.93c0,11.12-2,9.33,8.84,13.22,7.59,2.71,15.12,5.6,22.68,8.42l-.16,1.69a24.4,24.4,0,0,1-5-.71c-8.54-3-17-6.22-26-9.54v9.91l26.77,10-.77,2.14-27.17-9q0-36-.08-72c.32,3,.63,5.92.95,8.89q0,12.51,0,25C465,138,465,142,465,145.93Z" transform="translate(-21.77 -27.09)"/><path class="cls-11" d="M516.82,167.73l9.69,6q-1.65,1.7-3.32,3.37l-8-6C515.74,169.93,516.28,168.83,516.82,167.73Z" transform="translate(-21.77 -27.09)"/><path class="cls-13" d="M502.07,205c5.83.65,9.59,4.15,9.66,9L501.88,208Z" transform="translate(-21.77 -27.09)"/><path class="cls-2" d="M501.88,208l9.85,5.94c-1.4,3-3.58,3.41-6.28,1.82-1.53-.9-3-1.9-4.49-2.86C501.27,211.25,501.57,209.62,501.88,208Z" transform="translate(-21.77 -27.09)"/><path class="cls-11" d="M510,185.18l5,4.32L512.92,193l-2.88.44-2-.72Q509.05,189,510,185.18Z" transform="translate(-21.77 -27.09)"/><path class="cls-15" d="M515.21,171l8,6c-.58.9-1.16,1.8-1.73,2.7l-8.05-5C514,173.53,514.6,172.28,515.21,171Z" transform="translate(-21.77 -27.09)"/><path class="cls-22" d="M115.81,189.81a45.61,45.61,0,1,1-.33,91.21C90.61,281,70,260.29,70.06,235.46A45.58,45.58,0,0,1,115.81,189.81Zm-12.53,30.25c-1.77.28-3.57.46-5.31.87-4.23,1-8,2.84-8.81,7.59-1.77,10.62,1.53,20.14,7.07,30.25,6.47-12,16.69-14.14,28.49-14.25,11.6-.11,19.53-10.07,24-22.88l-4-1.56c.17,0,.4,0,.48-.12a6,6,0,0,0,.48-.9l-.49,0H123l6.17-9.42c-11.67-2.28-11.67-2.28-15.09,9.41h-5.22l-6.49,0a6.9,6.9,0,0,0,.48.89C102.88,220.05,103.12,220,103.28,220.06Zm31.43,28.26c-18.23-1.17-29.08,3.84-31.47,14.66C115.5,261.86,125.51,256.77,134.71,248.32Z" transform="translate(-21.77 -27.09)"/><path class="cls-22" d="M142.31,342.08c23,1.19,41.65,21.77,40.52,44.81-1.19,24.36-21.34,42.34-46.13,41.19-23.16-1.09-41.07-21.63-39.87-45.75C98,359,118.52,340.85,142.31,342.08ZM140,357c-18.67-1.12-29.14,15.79-28.92,28.31.26,15.37,12,28.42,28.81,28.58,15,.15,28.19-12.73,28.3-28.46C168.27,370.5,155,355.87,140,357Z" transform="translate(-21.77 -27.09)"/><path class="cls-11" d="M104.84,330.16l3.09-7.19c-.88-4.12-1.17-8.48-2.76-12.3C101.31,301.4,96.89,292.38,97,282c5.18,1,10.33,2.33,15.56,2.8,10.15.93,19.61-1.88,29.22-7.12.12,2.42.27,4.14.28,5.86q0,24.68,0,49.33c0,6.19-.59,6.74-6.78,6.1-6.66-.69-12.15,2.6-17.86,5.15-1.2.54-2.34,1.23-3.51,1.85l-11.32-10.24Z" transform="translate(-21.77 -27.09)"/><path class="cls-21" d="M156.71,264.83c.11,13.13.3,26.27.31,39.4,0,12.3-.16,24.61-.25,36.91-1.77-.37-3.52-.86-5.31-1.11-4.26-.58-5.77-2.56-5.62-7.18.41-13.22.16-26.46.11-39.69a46.08,46.08,0,0,0-.63-5.33c0-1.91,0-3.81,0-5.72l0-4.22c0-1-.09-1.94-.14-2.9Z" transform="translate(-21.77 -27.09)"/><path class="cls-21" d="M157.15,136.13q-.06,32-.12,64.09c0,2-.2,3.95-.31,5.93-4.22-4.72-11.09-7.51-11.07-15.29,0-1.6,0-3.19,0-4.79-.12-1.06-.25-2.12-.38-3.18,0-1.26,0-2.53,0-3.8.22-3.28.62-6.56.64-9.84.08-12.13,0-24.26,0-36.67Z" transform="translate(-21.77 -27.09)"/><path class="cls-9" d="M97,282c-.14,10.38,4.28,19.4,8.14,28.67,1.59,3.82,1.88,8.18,2.76,12.3-2.82-3.35-5.89-6.52-8.4-10.08-2.76-3.92-4.83-8.33-7.53-12.3a48.79,48.79,0,0,1-8.2-20c-.53-3.34-2.44-6.45-3.72-9.67a15.78,15.78,0,0,1,3,1.29C87.79,275.43,92.4,278.73,97,282Z" transform="translate(-21.77 -27.09)"/><path class="cls-3" d="M102.62,335.73,113.94,346,97,364.21q-1-2.13-1.91-4.28Q92,352,88.81,344c0-3.88,2.12-6,5.71-7a44.13,44.13,0,0,0,4.94-2.07Z" transform="translate(-21.77 -27.09)"/><path class="cls-10" d="M145.3,282.11c0,1.91,0,3.81,0,5.72l-.3,45.43c0,1.71,0,3.42,0,5.13l-1.45.12a20.91,20.91,0,0,1-.56-3.38c0-18.14-.09-36.29.07-54.44,0-1.91,1.37-3.8,2.1-5.7,0,1,.1,1.93.14,2.9C145.31,279.3,145.3,280.7,145.3,282.11Z" transform="translate(-21.77 -27.09)"/><path class="cls-3" d="M86.88,385.11l1,1,2.74,3.27c.77.92,1.54,1.83,2.3,2.75l2.19,7.15-11.74-5.42a12.14,12.14,0,0,1,.67-12l1.68,1.42C86.08,383.91,86.48,384.51,86.88,385.11Z" transform="translate(-21.77 -27.09)"/><path class="cls-23" d="M270.72,300.08q1.74-14.7,3.49-29.39c2.32.74,5.05,2.63,6.89,2a46.45,46.45,0,0,0,11.38-6.33c5-3.56,9.68-7.59,14.49-11.43,2.09,7.79,4,15.64,6.32,23.35,4.17,13.74,8.65,27.38,12.93,41.08,5.59,17.88,11.17,35.76,16.62,53.67,1.62,5.34,2.8,10.8,4.19,16.2-6.61.25-13.22.66-19.83.71-18.75.13-37.49.11-56.24.15l.06-.27L267.09,383c5.41-11.71,6.63-24.05,5.86-36.79C272,330.84,271.44,315.46,270.72,300.08Z" transform="translate(-21.77 -27.09)"/><path class="cls-21" d="M273,401.09l-13.19-.35q2.48-5.5,5-11l6.22.09-.06.27Z" transform="translate(-21.77 -27.09)"/><path class="cls-24" d="M271,389.81l-6.22-.09,2.29-6.72Z" transform="translate(-21.77 -27.09)"/><path class="cls-13" d="M537,158c2.07,1.36,4.58,2.36,6.07,4.2a6.06,6.06,0,0,1,.66,5.43c-.5,1-3.49,1.67-4.91,1.18-2.24-.79-4.08-2.68-6.09-4.1l1.53-3.46Z" transform="translate(-21.77 -27.09)"/><path class="cls-13" d="M521.45,179.77c.57-.9,1.15-1.8,1.73-2.7q1.68-1.68,3.33-3.37c1.88,1.33,4.18,2.34,5.49,4.09,1,1.38,1.73,4.34,1,5.39s-3.88,1.75-5.42,1.16C525.26,183.48,523.45,181.36,521.45,179.77Z" transform="translate(-21.77 -27.09)"/><path class="cls-15" d="M534.27,161.23l-1.53,3.46a85.52,85.52,0,0,1-8-5.8c-.57-.51.21-2.54.37-3.87Z" transform="translate(-21.77 -27.09)"/><path class="cls-13" d="M512.92,193,515,189.5c1.84,1.11,3.73,2.14,5.5,3.35,3.18,2.16,3.64,4.58.45,7.18Z" transform="translate(-21.77 -27.09)"/><path class="cls-2" d="M512.92,193l8.07,7c-4.46,1.41-9.32-1.5-10.95-6.57Z" transform="translate(-21.77 -27.09)"/><path class="cls-11" d="M534.27,161.23,525.1,155c1.82-.56,3.93-2,5.39-1.47,2.4.83,4.37,2.89,6.52,4.43Z" transform="translate(-21.77 -27.09)"/><path class="cls-13" d="M496,229.88l-.63-6.81c1.3.52,3.12.67,3.78,1.63,1,1.4,1.09,3.38,1.58,5.11Z" transform="translate(-21.77 -27.09)"/><path class="cls-21" d="M450,86.91c7.86,3.83,11.17,10,11.15,18.85q-.23,137.42.06,274.83c0,11.53-5.76,21.62-20.1,20.75q-1.06-5.64-2.12-11.28c7.64-.37,10.11-2.38,10.11-8.62q0-137.82.06-275.65c0-3.54-1.06-6.13-4.18-7.81l-1-.19-95,.13-1.91-.45Q346,91.86,345,86.27c2.81-.07,5.63-.18,8.45-.19L444,85.92l3,.11Z" transform="translate(-21.77 -27.09)"/><path class="cls-21" d="M254,86.11l3-.21H276l12.93,0L318,86.2,320,97.61l-60.9.29L257,97.13Q255.5,91.63,254,86.11Z" transform="translate(-21.77 -27.09)"/><path class="cls-25" d="M254,86.11q1.48,5.52,3,11l-42.16.39V85.88h30.23Z" transform="translate(-21.77 -27.09)"/><path class="cls-26" d="M439,390.06q1.07,5.64,2.12,11.28L425,401q-.93-5.56-1.87-11.12l3.95-.07H429l9,0Z" transform="translate(-21.77 -27.09)"/><path class="cls-18" d="M466.51,231.17c-.73,1.18-1.47,2.35-2.2,3.52l-.12-52.75A140.49,140.49,0,0,1,488,190.61l-.74,2-21.54-7.49c-1.9,8.53-1.6,9,5.93,11.89,4,1.51,8,3.15,11.94,4.78.16.06.11.6.35,2.31l-18.79-6.32V208c-.07,6.47-.22,12.95-.13,19.42C465,228.68,466,229.92,466.51,231.17Z" transform="translate(-21.77 -27.09)"/><path class="cls-6" d="M318,86.2,289,85.93a34.07,34.07,0,0,1,5.25-.82q72.27-.06,144.55,0a34,34,0,0,1,5.25.81l-90.61.16c-2.82,0-5.64.12-8.45.18Z" transform="translate(-21.77 -27.09)"/><path class="cls-13" d="M465,109c-.32-3-.63-5.93-.95-8.89l-1.38-5.2,4,.39,1.28.79,8.78,3.13,1.16,1c-.32.76-.69,1.5-1,2.28-2.73,8-2.73,8-10.48,6.59A9.24,9.24,0,0,0,465,109Z" transform="translate(-21.77 -27.09)"/><path class="cls-14" d="M457.71,88.17c1.77-3.8,3.69-7.54,5.27-11.41.91-2.23,1.37-4.54,5.61-2.85L461,91Z" transform="translate(-21.77 -27.09)"/><path class="cls-6" d="M276,85.89h0Z" transform="translate(-21.77 -27.09)"/><path class="cls-6" d="M450,86.91,447,86Z" transform="translate(-21.77 -27.09)"/><path class="cls-24" d="M347,389.23c-1.39-5.41-2.57-10.87-4.19-16.21-5.45-17.91-11-35.79-16.62-53.67-4.28-13.7-8.76-27.34-12.93-41.08-2.34-7.71-4.23-15.56-6.32-23.35,3.48-5.94,10-5.14,16.19-6.74l-3.65-1.81c1.24-1.45,3.2-2.77,3.06-3.8-.33-2.46-1.59-4.81-2.69-7.11a3.33,3.33,0,0,0-2.53.5c-2.94,4.26-6.93,5.16-11.23,4l-3,5.26a13.19,13.19,0,0,0-.25-3c-4.17-13.26-8.41-26.5-12.61-39.75-1-3.28-2-6.59-2.94-9.89L280,168l63,.17c7.24,23.85,14.54,47.68,21.69,71.56,1.69,5.63,2.87,11.42,4.28,17.13l-4.16,2.11L351.05,255c-.72-1.35-1.43-2.71-2.14-4.06l-1.49-3.72c-.82.77-1.53,1.86-2.5,2.23-1.65.63-3.83,1.6-5.14,1-3.76-1.7-4.37.61-4.65,3.15a6.6,6.6,0,0,0,6.76,7.34c2.32,0,4.64,0,7,0L366,269v0l.69.8c.13,2.39.27,4.77.4,7.16l1.89,8.08c.15,3.35.29,6.69.44,10-.11,4.76-.38,9.52-.28,14.28.2,10.29.61,20.58.91,30.87.37,13.11.7,26.23,1.08,39.35a11.38,11.38,0,0,0,.51,2.09l7.34,1.33q.06,3.38.11,6.75l-31.06.35Z" transform="translate(-21.77 -27.09)"/><path class="cls-27" d="M393,383a16.71,16.71,0,0,0-3-.1c-4.14.63-5-1.41-5-5.15.06-27.57,0-55.15-.1-82.73l16.17-2.77c-.85-3.15-1.65-6.08-2.61-9.62l-19.41,2.29q-.13-3-.26-5.95c5.13-1.5,10.35-2.76,15.33-4.67,1.34-.51,2.83-3,2.73-4.52-.38-5.52-1.4-11-2.22-16.72l-9.43.88,3.93-17.84q2.91-5,5.81-10.07a30.17,30.17,0,0,1,5.6,1.25c8.6,3.65,11.16,11,11.61,19.55,0,7.09-.32,14.19,0,21.26.33,7.92.71,15.49-11.37,14.71,1.87,4.07,3.52,7.14,4.71,10.37,2.62,7.1,5.41,14.17,7.36,21.46,1.61,6,2.1,12.29,3.09,18.46q1.49,10,3,19.92l3.78,29.15-17.58.13Z" transform="translate(-21.77 -27.09)"/><path class="cls-8" d="M383.9,295.09V360H377c-.65-1.56-1.7-3.08-1.89-4.7-.73-6.25-1.42-12.53-1.68-18.81-.52-12.54-.75-25.08-1.11-37.63C375.14,294.45,379.82,295.68,383.9,295.09Z" transform="translate(-21.77 -27.09)"/><path class="cls-23" d="M422.72,382.17,418.94,353l4.06-6c2.86,4.25,5.64,8.18,6.69,13.7,1.86,9.87,5.43,19.42,8.28,29.1l-9,0H427l-3.95.07Z" transform="translate(-21.77 -27.09)"/><path class="cls-17" d="M372.3,298.87c.36,12.55.59,25.09,1.11,37.63.26,6.28.95,12.56,1.68,18.81.19,1.62,1.24,3.14,1.89,4.7q1,11.5,2,23l-7.34-1.33a11.38,11.38,0,0,1-.51-2.09c-.38-13.12-.71-26.24-1.08-39.35-.3-10.29-.71-20.58-.91-30.87-.1-4.76.17-9.52.28-14.28Z" transform="translate(-21.77 -27.09)"/><path class="cls-21" d="M348,390.12l31.06-.35q.92,6,1.82,11.94L352,401.1Z" transform="translate(-21.77 -27.09)"/><path class="cls-2" d="M372.3,298.87l-2.92-3.77c-.15-3.35-.29-6.69-.44-10l10.14-.13,19.41-2.29c1,3.54,1.76,6.47,2.61,9.62L384.93,295l-1,.06C379.82,295.68,375.14,294.45,372.3,298.87Z" transform="translate(-21.77 -27.09)"/><path class="cls-21" d="M407.25,389.75q2.73,5.75,5.45,11.49l-19.95-.52.39-10.84Z" transform="translate(-21.77 -27.09)"/><path class="cls-19" d="M407.25,389.75l-14.11.13q-.06-3.44-.11-6.87l12.11-.71C405.84,384.79,406.55,387.27,407.25,389.75Z" transform="translate(-21.77 -27.09)"/><path class="cls-10" d="M392.75,400.72l19.95.52c-.36,1-.7,2.87-1.09,2.88-6.75.18-13.51.13-21.67.13C391.4,402.41,392.07,401.56,392.75,400.72Z" transform="translate(-21.77 -27.09)"/><path class="cls-14" d="M490,103.85l-3.93-1c2-5.75,3.85-11.53,6-17.23.34-.89,1.72-1.4,2.62-2.08.27,1.15,1,2.45.72,3.42-1.55,4.87-3.4,9.64-5.09,14.46A11.57,11.57,0,0,0,490,103.85Z" transform="translate(-21.77 -27.09)"/><path class="cls-14" d="M499,107.09l-4-1.16c1.94-5.29,3.78-10.61,5.9-15.82.47-1.16,1.91-1.93,2.91-2.88.13,1.44.69,3,.3,4.31C502.56,96.77,500.72,101.91,499,107.09Z" transform="translate(-21.77 -27.09)"/><path class="cls-14" d="M468,96.06l-1.28-.79L475,75.11C477.68,80.78,472.17,94.68,468,96.06Z" transform="translate(-21.77 -27.09)"/><path class="cls-14" d="M478,100.14l-1.16-1q3.25-9.76,6.5-19.53l2.57.85c-.67,7-3.54,13.35-6.9,19.57Z" transform="translate(-21.77 -27.09)"/><path class="cls-23" d="M280,168l7.29,24.65c1,3.3,1.9,6.61,2.94,9.89,4.2,13.25,8.44,26.49,12.61,39.75a13.19,13.19,0,0,1,.25,3c-6.13,4-12.19,8.05-18.45,11.8-.79.47-3-.34-3.82-1.24a59.2,59.2,0,0,1-4.65-6.67c-3.4-7.64-6.35-15.52-10.43-22.78-1.59-2.81-5.72-4.19-8.69-6.22a1.44,1.44,0,0,0-.51-.79,40.61,40.61,0,0,1-5.53-4.63c-.4-.46.77-2.41,1.37-3.6,1.44-2.85,4.38-5.75,4.18-8.46-.41-5.85-2.41-11.6-3.77-17.39-.42-2.74,0-6.3-1.55-7.93-1.11-1.16-5.07-.1-7.52.7-2.27.74-4.16,2.58-6.34,3.7-8.65,4.43-10.27,14.62-3.5,21.61a65.31,65.31,0,0,1,5,6.62c.39,4.94-1.71,8.43-6.15,10.55L229,222l-7.85,4.08L218,219c9.1-11,6.86-24.05,1.24-31.24-4-5.09-9.31-7.79-15.21-9.74a87.58,87.58,0,0,0-1.89-9.6c-2.82-9.09-5.94-18.1-8.85-27.17-.44-1.38,0-3.11-.57-4.37-.73-1.53-2.15-2.72-3.27-4.06,8.5-5.93,16.54-12.35,20.71-22.26,1.79-4.25,3.15-8.67,4.71-13L257,97.13l2.05.77L263,116c-3.66,0-7.32-.08-11,.07-6.44.26-10.92,4.42-11,10.49q-.21,15.47,0,30.93c.09,5.62,3.86,9.25,9.44,9.55,2.15.12,4.32.09,6.48.13H258Z" transform="translate(-21.77 -27.09)"/><path class="cls-22" d="M211.11,95.18c-.14,7.69-4.55,17.77-12.83,26.25S178.94,135,168,134.38c-21.62-1.18-42.32-15.29-42.81-44.06-.4-23.76,19.58-42.86,43.55-42.63C192.39,47.92,211.23,67.14,211.11,95.18ZM140,92c1.28-1.92,2.55-3.84,4.08-6.12,1.55,5,2.89,9.2,4.24,13.5,3.19-1.33-.48-6.9,4.67-6.4l7,12.62,1.24-.79c2,1.67,4.12,3.24,6,5,4,3.74,8,4.26,12.1.13.57-.58,1.39-.91,2-1.47C188.65,101.7,195,94.36,195,83.59c0-5.23-3.49-8-7.85-9.79-4.09-1.68-7,.89-9.62,3.43-1.56,1.51-2.61,3.55-4.06,5.59-1.31-2-2.28-3.76-3.49-5.31-3.6-4.6-7.7-5.29-12.62-2.34-6.57,3.93-5.59,9.85-4.26,15.88a7.68,7.68,0,0,0-.11,1l-4.89.43-3.53-11.14-1.11.15L140,92l-6.75,3.14C136.29,94.42,139.75,96.94,140,92Z" transform="translate(-21.77 -27.09)"/><path class="cls-27" d="M102.62,335.73l-3.16-.84c1.23-5.61-2.71-5.4-6.29-5.61l-13-3.42c-.16-.94-.32-1.88-.49-2.82l9.9-9.19,15.25,16.31Z" transform="translate(-21.77 -27.09)"/><path class="cls-26" d="M348,390.12l4,11H273l-2.07-11c18.75,0,37.49,0,56.24-.15,6.61-.05,13.22-.46,19.83-.71Z" transform="translate(-21.77 -27.09)"/><path class="cls-6" d="M145.29,182.89c.13,1.06.26,2.12.38,3.18C145.54,185,145.42,184,145.29,182.89Z" transform="translate(-21.77 -27.09)"/><path class="cls-6" d="M190.92,401.27l4.16,0Z" transform="translate(-21.77 -27.09)"/><path class="cls-6" d="M196.9,401.3l2.2,0Z" transform="translate(-21.77 -27.09)"/><path class="cls-6" d="M185.89,401.28h0Z" transform="translate(-21.77 -27.09)"/><path class="cls-20" d="M204,178c5.9,1.95,11.23,4.65,15.21,9.74,5.62,7.19,7.86,20.25-1.24,31.24-4.28,2.34-8.36,5.29-12.91,6.78-3,1-4.13,1.92-4.09,4.93.11,9.49.08,19,.1,28.47L199,263c0-2.18,0-4.36,0-6.54,0-8.16.05-16.33,0-24.49,0-3.3-1.22-5.33-5-6.24-13.59-3.25-19.69-14.74-17.91-28,1.5-11.07,11.8-19.51,23.95-19.76C201.34,178,202.67,178,204,178Z" transform="translate(-21.77 -27.09)"/><path class="cls-12" d="M199,263c.69-1.28,1.38-2.56,2.06-3.84l4.11-2.38,11.59,8.17-2.05,3.9c-6.83,5-9.18,13.1-13.52,19.82a32.16,32.16,0,0,0-2,4.33c-.09.63-.19,1.27-.29,1.9-6.48,5.8-5.73,12.52-1.82,20-3.81-3.14-5.67-2.51-6.87,1.53-.67,2.28-2.28,4.27-3.26,6.49-1.39,3.11-2.64,2.56-4,0l1.65-1.14-.78-.42c-.27.54-.53,1.09-.8,1.63l-2.26-5-1.68-7A15.22,15.22,0,0,0,187,300C189.44,287.17,192.34,274.48,199,263Z" transform="translate(-21.77 -27.09)"/><path class="cls-23" d="M179.09,311l1.68,7a6.28,6.28,0,0,1-2.4-.16c-1.82-.91-3.51-2.05-5.26-3.1Z" transform="translate(-21.77 -27.09)"/><path class="cls-10" d="M216.77,264.94l-11.59-8.17c-2.21-1.55-2.87-3.16-1.08-5.71,5.78-8.26,11.36-16.65,17-25L229,222c2.15,4.93,4.87,9.71,6.23,14.86a13,13,0,0,1-1.49,9.25c-3.87,6.1-8.54,11.69-13.1,17.33C219.86,264.36,218.07,264.46,216.77,264.94Z" transform="translate(-21.77 -27.09)"/><path class="cls-12" d="M252.8,185.24c1.36,5.79,3.36,11.54,3.77,17.39.2,2.71-2.74,5.61-4.18,8.46-.6,1.19-1.77,3.14-1.37,3.6a40.61,40.61,0,0,0,5.53,4.63c-.53,3.08-1,6.18-1.61,9.23-1.36,6.38-6.35,8.69-11.29,4.51-4.19-3.54-7.32-8.33-10.91-12.57,4.45-2.12,6.55-5.61,6.17-10.55.27-2.39,1-4.81.72-7.15-.28-2.93-3.47-6.51,2.57-7.2.42-.05.83-1.65,1-2.57C244,187.46,247.37,185.08,252.8,185.24Z" transform="translate(-21.77 -27.09)"/><path class="cls-12" d="M276.18,249.11a59.2,59.2,0,0,0,4.65,6.67c.81.9,3,1.71,3.82,1.24,6.26-3.75,12.32-7.83,18.45-11.8l3-5.26c4.3,1.16,8.29.26,11.23-4a3.33,3.33,0,0,1,2.53-.5c1.1,2.3,2.36,4.65,2.69,7.11.14,1-1.82,2.35-3.06,3.8l3.65,1.81c-6.17,1.6-12.71.8-16.19,6.74-4.81,3.84-9.48,7.87-14.49,11.43a46.45,46.45,0,0,1-11.38,6.33c-1.84.64-4.57-1.25-6.89-2l-1.95-14C271.55,253.14,271,249.64,276.18,249.11ZM319.76,241a5.63,5.63,0,0,0-.5,1.32c0,.11.54.46.69.39a3.6,3.6,0,0,0,.85-.77Z" transform="translate(-21.77 -27.09)"/><path class="cls-10" d="M276.18,249.11c-5.2.53-4.63,4-3.92,7.6-1.08-4.7-1.92-9.46-3.3-14.07-2.47-8.26-5.3-16.42-11.9-22.53,3,2,7.1,3.41,8.69,6.22C269.83,233.59,272.78,241.47,276.18,249.11Z" transform="translate(-21.77 -27.09)"/><path class="cls-3" d="M80.18,325.86l13,3.42L86,338.06q-2.42-4.59-4.82-9.18C80.83,327.87,80.5,326.86,80.18,325.86Z" transform="translate(-21.77 -27.09)"/><path class="cls-5" d="M466.51,231.17c-.54-1.25-1.52-2.49-1.54-3.75-.09-6.47.06-12.95.13-19.42l19.84,6.07C476.74,217.56,470.44,223.09,466.51,231.17Z" transform="translate(-21.77 -27.09)"/><path class="cls-16" d="M144.7,220.08l4,1.56c-4.45,12.81-12.38,22.77-24,22.88-11.8.11-22,2.24-28.49,14.25-5.54-10.11-8.84-19.63-7.07-30.25.78-4.75,4.58-6.6,8.81-7.59,1.74-.41,3.54-.59,5.31-.87h9.84c-.64,2.64-1.12,4.59-1.65,6.78H116l-3.62,8.93,1.22.88L126.42,223l-5.2-1.61.07-1.33Z" transform="translate(-21.77 -27.09)"/><path class="cls-28" d="M144.7,220.08H121.29l-.07,1.33,5.2,1.61-12.8,13.63-1.22-.88,3.62-8.93h-4.55c.53-2.19,1-4.14,1.65-6.78h-9.84c-.16,0-.4,0-.47-.11a6.9,6.9,0,0,1-.48-.89l6.49,0H114c3.42-11.69,3.42-11.69,15.09-9.41L123,219h22.21l.49,0a6,6,0,0,1-.48.9C145.1,220.06,144.87,220,144.7,220.08Z" transform="translate(-21.77 -27.09)"/><path class="cls-16" d="M134.71,248.32c-9.2,8.45-19.21,13.54-31.47,14.66C105.63,252.16,116.48,247.15,134.71,248.32Z" transform="translate(-21.77 -27.09)"/><path class="cls-28" d="M140,357c15.06-1.09,28.29,13.54,28.19,28.43-.11,15.73-13.32,28.61-28.3,28.46-16.82-.16-28.55-13.21-28.81-28.58C110.84,372.75,121.31,355.84,140,357Zm25.28,28.11c-.09-14.31-11.72-26-25.73-25.77a25.83,25.83,0,0,0,.26,51.65A25.42,25.42,0,0,0,165.26,385.07Z" transform="translate(-21.77 -27.09)"/><path class="cls-6" d="M145.3,282.11c0-1.41,0-2.81,0-4.22C145.31,279.3,145.31,280.7,145.3,282.11Z" transform="translate(-21.77 -27.09)"/><path class="cls-29" d="M438,389.79c-2.85-9.68-6.42-19.23-8.28-29.1-1.05-5.52-3.83-9.45-6.69-13.7-.66-5.39-1.69-10.64-5.87-14.6-.09-.08-.77.46-1.18.71-1-6.17-1.48-12.46-3.09-18.46-1.95-7.29-4.74-14.36-7.36-21.46-1.19-3.23-2.84-6.3-4.71-10.37,12.08.78,11.7-6.79,11.37-14.71-.3-7.07,0-14.17,0-21.26,12.35.6,19.05-4.08,24-16.73,4.19-10.77,2.47-17.42-6.37-24.66,2.13-11.88-6.22-23.48-18-26.94-8.55-2.5-21.93,1.75-24.81,9.17l-8,2.8c-1.39-1.87-3.35-3.54-4.07-5.64-3.17-9.22-6-18.55-8.93-27.84,0-5.45.1-10.89,0-16.33-.15-5.89-.53-11.79-.82-17.68,3.93-2.31,1.8-5.11-.21-6.6-1.73-1.29-4-5.2-7-1.23L355,116v-1l-2-3q-2-7-4-14.08l95-.13,1,.19c3.12,1.68,4.18,4.27,4.18,7.81q-.09,137.83-.06,275.65c0,6.24-2.47,8.25-10.11,8.62ZM437.25,113l.36-1.78-3.87-.84c-.12.59-.39,1.69-.34,1.7C434.66,112.48,436,112.74,437.25,113Zm-69,1.61c.12-.27.39-.61.31-.81s-.51-.26-.78-.37c-.12.27-.39.61-.31.81S368,114.51,368.25,114.63Z" transform="translate(-21.77 -27.09)"/><path class="cls-23" d="M355,115v1l-28,.38-1-.3L321,98l26.12-.48,1.91.45q2,7,4,14.08Z" transform="translate(-21.77 -27.09)"/><path class="cls-26" d="M347.11,97.47,321,98l-1-.34L318,86.2l26.93.06Q346,91.87,347.11,97.47Z" transform="translate(-21.77 -27.09)"/><path class="cls-25" d="M445,98l-1-.19Z" transform="translate(-21.77 -27.09)"/><path class="cls-24" d="M320,97.61l1,.34q2.5,9.06,5,18.11l-59,.23-4-.26-4-18.13Z" transform="translate(-21.77 -27.09)"/><path class="cls-29" d="M427,389.84h0Z" transform="translate(-21.77 -27.09)"/><path class="cls-23" d="M366,157c2.95,9.29,5.76,18.62,8.93,27.84.72,2.1,2.68,3.77,4.06,5.64-5.29,4.77-7.21,10.75-5.07,17.45,2.08,6.54,5,12.81,7.54,19.2L375.07,240c-3.89,5-4.33,10.76-4.1,16.73l-2,.11c-1.41-5.71-2.59-11.5-4.28-17.13C357.56,215.81,350.26,192,343,168.13a41.73,41.73,0,0,0,5.37-.15c3.57-.53,7.11-1.28,10.67-1.94C363.66,164.78,365.06,161.07,366,157Z" transform="translate(-21.77 -27.09)"/><path class="cls-2" d="M369,256.82l2-.11,1.81.21c4.3-.35,9.19,1.73,12.45-3l9.43-.88c.82,5.74,1.84,11.2,2.22,16.72.1,1.49-1.39,4-2.73,4.52-5,1.91-10.2,3.17-15.33,4.67-2.25-.59-4.47-1.31-6.75-1.72a38.11,38.11,0,0,0-5-.28c-.13-2.39-.27-4.77-.4-7.16L366,269v0l-1.14-10.11Z" transform="translate(-21.77 -27.09)"/><path class="cls-25" d="M359.06,166c-3.56.66-7.1,1.41-10.67,1.94a41.73,41.73,0,0,1-5.37.15L280,168l-22-.75H257c-2.16,0-4.33,0-6.48-.13-5.58-.3-9.35-3.93-9.44-9.55q-.22-15.47,0-30.93c.09-6.07,4.57-10.23,11-10.49,3.65-.15,7.31-.06,11-.07l4,.25c-3.37,2.87-7.37,2.9-11.5,2.79A28.8,28.8,0,0,0,250,120c-1.71,2.6-4.73,5.11-4.9,7.81-.61,9.4-.22,18.86-.25,28.3,0,3.56,1.41,6,5,7.06a3.47,3.47,0,0,1,.22.84l-.88.75a7.91,7.91,0,0,0,1.36.24l90.73,0,15.75-1Z" transform="translate(-21.77 -27.09)"/><path class="cls-17" d="M364.83,258.93,366,269,348.85,261l0-1.78,2.17-4.16Z" transform="translate(-21.77 -27.09)"/><path class="cls-18" d="M348.88,259.18l0,1.78c-2.32,0-4.64,0-7,0a6.6,6.6,0,0,1-6.76-7.34c.28-2.54.89-4.85,4.65-3.15,1.31.6,3.49-.37,5.14-1,1-.37,1.68-1.46,2.5-2.23l1.49,3.72L339,255.28c.11.84.21,1.68.31,2.53Z" transform="translate(-21.77 -27.09)"/><path class="cls-12" d="M367.05,277a38.11,38.11,0,0,1,5,.28c2.28.41,4.5,1.13,6.75,1.72q.12,3,.26,5.95l-10.14.13Z" transform="translate(-21.77 -27.09)"/><path class="cls-12" d="M348.88,259.18l-9.53-1.37c-.1-.85-.2-1.69-.31-2.53l9.87-4.32c.71,1.35,1.42,2.71,2.14,4.06Z" transform="translate(-21.77 -27.09)"/><path class="cls-17" d="M366,269l.69.8Z" transform="translate(-21.77 -27.09)"/><path class="cls-10" d="M381.44,227.13c-2.54-6.39-5.46-12.66-7.54-19.2-2.14-6.7-.22-12.68,5.07-17.45l8-2.8c3.5,1.64,7.59,2.61,10.38,5.07a34,34,0,0,0,18.09,8.67c4.87.73,9.56,2.65,14.33,4,8.84,7.24,10.56,13.89,6.37,24.66-4.93,12.65-11.63,17.33-24,16.73-.45-8.55-3-15.9-11.61-19.55A30.17,30.17,0,0,0,395,226c-.7-.9-1.78-1.7-2-2.71-.61-2.4-.83-4.89-1.21-7.34,0-.61,0-1.22.07-1.83a85.48,85.48,0,0,0,5-8.39,4.1,4.1,0,0,0-.95-3.81c-3.84-2.93-7.89-5.58-12-8.15-.92-.58-3.21-.84-3.32-.58-1.81,4.22-5,8.72-4.52,12.79.42,3.81,4.73,7.19,7.33,10.76q.72,3,1.43,5.95c.1,1.51.19,3,.28,4.53Z" transform="translate(-21.77 -27.09)"/><path class="cls-8" d="M381.44,227.13l3.66.13c-.38,2.33-.76,4.67-1.12,6.93l5.18,1.92L385.23,254c-3.26,4.7-8.15,2.62-12.45,3q1.16-8.48,2.29-17Z" transform="translate(-21.77 -27.09)"/><path class="cls-12" d="M389.16,236.11,384,234.19c.36-2.26.74-4.6,1.12-6.93l-.27-4.53,6.89-6.75c.38,2.46.6,5,1.21,7.35.26,1,1.34,1.81,2,2.71Q392.08,231.08,389.16,236.11Z" transform="translate(-21.77 -27.09)"/><path class="cls-19" d="M416,333.1c.41-.25,1.09-.79,1.18-.71,4.18,4,5.21,9.21,5.87,14.6l-4.06,6Q417.44,343.06,416,333.1Z" transform="translate(-21.77 -27.09)"/><path class="cls-10" d="M252.8,185.24c-5.43-.16-8.78,2.22-9.63,7.78-.14.92-.55,2.52-1,2.57-6,.69-2.85,4.27-2.57,7.2.23,2.34-.45,4.76-.72,7.15a66.91,66.91,0,0,0-5-6.62c-6.77-7-5.15-17.18,3.5-21.61,2.18-1.12,4.07-3,6.34-3.7,2.45-.8,6.41-1.86,7.52-.7C252.82,178.94,252.38,182.5,252.8,185.24Z" transform="translate(-21.77 -27.09)"/><path class="cls-19" d="M221.12,226.07c-5.66,8.34-11.24,16.73-17,25-1.79,2.55-1.13,4.16,1.08,5.71l-4.11,2.38c0-9.49,0-19-.1-28.47,0-3,1.1-4,4.09-4.93,4.55-1.49,8.63-4.44,12.91-6.78Z" transform="translate(-21.77 -27.09)"/><path class="cls-20" d="M257,167.2h0Z" transform="translate(-21.77 -27.09)"/><path class="cls-16" d="M153.05,91.05c-1.33-6-2.31-12,4.26-15.88,4.92-3,9-2.26,12.62,2.34,1.21,1.55,2.18,3.3,3.49,5.31,1.45-2,2.5-4.08,4.06-5.59,2.62-2.54,5.53-5.11,9.62-3.43,4.36,1.79,7.82,4.56,7.85,9.79.08,10.77-6.3,18.11-13.53,24.94-.6.56-1.42.89-2,1.47-4.1,4.13-8.06,3.61-12.1-.13-1.91-1.78-4-3.35-6-5,.51-4.59,1-9.19,1.58-14.33,7.17,6.29,14.24,2.4,20.83,3-4.41-.62-8.88-.37-13.3-.76a6,6,0,0,1-4-3c-1.2-2.54-1.61-5.45-2.35-8.21l-.8.17q-1.56,7.44-3.14,14.89C159.63,91.78,156.11,91.69,153.05,91.05Z" transform="translate(-21.77 -27.09)"/><path class="cls-13" d="M153.05,91.05c3.06.64,6.58.73,7.06,5.5q1.57-7.45,3.14-14.89l.8-.17c.74,2.76,1.15,5.67,2.35,8.21a6,6,0,0,0,4,3c4.42.39,8.89.14,13.3.76-6.59-.58-13.66,3.31-20.83-3-.57,5.14-1.07,9.74-1.58,14.33l-1.24.79L153,93l-.09-1A7.68,7.68,0,0,1,153.05,91.05Z" transform="translate(-21.77 -27.09)"/><path class="cls-17" d="M152.94,92l.09,1c-5.15-.5-1.48,5.07-4.67,6.4-1.35-4.3-2.69-8.55-4.24-13.5-1.53,2.28-2.8,4.2-4.08,6.12L140,92l3.45-10.53,1.11-.15,3.53,11.14Z" transform="translate(-21.77 -27.09)"/><path class="cls-17" d="M140,92c-.29,4.9-3.75,2.38-6.83,3.07L140,92Z" transform="translate(-21.77 -27.09)"/><path class="cls-19" d="M183,323c.27-.54.53-1.09.8-1.63l.78.42L183,323Z" transform="translate(-21.77 -27.09)"/><path class="cls-24" d="M319.76,241l1,.94a3.6,3.6,0,0,1-.85.77c-.15.07-.71-.28-.69-.39A5.63,5.63,0,0,1,319.76,241Z" transform="translate(-21.77 -27.09)"/><path class="cls-16" d="M165.26,385.07a25.64,25.64,0,1,1-51.28.24,25.89,25.89,0,0,1,25.55-26C153.54,359.1,165.17,370.76,165.26,385.07Zm-8.55-2.61h-7.64c-7.17,0-7.89-.82-7.09-8.1.17-1.63.44-3.25.55-4.88,0-.41-.4-.85-.74-1.53l-4.69.28v13c-4,.47-7.59.69-11.08,1.41-1.34.27-2.45,1.68-3.66,2.56,1.22.91,2.38,2.47,3.69,2.6a107.76,107.76,0,0,0,11,.13v14.43h5.15v-14.5h14.51Z" transform="translate(-21.77 -27.09)"/><path class="cls-20" d="M429.79,205.45c-4.77-1.38-9.46-3.3-14.33-4a34,34,0,0,1-18.09-8.67c-2.79-2.46-6.88-3.43-10.38-5.07,2.88-7.42,16.26-11.67,24.81-9.17C423.57,182,431.92,193.57,429.79,205.45Z" transform="translate(-21.77 -27.09)"/><path class="cls-26" d="M359.06,166,357,163.92a5,5,0,0,1,.24-.78c4-2.14,5.08-5.49,4.9-9.91-.32-7.82-.11-15.66-.15-23.49,0-6.64-1.45-8.4-8-9.91a32.66,32.66,0,0,0-4.75-.78c-5.79-.09-11.59.08-17.37-.13-1.32,0-2.61-1.21-3.91-1.86l30.14-.11,7,6c.29,5.89.67,11.79.82,17.68.14,5.44,0,10.88,0,16.33C365.06,161.07,363.66,164.78,359.06,166Z" transform="translate(-21.77 -27.09)"/><path class="cls-19" d="M365.12,123l-7-6-.15-1.79c3-4,5.24-.06,7,1.23C366.92,117.88,369.05,120.68,365.12,123Z" transform="translate(-21.77 -27.09)"/><path class="cls-25" d="M357.94,115.16l.15,1.79-30.14.11-1-.7,28-.38Z" transform="translate(-21.77 -27.09)"/><path class="cls-19" d="M437.25,113c-1.29-.28-2.59-.54-3.85-.92,0,0,.22-1.11.34-1.7l3.87.84Z" transform="translate(-21.77 -27.09)"/><path class="cls-19" d="M355,115l-2-3Z" transform="translate(-21.77 -27.09)"/><path class="cls-19" d="M368.25,114.63c-.28-.12-.7-.18-.78-.37s.19-.54.31-.81c.27.11.71.17.78.37S368.37,114.36,368.25,114.63Z" transform="translate(-21.77 -27.09)"/><path class="cls-21" d="M327,116.36l1,.7c1.3.65,2.59,1.82,3.91,1.86,5.78.21,11.58,0,17.37.13a32.66,32.66,0,0,1,4.75.78L250,120a28.8,28.8,0,0,1,5.52-.92c4.13.11,8.13.08,11.5-2.79l59-.22Z" transform="translate(-21.77 -27.09)"/><path class="cls-28" d="M375.07,240q-1.14,8.47-2.29,17l-1.81-.22C370.74,250.74,371.18,244.94,375.07,240Z" transform="translate(-21.77 -27.09)"/><path class="cls-17" d="M250,120l104-.16c6.53,1.51,7.95,3.27,8,9.91,0,7.83-.17,15.67.15,23.49.18,4.42-.9,7.77-4.9,9.91l-107.43,0c-3.56-1-5-3.5-5-7.06,0-9.44-.36-18.9.25-28.3C245.23,125.1,248.25,122.59,250,120Zm87,33.08,0-.06,2.07,2.06-.06,0c3.9,1.85,7.72,2.68,11.12-1l0,.05c.33-7,.71-14.08.87-21.12,0-.44-1.68-.92-2.58-1.38-.1,1-.2,2-.31,3q-.5,8.64-1,17.28l-7,.11.11,0c0-3.43.07-6.86-.12-10.28-.18-3.25-.66-6.49-1-9.73-1.24.66-3.55,1.32-3.55,2,0,6,.41,12.05.69,18.07Zm-35.87-8,2.8.2c-.38-1-.66-1.67-.93-2.36.93-4.39,2.39-8.86-1.8-12.52-2.46-.48-4.89-1.14-7.36-1.42-5.32-.62-5.5,4.05-6.36,7.18-.42,1.5,1.59,3.68,2.5,5.55V143l.06-.05-1.95,10c6.56,6,11.51,5.91,15.49-.34L300,151v-3.88Zm19.26-10.8,6.61-.21c0,2.19,0,4.38,0,6.57l-7.05.34-1.79,1-1.44,1.91c-.48,4-2.84,8.29,2.14,11.22l.13-.08.95,1.14c6.61,1.59,7.61,1.18,8-3.28L320,151.68c.32-1.8.64-3.59,1-5.44l4-.37h2l2.73,5.87c.2-2.59.47-5.54.64-8.48.23-3.78.37-7.56.55-11.34-1.06-.67-2-1.67-3.18-1.95-2.72-.68-5.8-2.74-7.8,1.25l.17,1.19-.69,1.16-.39,6,1.31,0ZM261,155.06l0,0c2.39,2.37,3.06.53,3.1-1.47.11-6.48.27-13-.19-19.41-.11-1.55-2.29-3.71-3.93-4.17s-3.69.92-5.57,1.49c1.52.88,3,1.75,4.56,2.64a10.91,10.91,0,0,1,1,.8c0,2.93-.14,6.07,0,9.2C260.15,147.77,260.63,151.41,261,155.06Zm18.17-14.33c-1.82,0-3.12,0-4.41,0-5.14.19-6.68,1.81-6.72,7-.06,7.66,4.4,11,11.94,8.8.85-.25,2-1.62,1.92-2.29a3.32,3.32,0,0,0-2.24-2.13,49.5,49.5,0,0,0-6.83-.44c.15-2.67.28-5,.37-6.78,3.89-2.08,9.56,1.92,10.54-4.1.52-3.23-.19-7.61-2.13-10-2.35-2.94-10.36-1.69-14.51,2.1l12.07,1.73Z" transform="translate(-21.77 -27.09)"/><path class="cls-22" d="M249.78,163.16l107.43,0a5,5,0,0,0-.24.78l-15.76,1a32.64,32.64,0,0,0-5.64-1q-42.78-.08-85.57,0A3.47,3.47,0,0,0,249.78,163.16Z" transform="translate(-21.77 -27.09)"/><path class="cls-21" d="M250,164q42.78,0,85.57,0a32.64,32.64,0,0,1,5.64,1l-90.73,0a7.91,7.91,0,0,1-1.36-.24Z" transform="translate(-21.77 -27.09)"/><path class="cls-12" d="M383.39,216.78c-2.6-3.57-6.91-6.95-7.33-10.76-.45-4.07,2.71-8.57,4.52-12.79.11-.26,2.4,0,3.32.58,4.09,2.57,8.14,5.22,12,8.15a4.1,4.1,0,0,1,.95,3.81,85.48,85.48,0,0,1-5,8.39Z" transform="translate(-21.77 -27.09)"/><path class="cls-8" d="M383.39,216.78l8.4-2.62c0,.61-.05,1.22-.07,1.83l-6.89,6.74Z" transform="translate(-21.77 -27.09)"/><path class="cls-28" d="M156.71,382.46v5.38H142.2v14.5h-5.15V387.91a107.76,107.76,0,0,1-11-.13c-1.31-.13-2.47-1.69-3.69-2.6,1.21-.88,2.32-2.29,3.66-2.56,3.49-.72,7.09-.94,11.08-1.41v-13l4.69-.28c.34.68.76,1.12.74,1.53-.11,1.63-.38,3.25-.55,4.88-.8,7.28-.08,8.1,7.09,8.1Z" transform="translate(-21.77 -27.09)"/><path class="cls-15" d="M279.15,140.73V134.6l-12.07-1.73c4.15-3.79,12.16-5,14.51-2.1,1.94,2.43,2.65,6.81,2.13,10-1,6-6.65,2-10.54,4.1-.09,1.76-.22,4.11-.37,6.78a49.5,49.5,0,0,1,6.83.44,3.32,3.32,0,0,1,2.24,2.13c.1.67-1.07,2-1.92,2.29-7.54,2.21-12-1.14-11.94-8.8,0-5.21,1.58-6.83,6.72-7C276,140.69,277.33,140.73,279.15,140.73Z" transform="translate(-21.77 -27.09)"/><path class="cls-22" d="M300,151l3.55,1.64c-4,6.25-8.93,6.32-15.49.34l1.95-10-.06.05,1.4-.56a36,36,0,0,0,5.42-.46,12.62,12.62,0,0,0,3.21-1.82c.16-7,.16-7-6.94-5.89v6.41l-2.28,1.05H290c-.91-1.87-2.92-4-2.5-5.55.86-3.13,1-7.8,6.36-7.18,2.47.28,4.9.94,7.36,1.42a.38.38,0,0,1,0,.53h-8l0,.51,8.09,1.47c.25,3.36.49,6.72.74,10.08l0,0c-3,.29-6,.55-9,.93-.14,0-.13,1.14-.2,1.75.16,2.23.31,4.47.56,8.07Z" transform="translate(-21.77 -27.09)"/><path class="cls-6" d="M261,155.06c-.35-3.65-.83-7.29-1-10.95-.17-3.13,0-6.27,0-9.2a10.91,10.91,0,0,0-1-.8c-1.51-.89-3-1.76-4.56-2.64,1.88-.57,4-1.94,5.57-1.49s3.82,2.62,3.93,4.17c.46,6.44.3,12.93.19,19.41,0,2-.71,3.84-3.1,1.47.67-1.11,1.88-2.18,1.93-3.31.2-5.12.11-10.26,0-15.39a7,7,0,0,0-.83-2.18l-1.08.18Z" transform="translate(-21.77 -27.09)"/><path class="cls-22" d="M336.08,152c-.28-6-.68-12.05-.69-18.07,0-.66,2.31-1.32,3.55-2L339,152l-2.06,0A3.61,3.61,0,0,0,336.08,152Z" transform="translate(-21.77 -27.09)"/><path class="cls-3" d="M337,152.07l2.06,0,1.06-.05-.11,0,7-.11q.51-8.64,1-17.28c2.56-2.63,2.08.05,2.08,1.28,0,6.08,0,12.16-.06,18.24l0-.05-11.12,1,.06,0L336.93,153l0,.06C337,152.73,337,152.4,337,152.07Z" transform="translate(-21.77 -27.09)"/><path class="cls-15" d="M330.94,131.92c-.18,3.78-.32,7.56-.55,11.34-.17,2.94-.44,5.89-.64,8.48L327,145.87c0-1.73,0-3.47-.07-5.21,0-2.19,0-4.38,0-6.57l1-.13Z" transform="translate(-21.77 -27.09)"/><path class="cls-15" d="M325,145.87l-4,.37c-.32,1.85-.64,3.64-1,5.44,0,.42-.07.83-.1,1.25l-1.12,2.21c-5-2.93-2.62-7.25-2.14-11.22,1.44,0,3.24.47,4.25-.21C324.22,141.5,324.27,141.42,325,145.87Z" transform="translate(-21.77 -27.09)"/><path class="cls-27" d="M300,151l-6.59,2.78c-.25-3.6-.4-5.84-.56-8.07l6.07-.34,1.08,1.75Z" transform="translate(-21.77 -27.09)"/><path class="cls-18" d="M318.81,155.14l1.12-2.21h7.95c-.38,4.46-1.38,4.87-8,3.28l-.95-1.14Z" transform="translate(-21.77 -27.09)"/><path class="cls-6" d="M350,154.06c0-6.08.1-12.16.06-18.24,0-1.23.48-3.91-2.08-1.28.11-1,.21-2,.31-3,.9.46,2.59.94,2.58,1.38C350.73,140,350.35,147,350,154.06Z" transform="translate(-21.77 -27.09)"/><path class="cls-25" d="M330.94,131.92,328,134l-1.34-1.59L320,131.22c2-4,5.08-1.93,7.8-1.25C328.91,130.25,329.88,131.25,330.94,131.92Z" transform="translate(-21.77 -27.09)"/><path class="cls-15" d="M301.13,131a.38.38,0,0,0,0-.53c4.19,3.66,2.73,8.13,1.8,12.52a1.73,1.73,0,0,1-1,.07c-.25-3.36-.49-6.72-.74-10.08Z" transform="translate(-21.77 -27.09)"/><path class="cls-6" d="M325,145.87c-.71-4.45-.76-4.37-4.06-2.16-1,.68-2.81.17-4.25.21l1.44-1.91,1.79-1,7.05-.34c0,1.74.05,3.48.07,5.21Z" transform="translate(-21.77 -27.09)"/><path class="cls-10" d="M340.07,152,339,152q0-10-.07-20.06c.35,3.24.83,6.48,1,9.73C340.14,145.12,340,148.55,340.07,152Z" transform="translate(-21.77 -27.09)"/><path class="cls-6" d="M290,142.94l-1.95,10Z" transform="translate(-21.77 -27.09)"/><path class="cls-6" d="M338.94,155l11.12-1C346.66,157.7,342.84,156.87,338.94,155Z" transform="translate(-21.77 -27.09)"/><path class="cls-6" d="M326.68,132.37,328,134l-1,.13-6.61.21-.92-.74.69-1.16,1.9-.09,3.07,0Z" transform="translate(-21.77 -27.09)"/><path class="cls-27" d="M326.68,132.37l-1.58,0-3.07,0-1.9.09c-.06-.39-.12-.79-.17-1.18Z" transform="translate(-21.77 -27.09)"/><path class="cls-6" d="M327.88,152.92h-7.95c0-.42.07-.83.1-1.25Z" transform="translate(-21.77 -27.09)"/><path class="cls-10" d="M347,151.82l-7,.11Z" transform="translate(-21.77 -27.09)"/><path class="cls-6" d="M320.36,134.3v5.29l-1.31,0,.39-6Z" transform="translate(-21.77 -27.09)"/><path class="cls-22" d="M302,143a1.73,1.73,0,0,0,1-.07c.27.69.55,1.38.93,2.36l-2.8-.2-.3-.33L302,143Z" transform="translate(-21.77 -27.09)"/><path class="cls-22" d="M300,147.08l-1.08-1.75,1.89-.56.3.33Z" transform="translate(-21.77 -27.09)"/><path class="cls-15" d="M319.9,141l-1.79,1Z" transform="translate(-21.77 -27.09)"/><path class="cls-6" d="M336.93,153l2.07,2.06Z" transform="translate(-21.77 -27.09)"/><path class="cls-15" d="M318.94,155.06l.95,1.14Z" transform="translate(-21.77 -27.09)"/><path class="cls-6" d="M337,152.07c0,.33,0,.66,0,1l-.89-1A3.61,3.61,0,0,1,337,152.07Z" transform="translate(-21.77 -27.09)"/><path class="cls-6" d="M291.35,142.43l-1.41.56c0-.42,0-.84,0-1.26h.8Z" transform="translate(-21.77 -27.09)"/><path class="cls-27" d="M293,140.67v-6.41c7.1-1.09,7.1-1.09,6.94,5.89a2.48,2.48,0,0,0-.86-.06l-4,.55Z" transform="translate(-21.77 -27.09)"/><path class="cls-15" d="M300.8,144.77l-1.89.56-6.07.34c.07-.61.06-1.73.2-1.75,3-.38,6-.64,9-.93Z" transform="translate(-21.77 -27.09)"/><path class="cls-17" d="M301.13,131l.12,2-8.09-1.47,0-.51Z" transform="translate(-21.77 -27.09)"/><path class="cls-6" d="M293,140.67l2.05,0,4-.55a2.48,2.48,0,0,1,.86.06,12.62,12.62,0,0,1-3.21,1.82,36,36,0,0,1-5.42.46c-.19-.24-.39-.48-.59-.71Z" transform="translate(-21.77 -27.09)"/><path class="cls-23" d="M261,155.06V134.33l1.08-.18a7,7,0,0,1,.83,2.18c.09,5.13.18,10.27,0,15.39-.05,1.13-1.26,2.2-1.93,3.31Z" transform="translate(-21.77 -27.09)"/><path class="cls-25" d="M322,132.31l3.07,0Z" transform="translate(-21.77 -27.09)"/><path class="cls-22" d="M299.11,140.09l-4,.55Z" transform="translate(-21.77 -27.09)"/></g></g></svg>