<svg xmlns="http://www.w3.org/2000/svg" viewBox="0 0 88.2 36.6"><defs><style>.cls-1{fill:#fcfcfc;}.cls-2{fill:#090909;}.cls-3{fill:#060606;}.cls-4{fill:#080808;}.cls-5{fill:#be7879;}.cls-6{fill:#59a07c;}.cls-7{fill:#5e6a66;}.cls-8{fill:#0c1715;}.cls-9{fill:#bc9d9c;}.cls-10{fill:#462322;}.cls-11{fill:#b7bcbc;}.cls-12{fill:#8c7171;}.cls-13{fill:#5a3d3b;}.cls-14{fill:#1f3a2b;}.cls-15{fill:#9ca4a0;}.cls-16{fill:#4b302d;}.cls-17{fill:#280b0f;}.cls-18{fill:#406456;}.cls-19{fill:#294537;}.cls-20{fill:#e6e6e6;}.cls-21{fill:#e4e4e4;}.cls-22{fill:#f3f3f3;}.cls-23{fill:#d97276;}.cls-24{fill:#2b291d;}.cls-25{fill:#cf9497;}.cls-26{fill:#67a488;}.cls-27{fill:#333224;}.cls-28{fill:#1e0201;}.cls-29{fill:#3a5347;}.cls-30{fill:#bf8586;}</style></defs><title>Fichier 1</title><g id="Calque_2" data-name="Calque 2"><g id="Calque_1-2" data-name="Calque 1"><path class="cls-1" d="M0,36.6V0H88.2V36.6ZM71.23,21.36a.38.38,0,0,0-.35.39l-1.75-.84,0,0L68.29,20l-.87,0c-2.18-1.79-1.69.25-1.9,1.29l1.14,1.18a.9.9,0,0,0,.17.47l-.15.63a7.36,7.36,0,0,0-2.11.68c-2.19,1.62-2.3,6.83-.1,8.75a16.37,16.37,0,0,0,3.45,1.81l5.45.26,1.78-1.38L76,32.52l.82-1.25c1.17.05,2.89,1.63,3.07-1.08l1-1.26,1.81-1.79c-.14-1.4-.29-2.79-.43-4.19h0l-.64-1.16h0l-1.44-.67-1.58.19L77,20.7c.09-.57.19-1.14.28-1.72l.09-.14h-.12l-.93,0-4.27-1.32-.29.66,1.56,1.33-.67,1.17-1.25.56ZM16.72,9.72H11.21V4.1l-4.48.82V20h4.59V13.34h5.44V20h4.41V3.73H16.72ZM31.58,3.36V20.05c2.51,0,4.87.15,7.21,0s4.46-.73,5.23-3.14.27-4.42-1.67-5.12c.64-1.9,1.83-3.61,1.48-4.9S41.66,4.33,40.28,4A63,63,0,0,0,31.58,3.36ZM58.4,20.05V14.53c1-.08,1.76-.14,2.53-.22C64.05,14,66,12,66.15,9a4.94,4.94,0,0,0-4.53-5.27,62.41,62.41,0,0,0-7.73-.06V20.05Z"/><path class="cls-2" d="M16.72,9.72v-6h4.45V20H16.76V13.34H11.32V20H6.73V4.92l4.48-.82V9.72Z"/><path class="cls-3" d="M31.58,3.36a63,63,0,0,1,8.7.68c1.38.29,3.23,1.61,3.55,2.81s-.84,3-1.48,4.9c1.94.7,2.41,2.81,1.67,5.12s-3,3-5.23,3.14-4.7,0-7.21,0ZM35.87,17.5a26,26,0,0,0,3.69-1.72A2,2,0,0,0,39.49,14a25,25,0,0,0-3.62-1.28Zm-.08-7.09a17.79,17.79,0,0,0,3.35-1.3A2.08,2.08,0,0,0,39,7.32a16.39,16.39,0,0,0-3.25-.72Z"/><path class="cls-4" d="M58.4,20.05H53.89V3.68a62.41,62.41,0,0,1,7.73.06A4.94,4.94,0,0,1,66.15,9c-.11,3-2.1,5-5.22,5.3-.77.08-1.54.14-2.53.22Zm.11-9c1.92.19,3.18-.5,2.79-2.35-.18-.86-1.41-1.49-2.17-2.23l-.62.62Z"/><path class="cls-5" d="M67.92,34.82A16.37,16.37,0,0,1,64.47,33c-2.2-1.92-2.09-7.13.1-8.75a7.36,7.36,0,0,1,2.11-.68l.63-.77L69.7,23c.39.54.78,1.07,1.16,1.61a3.85,3.85,0,0,0,.58.08C71,26.5,72.69,29,69.55,30.24c-.18-.86-.13-1.54-.45-1.92-.85-1-1.85-1.88-2.79-2.81-.43,1.1-1.49,2.48-1.15,3.23.75,1.62,2.22,2.91,3.39,4.34l.57.56Z"/><path class="cls-6" d="M78.67,21.32l1.58-.19,1.44.67h0L82.33,23h0c-.12,1.4-.23,2.79-.34,4.18l-1,1.8-1,1.26-3,0c0-1.38-.1-2.77-.16-4.15l-1.17-2.26,1.17-1.16.76-.21Z"/><path class="cls-7" d="M73.36,19.48,71.8,18.15l.29-.66,4.27,1.32-1,2.13-.77-.31Z"/><path class="cls-8" d="M75.35,20.94l1-2.13.93,0,0,.14L77,20.7l.54,1.67-.76.21a5.26,5.26,0,0,0-.53-.15V21.28l-.5-.85-.44.82A.2.2,0,0,0,75.35,20.94Z"/><path class="cls-9" d="M69.17,21l0,0v.93l-2.47.64L65.52,21.3,67.42,20l.87,0Z"/><path class="cls-10" d="M67.92,34.82l1.2-1.18,1.81,0,.12.09.15,0,2.12.65.05.73Z"/><path class="cls-11" d="M77,30.15l3,0c-.18,2.71-1.9,1.13-3.07,1.08l0-.6A4.51,4.51,0,0,0,77,30.15Z"/><path class="cls-12" d="M67.42,20l-1.9,1.29C65.73,20.26,65.24,18.22,67.42,20Z"/><path class="cls-13" d="M66.66,22.48l2.47-.64.52.58c0,.2,0,.41,0,.61l-2.39-.22-.48.14A.9.9,0,0,1,66.66,22.48Z"/><path class="cls-14" d="M80.91,28.93l1-1.8h.77Z"/><path class="cls-3" d="M82.72,27.14H82c.11-1.39.22-2.78.34-4.18C82.43,24.35,82.58,25.74,82.72,27.14Z"/><path class="cls-15" d="M77.58,22.37,77,20.7l1.63.62Z"/><path class="cls-8" d="M73.36,19.48l1.22,1.15c0,.23,0,.46-.08.68l-1.86.29,0-1Z"/><path class="cls-16" d="M69.65,22.42l-.52-.58v-.93l1.75.84,0,.74Z"/><path class="cls-16" d="M76.81,30.67l0,.6L76,32.52l-.88,0c0-.2,0-.4,0-.6l.71-1.18Z"/><path class="cls-17" d="M73.37,35.08l-.05-.73,1.8-.67,0,0Z"/><path class="cls-18" d="M72.69,20.65c0,.31,0,.63,0,1l-.51.26-.69-.65Z"/><path class="cls-19" d="M81.69,21.8l-1.44-.67Z"/><path class="cls-19" d="M82.33,23l-.64-1.16Z"/><path class="cls-17" d="M75.16,32.49l.88,0-.89,1.18,0,0Z"/><polygon class="cls-7" points="77.29 18.84 77.41 18.84 77.33 18.98 77.29 18.84"/><path class="cls-12" d="M69.17,21,68.29,20Z"/><path class="cls-14" d="M70.85,22.49l0-.74a.38.38,0,0,1,.35-.39l.52.72a1.2,1.2,0,0,1-.34.37,3.05,3.05,0,0,0-.52.05Z"/><path class="cls-9" d="M66.83,23l.48-.14-.63.77Z"/><path class="cls-14" d="M71.44,21.21l.69.65c-.12.08-.25.15-.38.22l-.52-.72Z"/><path class="cls-20" d="M35.87,17.5V12.75A25,25,0,0,1,39.49,14a2,2,0,0,1,.07,1.75A26,26,0,0,1,35.87,17.5Z"/><path class="cls-21" d="M35.79,10.41V6.6A16.39,16.39,0,0,1,39,7.32a2.08,2.08,0,0,1,.1,1.79A17.79,17.79,0,0,1,35.79,10.41Z"/><path class="cls-22" d="M58.51,11.1v-4l.62-.62c.76.74,2,1.37,2.17,2.23C61.69,10.6,60.43,11.29,58.51,11.1Z"/><path class="cls-23" d="M71.2,33.7l-.15,0-.12-.09-2.38-.58c-1.17-1.43-2.64-2.72-3.39-4.34-.34-.75.72-2.13,1.15-3.23.94.93,1.94,1.8,2.79,2.81.32.38.27,1.06.45,1.92C72.69,29,71,26.5,71.44,24.72h0l2.43-.4,1,.23c.08.21.15.41.22.62s0,.54-.08.81v5.27l-1.14.64h0l-.62,1.16h0l-1.16.51Z"/><path class="cls-24" d="M74.92,24.56l-1-.23-2.43.4h0a3.85,3.85,0,0,1-.58-.08l.63-1.31,3.59.35Z"/><path class="cls-2" d="M71.49,23.33l-.63,1.31c-.38-.54-.77-1.07-1.16-1.61,0-.2,0-.41,0-.61l1.2.07h0a1.19,1.19,0,0,0,.16.48A.65.65,0,0,0,71.49,23.33Z"/><path class="cls-25" d="M68.55,33.08l2.38.58-1.81,0Z"/><path class="cls-26" d="M75.08,23.68l-3.59-.35a.65.65,0,0,1-.44-.35l.36-.53a1.2,1.2,0,0,0,.34-.37c.13-.07.26-.14.38-.22l.51-.26,1.86-.29,1.79,1.12a5.26,5.26,0,0,1,.53.15l-1.17,1.16A2.62,2.62,0,0,0,75.08,23.68Z"/><path class="cls-27" d="M75.08,23.68a2.62,2.62,0,0,1,.57.06L76.82,26h-.88l-.8-.82c-.07-.21-.14-.41-.22-.62S75,24,75.08,23.68Z"/><path class="cls-28" d="M75.94,26h.88c.06,1.38.11,2.77.16,4.15a4.51,4.51,0,0,1-.17.52l-1,0C75.89,29.14,75.91,27.57,75.94,26Z"/><path class="cls-29" d="M76.29,22.43,74.5,21.31c0-.22,0-.45.08-.68l.77.31a.2.2,0,0,1,0,.31l.94,0Z"/><path class="cls-11" d="M76.29,21.28l-.94,0,.44-.82Z"/><path class="cls-25" d="M71.2,33.7l.94-.13,1.16-.51h0l.62-1.16h0l1.14,0h.09v.6l0,1.19-1.8.67Z"/><path class="cls-30" d="M75.94,26c0,1.57,0,3.14-.08,4.71l-.71,1.18h-.09v-.62c0-.59,0-1.17,0-1.76,0-1.17,0-2.34,0-3.51,0-.27,0-.54.08-.81Z"/><path class="cls-24" d="M71.41,22.45l-.36.53a1.19,1.19,0,0,1-.16-.48A3.05,3.05,0,0,1,71.41,22.45Z"/><path class="cls-5" d="M75.06,26c0,1.17,0,2.34,0,3.51C75.07,28.33,75.06,27.16,75.06,26Z"/><path class="cls-5" d="M71.46,24.73l2.43-.4Z"/><path class="cls-5" d="M75.06,31.26v.62l-1.14,0Z"/><path class="cls-5" d="M73.92,31.9l-.62,1.16Z"/><path class="cls-5" d="M73.3,33.06l-1.16.51Z"/></g></g></svg>