<svg id="Calque_1" data-name="Calque 1" xmlns="http://www.w3.org/2000/svg" viewBox="0 0 389.4 282"><defs><style>.cls-1{fill:#ecdac2;}.cls-2{fill:#3f3d4d;}.cls-3{fill:#0d68a1;}.cls-4{fill:#d0c1ae;}.cls-5{fill:#0e68a1;}.cls-6{fill:#fab79e;}.cls-7{fill:#ecb232;}.cls-8{fill:#eff7f8;}.cls-9{fill:#554e51;}.cls-10{fill:#1d6694;}.cls-11{fill:#f0d9b2;}.cls-12{fill:#616984;}.cls-13{fill:#2d2b3e;}.cls-14{fill:#f4b69e;}.cls-15{fill:#2b2839;}.cls-16{fill:#92775a;}.cls-17{fill:#e5e4e7;}.cls-18{fill:#e2b4a4;}.cls-19{fill:#c4d2d5;}.cls-20{fill:#a08c87;}.cls-21{fill:#cda69e;}.cls-22{fill:#e8d9c4;}.cls-23{fill:#e8d6b9;}.cls-24{fill:#eadac4;}.cls-25{fill:#f2ad08;}.cls-26{fill:#0767a3;}</style></defs><title>old</title><path class="cls-1" d="M-89.4,122.2v-1.8l1.15-2.4c.19-8-.29-16,2.79-23.57,1-2.39,1.65-4.9,2.5-7.35,1-3,1.65-6.25,3.27-8.89,4.3-7,9.31-13.59,13.51-20.65a42.4,42.4,0,0,1,12-12.89c1.42-1,3-1.74,4.48-2.74C-43.76,37.84-38.37,33-31.2,31c1.63-.44,3.47-1.2,3-3.61h0a24,24,0,0,1,9.62,5.65,19,19,0,0,0,8.12,4.52c8.52,2.29,16.73-.78,24.94-2.46,5.91-1.22,11.66-3.17,17.52-4.65,6.22-1.56,12.69-2.38,18.69-4.54A202.34,202.34,0,0,0,74.07,15.65,54.92,54.92,0,0,1,99.75,9.37a77.74,77.74,0,0,0,8.61-.64c.52-.06,1-.74,1.44-1.13h1.8a5.74,5.74,0,0,0,1.63.56c9.25.22,18.51.39,27.77.58,7.78,1.51,15.55,3,23.33,4.54,6.14,1.17,12.29,2.21,18.42,3.44,4.25.85,8.46,1.94,12.7,2.86,6.87,1.49,13.75,2.9,20.62,4.38,5.12,1.11,10.18,3,15.35,3.28,10.3.63,20,3.33,29.45,7.09,4.77,1.9,9.39,4.44,12.26,8.87,1.42,2.21,1.59,5.19,2.64,7.69,4,9.46,3.64,19.65,5,29.54,1.57,11.59,2.76,23.24,4.37,34.82A39.74,39.74,0,0,0,288,126.77c4,8.43,6.18,17.39,8.7,26.26,1.32,4.66,2.19,9.44,3.26,14.17v19.2a15.16,15.16,0,0,0-.57,3.14c.38,12-2.89,23.18-7.31,34.11a77.1,77.1,0,0,1-4.57,9.25,32.36,32.36,0,0,1-4.72,6.66c-3.53,3.59-7.41,6.83-11.13,10.24-5.19,4.77-10.37,9.57-15.57,14.34-2.49,2.28-4.7,5.13-7.6,6.64a58.21,58.21,0,0,1-20.34,6.48c-7.16.84-14.13,3.24-21.22,4.8-7.37,1.62-14.78,3.05-22.17,4.57-4.52.53-9.06,1-13.56,1.61a41.29,41.29,0,0,0-5,1.36H115.8a7.75,7.75,0,0,0-1.64-.56c-5.11-.63-10.24-1.17-15.35-1.83-4.11-.53-8.2-1.25-12.31-1.78-7.87-1-15.84-1.49-23.59-3.07-9.69-2-19.24-4.69-28.77-7.37-7.46-2.09-14.81-4.57-22.18-7a10.44,10.44,0,0,1-2.42-1.64c.33-.17.67-.51,1-.5,6.27.27,12.53.69,18.8.87,10,.28,20,.61,29.93.59q53.21-.15,106.4-.55c13.17-.09,26.35-.37,39.52-.63,5.08-.1,10.16-.33,15.23-.63,2-.12,4-.57,6-.87a5.6,5.6,0,0,0-3.33-1.4c-4.57-.28-9.15-.48-13.73-.66-6.08-.23-12.16-.38-18.24-.64a7.88,7.88,0,0,1-2.16-.73l1.68-5.82c.81-1.45,2.16-3.06-1-3.23l-2.3-2.52,2.64-1.27c1.74,3.32,2.24,3.36,4.29.32,1.36-2,2.59-1.07,3.27-.25a24.71,24.71,0,0,1,4.72-.81,40.21,40.21,0,0,0,21.54-4.94c1.52-.86,2.44-2.79,3.63-4.22a.69.69,0,0,1,.23-.48l2.95-.17a16.46,16.46,0,0,0-.82-3.29c-.38-.81-1.38-2.12-1.75-2-3.42,1-7.25,1.57-9,5.45-2.67.72-5.32,1.92-8,2-6.34.28-12.7,0-19,0,.4-.92,1.29-2,1.05-2.71s-1.61-1.12-2.55-1.27c-2.74-.44-5.57-.44-8.24-1.11-1.13-.29-1.94-1.81-2.9-2.78l-1.05-1.53,1.24-1.38a.8.8,0,0,1,.35-.22l.21-.52,0-1.94-.21-2.34-.36-2.47-.4-2.94-.17-1.26-.27-1.84c-.09-.6-.18-1.19-.26-1.78-.16-.8-.31-1.6-.47-2.4-.07-.59-.14-1.19-.2-1.79l-.36-1.84c-.32-2-.6-3.94-1-5.89-1.65-8.57-1.34-17.54-5.34-25.65-1.49-3-2.52-6.29-3.86-9.4q-5.24-12.22-10.54-24.42c1.57-2.19,3.63-4.19,4.62-6.63,3.06-7.53,5.72-15.24,8.53-22.87.2-.21.52-.39.58-.64,2.53-9.37,9.08-12.86,18.26-12.53a5.28,5.28,0,0,0,.89-.11c9.79-1.33,18.72-5.15,27.49-9.44l5.19-2.4,2.32,0c.16,1,.37,2,.47,3q4.57,42.78,9.19,85.57c.09.88,1,1.67,1.49,2.51.33-.91,1-1.86.93-2.73-1.68-16.41-3.47-32.8-5.19-49.2-1.42-13.42-2.78-26.84-4.17-40.26,2.31-.16,3.7-1.29,3.74-3.7s-1.11-3.65-3.48-3.92c-.42,0-.78-.51-1.17-.79L226.23,76l.17-1.45c.09-.58,0-1.31.31-1.72.93-1.19,1.92-3,3.07-3.15s2.92,1.15,3.68,2.31c1,1.51,1.21,3.54,1.9,5.28.25.63.92,1.09,1.4,1.63.36-.61,1.07-1.26,1-1.84-.29-3.47-1.35-6.66-4.18-9-2.6-2.1-6-1.78-7.84,1-1.11,1.69-1.54,3.82-2.28,5.75,0,.75,0,1.5,0,2.25l.07,1.35-3.33,3.67c-1.82.16-3.74,0-5.43.53-10.54,3.38-21.15,6.27-32.31,6.55H169.8l-.57-1.78-.66-.72c.82-.58,1.72-1.74,2.46-1.65,2.61.31,3.27-.76,2.95-3.07a7.65,7.65,0,0,1,.11-1.78l2.43-1c-.26-2.78-.35-5.38-.8-7.92-.81-4.63-6.14-6.83-9.59-4.07-3.32-1.18-4.2,1.51-5,3.56-.56,1.44-1.22,3.62,1.43,4.31L162,76c-.2,1.92-.31,3.86-.64,5.75a12.25,12.25,0,0,1-1.12,2.66c-2.61-1.65-5-3.76-8.41-3.58a20.56,20.56,0,0,1-3.27-2c-7-6.13-13.89-12.33-20.82-18.51a8.08,8.08,0,0,0,.85-1.1c.5-1,.93-1.95,1.39-2.93a19.21,19.21,0,0,0-3.13,0,15.25,15.25,0,0,0-2.71,1L106.69,42.71c-1.39-1.18-2.71-1.64-4,.18a12,12,0,0,1,0-2.08c.54-3.51-.09-6.61-3.44-9.88-.61,2.24-1.06,3.83-1.49,5.42-.37,1.39-.69,2.79-1.07,4.17-.27,1-1.13,2.32-.78,2.77a6.05,6.05,0,0,0,3,1.46,9.4,9.4,0,0,0,2.38.11c-2.58,4.94-.22,10.06,5,10.76q4,3.8,8,7.58c-2.66,1.91-5.37,3.75-8,5.75-5.11,3.92-10.09,8-15.26,11.86-3.75,2.78-7.52,2.4-11-.53a48,48,0,0,0-4.41-3L77.4,76c6.39,2,8.23.64,8.36-6.19,0-.19,0-.39,0-.59,3.33-1.78,3.23-3.58-.34-5.9l.12-3.56-.28-.51-1.14-1.33-.71-.48c-1.72-.18-3.51-.72-5.16-.45s-2.28,0-2.72-1.63c-.56-2-1.79-3.4-4.16-2.56-2.11.75-4.46,4.39-3.32,5.58,2.18,2.29,1.87,4.49,1.07,7-.13.41.2,1,.32,1.44l.29.62,0,.07.42.65.06.07.45.55.1.13c0,1.17.11,2.33.17,3.5-4.32,1.57-5.76,3.66-5,7.19-1.33-.7-3-2.31-3.93-1.94-4.16,1.71-8.62,3.36-9.9,8.51-.35.32-1,.65-1,.94.31,5.49.71,11,1.08,16.46,0,1.39,0,2.77.05,4.16s0,2.87,0,4.3l0,2.35-.09,1.79c0,.6,0,1.2,0,1.8-.37.51-1.09,1-1.06,1.53.29,5.72-1.75,10.88-3.35,16.22-.64,2.14-2.61,4.87-.35,7.41-.39,4.09-.94,8.18-1.12,12.28-.21,4.89-.55,9.43-3.25,14-1.83,3.07-2.73,6.81-5.17,9.7a7.12,7.12,0,0,0-1.61,2.42,3,3,0,0,0,.48,2.4c.5.63,1.51.85,2.29,1.25,0,.41,0,.82,0,1.22-1.25,3.22-2.59,6.4-3.72,9.65-1.7,4.86-3.1,5.94-8.3,5.95H6.61L6,201.44l0,0-.52-.61-1.53-.92c-3.51-2.13-4.88-1.58-6,2.33-1,3.29-2.24,6.51-2.9,9.85a29.6,29.6,0,0,0-.08,7.35,2.24,2.24,0,0,0,1.35,1.67c.54.07,1.45-.63,1.78-1.23.82-1.47,1.41-3.07,2.09-4.62l2.76-3.57.18-.16,1-1c.87-.34,1.82-1.09,2.62-.95a127.64,127.64,0,0,0,27.87,2,8.86,8.86,0,0,0,7.54-4c1.26-1.89,2.73-3.66,3.81-5.63,2.6-4.74,5-9.58,7.51-14.37,1.34-.4,2.69-1.16,4-1.11,4.93.19,9.85.73,14.78.9.84,0,1.73-1.12,2.6-1.73l.13-.07.59-.28,1.26-.18-.6,4.8a.48.48,0,0,1-.44.16l-1.27.54a.41.41,0,0,1-.43.15l-.81.29-.91.36-.89.34-.07,0a.51.51,0,0,0-.5.2l-1.18.48-1.79.64-2,2.88-4.1.62-1.81,0-1.18.32-1.27.31-1.67.68c-.34,1.11-1.21,2.36-.94,3.3,1.42,5.09,3.11,10.1,4.75,15.12.49,1.51,1.28,2.86,3.22,2.3C65,218,64.28,216.46,64,215c-.72-3.84-2.64-7.85,1.32-11.16.09-.08,0-.38,0-.58,1.46-.21,3.15,1.12,4.37-.66,1.9,3.78,1.9,3.77,6.11,2.55l5.15-1.45c.07,2.18.19,4.34,2.45,5.56.44,2.38.74,4.81,1.37,7.14,1.09,4.06,2.38,8.06,3.59,12.08,0,1.61-.07,3.22-.11,4.83-.27,2.33-.55,4.66-.82,7-20.89,0-41.77.11-62.65.08a31.85,31.85,0,0,1-5.75-1c-2.25-.44-4.51-.86-6.74-1.42a10.12,10.12,0,0,1-2.11-1.19A16,16,0,0,0,8,235.65c-.82-.3-1.88-.19-2.51-.68-2.65-2.05-5.18-4.27-7.77-6.42A26.33,26.33,0,0,0-5.55,226c-2.15-1.29-3.34-.62-3.32,2,.36,1.38.34,3.08,1.16,4.09a69.6,69.6,0,0,0,5.93,5.84c-.36,3.09,1.83,2.48,3.6,2.48h0c1.8,1.43,1.41,5.69,5.61,4.18.62-.22,1.84,1.16,2.75,1.83.44.32,1,1.12,1.19,1,3.18-1.8,6.19.84,9.38.29,2.61-.45,5.37.07,8-.12,4.74-.33,9.17-.27,10.89,5.4a10,10,0,0,0,1,8.31c-12.37.24-24.74.45-37.11.77a17.8,17.8,0,0,0-4.17,1.12,11.63,11.63,0,0,1-2-.64c-2.69-1.49-5.17-3.75-8-4.43-6-1.41-9.53-6.2-14.19-9.37-3.54-2.41-6.49-5.71-9.61-8.7-3.79-3.65-7.61-7.27-11.17-11.13-2.12-2.31-3.67-5.13-5.66-7.58-4.35-5.35-9-10.47-13.15-16-2.42-3.2-3.69-7.31-6.21-10.41-7.52-9.24-10-20.56-13.67-31.41-2.32-6.95-4.29-14.05-4-21.53-.19-5.46-.35-10.92-.58-16.38A26.81,26.81,0,0,0-89.4,122.2ZM22.81,145.6l.86-.55-.71-.71c-4.68-.05-9.36-.13-14-.12-4.5,0-9-.17-13.51.14l0,1.24ZM1.78,148,1,147l-1,1.05q-14.13.15-28.26.3c-.88,0-1.76.15-2.64.23l.27,1.27,14.3-.1c10.63.78,51.94-.49,53.26-1.72Zm39.53,4.72H12C15.3,154.63,38.35,154.7,41.31,152.76Zm8.23,60.88c-3.85.14-7.68,3.53-7.7,6.71Z" transform="translate(89.4 -7.6)"/><path class="cls-2" d="M179.45,221.77l.36,2.47.21,2.34,0,1.94-.21.52a.8.8,0,0,0-.35.22l-9.71.9-3.17-.17h0l-.06-.18a25.11,25.11,0,0,1-1-3.08c-1-5.24-1.93-10.49-2.88-15.74,0-.6-.11-1.19-.16-1.79q-.84-5.7-1.67-11.4c-.07-.62-.13-1.23-.19-1.85.07-5.14-.65-10.14-3.68-14.43-3.59-5.09-7.4-10-11.12-15A44.64,44.64,0,0,0,138,153.1l-3,4.59,0-.05-6.91,4.4a6.58,6.58,0,0,1-.6,3.3c-.71,1.82-1.45,3.62-2.18,5.43q-1.78,2.72-3.55,5.45l0,0-6.21,7.6,0,0-13.18,10.83v0l-8.85,4-1.32-.75-.06-1.25q-.45-4.5-.88-9c2.88.35,4.33-.77,4-3.81a10.56,10.56,0,0,1,.05-1.48,16.47,16.47,0,0,0,8.07-9.17c.67-1.65,1.51-3.24,2.3-4.85q6.69-13.65,13.39-27.28c1.68.72,3.33,2,5,2.07,7.43.33,12.81-3.67,17.46-8.95l1.28.67a13.82,13.82,0,0,0-.76,1.89c-.3,1.23-1.06,2.8-.58,3.63s2.2,1.34,3.44,1.56a24.84,24.84,0,0,0,4.4,0l7.21.63q5.28,12.21,10.54,24.42c1.34,3.11,2.37,6.37,3.86,9.4,4,8.11,3.69,17.08,5.34,25.65.37,1.95.65,3.93,1,5.89l.36,1.84c.06.6.13,1.2.2,1.79.16.8.31,1.6.47,2.4.08.59.17,1.18.26,1.78l.27,1.84c.06.42.11.84.17,1.26C179.18,219.81,179.32,220.79,179.45,221.77Z" transform="translate(89.4 -7.6)"/><path class="cls-3" d="M127.73,60.36c6.94,6.18,13.86,12.38,20.83,18.51a20.56,20.56,0,0,0,3.27,2c1.63,1,3.21,2,4.89,2.83,3.49,1.75,3.52,1.71,1.54,5.07-3.76,6.37-7.6,12.72-8.58,20.27-1,8.07-4.13,15.39-8.07,22.42a8.9,8.9,0,0,0-.54,2.47c-.64.26-1.47.36-1.89.82a8.14,8.14,0,0,1-7,2.67l-10.92-.66a50,50,0,0,1-5.54-2c-1.23-.61-2.77-1.55-3.14-2.68-.28-.86.79-2.61,1.74-3.33,2.94-2.2,6.11-4.1,9.18-6.11l3.82-2.18c2.38,0,4-.84,4-3.47l.17-.18c2.71-.09,3.57-1.71,3.41-4.16l0-.06q1.17-3,2.36-5.94l.14-.71c.26-.14.66-.22.74-.42,2.12-5.54,1.69-11.33,1.36-17-.08-1.36-1.77-2.63-2.72-3.94a.41.41,0,0,1-.27-.24v-.18l-.17,0a.87.87,0,0,1-.22-.55c-.84-4.3-3.82-6.77-7.43-8.69l-.61-.47c-.6-1-1-2.69-1.82-2.9-2.47-.65-2.4-2-1.7-3.82,3-2.06-.35-5.06,1-7.39Z" transform="translate(89.4 -7.6)"/><path class="cls-4" d="M9.54,266.39-.59,263.18a17.8,17.8,0,0,1,4.17-1.12c12.37-.32,24.74-.53,37.11-.77,4.72,4.18,8.3,4.2,12.94.06.8,0,1.59,0,2.39,0q57.95.12,115.89.2c1.18,0,2.36-.74,3.55-1.14,4.46,5.05,8.62,5.29,13.45.78a7.88,7.88,0,0,0,2.16.73c6.08.26,12.16.41,18.24.64,4.58.18,9.16.38,13.73.66a5.6,5.6,0,0,1,3.33,1.4c-2,.3-4,.75-6,.87-5.07.3-10.15.53-15.23.63-13.17.26-26.35.54-39.52.63q-53.2.36-106.4.55c-10,0-19.95-.31-29.93-.59-6.27-.18-12.53-.6-18.8-.87C10.21,265.88,9.87,266.22,9.54,266.39Z" transform="translate(89.4 -7.6)"/><path class="cls-5" d="M156.61,142.56l-7.21-.63-3.32-1.14-4-1.4,3.21-3.65-1.75-.88a12.79,12.79,0,0,0,2.32-1.66c10.56-11.93,18.74-25.21,22.92-40.71.51-1.91,1.41-2.31,3.38-2.31a96.67,96.67,0,0,0,10.3-1c11.16-.28,21.77-3.17,32.31-6.55,1.69-.54,3.61-.37,5.43-.53l2,5.81-5.2,2.4a7.43,7.43,0,0,0-1.78.14c-7.33,2.4-14,6.59-21.94,7.36a128.43,128.43,0,0,0-13.32,2.21,18.71,18.71,0,0,0-5.64,2.13c-4.15,2.44-4.6,6.59-4.54,10.88-2.81,7.63-5.47,15.34-8.53,22.87C160.24,138.37,158.18,140.37,156.61,142.56Z" transform="translate(89.4 -7.6)"/><path class="cls-6" d="M6.61,202H27c5.2,0,6.6-1.09,8.3-5.95,1.13-3.25,2.47-6.43,3.72-9.65H51l2.4,1.2c-2.49,4.79-4.91,9.63-7.51,14.37-1.08,2-2.55,3.74-3.81,5.63a8.86,8.86,0,0,1-7.54,4,127.64,127.64,0,0,1-27.87-2c-.8-.14-1.75.61-2.62.95l-1,1-.18.15c-2.23-1.76-1.26-3.49.51-4.46A5.92,5.92,0,0,0,6.61,202Z" transform="translate(89.4 -7.6)"/><path class="cls-7" d="M227.58,238a.69.69,0,0,0-.23.48,46.72,46.72,0,0,1-4.71,3.11,47.94,47.94,0,0,1-21.88,5.29q-86.14.14-172.29,0a55.09,55.09,0,0,1-13.31-1.53c-4.57-1.14-8.9-3.27-13.33-5h0l-3.6-2.48a69.6,69.6,0,0,1-5.93-5.84c-.82-1-.8-2.71-1.16-4.09,1.52-1.34,3-1.84,4.15.39l-3.51.28a20.08,20.08,0,0,0,2.29,3.31c1.59,1.46,3.49,2.59,5,4.09,7.39,7.16,16.73,9.09,26.4,9.11,55.09.17,110.18.1,165.27.08,9,0,18.07.79,26.75-2.49a14.2,14.2,0,0,0,2.46-1.54l-.3-.74c-1.24.06-2.51,0-3.74.21-1.53.22-3,.65-4.56.94a49.63,49.63,0,0,1-5.77,1,64.91,64.91,0,0,1-6.54-.09c-2-.06-4-.16-6-.24-1.61-.07-3.23-.09-4.84-.19-.68,0-1.36-.37-2-.34-2.8.14-5.61.44-8.42.55-5.06.22-10.14.4-15.21.45-.78,0-1.58-.75-2.37-1.16l17.25-.94,14.48-.56c6.34,0,12.7.27,19,0,2.69-.12,5.34-1.32,8-2,1.59-.65,3.16-1.35,4.76-2,1-.37,2-.62,3-.93Z" transform="translate(89.4 -7.6)"/><path class="cls-8" d="M182.43,89.21a96.67,96.67,0,0,1-10.3,1c-2,0-2.87.4-3.38,2.31-4.18,15.5-12.36,28.78-22.92,40.71a12.53,12.53,0,0,1-2.33,1.66l-.6,0-1.28-.67-.56-.25a9.28,9.28,0,0,1,.55-2.47c3.94-7,7-14.35,8.07-22.42,1-7.55,4.82-13.9,8.58-20.27,2-3.36,2-3.32-1.54-5.07-1.68-.85-3.26-1.88-4.89-2.83,3.39-.18,5.8,1.93,8.41,3.58l2.26,1.85h0l1.21,1.78h0l1.17,1.2,0,0c.86,1.61,1.69,1.5,2.47-.06h15Z" transform="translate(89.4 -7.6)"/><path class="cls-6" d="M92.23,196.61l.06,1.25L93,199.6l3,28.92.44.92.26,1.59c.67,1.51.3,2.52-1.45,2.69-3,.3-5.11-1.31-5.92-4.27-.11-.39-.62-.67-.94-1-1.21-4-2.5-8-3.59-12.08-.63-2.33-.93-4.76-1.37-7.14-.51-3.09-.89-6.21-1.58-9.27-.94-4.16-2.12-8.28-3.2-12.41,2.66,0,5.31,0,8,0,3,0,4,.84,4.06,3.79a14.61,14.61,0,0,0,.09,3.25C90.9,195.36,91.7,196,92.23,196.61Z" transform="translate(89.4 -7.6)"/><path class="cls-9" d="M227.21,86.83c1.39,13.42,2.75,26.84,4.17,40.26,1.72,16.4,3.51,32.79,5.19,49.2.09.87-.6,1.82-.93,2.73-.51-.84-1.4-1.63-1.49-2.51q-4.67-42.78-9.19-85.57c-.1-1-.31-2-.47-3C224.49,85.48,225.87,86.2,227.21,86.83Z" transform="translate(89.4 -7.6)"/><path class="cls-10" d="M95.37,182.33a10.56,10.56,0,0,0-.05,1.48c.36,3-1.09,4.16-4,3.81-3.8-3.5-10.13-4.59-14.59-2.52v0l-1.26.18-.59.28-.13.07c-7.75,2.42-15.28.71-22.82-1.17a32,32,0,0,0-6.39-.88,53.29,53.29,0,0,0-5.9.39l-2.09-1.37c2.54-4.36,5.23-8.22,7.14-12.43,3.91-8.6,3.43-17.86,3.19-27l.12-2.91.55-3.67c.24-.86.52-1.7.7-2.56,1-5,1-5,6-3.69.84.23,1.68.5,2.52.76l-3.19.32c-.57,5.24-1.1,10.15-1.63,15a3.1,3.1,0,0,1-1.9-1.75,11,11,0,0,1-.37-2.32c-1,2.65-2.4,5.42-1.82,7.69.78,3.05.42,5.58-.08,8.54-.76,4.6,0,9.38-3.63,13.32-1.65,1.8-2.58,4.31-3.66,6.58a19.79,19.79,0,0,0-1,3.72,28.31,28.31,0,0,0,4,.22c1.44-.1,2.92-.93,4.25-.7a84.79,84.79,0,0,1,9.65,2.35,26.78,26.78,0,0,0,18.52-.75,9.1,9.1,0,0,1,2.89-.56c4.57-.27,9-.12,13.27,3.87V171.27c.38,2.44.69,4.89,1.16,7.32A35.68,35.68,0,0,0,95.37,182.33Z" transform="translate(89.4 -7.6)"/><path class="cls-11" d="M1.83,240.37c4.43,1.7,8.76,3.83,13.33,5a55.09,55.09,0,0,0,13.31,1.53q86.15.15,172.29,0a47.94,47.94,0,0,0,21.88-5.29,46.72,46.72,0,0,0,4.71-3.11c-1.19,1.43-2.11,3.36-3.63,4.22a40.21,40.21,0,0,1-21.54,4.94,24.71,24.71,0,0,0-4.72.81c-.68-.82-1.91-1.77-3.27.25-2.05,3-2.55,3-4.29-.32l-2.64,1.27-.09-.09-.09-1.77-1.25,1-.88-.32-5.11,0-1.5.7c-.16-.35-.29-1-.47-1-2.84-.23-5.68-.52-8.52-.52q-52.54,0-105.08,0c-3,0-6.13-.44-8.61,2.08-.55.56-1.64.6-2.49.88a.25.25,0,0,1-.21-.36l-1-.73.13.12-1-.69-1.86-.61-5,.28-.11.15-.18,0-.8-.72-.59,1.5L39.69,253c-1.72-5.67-6.15-5.73-10.89-5.4-2.67.19-5.43-.33-8,.12-3.19.55-6.2-2.09-9.38-.29-.15.09-.75-.71-1.19-1-.91-.67-2.13-2-2.75-1.83C3.24,246.06,3.63,241.8,1.83,240.37Z" transform="translate(89.4 -7.6)"/><path class="cls-6" d="M-4.72,228.35c-1.19-2.23-2.63-1.73-4.15-.39,0-2.57,1.17-3.24,3.32-2a26.33,26.33,0,0,1,3.25,2.54c2.59,2.15,5.12,4.37,7.77,6.42.63.49,1.69.38,2.51.68a16,16,0,0,1,2.18,1.12A10.12,10.12,0,0,0,12.27,238c2.23.56,4.49,1,6.74,1.42a31.85,31.85,0,0,0,5.75,1c20.88,0,41.76,0,62.65-.08a26,26,0,0,0,3.68.49c3.13,0,6.25-.25,9.38-.39l11.74,0h49.18l9.51,0,6.56.22-17.25.94H107.42l-2.49,0-1.49,0c-26.26,0-52.52.14-78.77-.15a43.11,43.11,0,0,1-14.72-3c-4.59-1.78-8.64-5-12.92-7.57l-1.12-2Z" transform="translate(89.4 -7.6)"/><path class="cls-5" d="M102.74,42.89c1.24-1.82,2.56-1.36,4-.18l17.46,14.68-6,5.41c-4.72-1.34-7.92-4.57-10.85-8.31-1-1.3-2.77-2-4.18-3-3.06-2-1.42-4.49-.86-6.9Z" transform="translate(89.4 -7.6)"/><path class="cls-12" d="M84.09,57.93l1.14,1.33.28.51-.12,3.56c-1,1.8-4.32.78-4.4,3.67-.85-.28-1.71-.54-2.54-.85s-1.47-.94-2-.76-.64,1.22-.9,1.89c-.59,1.46-.74,3.65-1.8,4.24-2.24,1.25-1.62-2.09-3-2.59l-.1-.13-.45-.55-.06-.07-.42-.65,0-.07c-.1-.21-.19-.42-.29-.62-.12-.48-.45-1-.32-1.44.8-2.52,1.11-4.72-1.07-7-1.14-1.19,1.21-4.83,3.32-5.58,2.37-.84,3.6.55,4.16,2.56.44,1.58,1,1.92,2.72,1.63s3.44.27,5.16.45Z" transform="translate(89.4 -7.6)"/><path class="cls-13" d="M49.28,248.31l1.86.61,1,.69-.13-.12,1,.73a.25.25,0,0,0,.21.36c2.38,3.5,2.77,7.08.46,10.77-4.64,4.14-8.22,4.12-12.94-.06a10,10,0,0,1-1-8.31l2.89-3.48,1.39-.78.18,0,.11-.15Zm1.25,8.19c-.09-2.17-1.11-3.5-3.27-3.53a3.08,3.08,0,0,0-3.4,3.33A3,3,0,0,0,47,259.61C49.11,259.73,50.28,258.56,50.53,256.5Z" transform="translate(89.4 -7.6)"/><path class="cls-13" d="M185,248.45l.88.32,1.34.81.09.09,2.3,2.52c.35,1.07.69,2.15,1,3.23l-1.68,5.82c-4.83,4.51-9,4.27-13.46-.78-1.85-5.07-1.21-7.57,2.89-11.28l1.5-.7Zm-5.9,8c.29,2,1.42,3.27,3.56,3.2a3.06,3.06,0,0,0,3.17-3.28,3.09,3.09,0,0,0-3.36-3.39C180.26,253,179.23,254.3,179.05,256.43Z" transform="translate(89.4 -7.6)"/><path class="cls-14" d="M166.13,67.23c3.45-2.76,8.78-.56,9.59,4.07.45,2.54.54,5.14.8,7.92l-2.43,1c-1.56-.86-2.94-2.75-5-1-1.3,1.1-1.59,6-.56,7.54l.66.72-1.8,1.79h0l-2.47.06,0,0-1.17-1.2h0c-.41-.59-.81-1.18-1.21-1.78h0c0-1.07.14-2.15.08-3.22-.15-2.35-.38-4.69-.58-7l.56-.91a52,52,0,0,0,5-1.6,4,4,0,0,0,2-1.85c.16-.37-.8-1.26-1.3-1.88C167.57,68.91,166.84,68.08,166.13,67.23Z" transform="translate(89.4 -7.6)"/><path class="cls-2" d="M80.93,203.67l-5.15,1.45c-4.21,1.22-4.21,1.23-6.11-2.55q-1.9-3.28-3.79-6.57l2-2.88,1.79-.64,1.18-.48.5-.2.06,0,.9-.34.91-.36.81-.29a.41.41,0,0,0,.43-.15l1.27-.54a.48.48,0,0,0,.44-.16c.62.34,1.66.57,1.78,1C79,195.18,80,199.43,80.93,203.67Z" transform="translate(89.4 -7.6)"/><path class="cls-15" d="M57.52,197.22l1.27-.31,1.18-.32,1.81,0c1.17,2.2,2.35,4.4,3.52,6.61,0,.2.11.5,0,.58-4,3.31-2,7.32-1.32,11.16.28,1.49,1,3-1.12,3.65-1.94.56-2.73-.79-3.22-2.3-1.64-5-3.33-10-4.75-15.12-.27-.94.6-2.19.94-3.3Z" transform="translate(89.4 -7.6)"/><path class="cls-15" d="M177.46,240.61l-6.56-.22c-.22-.41-.45-.82-.67-1.24l-.48-2.32c0-.82,0-1.63,0-2.45l.35-1.18a.69.69,0,0,0,.41-.41l8.8-.62c1,1,1.77,2.49,2.9,2.78,2.67.67,5.5.67,8.24,1.11.94.15,2.33.62,2.55,1.27s-.65,1.79-1.05,2.71Z" transform="translate(89.4 -7.6)"/><path class="cls-15" d="M100.47,240.37c-3.13.14-6.25.34-9.38.39a26,26,0,0,1-3.68-.49c.27-2.33.55-4.66.82-7,1,.15,2.13,0,2.92.51,4.3,2.59,8.45,1.45,12.64-.21H105l1.23.11c.94.27,1.9.48,2.82.82,1.63.59,2.18,1.61,1.08,3.16l0,0Z" transform="translate(89.4 -7.6)"/><path class="cls-15" d="M.13,215.22c-.68,1.55-1.27,3.15-2.09,4.62-.33.6-1.24,1.3-1.78,1.23a2.24,2.24,0,0,1-1.35-1.67A29.6,29.6,0,0,1-5,212.05c.66-3.34,1.94-6.56,2.9-9.85,1.15-3.91,2.52-4.46,6-2.33l1.53.92c.18.2.35.41.52.61l0,0c-.63,1.1-1,2.6-1.94,3.24C.17,207.32-.37,211,.13,215.22Z" transform="translate(89.4 -7.6)"/><path class="cls-16" d="M-30.6,149.86l-.27-1.27c.88-.08,1.76-.22,2.64-.23q14.13-.17,28.26-.3l1.75,0H37c-1.32,1.23-42.63,2.5-53.26,1.72Z" transform="translate(89.4 -7.6)"/><path class="cls-17" d="M57.79,131.11c-.84-.26-1.68-.53-2.52-.76-4.94-1.35-4.94-1.34-6,3.69-.18.86-.46,1.7-.7,2.56L48,140.27l-.12,2.91-.53,0c-2.26-2.54-.29-5.27.35-7.41,1.6-5.34,3.64-10.5,3.35-16.22,0-.49.69-1,1.06-1.53.85,3.35,1.59,6.74,2.64,10a3.4,3.4,0,0,0,2.32,1.86c8.19,1.24,16.37,1.38,24.42-1,1.22-.35,2.39-.9,3.58-1.36.22,2.61.43,5.22.65,7.83-.7-1.93-1.4-3.86-2.19-6C75,132.1,66.44,132.14,57.79,131.11Z" transform="translate(89.4 -7.6)"/><path class="cls-9" d="M223.5,78.46c0-.45-.05-.9-.07-1.35,0-.75,0-1.5,0-2.25.74-1.93,1.17-4.06,2.28-5.75,1.85-2.8,5.24-3.12,7.84-1,2.83,2.29,3.89,5.48,4.18,9,.05.58-.66,1.23-1,1.84-.48-.54-1.15-1-1.4-1.63-.69-1.74-.9-3.77-1.9-5.28-.76-1.16-2.53-2.46-3.68-2.31s-2.14,2-3.07,3.15c-.32.41-.22,1.14-.31,1.72s-.12,1-.17,1.45c0,.81.05,1.63.07,2.44L225,82.27l-.81-.15C224,80.9,223.74,79.68,223.5,78.46Z" transform="translate(89.4 -7.6)"/><path class="cls-10" d="M169.76,113.06c-.06-4.29.39-8.44,4.54-10.88a18.71,18.71,0,0,1,5.64-2.13,128.43,128.43,0,0,1,13.32-2.21c7.92-.77,14.61-5,21.94-7.36a7.43,7.43,0,0,1,1.78-.14c-8.77,4.29-17.7,8.11-27.49,9.44a5.28,5.28,0,0,1-.89.11c-9.18-.33-15.73,3.16-18.26,12.53C170.28,112.67,170,112.85,169.76,113.06Z" transform="translate(89.4 -7.6)"/><path class="cls-18" d="M118.2,62.8l6-5.41a14.87,14.87,0,0,1,2.7-1,19.21,19.21,0,0,1,3.13,0c-.46,1-.89,2-1.39,2.93a8.08,8.08,0,0,1-.85,1.1l-2.09-.13c-1.36,2.33,2,5.33-1,7.38l-2.93,1.23-3.6,0-1-4.92Z" transform="translate(89.4 -7.6)"/><path class="cls-14" d="M85.73,69.23c0,.2,0,.4,0,.59-.13,6.83-2,8.19-8.36,6.19l-2-3.15a1.37,1.37,0,0,0,.17-.45c.1-4.47,2.37-5.36,6.16-3.76Z" transform="translate(89.4 -7.6)"/><path class="cls-14" d="M102.74,42.89c-.15.55-.29,1.11-.43,1.67l-1,.3A9.4,9.4,0,0,1,99,44.75a6.05,6.05,0,0,1-3-1.46c-.35-.45.51-1.81.78-2.77.38-1.38.7-2.78,1.07-4.17.43-1.59.88-3.18,1.49-5.42,3.35,3.27,4,6.37,3.44,9.88A12,12,0,0,0,102.74,42.89Z" transform="translate(89.4 -7.6)"/><path class="cls-6" d="M73.17,83.07l-2.3,0-2.55-.94-1.79-1.82L66,79.61h0c-.8-3.53.64-5.62,5-7.19,2.67,1.45,2.41,4.17,2.86,6.58l.08,3a3.29,3.29,0,0,1-.1.53Z" transform="translate(89.4 -7.6)"/><path class="cls-16" d="M41.31,152.76c-3,1.94-26,1.87-29.29,0Z" transform="translate(89.4 -7.6)"/><path class="cls-18" d="M223.5,78.46c.24,1.22.49,2.44.73,3.66l.81.15,1.26-3.85c.39.28.75.75,1.17.79,2.37.27,3.53,1.57,3.48,3.92s-1.43,3.54-3.74,3.7c-1.34-.63-2.72-1.35-2.72,1.16l-2.32,0c-.66-1.94-1.33-3.87-2-5.81Z" transform="translate(89.4 -7.6)"/><path class="cls-19" d="M47.39,143.15l.53,0c.24,9.16.72,18.42-3.19,27-1.91,4.21-4.6,8.07-7.14,12.43L39.68,184l.48,1.2-1.15,0c-.78-.4-1.79-.62-2.29-1.25a3,3,0,0,1-.48-2.4,7.12,7.12,0,0,1,1.61-2.42c2.44-2.89,3.34-6.63,5.17-9.7,2.7-4.55,3-9.09,3.25-14C46.45,151.33,47,147.24,47.39,143.15Z" transform="translate(89.4 -7.6)"/><path class="cls-20" d="M166.13,67.23c.71.85,1.44,1.68,2.12,2.54.5.62,1.46,1.51,1.3,1.88a4,4,0,0,1-2,1.85,52,52,0,0,1-5,1.6c-2.65-.69-2-2.87-1.43-4.31C161.93,68.74,162.81,66.05,166.13,67.23Z" transform="translate(89.4 -7.6)"/><path class="cls-21" d="M40.16,185.2l-.48-1.2a53.29,53.29,0,0,1,5.9-.39,32,32,0,0,1,6.39.88c7.54,1.88,15.07,3.59,22.82,1.17-.87.61-1.76,1.76-2.6,1.73-4.93-.17-9.85-.71-14.78-.9-1.32-.05-2.67.71-4,1.11L51,186.4a8.36,8.36,0,0,0-2.62-1.15C45.65,185.1,42.9,185.2,40.16,185.2Z" transform="translate(89.4 -7.6)"/><path class="cls-21" d="M73.8,79c-.45-2.41-.19-5.13-2.86-6.58-.06-1.17-.12-2.33-.17-3.5,1.4.5.78,3.84,3,2.59,1.06-.59,1.21-2.78,1.8-4.24.26-.67.43-1.71.9-1.89s1.28.51,2,.76,1.69.57,2.54.85l.73,1.65c-3.79-1.6-6.06-.71-6.16,3.76a1.37,1.37,0,0,1-.17.45l2,3.15-1.71,1.28L74.44,79Z" transform="translate(89.4 -7.6)"/><path class="cls-16" d="M168.57,86.71c-1-1.52-.74-6.44.56-7.54,2-1.71,3.4.18,5,1A7.65,7.65,0,0,0,174,82c.32,2.31-.34,3.38-2.95,3.07C170.29,85,169.39,86.13,168.57,86.71Z" transform="translate(89.4 -7.6)"/><path class="cls-18" d="M80.93,203.67c-1-4.24-1.9-8.49-3-12.7-.12-.47-1.16-.7-1.78-1l.6-4.8v0l1.84,2.45c1.08,4.13,2.26,8.25,3.2,12.41.69,3.06,1.07,6.18,1.58,9.27C81.12,208,81,205.85,80.93,203.67Z" transform="translate(89.4 -7.6)"/><path class="cls-18" d="M65.3,203.23c-1.17-2.21-2.35-4.41-3.52-6.61l4.1-.62q1.89,3.28,3.79,6.57C68.45,204.35,66.76,203,65.3,203.23Z" transform="translate(89.4 -7.6)"/><path class="cls-16" d="M22.81,145.6H-4.54l0-1.24c4.49-.31,9-.13,13.51-.14,4.68,0,9.36.07,14,.12Z" transform="translate(89.4 -7.6)"/><path class="cls-21" d="M103.79,233.58c-4.19,1.66-8.34,2.8-12.64.21-.79-.48-1.94-.36-2.92-.51,0-1.61.07-3.22.11-4.83.32.33.83.61.94,1,.81,3,3,4.57,5.92,4.27,1.75-.17,2.12-1.18,1.45-2.7Z" transform="translate(89.4 -7.6)"/><path class="cls-11" d="M227.58,238l-.83-2.91c-1,.31-2,.56-3,.93-1.6.61-3.17,1.31-4.76,2,1.72-3.88,5.55-4.4,9-5.45.37-.11,1.37,1.2,1.75,2a16.46,16.46,0,0,1,.82,3.29Z" transform="translate(89.4 -7.6)"/><path class="cls-20" d="M81.72,68.65,81,67c.08-2.89,3.42-1.87,4.4-3.67,3.57,2.32,3.67,4.12.34,5.9Z" transform="translate(89.4 -7.6)"/><path class="cls-10" d="M118.2,62.8l-1,1.1-2.83-.7q-4-3.78-8-7.58l-3.16-4.16c1.41,1,3.15,1.73,4.18,3C110.28,58.23,113.48,61.46,118.2,62.8Z" transform="translate(89.4 -7.6)"/><path class="cls-21" d="M179.3,232.17l-8.8.62-.72-2.63,9.71-.9-1.24,1.38Z" transform="translate(89.4 -7.6)"/><path class="cls-21" d="M.13,215.22c-.5-4.18,0-7.9,3.92-10.54C5,204,5.36,202.54,6,201.44l.62.57a5.92,5.92,0,0,1-3.21,5.17c-1.77,1-2.74,2.7-.51,4.46Z" transform="translate(89.4 -7.6)"/><path class="cls-14" d="M40.16,185.2c2.74,0,5.49-.1,8.22.05A8.36,8.36,0,0,1,51,186.4H39c0-.4,0-.81,0-1.22Z" transform="translate(89.4 -7.6)"/><path class="cls-17" d="M52.15,86.19c.2,5.25.42,10.5.58,15.75a5.21,5.21,0,0,1-.5,1.65c-.37-5.49-.77-11-1.08-16.46C51.13,86.84,51.8,86.51,52.15,86.19Z" transform="translate(89.4 -7.6)"/><path class="cls-19" d="M103.17,51.46l3.16,4.16c-5.2-.7-7.56-5.82-5-10.76l1-.3C101.75,47,100.11,49.5,103.17,51.46Z" transform="translate(89.4 -7.6)"/><path class="cls-20" d="M49.54,213.64l-7.7,6.71C41.86,217.17,45.69,213.78,49.54,213.64Z" transform="translate(89.4 -7.6)"/><path class="cls-11" d="M162,76c.2,2.35.43,4.69.58,7,.06,1.07-.05,2.15-.08,3.22l-2.26-1.85a12.25,12.25,0,0,0,1.12-2.66C161.69,79.87,161.8,77.93,162,76Z" transform="translate(89.4 -7.6)"/><path class="cls-9" d="M-30.6,149.86l14.3-.1Z" transform="translate(89.4 -7.6)"/><path class="cls-11" d="M-1.78,237.89l3.6,2.48C.05,240.37-2.14,241-1.78,237.89Z" transform="translate(89.4 -7.6)"/><path class="cls-17" d="M52.28,107.75c1.7,1.43,1.69,2.87,0,4.3C52.29,110.62,52.29,109.19,52.28,107.75Z" transform="translate(89.4 -7.6)"/><path class="cls-11" d="M167.43,89.22l1.8-1.79.57,1.78Z" transform="translate(89.4 -7.6)"/><path class="cls-11" d="M190.59,255.42c-.34-1.08-.68-2.16-1-3.23C192.75,252.36,191.4,254,190.59,255.42Z" transform="translate(89.4 -7.6)"/><path class="cls-21" d="M178.35,214c-.16-.8-.31-1.6-.47-2.4Z" transform="translate(89.4 -7.6)"/><path class="cls-21" d="M179.45,221.77c-.13-1-.27-2-.4-2.94C179.18,219.81,179.32,220.79,179.45,221.77Z" transform="translate(89.4 -7.6)"/><path class="cls-18" d="M1.78,148l-1.75,0L1,147Z" transform="translate(89.4 -7.6)"/><path class="cls-21" d="M177.68,209.76l-.36-1.84Z" transform="translate(89.4 -7.6)"/><path class="cls-17" d="M52.25,114.4l-.09,1.79Z" transform="translate(89.4 -7.6)"/><path class="cls-21" d="M180,226.58l-.21-2.34Z" transform="translate(89.4 -7.6)"/><path class="cls-21" d="M178.88,217.57l-.27-1.84Z" transform="translate(89.4 -7.6)"/><path class="cls-18" d="M60,196.59l-1.18.32Z" transform="translate(89.4 -7.6)"/><path class="cls-18" d="M22.81,145.6l.15-1.26c.24.23.48.47.71.71Z" transform="translate(89.4 -7.6)"/><path class="cls-21" d="M3.07,211.49l1-1Z" transform="translate(89.4 -7.6)"/><path class="cls-18" d="M223.48,74.86c0,.75,0,1.5,0,2.25C223.45,76.36,223.46,75.61,223.48,74.86Z" transform="translate(89.4 -7.6)"/><path class="cls-18" d="M57.52,197.22l-1.67.68Z" transform="translate(89.4 -7.6)"/><path class="cls-18" d="M69.67,192.48l-1.79.64Z" transform="translate(89.4 -7.6)"/><path class="cls-18" d="M75.73,190.09l-1.27.54Z" transform="translate(89.4 -7.6)"/><path class="cls-18" d="M226.23,76c.05-.49.11-1,.17-1.45C226.34,75,226.28,75.49,226.23,76Z" transform="translate(89.4 -7.6)"/><path class="cls-20" d="M84.09,57.93l-.71-.48Z" transform="translate(89.4 -7.6)"/><path class="cls-18" d="M72.31,191.43l-.9.34Z" transform="translate(89.4 -7.6)"/><path class="cls-18" d="M74,190.78l-.81.29Z" transform="translate(89.4 -7.6)"/><path class="cls-21" d="M74.92,185.59l.59-.28Z" transform="translate(89.4 -7.6)"/><path class="cls-21" d="M69.41,66.84c.1.2.19.41.29.62C69.6,67.25,69.51,67,69.41,66.84Z" transform="translate(89.4 -7.6)"/><path class="cls-20" d="M85.51,59.77l-.28-.51Z" transform="translate(89.4 -7.6)"/><path class="cls-21" d="M179.84,229l.21-.52Z" transform="translate(89.4 -7.6)"/><path class="cls-21" d="M6,201.4c-.17-.2-.34-.41-.52-.61C5.63,201,5.8,201.2,6,201.4Z" transform="translate(89.4 -7.6)"/><path class="cls-21" d="M70.22,68.25l.45.55Z" transform="translate(89.4 -7.6)"/><path class="cls-18" d="M71.35,191.8l-.5.2A.51.51,0,0,1,71.35,191.8Z" transform="translate(89.4 -7.6)"/><path class="cls-21" d="M69.74,67.53l.42.65Z" transform="translate(89.4 -7.6)"/><path class="cls-1" d="M-28.2,27.4c-.22-.06-.43-.13,0,0-.36-.26-.17-.13,0,0Z" transform="translate(89.4 -7.6)"/><path class="cls-1" d="M103.79,233.58,96.65,231c-.09-.52-.17-1.05-.26-1.58,0-.29,0-.58.07-.87a14.6,14.6,0,0,0,.12-2.08c-.33-3.69-1.54-7.55-.84-11a16.19,16.19,0,0,0-.69-8.72c-1.63-5-.15-7.3,5-7.67a22.49,22.49,0,0,1,2.45.14v-4.57c2.69.73,4.54-.66,6.39-2.33,1.08-1,2.68-1.41,3.6-2.48,1.49-1.72,3.93-3.07,3.19-6l0,0c6.14-2.29,6.14-2.29,6.21-7.6l0,0c1.3-.51,3.48-.74,3.75-1.58,1.37-4.25,4.84-6.73,7.52-9.87a26.13,26.13,0,0,0,1.82-2.67c.43-.66.85-1.33,1.28-2,.65.55,1.52,1,1.91,1.69,1.17,2.13,2.15,4.37,3,6.11l5.14.6-2.46,1.69c5.76,4,10.29,8.72,12.84,15.1.26.65-.34,1.63-.42,2l4.41,8.69.19,1.85c-.19,3.37-.46,6.74-.47,10.11,0,.43,1.39.86,2.14,1.29l.16,1.79c-3.43,4.72-3.31,6.52.19,10.72a4.09,4.09,0,0,1,.3,3.36c-1,3,0,4.58,3.39,4.74l.06.18c0,.09-.1.19-.08.27a3.69,3.69,0,0,0,.24.49l2.49,2.5c0,.39,0,.77-.07,1.15l-7.77,6H150.61a8.5,8.5,0,0,0-2.73-1.11q-11.38-.13-22.76,0c-.91,0-1.82.73-2.73,1.11H112.21c-.72-.88-1.44-1.76-2.15-2.65l0,0c2.25.37,2.15-1.09,2-2.56a17.91,17.91,0,0,0-.47-1.85c-.22-.8-.43-1.61-.64-2.42l-2.17,1.87c-1.08-.28-2.71-2.1-4,.48a1.56,1.56,0,0,0,.15.39Zm60.74-3.06-1.38.92c-.35.5-1.08,1.29-1,1.43a6.66,6.66,0,0,0,2.19,2c.3.14,1.65-.9,1.58-1.16A17.89,17.89,0,0,0,164.53,230.52ZM97.25,208.39l.89.86c.43-.54.88-1.07,1.26-1.65,0-.06-.46-.57-.48-.56C98.35,207.47,97.8,207.93,97.25,208.39Z" transform="translate(89.4 -7.6)"/><path class="cls-22" d="M85.76,135.39c-.22-2.61-.43-5.22-.65-7.83,0-.79,0-1.58.08-2.38.53-.61,1.06-1.23,1.73-2l-2.26-1.61c0-.78-.09-1.56-.14-2.33-.37-.82-.75-1.63-1.13-2.44,0-.39,0-.79,0-1.18-.16-1.16.11-2.77-.55-3.4-2.8-2.66-1.82-5.64-1.22-8.66,3,3.13,5.88,6.41,9.08,9.33a16.09,16.09,0,0,0,6.21,3.8c6.22,1.7,12.6,2.79,18.87,4.3,3,.72,4.06-1.94,6-3-1.27,2.24.47,3.33,1.75,4.6-3.07,2-6.24,3.91-9.18,6.11-.95.72-2,2.47-1.74,3.33.37,1.13,1.91,2.07,3.14,2.68a50,50,0,0,0,5.54,2l-2.16,4.3q-6.7,13.64-13.39,27.28c-.79,1.61-1.63,3.2-2.3,4.85a16.47,16.47,0,0,1-8.07,9.17,35.68,35.68,0,0,1-1.13-3.74c-.47-2.43-.78-4.88-1.16-7.32-.68-4.11-1.19-8.26-2-12.34C89.37,151.06,87.52,143.24,85.76,135.39Z" transform="translate(89.4 -7.6)"/><path class="cls-23" d="M160.62,196l-4.41-8.69c.08-.34.68-1.32.42-2-2.55-6.38-7.08-11.11-12.84-15.1l2.46-1.69-5.14-.6c-.84-1.74-1.82-4-3-6.11-.39-.7-1.26-1.14-1.91-1.69-.43.67-.85,1.34-1.28,2a26.13,26.13,0,0,1-1.82,2.67c-2.68,3.14-6.15,5.62-7.52,9.87-.27.84-2.45,1.07-3.75,1.58q1.77-2.73,3.55-5.45l9.69-13.13,0,.05a9.23,9.23,0,0,1,2.51,1.12c2.81,2.51,5.52,5.13,8.27,7.7,3.72,5,7.53,9.92,11.12,15C160,185.81,160.69,190.81,160.62,196Z" transform="translate(89.4 -7.6)"/><path class="cls-13" d="M119.13,141l2.16-4.3,10.92.66a8.14,8.14,0,0,0,7-2.67c.42-.46,1.25-.56,1.89-.82l.55.25c-4.65,5.28-10,9.28-17.46,8.95C122.46,143,120.81,141.75,119.13,141Z" transform="translate(89.4 -7.6)"/><path class="cls-23" d="M102.46,194.62v4.6a22.49,22.49,0,0,0-2.45-.14c-5.11.37-6.59,2.69-5,7.67a16.19,16.19,0,0,1,.69,8.72c-.7,3.47.51,7.33.84,11a14.6,14.6,0,0,1-.12,2.08,1.24,1.24,0,0,0-.51,0L93,199.6l.63-1Z" transform="translate(89.4 -7.6)"/><path class="cls-21" d="M78.6,187.55l-1.84-2.45c4.46-2.07,10.79-1,14.59,2.52q.44,4.49.88,9c-.53-.66-1.33-1.25-1.52-2a14.61,14.61,0,0,1-.09-3.25c-.11-3-1.07-3.82-4.06-3.79C83.91,187.59,81.26,187.56,78.6,187.55Z" transform="translate(89.4 -7.6)"/><path class="cls-23" d="M166.52,229.81c-3.35-.16-4.4-1.79-3.39-4.74a4.09,4.09,0,0,0-.3-3.36c-3.5-4.2-3.62-6-.19-10.72,1,5.25,1.89,10.5,2.88,15.74A25.11,25.11,0,0,0,166.52,229.81Z" transform="translate(89.4 -7.6)"/><path class="cls-13" d="M145.82,166.51c-2.75-2.57-5.46-5.19-8.27-7.7a9.23,9.23,0,0,0-2.51-1.12l3-4.59A44.64,44.64,0,0,1,145.82,166.51Z" transform="translate(89.4 -7.6)"/><path class="cls-13" d="M135.08,157.64l-9.69,13.13c.73-1.81,1.47-3.61,2.18-5.43a6.58,6.58,0,0,0,.6-3.3Z" transform="translate(89.4 -7.6)"/><path class="cls-23" d="M115.63,183.82c.74,3-1.7,4.3-3.19,6-.92,1.07-2.52,1.51-3.6,2.48-1.85,1.67-3.7,3.06-6.39,2.33Z" transform="translate(89.4 -7.6)"/><path class="cls-10" d="M142.9,134.82l.6,0,1.76.88-3.21,3.65,4,1.4,3.32,1.14a24.84,24.84,0,0,1-4.4,0c-1.24-.22-2.92-.66-3.44-1.56s.28-2.4.58-3.63A13.82,13.82,0,0,1,142.9,134.82Z" transform="translate(89.4 -7.6)"/><path class="cls-23" d="M162.48,209.2c-.75-.43-2.14-.86-2.14-1.29,0-3.37.28-6.74.47-10.11Q161.64,203.5,162.48,209.2Z" transform="translate(89.4 -7.6)"/><path class="cls-23" d="M121.82,176.25c-.07,5.31-.07,5.31-6.21,7.6Z" transform="translate(89.4 -7.6)"/><path class="cls-23" d="M169.23,233.25l-2.49-2.5c0-.26-.09-.51-.13-.76l3.17.17.72,2.63a.69.69,0,0,1-.41.41Z" transform="translate(89.4 -7.6)"/><path class="cls-21" d="M93.61,198.61l-.63,1-.69-1.74Z" transform="translate(89.4 -7.6)"/><path class="cls-21" d="M166.61,230c0,.25.09.5.13.76a3.69,3.69,0,0,1-.24-.49c0-.08.05-.18.08-.27Z" transform="translate(89.4 -7.6)"/><path class="cls-24" d="M118.11,68.82l3.6,0,6.45,5.5.6.47,7.44,8.69a.87.87,0,0,0,.22.55,1,1,0,0,0,0,.18l.19,0a.41.41,0,0,0,.27.24c2.57,4.45,2.36,9.24,1.7,14.09-.33,2.44-.72,4.87-1.08,7.31l-.14.71q-1.18,3-2.36,5.94l0,.06c-1.14,1.39-2.28,2.77-3.41,4.16l-.16.18-2,1.18c-1.24-3.12-4-2.46-6.41-2.51-.93-2-2.51-2.81-4.63-3.31-5.14-1.2-10.21-2.68-15.32-4-3.14-.84-6-2.07-7.81-5C93,99.63,90.48,96.18,87.9,92.41c2.39-.91,4.67-1.27,6.32-2.49,6.14-4.55,12.18-9.25,18-14.18C114.53,73.82,116.18,71.15,118.11,68.82Z" transform="translate(89.4 -7.6)"/><path class="cls-17" d="M53.87,94.43,84.8,92.75l.24.33c-1.12.56-2.22,1.17-3.37,1.67-6.32,2.79-12.73,5.13-19.84,4.68C58.32,99.21,56.15,97.24,53.87,94.43Z" transform="translate(89.4 -7.6)"/><path class="cls-17" d="M81.58,103.57c-.6,3-1.58,6,1.22,8.66.66.63.39,2.24.55,3.4C81.7,114.76,80,114,78.41,113c-2.55-1.5-3-3.67-1.06-5.91A33.75,33.75,0,0,1,81.58,103.57Z" transform="translate(89.4 -7.6)"/><path class="cls-18" d="M123,115.62c2.45,0,5.17-.61,6.42,2.51l-2.1,2.29-3.82,2.18c-1.28-1.27-3-2.36-1.75-4.6.23-.39.45-.79.67-1.19l.52-.63A5.32,5.32,0,0,1,123,115.62Z" transform="translate(89.4 -7.6)"/><path class="cls-17" d="M84.66,121.58l2.26,1.61c-.67.76-1.2,1.38-1.73,2C85,124,84.84,122.78,84.66,121.58Z" transform="translate(89.4 -7.6)"/><path class="cls-17" d="M83.39,116.81c.38.81.76,1.62,1.13,2.44C84.15,118.43,83.77,117.62,83.39,116.81Z" transform="translate(89.4 -7.6)"/><path class="cls-1" d="M68.32,82.09l2.55.94Z" transform="translate(89.4 -7.6)"/><path class="cls-1" d="M73.8,79l.64,0c-.19,1-.37,2-.56,3C73.86,81,73.83,80,73.8,79Z" transform="translate(89.4 -7.6)"/><path class="cls-1" d="M73.17,83.07l.61-.48Z" transform="translate(89.4 -7.6)"/><path class="cls-24" d="M123,116.18l-.52.63Z" transform="translate(89.4 -7.6)"/><path class="cls-1" d="M66,79.61l.54.66Z" transform="translate(89.4 -7.6)"/><path class="cls-12" d="M137.49,105.9c.36-2.44.75-4.87,1.08-7.31.66-4.85.87-9.64-1.7-14.09.95,1.31,2.64,2.58,2.72,3.94.33,5.71.76,11.5-1.36,17C138.15,105.68,137.75,105.76,137.49,105.9Z" transform="translate(89.4 -7.6)"/><path class="cls-12" d="M136.2,83.5l-7.44-8.69C132.38,76.73,135.36,79.2,136.2,83.5Z" transform="translate(89.4 -7.6)"/><path class="cls-12" d="M128.16,74.34l-6.45-5.5,2.93-1.23c-.7,1.84-.77,3.18,1.7,3.83C127.14,71.65,127.56,73.33,128.16,74.34Z" transform="translate(89.4 -7.6)"/><path class="cls-12" d="M131.56,116.77c1.13-1.39,2.27-2.77,3.41-4.16C135.13,115.06,134.27,116.68,131.56,116.77Z" transform="translate(89.4 -7.6)"/><path class="cls-12" d="M127.35,120.42l2.1-2.29,2-1.18C131.3,119.58,129.73,120.47,127.35,120.42Z" transform="translate(89.4 -7.6)"/><path class="cls-12" d="M135,112.55q1.17-3,2.36-5.94Q136.17,109.58,135,112.55Z" transform="translate(89.4 -7.6)"/><path class="cls-12" d="M136.6,84.26l-.19,0a1,1,0,0,1,0-.18l.17,0Z" transform="translate(89.4 -7.6)"/><path class="cls-1" d="M178.34,249.18c-4.1,3.71-4.74,6.21-2.89,11.28-1.18.4-2.36,1.14-3.54,1.14q-57.94,0-115.89-.2c-.8,0-1.59,0-2.39,0,2.31-3.69,1.92-7.27-.46-10.77.85-.28,1.94-.32,2.49-.88,2.48-2.52,5.58-2.08,8.61-2.08q52.55,0,105.08,0c2.84,0,5.68.29,8.52.52C178.05,248.17,178.18,248.83,178.34,249.18Zm-52.07,8.45.15-.47a23.45,23.45,0,0,0,3.56-.06c.48-.07.85-.81,1.28-1.25-.42-.33-.81-.91-1.27-1a12.15,12.15,0,0,0-3.56,0,36.82,36.82,0,0,0-4.31,1.31Z" transform="translate(89.4 -7.6)"/><path class="cls-25" d="M121.79,241.55h38.42c.79.41,1.59,1.17,2.37,1.16,5.07-.05,10.15-.23,15.21-.45,2.81-.11,5.62-.41,8.42-.55.67,0,1.35.3,2,.34,1.61.1,3.23.12,4.84.19,2,.08,4,.18,6,.24a64.91,64.91,0,0,0,6.54.09,49.63,49.63,0,0,0,5.77-1c1.52-.29,3-.72,4.56-.94,1.23-.18,2.5-.15,3.74-.21l.3.74a14.2,14.2,0,0,1-2.46,1.54c-8.68,3.28-17.76,2.49-26.75,2.49-55.09,0-110.18.09-165.27-.08-9.67,0-19-1.95-26.4-9.11-1.55-1.5-3.45-2.63-5-4.09a20.08,20.08,0,0,1-2.29-3.31l3.51-.28.63.51L-3,230.8c4.28,2.58,8.33,5.79,12.92,7.57a43.11,43.11,0,0,0,14.72,3c26.25.29,52.51.14,78.77.15l1.49,0,2.49,0h1.8c.28.37.55,1.06.84,1.07q5.43.1,10.88,0C121.23,242.6,121.5,241.92,121.79,241.55Z" transform="translate(89.4 -7.6)"/><path class="cls-11" d="M164.94,89.29l2.47-.06C166.63,90.79,165.8,90.9,164.94,89.29Z" transform="translate(89.4 -7.6)"/><path class="cls-11" d="M162.53,86.27c.4.6.8,1.19,1.21,1.78C163.33,87.46,162.93,86.87,162.53,86.27Z" transform="translate(89.4 -7.6)"/><path class="cls-11" d="M163.75,88.06l1.17,1.2Z" transform="translate(89.4 -7.6)"/><path class="cls-21" d="M96,228.52a1.24,1.24,0,0,1,.51,0c0,.29,0,.58-.07.87C96.24,229.13,96.1,228.82,96,228.52Z" transform="translate(89.4 -7.6)"/><path class="cls-26" d="M85.76,135.39c1.76,7.85,3.61,15.67,5.27,23.54.86,4.08,1.37,8.23,2,12.34v15.42c-4.22-4-8.7-4.14-13.27-3.87a9.1,9.1,0,0,0-2.89.56,26.78,26.78,0,0,1-18.52.75,84.79,84.79,0,0,0-9.65-2.35c-1.33-.23-2.81.6-4.25.7a28.31,28.31,0,0,1-4-.22,19.79,19.79,0,0,1,1-3.72c1.08-2.27,2-4.78,3.66-6.58,3.61-3.94,2.87-8.72,3.63-13.32.5-3,.86-5.49.08-8.54-.58-2.27.84-5,1.82-7.69a11,11,0,0,0,.37,2.32,3.1,3.1,0,0,0,1.9,1.75c.53-4.9,1.06-9.81,1.63-15l3.19-.32c8.65,1,17.24,1,25.78-1.73C84.36,131.53,85.06,133.46,85.76,135.39Z" transform="translate(89.4 -7.6)"/><path class="cls-19" d="M48,140.27c.19-1.22.37-2.45.55-3.67C48.41,137.82,48.23,139.05,48,140.27Z" transform="translate(89.4 -7.6)"/><path class="cls-1" d="M185,248.45l-5.11,0Z" transform="translate(89.4 -7.6)"/><path class="cls-1" d="M49.28,248.31l-5,.28Z" transform="translate(89.4 -7.6)"/><path class="cls-1" d="M187.17,249.58l-1.34-.81,1.25-1Z" transform="translate(89.4 -7.6)"/><path class="cls-1" d="M44,248.72l-1.39.78.59-1.5Z" transform="translate(89.4 -7.6)"/><path class="cls-1" d="M52.14,249.61l-1-.69Z" transform="translate(89.4 -7.6)"/><path class="cls-1" d="M53,250.22l-1-.73Z" transform="translate(89.4 -7.6)"/><path class="cls-23" d="M122.39,240.36c.91-.38,1.82-1.09,2.73-1.11q11.37-.13,22.76,0a8.5,8.5,0,0,1,2.73,1.11Z" transform="translate(89.4 -7.6)"/><path class="cls-23" d="M161.39,240.36l7.77-6,.29,0,.29,0c0,.82,0,1.63,0,2.45l.48,2.32c.22.42.45.83.67,1.24Z" transform="translate(89.4 -7.6)"/><path class="cls-7" d="M121.79,241.55c-.29.37-.56,1-.85,1.06q-5.44.1-10.88,0c-.29,0-.56-.7-.84-1.07Z" transform="translate(89.4 -7.6)"/><path class="cls-23" d="M110.06,237.7c.71.89,1.43,1.77,2.15,2.65l-11.74,0Z" transform="translate(89.4 -7.6)"/><path class="cls-7" d="M-3,230.8l-1.12-1.94Z" transform="translate(89.4 -7.6)"/><path class="cls-7" d="M107.42,241.53l-2.49,0Z" transform="translate(89.4 -7.6)"/><path class="cls-17" d="M50.53,256.5c-.25,2.06-1.42,3.23-3.56,3.11a3,3,0,0,1-3.11-3.31,3.08,3.08,0,0,1,3.4-3.33C49.42,253,50.44,254.33,50.53,256.5Z" transform="translate(89.4 -7.6)"/><path class="cls-17" d="M179.05,256.43c.18-2.13,1.21-3.45,3.37-3.47a3.09,3.09,0,0,1,3.36,3.39,3.06,3.06,0,0,1-3.17,3.28C180.47,259.7,179.34,258.47,179.05,256.43Z" transform="translate(89.4 -7.6)"/><path class="cls-21" d="M170.23,239.15l-.48-2.32Z" transform="translate(89.4 -7.6)"/><path class="cls-21" d="M169.74,234.38l-.29,0-.29,0c0-.38.05-.76.07-1.15l.86-.05C170,233.6,169.86,234,169.74,234.38Z" transform="translate(89.4 -7.6)"/><path class="cls-23" d="M104.81,233.2c1.25-2.58,2.88-.76,4-.48l2.17-1.87c.21.81.42,1.62.64,2.42a17.91,17.91,0,0,1,.47,1.85c.19,1.47.29,2.93-2,2.56,1.1-1.55.55-2.57-1.08-3.16-.92-.34-1.88-.55-2.82-.82Z" transform="translate(89.4 -7.6)"/><path class="cls-21" d="M104.81,233.2l1.38.5-1.23-.11A1.56,1.56,0,0,1,104.81,233.2Z" transform="translate(89.4 -7.6)"/><path class="cls-23" d="M164.53,230.52a17.89,17.89,0,0,1,1.42,3.17c.07.26-1.28,1.3-1.58,1.16a6.66,6.66,0,0,1-2.19-2c-.11-.14.62-.93,1-1.43Z" transform="translate(89.4 -7.6)"/><path class="cls-23" d="M97.25,208.39c.55-.46,1.1-.92,1.67-1.35,0,0,.52.5.48.56-.38.58-.83,1.11-1.26,1.65Z" transform="translate(89.4 -7.6)"/><path class="cls-1" d="M126.27,257.63l-4.15-1.48a36.82,36.82,0,0,1,4.31-1.31,12.15,12.15,0,0,1,3.56,0c.46.05.85.63,1.27,1-.43.44-.8,1.18-1.28,1.25a23.45,23.45,0,0,1-3.56.06Z" transform="translate(89.4 -7.6)"/></svg>