<svg id="Calque_1" data-name="Calque 1" xmlns="http://www.w3.org/2000/svg" viewBox="0 0 354.22 387.84"><defs><style>.cls-1{fill:#82b3fc;}.cls-2{fill:#3d325c;}.cls-3{fill:#a1cbfb;}.cls-4{fill:#a1cbfc;}.cls-5{fill:#f6afa6;}.cls-6{fill:#0349a7;}.cls-7{fill:#e68887;}.cls-8{fill:#b0d0e1;}.cls-9{fill:#106dc3;}.cls-10{fill:#9fc9f9;}.cls-11{fill:#84b2f5;}.cls-12{fill:#8eb4e8;}.cls-13{fill:#03428e;}.cls-14{fill:#252245;}.cls-15{fill:#f4afa7;}.cls-16{fill:#b3d1e1;}.cls-17{fill:#f4aca5;}.cls-18{fill:#aecdde;}.cls-19{fill:#e48687;}.cls-20{fill:#126cbe;}.cls-21{fill:#176fc1;}.cls-22{fill:#146fc1;}.cls-23{fill:#4285c6;}.cls-24{fill:#0257b1;}.cls-25{fill:#9cc8f9;}</style></defs><title>pregnant</title><path class="cls-1" d="M-35.73,315.39a21.2,21.2,0,0,1-3.64-2.31,101.83,101.83,0,0,1-31.11-60.27C-73,235.4-71.29,218.29-64,202a54.2,54.2,0,0,0,29.38.29c10.52-2.74,19.22-8.32,26.73-16.2C2.24,175.5,7.21,162.87,8,148.47c.47-9.07,0-18.23,1-27.24.73-6.54,2.2-13.39,5.12-19.22,3.74-7.46,9-14.28,14.09-21C40,65.66,44.86,49.18,36.23,30.72,30.66,18.8,21.13,11,8.57,7,13.71-4.31,22-13,31.64-20.5,49-34.08,69.08-40.77,90.83-43.42a142.53,142.53,0,0,1,62.29,6.36c16.14,5.28,31.26,12.73,43.22,25.22C204.62-3.2,210.35,6.91,212,19c-.75,1.41-1.16,3.28-2.32,4.15-7.93,6-14.27,13.14-17.12,22.82a72.62,72.62,0,0,0-2.82,13.4c-.83,8.73,0,17.35,3.45,25.56,3.91,9.22,11.65,15,19,21.16s12,13.31,11.93,23.35c0,10.53-3.51,20.2-6.27,30.09-7.92-4.24-15.85-8.46-23.75-12.73-4.18-2.25-8.4-4.44-12.44-6.92-13.44-8.26-20.55-20.22-19.85-36.13a175.93,175.93,0,0,1,2.68-22.63c2.6-14.8-.88-27.49-12-37.8a98.24,98.24,0,0,0-28.63-18.86,55.5,55.5,0,0,0-69.1,22.08c-3.92,6.43-7.4,13.21-4.1,21.16-4.49,3.92-9.51,7.38-13.37,11.85-8.88,10.27-9.79,21.82-3.13,33.64,1.94,3.45,4.6,6.49,7,9.68,2.91,3.89,6.16,7.56,8.78,11.63C55.38,143,56,152,51.76,161.23c-1.5,3.3-3,6.6-4.38,9.93C39,190.88,44,209.07,61.24,221.75c-1.5,1.43-3.07,2.79-4.49,4.3-3.63,3.84-5.06,11.58-3,15.78-.56,1.8-.75,3.86-1.77,5.35a55.22,55.22,0,0,1-5.56,6c-1.38,1.6-2.72,3.24-4.15,4.8a62.31,62.31,0,0,0-16.84,42,65,65,0,0,0,5.75,27.19c-6,.52-7.29,2.75-4.73,8.08,1.16,2.4,2.29,4.81,3.43,7.21l-15.08-2.38a8.27,8.27,0,0,0-.21-2.07c-2.39-6.82-3.83-13.8-2.12-20.94,2.11-8.84,4.53-17.61,7.05-26.35,5.06-17.6,1.44-32.8-12.14-45.37q-8-7.38-16-14.72c-1.28-1.19-2.51-2.44-3.84-3.58-6.59-5.65-10.38-12.59-9.39-21.75-6.69,3.51-10.64,13.3-9.62,21.92.72,6.18,3.81,11.22,6.61,16.53,2.18,4.11,4.74,8.64,4.9,13.07.27,7.51-1.22,15.09-2,22.64-8.65-6.79-17.43-13.47-21.66-25-6.68,16.27-6.54,31.82-.13,47.2C-41.67,306.49-38.42,310.82-35.73,315.39Z" transform="translate(71.57 44.46)"/><path class="cls-2" d="M50.64,67.69c-3.3-7.95.18-14.73,4.1-21.16a55.5,55.5,0,0,1,69.1-22.08,98.24,98.24,0,0,1,28.63,18.86c11.13,10.31,14.61,23,12,37.8a175.93,175.93,0,0,0-2.68,22.63c-.7,15.91,6.41,27.87,19.85,36.13,4,2.48,8.26,4.67,12.44,6.92,7.9,4.27,15.83,8.49,23.75,12.73,6.12,4.95,12.1,10,15.2,17.61h-6.6c2.22,5.6,5.19,9.59,10.44,11.5.24,4,.69,7.91.68,11.86,0,11.58-2.84,22.69-6.09,33.71l-11.26,24-11.92,16.53,0,0-1.39,1.46c-13.48,13.4-28.76,24.42-45.12,34a21.88,21.88,0,0,1-1.29-3.3c-2.87-13-5.55-26-8.6-39-1.36-5.79-3.42-11.42-5.17-17.12.82-1.66,1.74-3.28,2.43-5,4.23-10.47,9-20.8,9.77-32.3,5.42-24.66,0-46.86-15.26-66.77-2.66-3.46-5.41-6.84-8.32-10.08-.78-.86-2.28-1.08-3.46-1.59-2.25-6.8-4.78-13.52-6.65-20.42-1-3.74-2.74-6.4-6.29-7.61-6.92-2.36-13.9-4.51-20.85-6.75-5.38-3.15-9.16-7.15-8.32-14.08A21.47,21.47,0,0,0,86.31,71.6C82,65,76.1,61.11,68,61c-6.51-.07-10.75,3.26-13.35,9Z" transform="translate(71.57 44.46)"/><path class="cls-3" d="M233,177.12c-3.1-7.56-9.08-12.65-15.2-17.6,2.76-9.89,6.24-19.56,6.27-30.09,0-10-4.66-17.23-11.93-23.35s-15.06-11.94-19-21.16c-3.49-8.21-4.28-16.83-3.45-25.56A72.62,72.62,0,0,1,192.58,46c2.85-9.68,9.19-16.84,17.12-22.82,1.16-.87,1.57-2.74,2.32-4.15.47,3.53,1.17,7.05,1.36,10.6.41,8,.61,15.94.8,23.9.48,20.16,8.63,36.69,24.2,49.24,8.21,6.61,17.28,12.16,25.94,18.22,15.49,10.83,20.24,25.9,17.67,44.08-2.47,17.44-10,32.74-19.25,47.38-2.15,3.43-4.69,6.62-7.06,9.92-.61-.63-1.23-1.25-1.84-1.87.31-3.4.61-6.8.92-10.21,5.87-1.35,9.91-4.72,11-10.79.36-2-.29-4.11-.48-6.18-2,.54-4.23.62-5.8,1.72-1.93,1.35-3.28,3.53-4.88,5.35l-.94,1L246,187.5c-1.33-3.81-3.46-6.82-7.54-8.12C236.6,178.78,234.84,177.88,233,177.12ZM253.21,136q-2.37,4.95-4.73,9.91l0-1.65-.38-1.55c-.73-4.84-3.87-7.75-7.85-10.33-2,7.85.16,13.11,6.34,16.41-.86,1.75-1.73,3.5-2.57,5.27-1.41,3-2.8,6-4.19,9l-1.22,9.87,1.05.1c.14-1.31.29-2.62.43-3.87,10.56-.94,15.58-5,14.89-12.63l-11.42,2,4.37-8.38c.36-.65.72-1.3,1.09-1.95,1.11-1.76,2.6-3.39,3.24-5.3.87-2.59,2.3-4.1,4.94-4.54,4.56-.85,6.63-3.19,7.08-8.12a8.42,8.42,0,0,0-8.52,2.2c-.26.26-1.15-.11-1.75-.18-.42-5.81-3.58-9.85-6.79-10.05l6,10C253.22,133.49,253.22,134.73,253.21,136Z" transform="translate(71.57 44.46)"/><path class="cls-4" d="M8.57,7C21.13,11,30.66,18.8,36.23,30.72,44.86,49.18,40,65.66,28.15,81.06,23,87.73,17.8,94.55,14.06,102c-2.92,5.83-4.39,12.68-5.12,19.22-1,9-.51,18.17-1,27.24-.75,14.4-5.72,27-15.82,37.64-7.51,7.88-16.21,13.46-26.73,16.2A54.2,54.2,0,0,1-64,202c3.85-7.5,7.24-15.29,11.66-22.45,11.18-18.12,27-32.21,41.81-47.22,8.64-8.76,15-18.93,17.25-31.28,1.64-8.9-.64-17.32-3.14-25.69-3.31-11.12-6.8-22.21-6-34C-1.65,29,1.55,17.37,8.57,7Z" transform="translate(71.57 44.46)"/><path class="cls-5" d="M29.87,342.46c-1.14-2.4-2.27-4.81-3.43-7.21-2.56-5.33-1.27-7.56,4.73-8.08,2.48,1.37,3.49,0,3.8-2.21a28.25,28.25,0,0,0,0-4.11c0-3.78,1.11-4.77,4.78-3.87a61.31,61.31,0,0,1,7.1,2.32c5.21,2,9.8,1.12,13.68-2.85,4.68-4.81,9.71-9.37,13.78-14.65,13.08-16.93,25.82-34.12,38.59-51.29a10.31,10.31,0,0,0,2.19-5.46q.21-16.45-.12-32.93c-.22-10.42-1.25-20.84-1-31.24.24-10,11-19.73,20.87-20,7.91,15.53,12.21,31.78,11.35,49.42-.51,10.54-2.35,20.7-7.69,29.66C131.91,250.91,125,261.78,117,271.7,104.56,287.18,91.29,302,77.94,316.75c-8.28,9.14-17.37,17.56-26,26.24h3.43c1.49,0,3,.07,4.48.1-7.67.11-15.34.31-23,.29A53.14,53.14,0,0,1,29.87,342.46Z" transform="translate(71.57 44.46)"/><path class="cls-6" d="M-21.91,279.46c.74-7.55,2.23-15.13,2-22.64-.16-4.43-2.72-9-4.9-13.07-2.8-5.31-5.89-10.35-6.61-16.53-1-8.62,2.93-18.41,9.62-21.92-1,9.16,2.8,16.1,9.39,21.75,1.33,1.14,2.56,2.39,3.84,3.58q8,7.37,16,14.72c13.58,12.57,17.2,27.77,12.14,45.37-2.52,8.74-4.94,17.51-7,26.35-1.71,7.14-.27,14.12,2.12,20.94a8.27,8.27,0,0,1,.21,2.07l-3-.88L2.62,329.12c0,2.13.1,3.59,0,5a8.21,8.21,0,0,1-.87,2.18l-9.5-3.74-5.95-6.86L-16,321.3l-.76-2.31c-1.25-3.74-2.77-7.41-3.71-11.23A68.73,68.73,0,0,1-21.91,279.46Zm18.66-10.71c-.17-1.34-4.7-6-5.89-5.86a2.07,2.07,0,0,0-1.39.86c-.2.31-.11,1.22.12,1.35,2.35,1.28,4.76,2.45,7.16,3.65.5,2,1,4,1.49,6a8.11,8.11,0,0,0-1.45,2.16c-1.08,4.16-2,8.36-3.17,13.16l-7.5-6.16-.93.9a61.78,61.78,0,0,0,4.51,4.77c2.88,2.46,4.67,5.13,4.14,9.22a34.44,34.44,0,0,0,.41,8.15c.24,2.07.81,4.1,1.33,6.63l-7.13-2.83-.42.92c2.79,2,4.43,5.59,8.59,5.88.56,0,1.29,1.2,1.5,2,.66,2.37,1,4.82,1.69,7.18.22.75,1,1.32,1.59,2,.45-.75,1.3-1.54,1.24-2.25a5.31,5.31,0,0,0-1.4-2.84C-.46,321.75-.9,320,.74,318c1.2-1.51,2.28-3.11,3.47-4.64s2.59-3.18,3.89-4.77l-.71-.64c-2.53,1.79-5,3.59-7.6,5.35a9.1,9.1,0,0,1-1.68.74c-.15-.66-.33-1.31-.45-2-.42-2.24-.49-4.61-1.29-6.7-2.61-6.81-1.1-11.13,5.24-14.16a6.84,6.84,0,0,0,2.45-1.57c.44-.57.29-1.6.49-3L-3,291.54l-.89-.67q1.1-8.06,2.2-16.11c.46-.35,1.37-.78,1.32-1-.78-3.94,2.38-5.92,4.14-8.59.4-.61.7-1.29,1-1.94l-.6-.54L.77,265.12c-1.4-2.92-2.71-5.65-4-8.38,0-4.6-4.07-10.79-8.34-11.84,1.61,2.34,2.9,4.24,4.22,6.13s2.74,3.82,4.1,5.73c.34,1.93.75,3.85,1,5.8C-2,264.7-.31,267.11-3.25,268.75Z" transform="translate(71.57 44.46)"/><path class="cls-7" d="M59.83,343.09c-1.49,0-3-.08-4.48-.1H51.92c8.65-8.68,17.74-17.1,26-26.24C91.29,302,104.56,287.18,117,271.7c8-9.92,14.9-20.79,21.44-31.74,5.34-9,7.18-19.12,7.69-29.66.86-17.64-3.44-33.89-11.35-49.42l5.9.38c2.89,2.61,6.52,4.75,8.52,7.92,6.26,9.94,9,21.11,9.55,32.8.18,3.85.1,7.71.14,11.56-.81,11.51-5.54,21.84-9.77,32.31-.69,1.71-1.61,3.33-2.43,5-7.28,10.67-14.24,21.59-21.94,32C115,295.89,103,306.9,90.49,317.3c-3.87,3.21-7.53,6.67-11.29,10l-.5.13-.83.74c-6,3.89-11.94,7.71-15.71,14.08C61.84,342.81,60.63,342.83,59.83,343.09Z" transform="translate(71.57 44.46)"/><path class="cls-8" d="M79.2,327.31c3.76-3.34,7.42-6.8,11.29-10C103,306.9,115,295.89,124.76,282.79c7.7-10.36,14.66-21.28,21.94-32,1.75,5.7,3.81,11.33,5.17,17.12,3,13,5.73,26,8.6,39a21.88,21.88,0,0,0,1.29,3.3l-16.49,9.15c2.36-14.14,1.85-27.33-.46-41.26-3,2.62-5.71,4.84-8.26,7.23-16.78,15.77-35.46,29-54.9,41.23A9.16,9.16,0,0,1,79.2,327.31Z" transform="translate(71.57 44.46)"/><path class="cls-9" d="M-13.74,325.74l6,6.86c-9-2.78-16.8-7.67-24-13.62l-.78-.64v0l-.77-.69,0,0c-.25-.23-.5-.46-.74-.7l0,0-.76-.61-.09-.11-.65-.66-.08-.1c-2.69-4.57-5.94-8.9-8-13.75-6.41-15.38-6.55-30.93.13-47.2,4.23,11.55,13,18.23,21.66,25a68.73,68.73,0,0,0,1.46,28.3c.94,3.82,2.46,7.49,3.71,11.23h0l-4-2-.67.88,4.65,3.38h0ZM-31,289c-.24.5-.49,1-.74,1.51l-.76,1.49c-1-2-2-4-3-6-.81-1.73-1.52-3.5-2.27-5.25l-.32-.18.32.18c.64,3.35,1.29,6.69,2,10.42l-5.88-2.91-1,1.27a10.22,10.22,0,0,1,1.47.38A17.34,17.34,0,0,1-31,301.43c.63,2.05,2.47,3.73,3.76,5.58l.55,2,.8-.42L-27.24,307c-.42-1.11-.88-2.2-1.27-3.33-1.34-3.87-2.65-7.76-4-11.65l.75-1.49L-31,289l.29-.34Zm8.88,26.23c-.33-2.84-.69-5.9-1.15-9.8l-1.57,5.38-7.1-2.05,0,.42Zm-6.93-28.66-.62-.27-.28.63c.21.09.47.3.62.24S-29.16,286.76-29.07,286.55Z" transform="translate(71.57 44.46)"/><path class="cls-10" d="M253.84,220.46c.61.62,1.23,1.24,1.84,1.87q-7.6,9.67-15.23,19.34a48.94,48.94,0,0,1-4.72-3.14,60.07,60.07,0,0,1-4.26-4.33c3.25-11,6.06-22.13,6.09-33.71,0-4-.44-7.91-.68-11.86l1.4.53c1,1.53,6.68,2.61,8.27,1.56.24.48.49,1,.74,1.44l-1.5,3.91,1,.37,1.5-2.31.56,1,1.44,3.13a.65.65,0,0,1,.08.51l.53,1c.32,1.23.65,2.45,1,3.67l-3.63,3-4-.54-3-1.45v-7.15h-.76c-.72,2.34-1.45,4.67-2.17,7,1.15,10.23,4.6,14.66,13.52,17.12C252.35,221.52,253.15,220.78,253.84,220.46Zm-9.18-18.1h.69v-2.17h-.69ZM243,197.08l.88.06L244,195l-.87,0Z" transform="translate(71.57 44.46)"/><path class="cls-11" d="M231.47,234.2a60.07,60.07,0,0,0,4.26,4.33,48.94,48.94,0,0,0,4.72,3.14l-6.64,7.6-1.52,1.54,0,0-1.51,1.53,0,0-1.5,1.55,0,0-4.64,5.1,0,.05-4.46-.73Z" transform="translate(71.57 44.46)"/><path class="cls-12" d="M220.21,258.24l4.46.73-16.38,15.8Z" transform="translate(71.57 44.46)"/><path class="cls-13" d="M1.71,336.34a8.21,8.21,0,0,0,.87-2.18c.14-1.45,0-2.91,0-5l9.12,10.08Z" transform="translate(71.57 44.46)"/><path class="cls-12" d="M224.71,258.92l4.64-5.1Z" transform="translate(71.57 44.46)"/><path class="cls-12" d="M232.29,250.81l1.52-1.54Z" transform="translate(71.57 44.46)"/><path class="cls-12" d="M230.8,252.32l1.51-1.53Z" transform="translate(71.57 44.46)"/><path class="cls-12" d="M229.32,253.85l1.5-1.55Z" transform="translate(71.57 44.46)"/><path class="cls-12" d="M206.88,276.25l1.39-1.46Z" transform="translate(71.57 44.46)"/><path class="cls-1" d="M-35.65,315.49l.65.66Z" transform="translate(71.57 44.46)"/><path class="cls-1" d="M-34.91,316.26l.76.61Z" transform="translate(71.57 44.46)"/><path class="cls-1" d="M-33.35,317.63l.77.69Z" transform="translate(71.57 44.46)"/><path class="cls-1" d="M-32.57,318.34l.78.64Z" transform="translate(71.57 44.46)"/><path class="cls-8" d="M77.87,328.18l.83-.74Z" transform="translate(71.57 44.46)"/><path class="cls-1" d="M-34.11,316.9c.24.24.49.47.74.7C-33.62,317.37-33.87,317.14-34.11,316.9Z" transform="translate(71.57 44.46)"/><path class="cls-14" d="M89.86,153.92c-2.2,1.52-4.79,2.68-6.52,4.62-5.37,6-10.93,12-15.45,18.63-5.86,8.64-5.53,18.6-4.15,28.58.67,4.92.74,9.94,1.08,14.91l-3.58,1.09C44,209.07,39,190.88,47.38,171.16c1.41-3.33,2.88-6.63,4.38-9.93C56,152,55.38,143,49.91,134.49c-2.62-4.07-5.87-7.74-8.78-11.63-2.39-3.19-5.05-6.23-7-9.68-6.66-11.82-5.75-23.37,3.13-33.64,3.86-4.47,8.88-7.93,13.37-11.85l4,2.34A24.9,24.9,0,0,0,61.29,85.9c3.37,3.83,6.47,8.31,4.57,13.48-1.65,4.47,0,7,2.78,9.75,8,8.09,15.55,16.81,29.06,13.36,3.73-.95,6.33,2,7,6.56,1.19,7.81-1.3,14.22-7.61,19.08C94.66,150,92.27,152,89.86,153.92Z" transform="translate(71.57 44.46)"/><path class="cls-15" d="M61.24,221.75l3.58-1.09c5.22-1.26,7.5,0,9.75,4.8a6.49,6.49,0,0,0,3.06,3.27c11,4,13,10.57,6.08,20.41-.74.11-1.64,0-2.18.37-6.84,4.77-13.88,3-20.72.33-2.74-1.06-5.53-2.89-5.7-6.63,0-.48-.89-.92-1.37-1.38-2.05-4.2-.62-11.94,3-15.78C58.17,224.54,59.74,223.18,61.24,221.75Z" transform="translate(71.57 44.46)"/><path class="cls-16" d="M53.74,241.83c.48.46,1.34.9,1.37,1.38.17,3.74,3,5.57,5.7,6.63,6.84,2.66,13.88,4.44,20.72-.33.54-.38,1.44-.26,2.18-.37-3.13,4.9-8.07,6.89-13.39,6.72-6.65-.2-13.26-1.52-19.89-2.34-1.33-.16-2.68-.22-4-.33a55.22,55.22,0,0,0,5.56-6C53,245.69,53.18,243.63,53.74,241.83Z" transform="translate(71.57 44.46)"/><path class="cls-17" d="M89.86,153.92c2.41-1.93,4.8-3.9,7.25-5.79,6.31-4.86,8.8-11.27,7.61-19.08-.69-4.54-3.29-7.51-7-6.56-13.51,3.45-21-5.27-29.06-13.36-2.73-2.75-4.43-5.28-2.78-9.75,1.9-5.17-1.2-9.65-4.57-13.48A24.9,24.9,0,0,1,54.68,70C57.28,64.28,61.52,61,68,61c8.07.09,14,4,18.28,10.58a21.47,21.47,0,0,1,3.44,14.65c-.84,6.93,2.94,10.93,8.32,14.08,1.55,1.13,3,2.75,4.69,3.3,9.29,3,14.32,9.22,15.34,18.82.84,7.86,1.63,15.71,2.44,23.57a63.18,63.18,0,0,1-6.24,5.7Q104.82,158.38,95,164.6a14.77,14.77,0,0,1-6.22,2.12c-3.21.33-4.36-1.37-3.11-4.42C86.88,159.42,88.46,156.7,89.86,153.92Z" transform="translate(71.57 44.46)"/><path class="cls-18" d="M140.69,161.26l-16.38-17.78,7.55-8.37c1.18.51,2.68.73,3.46,1.59,2.91,3.24,5.66,6.62,8.32,10.08,15.29,19.91,20.68,42.11,15.26,66.77,0-3.86,0-7.72-.14-11.57-.55-11.69-3.29-22.86-9.55-32.8C147.21,166,143.58,163.87,140.69,161.26Z" transform="translate(71.57 44.46)"/><path class="cls-19" d="M131.86,135.11l-7.55,8.37L120.54,146c-.81-7.86-1.6-15.71-2.44-23.57-1-9.6-6-15.87-15.34-18.82-1.74-.55-3.14-2.17-4.69-3.3,7,2.24,13.93,4.39,20.85,6.75,3.55,1.21,5.28,3.87,6.29,7.61C127.08,121.59,129.61,128.31,131.86,135.11Z" transform="translate(71.57 44.46)"/><path class="cls-20" d="M238.28,189.16l-1.4-.53c-5.25-1.91-8.22-5.9-10.44-11.5H233c1.8.75,3.56,1.65,5.41,2.25,4.08,1.3,6.21,4.31,7.54,8.12L245,189Z" transform="translate(71.57 44.46)"/><path class="cls-21" d="M241.2,204.39l3,1.45L253.37,216v-5.72h1.39c-.31,3.41-.61,6.81-.92,10.21-.69.32-1.49,1.06-2.05.91-8.92-2.46-12.37-6.89-13.52-17.12Z" transform="translate(71.57 44.46)"/><path class="cls-22" d="M254.76,210.25h-1.39l-.81-4.47,2.06-5.43c1.6-1.82,2.95-4,4.88-5.35,1.57-1.1,3.84-1.18,5.8-1.72.19,2.07.84,4.22.48,6.18C264.67,205.53,260.63,208.9,254.76,210.25Z" transform="translate(71.57 44.46)"/><path class="cls-21" d="M243.52,158.54l11.42-2c.69,7.68-4.33,11.69-14.89,12.63-.14,1.25-.29,2.56-.43,3.87l-1.05-.1c.41-3.29.81-6.58,1.22-9.87l3-2.61.78-1.9Z" transform="translate(71.57 44.46)"/><path class="cls-21" d="M249,148.21c-.37.65-.73,1.3-1.09,1.95l-1.34-1.41c-6.18-3.3-8.3-8.56-6.34-16.41,4,2.58,7.12,5.49,7.85,10.33.13.52.25,1,.38,1.55s0,1.1,0,1.65C248.65,146.65,248.81,147.43,249,148.21Z" transform="translate(71.57 44.46)"/><path class="cls-21" d="M254,132.27c.6.07,1.49.44,1.75.18a8.42,8.42,0,0,1,8.52-2.2c-.45,4.93-2.52,7.27-7.08,8.12-1.56-.41-4.07.74-4-2.41,0-1.23,0-2.47,0-3.7H254Z" transform="translate(71.57 44.46)"/><path class="cls-23" d="M254.62,200.35l-2.06,5.43c-.25-.8-.49-1.6-.73-2.4-.32-1.22-.65-2.44-1-3.67-.18-.31-.35-.63-.53-1a.65.65,0,0,0-.08-.51l-1.44-3.13-.56-1-1-2c-.25-.48-.5-1-.74-1.44L245,189l1-1.45,7.69,13.87Z" transform="translate(71.57 44.46)"/><path class="cls-23" d="M246.55,148.75l1.34,1.41-4.37,8.38v0l-.78,1.9-3,2.61c1.39-3,2.78-6,4.19-9C244.82,152.25,245.69,150.5,246.55,148.75Z" transform="translate(71.57 44.46)"/><path class="cls-23" d="M253.21,136c-.12,3.15,2.39,2,4,2.41-2.64.44-4.07,1.95-4.94,4.54-.64,1.91-2.13,3.54-3.24,5.3-.17-.78-.33-1.56-.5-2.34Q250.85,140.92,253.21,136Z" transform="translate(71.57 44.46)"/><path class="cls-23" d="M254,132.27h-.74l-6-10C250.39,122.42,253.55,126.46,254,132.27Z" transform="translate(71.57 44.46)"/><path class="cls-23" d="M248.44,144.22c-.13-.51-.25-1-.38-1.55C248.19,143.19,248.31,143.71,248.44,144.22Z" transform="translate(71.57 44.46)"/><path class="cls-13" d="M-1.74,274.76l-2.2,16.11.89.67,7.6-4.93c-.2,1.39,0,2.42-.49,3a6.84,6.84,0,0,1-2.45,1.57c-6.34,3-7.85,7.35-5.24,14.16.8,2.09.87,4.46,1.29,6.7.12.66.3,1.31.45,2a9.1,9.1,0,0,0,1.68-.74c2.55-1.76,5.07-3.56,7.6-5.35l.71.64c-1.3,1.59-2.63,3.16-3.89,4.77S1.94,316.45.74,318c-1.64,2.06-1.2,3.79.5,5.6a5.31,5.31,0,0,1,1.4,2.84c.06.71-.79,1.5-1.24,2.25-.55-.65-1.37-1.22-1.59-2-.67-2.36-1-4.81-1.69-7.18-.21-.76-.94-1.92-1.5-2-4.16-.29-5.8-3.84-8.59-5.88l.42-.92,7.13,2.83c-.52-2.53-1.09-4.56-1.33-6.63a34.44,34.44,0,0,1-.41-8.15c.53-4.09-1.26-6.76-4.14-9.22a61.78,61.78,0,0,1-4.51-4.77l.93-.9,7.5,6.16c1.14-4.8,2.09-9,3.17-13.16a8.11,8.11,0,0,1,1.45-2.16Z" transform="translate(71.57 44.46)"/><path class="cls-13" d="M-3.24,256.74c1.3,2.73,2.61,5.46,4,8.38l3.39-2.45.6.54c-.34.65-.64,1.33-1,1.94C2,267.82-1.2,269.8-.42,273.74c0,.24-.86.67-1.32,1l0,0c-.5-2-1-4-1.49-6h0c2.94-1.64,1.27-4.05,1-6.19-.25-1.95-.66-3.87-1-5.8Z" transform="translate(71.57 44.46)"/><path class="cls-13" d="M-3.26,256.76C-4.62,254.85-6,253-7.36,251s-2.61-3.79-4.22-6.13c4.27,1,8.3,7.24,8.34,11.84Z" transform="translate(71.57 44.46)"/><path class="cls-13" d="M-3.25,268.75c-2.4-1.2-4.81-2.37-7.16-3.65-.23-.13-.32-1-.12-1.35a2.07,2.07,0,0,1,1.39-.86c1.19-.1,5.72,4.52,5.89,5.86Z" transform="translate(71.57 44.46)"/><path class="cls-24" d="M-13.74,325.74l-3-4.49.77.05Z" transform="translate(71.57 44.46)"/><path class="cls-9" d="M-16,321.3l-.77-.05h0V319h0C-16.49,319.76-16.23,320.53-16,321.3Z" transform="translate(71.57 44.46)"/><path class="cls-24" d="M-32.48,292c1.32,3.89,2.63,7.78,4,11.65.39,1.13.85,2.22,1.27,3.33l0,0c-1.29-1.85-3.13-3.53-3.76-5.58a17.34,17.34,0,0,0-10.1-11.52,10.22,10.22,0,0,0-1.47-.38l1-1.27,5.88,2.91c-.72-3.73-1.37-7.07-2-10.42h0c.75,1.75,1.46,3.52,2.27,5.25.94,2,2,4,3,6Z" transform="translate(71.57 44.46)"/><path class="cls-24" d="M-22.14,315.21l-9.79-6,0-.42,7.1,2.05,1.57-5.38C-22.83,309.31-22.47,312.37-22.14,315.21Z" transform="translate(71.57 44.46)"/><path class="cls-24" d="M-16.75,319v2.25l-4.65-3.38.67-.88Z" transform="translate(71.57 44.46)"/><path class="cls-24" d="M-27.24,307l1.33,1.58-.8.42c-.19-.66-.37-1.32-.55-2Z" transform="translate(71.57 44.46)"/><path class="cls-24" d="M-29.07,286.55c-.09.21-.13.53-.28.6s-.41-.15-.62-.24l.28-.63Z" transform="translate(71.57 44.46)"/><path class="cls-24" d="M-31.76,290.49-31,289l0,0-.75,1.5Z" transform="translate(71.57 44.46)"/><path class="cls-24" d="M-31.73,290.52l-.75,1.49,0,0,.76-1.49Z" transform="translate(71.57 44.46)"/><path class="cls-24" d="M-37.75,280.75l-.32-.18.32.18Z" transform="translate(71.57 44.46)"/><path class="cls-24" d="M-31,289l.33-.3L-31,289Z" transform="translate(71.57 44.46)"/><path class="cls-25" d="M251.83,203.38c.24.8.48,1.6.73,2.4l.81,4.47V216l-9.16-10.13,4,.54Z" transform="translate(71.57 44.46)"/><path class="cls-25" d="M245,189l1.6,1.77c-1.59,1.05-7.28,0-8.27-1.56Z" transform="translate(71.57 44.46)"/><path class="cls-25" d="M241.2,204.39l-2.93-.14c.72-2.34,1.45-4.67,2.17-7h.76Z" transform="translate(71.57 44.46)"/><path class="cls-25" d="M247.29,192.16l1,2-1.5,2.31-1-.37Z" transform="translate(71.57 44.46)"/><ellipse class="cls-25" cx="316.58" cy="245.73" rx="0.49" ry="1.53"/><path class="cls-25" d="M243,197.08l.11-2.16.87,0-.1,2.18Z" transform="translate(71.57 44.46)"/><path class="cls-25" d="M248.81,195.12l1.44,3.13Z" transform="translate(71.57 44.46)"/><path class="cls-25" d="M250.33,198.76c.18.32.35.64.53,1Z" transform="translate(71.57 44.46)"/><path class="cls-3" d="M242.75,160.41l.78-1.9Z" transform="translate(71.57 44.46)"/></svg>