<svg xmlns="http://www.w3.org/2000/svg" viewBox="0 0 684.29 446.3"><defs><style>.cls-1{fill:#e4eff5;}.cls-2{fill:#f7b59d;}.cls-3{fill:#e3eef5;}.cls-4{fill:#e5f0f6;}.cls-5{fill:#e7eff3;}.cls-6{fill:#ce8368;}.cls-7{fill:#b2d2e6;}.cls-8{fill:#f9ebdf;}.cls-9{fill:#56819b;}.cls-10{fill:#85514d;}.cls-11{fill:#e2eef4;}.cls-12{fill:#d7e4ee;}.cls-13{fill:#f9c062;}.cls-14{fill:#fbf3ec;}.cls-15{fill:#bfbbbf;}.cls-16{fill:#f8c2ad;}.cls-17{fill:#c1d1db;}.cls-18{fill:#f5dead;}.cls-19{fill:#64879d;}.cls-20{fill:#ee9a7e;}.cls-21{fill:#3d364c;}.cls-22{fill:#95b2c2;}.cls-23{fill:#464056;}.cls-24{fill:#f2b5a0;}.cls-25{fill:#527d98;}.cls-26{fill:#4e7d9a;}.cls-27{fill:#c77f65;}</style></defs><title>Fichier 1</title><g id="Calque_2" data-name="Calque 2"><g id="Calque_1-2" data-name="Calque 1"><path class="cls-1" d="M567.91,190.92c16.36,2.09,32.93,3.18,49,6.52,21.2,4.4,36.27,17.51,46.6,36.67,9.79,18.16,11.31,37.2,8.78,57.08-1.8,14.15-3.56,28.31-5.06,42.5a18.18,18.18,0,0,0,5.68,15.59c13.79,13.48,19.68,30.45,19.94,49.21a255.23,255.23,0,0,1-2.44,36.62c-1.15,8.73-5.31,11.3-14,11.3q-31.11,0-62.23,0c-.06-2.06-.13-4.11-.19-6.17,1.26-2.77,3.67-5.59,3.57-8.32a165.48,165.48,0,0,0-2.57-24c-1-5.43-2-11.73-5.37-15.65-4.37-5.13-4.15-10.29-4.19-15.92a98.48,98.48,0,0,0-.15-10.46c-.24-2-1.56-3.93-2.4-5.89,4.75-1.19,5.75-4.44,5-8.8-.87-4.81-1.36-9.69-2.42-14.45-1.5-6.69-3.37-13.3-5.08-19.94l8.79-.44c1.23-5.19,2.32-9.78,3.4-14.38-2.8-7.51-5.57-15-8.42-22.52-1.9-5-5.78-7.07-11-7l-3.45-1.82-1.49-.46c.44-2.36.92-4.72,1.3-7.09.74-4.61,3.16-9.42-1.4-13.49-1.95-9-3.73-10.59-13.45-11.81-3.8-4.14-6.82-1.05-10,1.06l-3.69,4.06h0l-1.59,1.24-.9,3.45v10.47a1.27,1.27,0,0,0-.06.72c.43.9.86,1.8,1.3,2.7l0,0,1.25,2.49,0,0,1.3,2.46,1.37,18.45c-.56.2-1.61.4-1.61.59,0,3.95.21,7.9.35,11.84l-.18,2.29a3.53,3.53,0,0,1-1,.18l-6.82,6.5c.14.39.29.77.44,1.16l6.34-1.73c.36,1.23.72,2.46,1.07,3.69l-1,1.61-6,5.93-6.68-1.41c.85,6.6,7.09,9.05,15.61,6.47a2.23,2.23,0,0,0,1-.12l3.36,3.9c-1.39,1.7-2.83,3.38-4.17,5.13q-15.43,20.07-30.84,40.19c-2.94,3.63-4.65,8.73-10.56,8.8-.5-2.23-1-4.46-1.51-6.68,4.94-7.06,10.34-13.84,14.67-21.24,4-6.81,6.8-14.29,10.13-21.47.12-.14.23-.29.34-.43l-.25.51C530.73,344.6,520,362,511.43,381c-3.09,7.6-9.77,9.77-16.94,11.21a33.26,33.26,0,0,1,2.13-5.21c5.06-8.2,10.68-16.08,15.25-24.53,4-7.39,6.86-15.38,10.22-23.11l-1.65-.86c-1.55,1.85-3.16,3.65-4.64,5.55a173.36,173.36,0,0,0-24.94,45.72c-.69,1.84-2.3,3.33-3.48,5l-5-10.33C490.83,373.5,497.54,361.7,501,348l-10.31,12c-1.26-1.4-3.23-2.62-3.67-4.25-3-11.26-5.71-22.6-8.51-33.92h0l1.23-2.47h0l1.24-2.47h0l1.26-1.22c0-7.92,0-15.85-.09-23.77a20.61,20.61,0,0,0-1.15-4.56L476,281.12l13.17-2.05.4-1.65-18.07-6,.79-3.3,10-6.76c4-.64,8.05-1.58,12.11-1.84,5-.33,10-.08,15-.08.15-.74.29-1.48.43-2.22-6-2.29-12-4.49-17.88-6.9a57.22,57.22,0,0,1-6.16-3.42l5.57-4.18c11.11,1.18,22.17,3.7,34.23,1.77-10.07-7.41-29-13.3-44.16-14.13l-22.17-2.74c4.43-6.67,5.14-6.81,12-7.13,9.13-.41,18.25-1.29,27.37-2,15.08-.42,41.42-6.74,48.56-12-25.23-1.6-49,2.66-72.4,9.47l-5.09-.37,21-17.39c8.18.32,16.47,1.69,24.5.75C532.89,196.92,550.37,193.68,567.91,190.92Z" transform="translate(-54.46 -24.61)"/><path class="cls-2" d="M437.83,445.59l-2.39,0c-13.11-.12-26.23-.37-39.34-.3-3.91,0-5.35-1.07-5.39-5.19-.17-18-.65-36-1.06-54,0-1.85-.28-3.7-.44-5.55h-1.62c-3.09,21.41-6.18,42.82-9.37,64.87H303.33l-.2-.21.24-5h0c0-1.67,0-3.35.05-5,0-.78,0-1.55,0-2.32l0-2.47c-.39-.87-.79-1.74-1.19-2.61v-2.3c3.62-4.94,3.61-10.41,2.36-16.07a9.27,9.27,0,0,0,.14-1.18c3.93-4.65,4.74-11.26,1.91-15.56,5-3.15,7.05-8.11,5.07-13.31s-6.11-4.31-10.33-3.48c-1.28.25-2.78-.58-4.18-.92,3.19-1.71,6.14-2,9.06-2.54,8.7-1.46,11.54-10,5.74-17.19,0-.47,0-1,0-1.43l0,0c.79-.52,2.27-1.06,2.26-1.57-.15-5.62-.53-11.24-.85-16.85l-.07-4.9c.33-1.66.69-3.31,1-5,.85-5.35,1.66-10.69,2.49-16l3.11-7.15-2.94-.2,2.49-2.63,7.43-7.3c.82-1.6,1.65-3.19,2.47-4.78l1.23-10,5-4.84c-.06-1.26-.13-2.51-.2-3.77,2-1.47,4.69-2.53,5.85-4.5,2.26-3.85,3.46-8.31,5.46-12.33,3.67-7.35,2.65-16.08,7-23.28.32-.54-2.14-2.74-3.31-4.17l-.19-.22c4.85-3.1,6-7.28,4.28-9.66l4.33-16.32-.06-2.13,4.43-.74c.05-.68.11-1.35.17-2-4.89-.86-9.77-2.24-14.68-2.39-3.16-.1-6.37,1.6-9.56,2.49.09-.88.18-1.76.28-2.64l1.09-2.26-.05.05c2.17.1,4.65.94,6.47.18,12.56-5.18,22.9-12.53,25.85-27.13.65-3.21,3-6.08,4.61-9.1l3.09,5.54,1.1-.43-2.24-6.39c2.58-4,4.47-8.77,7.92-11.77,4.12-3.58,7.16-1.63,7.37,3.87.12,3.11,0,6.23,0,9.34l2.37.76c1.71-2.72,3.53-5.37,5.08-8.17,2.37-4.27,4.21-8.88,6.94-12.88,2-3,4.94-5.76,9.23-3q-1.38,12.28-2.75,24.57c-.77-1.61-2-3.18-2.19-4.86a78,78,0,0,1-.11-9.18,82,82,0,0,0-7.13,17.7c-1.69,5.86-3,11.83-4.43,17.75l2.52-.77,4.15,4.14c-3,5.64-5.74,11.4-9.07,16.82-.79,1.29-4.08,2.52-5.18,1.91-6.46-3.58-9.51,0-11.87,5.1a49.62,49.62,0,0,0-4,10.82c-.34,1.74.9,4.87,2.37,5.7,8.59,4.87,17.46,9.24,26.23,13.77l7.05,5.33L382,245.13c.61,3.59,1.14,6.74,1.67,9.88q.88,4.22,1.75,8.43c.72,3.14,1.43,6.28,2.21,9.71l7-1,7.26-1,11.39,8.69,3.61,2.43,0,0,7.36,4.92,0,0,17.23,4.91.06,0,3.65,5c-.51,9.53-.92,19.06-1.56,28.58-.29,4.23-.92,8.45-1.59,12.65-1.35,8.48-2.87,16.93-4.19,25.42-.11.73.79,1.61,1.88,3.68,1.42-2.88,2.22-4.8,3.28-6.55s2.24-3,3.37-4.55l3.94,18.76-1.47,13.45q-.65,9.19-1.31,18.38l-2.1,7.8-.06,2.09c0,1.05,0,2.11-.05,3.17s.05,2.4.07,3.61q-1.27,7-2.56,14l-1.56,5.47Zm-85.09-108.9-.06-.06,1.3,1.3-.07-.07,1.3,1.3-.07-.07,1.3,1.3-.06-.06,1.3,1.3-.07-.06,6,4.06.83-1.3-3.1-2.45a30.72,30.72,0,0,0-.76-5.38c-3-9.19-6-18.35-9.29-27.44-.33-.91-2.1-1.31-3.21-1.94l-.59-8.54a84.17,84.17,0,0,0-.67,18.86c.52,5.25,2.28,10.38,3.49,15.57l0-.09,1.28,2.54-.05-.06Zm62.89,70.24c.13.84.27,1.68.4,2.51l.85-.33L415.57,407c-2.44-11.52-.78-22.74,2.64-33.82C413.71,384.15,410.33,395.22,415.63,406.93ZM394.55,307q3.27,4.47,6.56,8.93l2.15-.93-9.2-26.3-2,9.77c-1.68-7.31-3.37-14.63-5-21.74-.25,1.18-1.22,3.1-.94,4.81,1.13,6.76,2.42,13.52,4.18,20.14C390.83,303.66,393.08,305.21,394.55,307Zm48,74.95c-7.28,8.65-8.09,19.06-9.58,29.24-.19,1.29,1,2.79,1.51,4.19,1.59-.66,3.69-.89,4.67-2.06,1.53-1.82,3.15-4.24,3.25-6.47C442.78,398.54,442.55,390.23,442.55,381.92ZM390.61,193V163.4h-7.29c0,.31,0,.63,0,.95l5.11.91C389.23,174.56,384.43,184.31,390.61,193ZM367.52,346.27l.44-.3c-.13-.12-.32-.37-.36-.35a3.58,3.58,0,0,0-.56.47Z" transform="translate(-54.46 -24.61)"/><path class="cls-3" d="M415.43,154.09q1.36-12.28,2.74-24.57c13.89,3.26,18.73-1.67,16.4-17l-5.24-.65q-3.16-10.31-6.35-20.62l0,0-1.26-2.5,0,0-1.26-1.26,0,0-1.26-1.27,0,0-1.26-1.26,0,0-1.26-1.26,0,0-1.26-1.26,0,0-1.26-1.27,0,0c-2.35-1.12-4.59-2.7-7.07-3.26a60.09,60.09,0,0,0-33.51,2l-1.38,1.17-.19,1.3-6.05,7.15.12.25-15,3.45-2.43,1.29L347.6,96l-3.76,3.67-1.22,1.23-1.12,1.35c-.82,2.07-1.65,4.13-2.47,6.2l-1.17,3.73-1.26,8.63-1.32,2.37L331.65,127l1.5,3.45c-1.12,5.71-8.32,9.79-3.62,17.18,4.56,7.16,8,15,12,22.53l.21,2.35.06,5.27-1.47,7.46-11,8.47c-.57-3.16-1.17-6.32-1.7-9.49-.37-2.25-.64-4.52-.95-6.78l-1.17-11.18a3.49,3.49,0,0,1,.05-.72q-1.21-11.24-2.45-22.48c-3.44-4.67-1.25-9.81-1.25-14.77l-3.6-28.49c7.68-4.65,15-10.09,23.12-13.75,12-5.4,24.17-11,36.87-13.84,17.43-3.88,35.44-4,52.46,3.06,8.22,3.4,15.93,8,24.35,12.32,0-5.76.05-11.61,0-17.46,0-2.66,0-5.11,3.73-4.76,0,.4,0,.8,0,1.2-.41,7-.89,14-1.17,21a6.08,6.08,0,0,0,1.09,4c4,4.54,8.28,8.88,12.45,13.29l1.19,1.2c5.17,7.83,10.23,15.73,15.55,23.46,1.32,1.91,3.46,3.26,5.21,4.87L486.93,172l-.86,6.74-.09,2.53c-.27,4.28-.27,8.6-.92,12.82-.38,2.42-1.23,5.29-2.89,6.9-12.89,12.49-26,24.73-39.11,37-1.48,1.38-3.17,2.54-5.43,4.33V228.14c.91-19.55-.07-38.8-8.55-56.84-4.34,20-2.54,45.17,4,64.23-.12,4.11,5.14,8.48-.58,12.32l-9.75-4.71L421.37,238,417,236.18c-.6-15.88-1.65-31.28-8.5-45.46l-1.75.22V233c-8.77-4.53-17.64-8.9-26.23-13.77-1.47-.83-2.71-4-2.37-5.7a49.62,49.62,0,0,1,4-10.82c2.36-5.12,5.41-8.68,11.87-5.1,1.1.61,4.39-.62,5.18-1.91,3.33-5.42,6.09-11.18,9.07-16.82Q411.83,166.48,415.43,154.09Zm36.7,71.61c2.27-24.34,1.55-48.26-9.74-70.67C438.13,179.66,442.59,203,452.13,225.7Zm11.22-11.49c9.29-14.82,19.77-61.67,17.3-77.38C471.06,150.78,458.37,207.54,463.35,214.21Z" transform="translate(-54.46 -24.61)"/><path class="cls-4" d="M113.3,440.21c1.22,1.92,1.74,4.8,5.12,3.8,0,.78,0,1.57,0,2.35l-1.28.06h-11.1c-4.49.64-6.82-1-8.53-5.58-2.1-5.63-4.92-11.45-8.92-15.83-10.91-12-16-26.43-16.69-41.74-.87-19.48-2.6-39.3,3.29-58.49,2.88-9.36,6.37-18.52,13.62-25.55,1.17-1.13,3.2-1.39,4.84-2.05a15,15,0,0,1,1.23,3.28c1.3,10.89,2.44,21.79,3.83,32.67.16,1.25,1.55,2.34,2.36,3.51,0,2.09,0,4.19,0,6.28,0,3.92-.32,7.88.13,11.76C103,369.83,105,385,106.89,400.1c1.44,11.72,2.71,23.46,4.23,35.16C111.34,437,112.55,438.57,113.3,440.21Z" transform="translate(-54.46 -24.61)"/><path class="cls-4" d="M693.8,256.49c.79-5.82,1.5-14.8,3.32-23.55C699.39,222,708,220.29,716,226.14c13.47,9.84,18.77,24.12,21.54,39.89,2,11.42,2.08,22.47-4,32.76-4.57,7.76-10.73,14.09-19.32,17.3-9.73,3.64-16.06-2.33-17.21-11.76C695.22,289.55,694.93,274.58,693.8,256.49Z" transform="translate(-54.46 -24.61)"/><path class="cls-3" d="M567.71,128c9.59-.31,19.19-.94,28.78-.86,10.59.09,21.62-.1,30.68,6.32,16.21,11.48,12.24,25.34-1.72,32.21-15.7,7.73-33.23,11.78-51.13,5.54l16.34-6-.45-1.94-34.06,2.94c-.94-1.18-1.65-2.76-2.86-3.46-2.87-1.66-2.42-3.48-.86-5.63,21.23-4.92,42.29-10.3,61.52-21.38-13.33,1.66-26.61,3.66-39.46,7.22-13.7,3.8-27,9.06-40.48,13.69l9.73-9.84Z" transform="translate(-54.46 -24.61)"/><path class="cls-5" d="M615.58,456.28c20.67,1.93,41.75.25,62,5.94l.12,1.91c-5.05,1.07-10.05,2.55-15.16,3.1-10.55,1.14-21.15,2.38-31.74,2.51-53.16.64-106.34,1.32-159.5,1.15-21-.07-42-2.28-63-3.57a9.13,9.13,0,0,1-4.11-1.11,19.57,19.57,0,0,1-3.32-3.36c1.05-1,2-2.63,3.15-2.83a182.53,182.53,0,0,1,18.17-2.41c9.79-.67,19.61-1,29.43-1.22,2,0,4,1.08,6.07,1.67L450,465.91h39.94c-.69-3.49-1.27-6.46-1.85-9.43,1.55-.47,3.1-1.34,4.65-1.34,23.8,0,47.61.19,71.41.32a23.22,23.22,0,0,0-2.63,2.2c-1.71,1.9-3.31,3.9-5,5.86,2.33,1.16,4.58,3.07,7,3.33,5,.54,10.18.1,15.27.29,3.44.12,5-1.09,4.32-4.64l.18-7.4L597,456.33c-1.24.61-2.7,1-3.66,1.89a59,59,0,0,0-4.48,5.21c2.14,1.19,4.16,2.95,6.45,3.42,3,.61,6.1.21,9.16.21C615.54,467.06,615.54,467.05,615.58,456.28Z" transform="translate(-54.46 -24.61)"/><path class="cls-6" d="M171.58,451.48c2.47-5.66,5-11.28,7.26-17,.29-.76-1.21-2.22-1.89-3.36,4.94-.43,4.81-5.26,7-8.08,6.82-.64,5.68-7.37,8.47-11.08.3-.45.6-.89.88-1.34a4.35,4.35,0,0,0-.44-.31l-.52,1.57-4,1.21c.2-.8.39-1.6.58-2.4l2.29-4.84,0-.05,5,6.35-2.6,10.6h52.79l5-1.21q.68,3.81,1.37,7.62c-.88,1.6-1.75,3.21-2.62,4.81l1.82.6c.31-1.77.61-3.54.92-5.31.81-1.3,2.15-2.54,2.33-3.92.64-4.87.87-9.79,1.26-14.69h0l4,.91,3.92-9.88-6.65,1.61-3.89-2.82c-.21.74-.41,1.49-.62,2.23l4.49.6c-.41,1.23-.83,2.47-1.25,3.7a2.27,2.27,0,0,1-.05-.86l-8.62-.29-2.08.26-.34-.28c-1.88-.44-3.76-1.21-5.65-1.25-7.9-.14-15.82-.17-23.73,0-4.16.09-8.32.67-12.47,1l-2.56,0-7.41-4.83h0c7-.24.43-5.28,2.57-7.25l0-.07c.77.23,1.94.22,2.25.73,1.69,2.75,2.51,6.87,4.89,8.12s6.18-.83,9.33-.74c2.9.09,5.79,1.69,8.65,1.6,6-.17,12.07-2,17.88-1.26,4,.49,6.65,2.39,6.29-3.49,9.64,1.36,17.74.1,19.86-11.53.06-.34.49-.62.75-.93l3.87-10.15q1.33-3.52,2.68-7.06l3.52-7.69a6.74,6.74,0,0,0-.17-.75l4,2.28-.27.53.29-.51,3.66,0c0,.8,0,1.6,0,2.41l-1,1.38-5.05-.9c1.34,2.3,2.33,4,3.32,5.65q-1.27,3.75-2.53,7.5L267.73,402l-.11,1.28c-.67,2.12-1.23,4.28-2,6.34q-7,17.77-14.08,35.52-2.5,6.11-5,12.23c-3.39,3.17-6.85,4-10.46.34l2.2-5.08c-18.63,0-36.18.06-53.72,0-3.6,0-5.24,1.61-5.6,5L169,458.78q1.28-3.66,2.53-7.31Zm73.9-3.76c.4-.82.81-1.65,1.21-2.48.42-1.23.83-2.47,1.24-3.71l1.24-2.45c.29-.45.59-.9.86-1.37,0,0-.29-.2-.44-.31l-.53,1.59c-.41.82-.83,1.63-1.24,2.44l-1.22,3.74-1.24,2.45c-.3.45-.6.89-.86,1.35a3.84,3.84,0,0,0,.43.32Zm-58.3-10.09-.83,1.27c-.68,1.87-1.36,3.74-2.33,6.43H228c14.12,0,14.12,0,18.82-13.59l.86-2.11c-1.38-.57-2.76-1.62-4.15-1.63q-24-.18-48,0c-1.49,0-3,.85-4.46,1.31l-3.21,6c-.21.72-.43,1.44-.64,2.15Zm72.11-22.48c.15-.34.48-.76.38-1s-.63-.32-1-.46c-.14.34-.48.76-.38,1S259,415,259.29,415.15ZM243.4,452.26l-.16.42.63.06a1.13,1.13,0,0,0-.11-.43C243.71,452.24,243.52,452.27,243.4,452.26Z" transform="translate(-54.46 -24.61)"/><path class="cls-4" d="M90,263.94c-2.57,1.57-5.27,3-7.69,4.75-9.69,7.09-20.4,4.52-24.23-6.64-5.85-17-4.88-33.8,4.94-49.25,3.58-5.63,8.43-10.5,13-15.46,1.23-1.34,3.49-1.72,5.28-2.55.46,1.26.92,2.52,1.39,3.78l0-.06c.77,8.26,1.42,16.54,2.33,24.79,1.18,10.66,2.58,21.29,3.88,31.94Z" transform="translate(-54.46 -24.61)"/><path class="cls-4" d="M236,457.69c3.61,3.62,7.07,2.83,10.46-.34,15.55,1.29,31.11,2.56,46.66,3.93,1.26.12,2.47.94,3.7,1.43,0,.62,0,1.25.05,1.87-6.42.93-12.8,2.2-19.25,2.74-12.4,1-24.82,2.2-37.25,2.35-15.24.18-30.49-.66-45.73-1-7-.14-14,.21-20.94-.13-12.63-.62-25.25-1.53-37.86-2.52-1.37-.1-2.63-1.54-3.94-2.35,0-.83,0-1.65,0-2.47l27.12-2.49,10,0,9.88-1.25Z" transform="translate(-54.46 -24.61)"/><path class="cls-7" d="M138.34,104.89c-.54-2.52-1.07-5-1.72-8.12L170,92.53q26.66-3.39,53.33-6.77c7.47-.93,14.95-1.92,22.46-2.4.93-.06,2.05,2.84,3.08,4.37q0,1.08.09,2.19l.3,2.41-23,2.62q-23.31,2.65-46.64,5.31Z" transform="translate(-54.46 -24.61)"/><path class="cls-2" d="M251.5,445.12q7-17.76,14.08-35.52c.81-2.06,1.37-4.22,2-6.34,0-.42.08-.85.11-1.28q5.32-11.69,10.64-23.38h6.54V385c-8.42,2.87-8.54,3.42-2.86,9.57.23.25.17.77.24,1.17l-1.44,4.93c-3.14,1-9-2.6-8.25,4.95l4.9,6.39c-1.12,1.05-2.08,2.4-3.39,3.07s-3.28.55-4.61,1.34c-.38.22,0,3.17.76,3.59a8.63,8.63,0,0,0,5.46,1.17c2.72-.57,5.25-2,7.86-3.13l1.6,1.67c-.09.66-.17,1.32-.25,2L286,423l1.37,1.14-1.28,2.5c-2.26-.68-4.73-1-6.72-2.12-3.39-1.92-5.68-1.11-6.61,2.33-.6,2.19-.09,4.69-.08,7.05l-7.84,11.39H252.05Z" transform="translate(-54.46 -24.61)"/><path class="cls-8" d="M303.33,445.43h74.89c3.19-22.05,6.28-43.46,9.37-64.87h1.62c.16,1.85.4,3.7.44,5.55.41,18,.89,36,1.06,54,0,4.12,1.48,5.22,5.39,5.19,13.11-.07,26.23.18,39.34.3-1.94.68-3.88,1.93-5.83,1.93-12.07,0-24.15-.34-36.23-.48-22.76-.26-45.51,1.18-68.27.58-6.48-.17-13-.19-19.45-.45C304.86,447.17,304.1,446.05,303.33,445.43Z" transform="translate(-54.46 -24.61)"/><path class="cls-9" d="M556.15,166.14l34.06-2.94.45,1.94-16.34,6-41.55,7.69-21.08.74c-.74-1-1.48-2.07-2.23-3.1l4.83-1.47a53.05,53.05,0,0,0,5.38-.67C531.84,171.67,544,168.89,556.15,166.14Z" transform="translate(-54.46 -24.61)"/><path class="cls-9" d="M567.91,190.92c-17.54,2.76-35,6-52.64,8.07-8,.94-16.32-.43-24.5-.75a14.93,14.93,0,0,1,2.69-2.12c1.94-.9,4-1.55,6-2.31l54.25-6.24,13.19,1.27,1.5,1.37A2.34,2.34,0,0,0,567.91,190.92Z" transform="translate(-54.46 -24.61)"/><path class="cls-9" d="M550.68,105.72l-9.48,25L533,146.83l-1.31,2.54h.05l-3.19-.29c.13-1.6.27-3.2.4-4.81,6.56-23,13.46-45.83,26-66.38l2.37.67q-3.13,13.17-6.25,26.33A.8.8,0,0,0,550.68,105.72Z" transform="translate(-54.46 -24.61)"/><path class="cls-9" d="M567.71,128l-24,18.77-2.31-2.14,16-17.58c14.65-13.59,29-27.49,45.76-38.55l1.49,1.3c-3.7,4.26-7.28,8.64-11.12,12.76-4.19,4.5-8.58,8.82-13,13.12S572,123.87,567.71,128Z" transform="translate(-54.46 -24.61)"/><path class="cls-8" d="M257.7,90.05c.07,1.28.13,2.55.2,3.83l-7.58,4.82.07,0-8.7,1.27.06,0c-7.09.45-14.21.59-21.25,1.43-6.55.79-13,2.33-19.5,3.53l.06,0-39.53,5,.07,0c-8.22.76-16.43,1.68-24.67,2.15-1.69.1-3.48-1.48-5.22-2.28,5.36-.87,10.69-1.9,16.07-2.59,25.42-3.28,50.86-6.36,76.26-9.74,9.59-1.27,19.1-3.16,28.64-4.76Z" transform="translate(-54.46 -24.61)"/><path class="cls-10" d="M488.06,456.48c.58,3,1.16,5.94,1.85,9.43H450l7.69-7.85,3.9-3,4.79-2.63,7-.81c.46,1.21.91,2.42,1.49,4l4.88-3.27,7.27.43C487.34,454,487.7,455.24,488.06,456.48Z" transform="translate(-54.46 -24.61)"/><path class="cls-11" d="M553.72,187.57l-54.25,6.24-5-.24.08.06,17.14-14,21.08-.74c3,5.74,9.05,5.6,14.11,7.31A55.23,55.23,0,0,0,553.72,187.57Z" transform="translate(-54.46 -24.61)"/><path class="cls-12" d="M321.86,54.24c2.37,5.08,1.62,9-3.58,12.06-1.53.88-2,3.36-3.43,4.66-4.28,4-9.55,3.94-14.23,1.54-3.58-1.84-8.49-3.56-7.52-9.54.15-.93-1.16-2-1.3-3.08-.31-2.37-1.36-5.63-.24-7,3-3.67,7-6.54,10.59-9.73l2.47,1,.22-.81-2.72-.17,8.12-1.77c.1,1.38-.14,2.67.27,2.93,3.35,2.09,6.94,3.83,10.19,6.07.87.6.82,2.54,1.19,3.86l-1.16,4.61,1.13.14Zm-15.25-7.37c-6.61,0-10.68,4-10.64,10.61,0,6.22,4.61,11.4,10.19,11.55,6.6.18,12-4.88,12-11.17A11.35,11.35,0,0,0,306.61,46.87Z" transform="translate(-54.46 -24.61)"/><path class="cls-13" d="M615.58,456.28c0,10.77,0,10.78-11.13,10.78-3.06,0-6.21.4-9.16-.21-2.29-.47-4.31-2.23-6.45-3.42a59,59,0,0,1,4.48-5.21c1-.91,2.42-1.28,3.66-1.89l9.55-6.37,8.61,2.68C615.28,453.85,615.43,455.07,615.58,456.28Z" transform="translate(-54.46 -24.61)"/><path class="cls-7" d="M276.05,105,275,92.5c5.68-3.47,15.22-3.46,19.69,0a9.77,9.77,0,0,1,0,1.21l.3,8.93c-1.43,1.51-2.6,3.71-4.35,4.38a18.42,18.42,0,0,1-8.41,1.11C280.1,107.88,278.12,106.12,276.05,105Z" transform="translate(-54.46 -24.61)"/><path class="cls-7" d="M111.07,114.68q.57,5.44,1.15,10.88c-1.29,1.31-2.43,3.51-3.9,3.75-5.74.95-11.74,3.17-17.14-1.22,5.25-1.5,2.14-5.46,2.47-8.4,0-.9-.07-1.79-.1-2.68s.07-1.61.11-2.41L95,113.48c4-.43,8-1.1,12-1.15C108.32,112.31,109.7,113.85,111.07,114.68Z" transform="translate(-54.46 -24.61)"/><path class="cls-5" d="M678.24,176.33c6,.42,12.07,1.1,18.11,1.16,3.83,0,5.39.95,5.47,5.16.31,15.9.46,15.89-15.6,15.91-1.44,0-3-.39-4.28.11s-3.39,1.93-3.39,3c0,1.39,1.6,3.94,2.59,4q12.3.5,24.62,0c.77,0,2-3.17,2-4.89.21-8.16.09-16.34,1.51-24.71a18.91,18.91,0,0,1,1,4.14c.1,7.19-.07,14.39.09,21.58.08,3.91-1.43,5.61-5.43,5.54-8.22-.14-16.44.07-24.66-.14-1.47,0-4.19-1.42-4.18-2.16.08-9.53.56-19.06.94-28.58Zm1.3,7.37c-3.95,10.52-2,13.61,8.63,13.61,13.69,0,13.69,0,12.28-13.46,0-.4.11-.93-.09-1.2-.66-.89-1.47-2.42-2.19-2.4-5.81.18-11.61.65-17.42,1C680.35,182.08,680,182.89,679.54,183.7Z" transform="translate(-54.46 -24.61)"/><path class="cls-14" d="M272.7,433.92c0-2.36-.52-4.86.08-7.05.93-3.44,3.22-4.25,6.61-2.33,2,1.14,4.46,1.44,6.72,2.12,1,.18,2.39,0,2.91.6,4.24,4.88,8.65,3.09,13.14.58.4.87.8,1.74,1.19,2.61,0,.82,0,1.64,0,2.47s0,1.54,0,2.32c0,1.67,0,3.35-.05,5h0l-10.07-1.13-2.08-.06c-2-2.09-4-4.19-5.91-6.22l-.77,1.95Z" transform="translate(-54.46 -24.61)"/><path class="cls-15" d="M252.68,92.54C243.14,94.14,233.63,96,224,97.3c-25.4,3.38-50.84,6.46-76.26,9.74-5.38.69-10.71,1.72-16.07,2.59-.31-.67-.63-1.34-1-2l7.57-2.72,41.28-4.63q23.32-2.64,46.64-5.31l23-2.62Z" transform="translate(-54.46 -24.61)"/><path class="cls-11" d="M557.42,127l-16,17.58-11.07,12-.07.07q.72-3.68,1.43-7.33h-.05l1.31-2.54,8.22-16.14Z" transform="translate(-54.46 -24.61)"/><path class="cls-9" d="M466.35,452.43l-4.79,2.63-19.89-8.68-.33-3.31,1.56-5.47,23.17,13.86A4.68,4.68,0,0,1,466.35,452.43Z" transform="translate(-54.46 -24.61)"/><path class="cls-12" d="M550.68,105.72a.8.8,0,0,1,.37-.82c6.57,0,13.15-.25,19.71,0,4.12.16,5.33-1.41,5.23-5.37-.24-8.62-.32-17.26,0-25.87.21-5.28-1.42-7.39-7-7.18-9.64.37-19.3,0-28.95.17-3.79.08-5-1.27-4.94-5,.17-11.5,0-23,0-34.5l1.26-1.25c0,10,0,20.07,0,30.1.07,10.42-1.19,9.27,9,9.33,8.81.05,17.62.17,26.42-.06,4-.11,5.39,1.19,5.3,5.25-.23,10.23-.15,20.48,0,30.71,0,3.23-.72,5-4.42,4.85C565.41,105.82,558,105.83,550.68,105.72Z" transform="translate(-54.46 -24.61)"/><path class="cls-12" d="M93.55,117c0,.89.07,1.78.1,2.68l-19.28,1.62c2.78,23.9,5.53,47.48,8.27,71.06-.4,0-.81,0-1.21,0C80.6,187.22,79.64,182,79,176.83q-2.86-22.38-5.52-44.77c-.45-3.8-.6-7.62-.92-11.9Z" transform="translate(-54.46 -24.61)"/><path class="cls-12" d="M90,263.94l-1.17-8.7,1.32,0c1.19,7.36,2.53,14.71,3.53,22.1,2.06,15.11,4,30.23,5.88,45.36.59,4.63,1,9.27,1.52,13.91-.81-1.17-2.2-2.26-2.36-3.51-1.39-10.88-2.53-21.78-3.83-32.67a15,15,0,0,0-1.23-3.28Z" transform="translate(-54.46 -24.61)"/><path class="cls-16" d="M272.7,433.92l11.84.88.77-1.95c1.94,2,3.92,4.13,5.91,6.22l-.16.09-1.25.06-4.86,0L280,442.63c.22-3.83-1.95-4.86-5.36-5-6.16-.19-3.79,5.09-5.7,9l-16.33-1.36h12.23Z" transform="translate(-54.46 -24.61)"/><path class="cls-12" d="M294.73,93.72a9.77,9.77,0,0,0,0-1.21c4-.57,8-1,11.88-1.73,9.79-1.94,10.76-1.25,11.66,9l3.6,28.49c-.83-1.58-2.18-3.08-2.41-4.73C318,113,316.71,102.4,315.4,92Z" transform="translate(-54.46 -24.61)"/><path class="cls-12" d="M458.76,66.58c0-.4,0-.8,0-1.2,10.47,0,20.94-.18,31.4.06,4.21.1,5.81-1.11,5.68-5.52-.29-9.43-.16-18.88,0-28.32,0-1.93.77-3.85,1.18-5.77,0,.45,0,.89,0,1.33,0,11.42-.16,22.85,0,34.27.08,4-1.26,5.32-5.26,5.24C480.8,66.45,469.78,66.58,458.76,66.58Z" transform="translate(-54.46 -24.61)"/><path class="cls-5" d="M497,27.16c0-.44,0-.88,0-1.33a65.15,65.15,0,0,1,8.17-1.11c8.53-.15,17.06-.13,25.58,0,1.9,0,3.79.78,5.69,1.2l-1.26,1.25Z" transform="translate(-54.46 -24.61)"/><path class="cls-12" d="M682.85,165.24c6,0,11.9-.21,17.76.17,1.25.09,3.25,2.34,3.27,3.61s-2.09,3.39-3.35,3.46c-6.5.35-13,.16-19.65.16C681.54,170.14,682.13,167.94,682.85,165.24Zm19.78,5.14v-1.75H683.77v1.75Z" transform="translate(-54.46 -24.61)"/><path class="cls-2" d="M615.14,452.64,606.53,450c0-2.4.09-4.79.13-7.19l7.38-2.5c.06,2.06.13,4.11.19,6.17Q614.68,449.53,615.14,452.64Z" transform="translate(-54.46 -24.61)"/><path class="cls-17" d="M130.76,107.61c.32.68.64,1.35,1,2,1.74.8,3.53,2.38,5.22,2.28,8.24-.47,16.45-1.39,24.67-2.15-5.91,1.06-11.79,2.32-17.74,3.13-8.62,1.18-17.28,2.11-26,3-1.44.14-3-.74-4.47-1.16,4.45-.41,9-.33,13.3-1.49C128.46,112.72,129.44,109.55,130.76,107.61Z" transform="translate(-54.46 -24.61)"/><path class="cls-12" d="M118.43,446.36c0-.78,0-1.57,0-2.35l42.24-4.57.21,1.22-25.21,4.57-4.93,0-9.87,1.19Z" transform="translate(-54.46 -24.61)"/><path class="cls-14" d="M280,442.63l4.93-3.37a19.57,19.57,0,0,1,1.69,3.71,17.1,17.1,0,0,1,0,3.92,50,50,0,0,1-6.5-1C279.85,445.8,280.05,443.76,280,442.63Z" transform="translate(-54.46 -24.61)"/><path class="cls-5" d="M680.76,81.36c3.81,3.72,3.78,7.44,0,11.17l-.07-.06v-11Z" transform="translate(-54.46 -24.61)"/><path class="cls-5" d="M651.11,81.37c3.72-4.17,7.44-3,11.17,0l-.07.06h-11Z" transform="translate(-54.46 -24.61)"/><path class="cls-8" d="M293.3,439.13l10.07,1.13-.24,5-4.68-3.67-3.79-1.13Z" transform="translate(-54.46 -24.61)"/><path class="cls-5" d="M651.19,81.44v8.79c-3.44-3.23-2.64-6.12-.08-8.86Z" transform="translate(-54.46 -24.61)"/><path class="cls-5" d="M680.71,81.43,672,80.76c3-1.66,6.11-3.41,8.8.61Z" transform="translate(-54.46 -24.61)"/><path class="cls-14" d="M294.66,440.42l3.79,1.13Z" transform="translate(-54.46 -24.61)"/><path class="cls-17" d="M81.43,192.41c.4,0,.81,0,1.21,0,0,2.07,0,4.13,0,6.2-.47-1.26-.93-2.52-1.39-3.78C81.32,194,81.38,193.2,81.43,192.41Z" transform="translate(-54.46 -24.61)"/><path class="cls-8" d="M441.34,443.07l.33,3.31-3.84-.79Z" transform="translate(-54.46 -24.61)"/><path class="cls-5" d="M679.55,95l-1.2,1.86-.73-.73,1.84-1.21Z" transform="translate(-54.46 -24.61)"/><path class="cls-15" d="M248.93,89.92q0-1.11-.09-2.19Z" transform="translate(-54.46 -24.61)"/><path class="cls-5" d="M679.46,94.91c.41-.82.83-1.63,1.25-2.44l.07.06L679.55,95Z" transform="translate(-54.46 -24.61)"/><path class="cls-1" d="M568.41,190.21l-1.5-1.37Z" transform="translate(-54.46 -24.61)"/><path class="cls-5" d="M653.66,96.13l.48.59-.59-.48Z" transform="translate(-54.46 -24.61)"/><path class="cls-5" d="M653.55,96.24l-.47-.58c.2.15.39.31.58.47Z" transform="translate(-54.46 -24.61)"/><path class="cls-5" d="M662.28,81.37l.48.55-.55-.49Z" transform="translate(-54.46 -24.61)"/><path class="cls-12" d="M678.24,176.33l-1.19,0,1.23-1.23h0C678.27,175.52,678.26,175.93,678.24,176.33Z" transform="translate(-54.46 -24.61)"/><path class="cls-12" d="M678.28,175.12l.27-.54-.28.53Z" transform="translate(-54.46 -24.61)"/><path class="cls-14" d="M289.81,439.22l1.25-.06Z" transform="translate(-54.46 -24.61)"/><path class="cls-12" d="M95,113.48l-1.32,1.12Z" transform="translate(-54.46 -24.61)"/><path class="cls-18" d="M614,440.27l-7.38,2.5-1.14-.06c-.81-1.79-2-3.52-2.36-5.39-1.07-6.38-1.69-12.83-2.7-19.22-.87-5.58-1.87-11.15-3.11-16.65s-2.89-11.11-4.36-16.66c-1-5.11-2-10.21-3.16-15.79-5.49,4.13-4.56,8.66-2.63,13.37-.06,2.85-1.34,6.88.06,8.31,3.52,3.61,3.75,7.56,3.37,11.83-.7,7.88-1.32,15.79-2.66,23.57-1,5.65-3.06,11.12-4.66,16.67a5.82,5.82,0,0,1-1.18,0c-1.73-.79-3.42-2-5.2-2.15-.64-.05-1.6,2.49-2.18,3.95a38.07,38.07,0,0,0-1.21,4.4l-.09-3.75c-.79-5.92-2.3-11.84-2.22-17.74.13-9.75,1.3-19.49,2-29.23l0-2L573,384.1l.21-6.32q.09-7.62.17-15.25a5.8,5.8,0,0,1,.36-1.14c5.2.78,11.43-2.72,14.52,2.58,1.91-1,3.42-2.16,5.11-2.54,3.13-.72,6.36-1,9.54-1.41.84,2,2.16,3.86,2.4,5.89a98.48,98.48,0,0,1,.15,10.46c0,5.63-.18,10.79,4.19,15.92,3.34,3.92,4.38,10.22,5.37,15.65a165.48,165.48,0,0,1,2.57,24C617.71,434.68,615.3,437.5,614,440.27Z" transform="translate(-54.46 -24.61)"/><path class="cls-13" d="M602.93,360c-3.18.44-6.41.69-9.54,1.41-1.69.38-3.2,1.55-5.11,2.54-3.09-5.3-9.32-1.8-14.52-2.58l-5.32-3.18q1.13-13.41,2.24-26.82c0-1.94,0-3.89.05-5.83L573,313.19l7.84-.71c2.33.66,4.63,1.44,7,1.94,4.16.89,8.37,1.61,12.55,2.41,1.71,6.64,3.58,13.25,5.08,19.94,1.06,4.76,1.55,9.64,2.42,14.45C608.68,355.58,607.68,358.83,602.93,360Z" transform="translate(-54.46 -24.61)"/><path class="cls-13" d="M588.25,270.17l1.49.46,3.45,1.82c5.19,0,9.07,2,11,7,2.85,7.49,5.62,15,8.42,22.52-3.94.44-9-.49-11.61,1.6-5.42,4.29-11.41,5.08-17.63,6q-2.61-1.94-5.2-3.89l7.2-14.9c-8.38-9.06-11.15-9.78-16.86-4.41-1.85-5.33,1.17-8.59,4.89-11.56C579.51,277,585.34,278.25,588.25,270.17Z" transform="translate(-54.46 -24.61)"/><path class="cls-9" d="M488.24,397.4c-.28-.9-.57-1.8-.86-2.7,1.18-1.64,2.79-3.13,3.48-5A173.36,173.36,0,0,1,515.8,344c1.48-1.9,3.09-3.7,4.64-5.55l1.65.86c-3.36,7.73-6.22,15.72-10.22,23.11-4.57,8.45-10.19,16.33-15.25,24.53a33.26,33.26,0,0,0-2.13,5.21l.05,0-3,1.31,5.42,2.41c19.46,1.49,38.19,5.58,55.46,15-19.29-.18-37.62-4.58-55.39-11.74C494.33,398,491.19,398,488.24,397.4Z" transform="translate(-54.46 -24.61)"/><path class="cls-19" d="M511.69,179.61l-17.14,14a2,2,0,0,0-.5.29c-.06.06,0,.24,0,.37l.4-.72,5,.24c-2,.76-4.07,1.41-6,2.31a14.93,14.93,0,0,0-2.69,2.12l-21,17.39,5.09.37c1.62.76,3.21,2.11,4.87,2.19,6.31.33,12.65.25,19,.33-9.12.68-18.24,1.56-27.37,2-6.88.32-7.59.46-12,7.13l22.17,2.74c-5.28-.05-10.56-.23-15.83,0-1.07,0-2.08,1.61-3.12,2.47-3.15-.28-7.16-1.92-9.26-.57-4.63,3-8.3,7.48-12.82,11.78l19.73,1.57-5.86,7.16c-3.93-1.54-8-2.76-11.74-4.7s-6.42-1.19-8.63,2.17c-.47-.79-.94-1.58-1.4-2.37,5.72-3.84.46-8.21.58-12.32a27.28,27.28,0,0,0,2.94-3.44,23.68,23.68,0,0,0,1.61-4v14.24c2.26-1.79,3.95-2.95,5.43-4.33,13.09-12.29,26.22-24.53,39.11-37,1.66-1.61,2.51-4.48,2.89-6.9.65-4.22.65-8.54.92-12.82,1.08,2.45,2.15,4.91,3.23,7.36l.09,2.26-.91,3.31.95.3c.38-.84.76-1.68,1.13-2.52l1.58-.59,2.88-2.59,8.44-9.7.12-.12,1.77-5.23.27-3.58c.41-1.71.83-3.41,1.24-5.12l2,6.64c-.27,1.5-.54,3-.82,4.5l-.55.72.72-.55.59,0,.58-.09.16.18C510.21,177.54,511,178.57,511.69,179.61Z" transform="translate(-54.46 -24.61)"/><path class="cls-10" d="M573.37,274.87c-3.72,3-6.74,6.23-4.89,11.56l.07.52-1.36.48c-.31-2.41-.73-4.82-.91-7.25-.34-4.53.78-9.73-1.08-13.48-3.86-7.77-5.36-15.27-2.65-23.53l-.13-.13,1.26-1.26,0,0,1.27-1.26.12.14,9.66-2.9c9.72,1.22,11.5,2.78,13.45,11.81l-.66,14.47-2.29.09c-.9-4.56-1.81-9.11-2.59-13-3.24-.19-5.93-.31-8.62-.54-1.81-.15-3.62-.45-5.42-.68.07,2.2,0,4.41.28,6.58a14.18,14.18,0,0,0,1.32,4.62c1.87,3.67,3.87,7.39,9.38,4.68l1.09,1.71Q577,271.16,573.37,274.87Z" transform="translate(-54.46 -24.61)"/><path class="cls-11" d="M573,384.1l.21,12.14c-6.68-1.83-13.28-4.17-20.07-5.36-13.72-2.4-27.55-4.18-41.34-6.21l1.87-3.3,7.77-8.19c.5,2.22,1,4.45,1.51,6.68,1.21.4,2.82,1.5,3.55,1.08,4.58-2.64,9-1,13.64-.37C551.07,382,562.06,383,573,384.1Z" transform="translate(-54.46 -24.61)"/><path class="cls-9" d="M462.48,232.81c1-.86,2-2.42,3.12-2.47,5.27-.21,10.55,0,15.83,0,15.21.83,34.09,6.72,44.16,14.13-12.06,1.93-23.12-.59-34.24-1.77Z" transform="translate(-54.46 -24.61)"/><path class="cls-9" d="M498.65,218.52c-6.32-.08-12.66,0-19-.33-1.66-.08-3.25-1.43-4.87-2.19,23.43-6.81,47.17-11.07,72.4-9.47C540.07,211.78,513.73,218.1,498.65,218.52Z" transform="translate(-54.46 -24.61)"/><path class="cls-19" d="M573,384.1c-11-1.14-21.95-2.06-32.86-3.53-4.64-.63-9.06-2.27-13.64.37-.73.42-2.34-.68-3.55-1.08,5.91-.07,7.62-5.17,10.56-8.8l2.89.13-2.54,3.91,34.56-16.89,5.32,3.18a5.8,5.8,0,0,0-.36,1.14L537.59,376.2l.27,1.58h35.37Z" transform="translate(-54.46 -24.61)"/><path class="cls-20" d="M573.37,274.87q3.63-3.71,7.27-7.4l-1.09-1.71c-5.51,2.71-7.51-1-9.38-4.68a14.18,14.18,0,0,1-1.32-4.62c-.27-2.17-.21-4.38-.28-6.58,1.8.23,3.61.53,5.42.68,2.69.23,5.38.35,8.62.54.78,3.94,1.69,8.49,2.59,13l2.29-.09.66-14.47c4.56,4.07,2.14,8.88,1.4,13.49-.38,2.37-.86,4.73-1.3,7.09C585.34,278.25,579.51,277,573.37,274.87Z" transform="translate(-54.46 -24.61)"/><path class="cls-9" d="M521.46,373.18l-7.77,8.19-2.26-.41c8.58-18.92,19.3-36.36,34.92-50.41l-.09-.08c-3.33,7.18-6.15,14.66-10.13,21.47C531.8,359.34,526.4,366.12,521.46,373.18Z" transform="translate(-54.46 -24.61)"/><path class="cls-12" d="M462.48,232.81l28.87,9.91-5.56,4.18-2.34,1.25-4.15-3.07c-3.4-4.66-9.41-6.34-13.46-3.67-2,1.29-3.81,2.78-5.71,4.18L440.4,244c4.52-4.3,8.19-8.79,12.82-11.78C455.32,230.89,459.33,232.53,462.48,232.81Z" transform="translate(-54.46 -24.61)"/><path class="cls-9" d="M536.42,371.19l-2.89-.13q15.42-20.1,30.84-40.19c1.34-1.75,2.78-3.43,4.17-5.13l2.19-.18c0,1.94,0,3.89-.05,5.83-1.37,1.77-2.66,3.61-4.13,5.29Q551.52,354,536.42,371.19Z" transform="translate(-54.46 -24.61)"/><path class="cls-20" d="M472.3,268.12c-.27,1.1-.53,2.2-.79,3.3l-1.53,6-7.54,3.64-1.54-2.6q2-4.61,3.91-9.21c-5.47-2.53-6-7.39-5.91-12.54,3.46-3.07,6.67-7,12.07-3.67,3,2.87,5.2,5.65,1.3,9.71C471.38,263.69,472.24,266.29,472.3,268.12Z" transform="translate(-54.46 -24.61)"/><path class="cls-20" d="M583.34,309.63c6.22-.94,12.21-1.73,17.63-6,2.64-2.09,7.67-1.16,11.61-1.6-1.08,4.6-2.17,9.19-3.4,14.38l-8.79.44c-4.18-.8-8.39-1.52-12.55-2.41-2.36-.5-4.66-1.28-7-1.94Z" transform="translate(-54.46 -24.61)"/><path class="cls-9" d="M482.37,384.37q-.75-4.11-1.49-8.22c-.11-7.41,6.87-10.54,9.77-16.13L501,348C497.54,361.7,490.83,373.5,482.37,384.37Z" transform="translate(-54.46 -24.61)"/><path class="cls-21" d="M472.3,268.12c-.06-1.83-.92-4.43,0-5.36,3.9-4.06,1.74-6.84-1.3-9.71,1-4.47,3.45-7.52,8.33-8l4.15,3.07c3.35,4.73.43,8.91-1.17,13.21Z" transform="translate(-54.46 -24.61)"/><path class="cls-9" d="M482.28,261.36c1.6-4.3,4.52-8.48,1.17-13.21l2.34-1.25a57.22,57.22,0,0,0,6.16,3.42c5.92,2.41,11.91,4.61,17.88,6.9-.14.74-.28,1.48-.43,2.22-5,0-10-.25-15,.08C490.33,259.78,486.32,260.72,482.28,261.36Z" transform="translate(-54.46 -24.61)"/><path class="cls-22" d="M568.55,287l-.07-.52c5.71-5.37,8.48-4.65,16.86,4.41l-7.2,14.9c-3.13-.91-5.88-5.43-9.56-1l-6.29-5.19.18-2.29c2.45.62,5.3.65,7.24,2,3.2,2.24,5.1,1.62,6.88-1.41.91-1.55,1.87-3.08,3.51-5.76Z" transform="translate(-54.46 -24.61)"/><path class="cls-17" d="M490.65,360c-2.9,5.59-9.88,8.72-9.77,16.13l-3.57-7.34-.11-.16,8.15-5.08c-1.61-4.69-3.48-8.77-4.38-13.06-1.31-6.3-1.75-12.77-2.94-19.1-.31-1.63-2-3-3.13-4.49l-.19-.18,3.76-4.89c2.8,11.32,5.49,22.66,8.51,33.92C487.42,357.4,489.39,358.62,490.65,360Z" transform="translate(-54.46 -24.61)"/><path class="cls-11" d="M568.55,287l11.55,5.14c-1.64,2.68-2.6,4.21-3.51,5.76-1.78,3-3.68,3.65-6.88,1.41-1.94-1.34-4.79-1.37-7.24-2-.14-3.94-.3-7.89-.35-11.84,0-.19,1-.39,1.61-.59.6,1.73,1.19,3.46,2,5.9l1.43-3.31Z" transform="translate(-54.46 -24.61)"/><path class="cls-17" d="M567.19,287.43l-1.43,3.31c-.84-2.44-1.43-4.17-2-5.9q-.69-9.22-1.37-18.45l-1.3-2.46,0,0-1.25-2.49,0,0c-.44-.9-.87-1.8-1.3-2.7a1.27,1.27,0,0,1,.06-.72V247.59l.9-3.45,1.59-1.24h0l1.49.27c-2.71,8.26-1.21,15.76,2.65,23.53,1.86,3.75.74,8.95,1.08,13.48C566.46,282.61,566.88,285,567.19,287.43Z" transform="translate(-54.46 -24.61)"/><path class="cls-23" d="M568.58,304.75c3.68-4.44,6.43.08,9.56,1q2.6,2,5.2,3.89l-2.49,2.85-7.84.71-3.27-1.4L561.3,311l1-1.61Z" transform="translate(-54.46 -24.61)"/><path class="cls-9" d="M470,277.43l1.53-6,18.07,6-.4,1.65L476,281.12l-2.38-.15Z" transform="translate(-54.46 -24.61)"/><path class="cls-24" d="M561.3,311l8.44.82-4.56,10a2.23,2.23,0,0,1-1,.12l-8.93-5.06Z" transform="translate(-54.46 -24.61)"/><path class="cls-19" d="M511.43,381l2.26.41-1.87,3.3c0,1.16,0,2.32,0,3.48L497,395.85l-5.41-2.41,3-1.31-.05,0C501.66,390.73,508.34,388.56,511.43,381Z" transform="translate(-54.46 -24.61)"/><path class="cls-25" d="M555.29,316.9l8.93,5.06c-8.52,2.58-14.76.13-15.61-6.47Z" transform="translate(-54.46 -24.61)"/><path class="cls-8" d="M565.18,321.84l4.56-10,3.27,1.4-2.28,12.37-2.19.18Z" transform="translate(-54.46 -24.61)"/><path class="cls-15" d="M481,315.71V287.36a20.83,20.83,0,0,1,1.15,4.57c.12,7.92.08,15.85.09,23.77Z" transform="translate(-54.46 -24.61)"/><path class="cls-15" d="M568.58,304.75l-6.28,4.61c-.35-1.23-.71-2.46-1.07-3.68,0-2,0-4,0-5.94a3.53,3.53,0,0,0,1-.18Z" transform="translate(-54.46 -24.61)"/><path class="cls-17" d="M574.7,237.78l-9.65,2.9-.3-1.84C567.88,236.73,570.9,233.64,574.7,237.78Z" transform="translate(-54.46 -24.61)"/><path class="cls-11" d="M561.27,299.74c0,2,0,4,0,5.94l-6.34,1.72c-.15-.39-.3-.77-.44-1.16Z" transform="translate(-54.46 -24.61)"/><path class="cls-15" d="M558.61,247.59v0Z" transform="translate(-54.46 -24.61)"/><path class="cls-15" d="M564.75,238.84l.3,1.84-.13-.14-1.27,1.26,0,0L562.42,243l.13.13-1.49-.27Z" transform="translate(-54.46 -24.61)"/><path class="cls-20" d="M593.19,272.45l-3.45-1.82Z" transform="translate(-54.46 -24.61)"/><path class="cls-15" d="M561.06,263.93l1.3,2.46Z" transform="translate(-54.46 -24.61)"/><path class="cls-15" d="M559.83,261.46l1.25,2.49Z" transform="translate(-54.46 -24.61)"/><path class="cls-15" d="M558.55,258.78c.43.9.86,1.8,1.3,2.7C559.41,260.58,559,259.68,558.55,258.78Z" transform="translate(-54.46 -24.61)"/><path class="cls-17" d="M479.7,319.39l1.24-2.47Z" transform="translate(-54.46 -24.61)"/><path class="cls-17" d="M478.47,321.86l1.23-2.47Z" transform="translate(-54.46 -24.61)"/><path class="cls-9" d="M546.35,330.55l.25-.51c-.11.14-.22.29-.34.43Z" transform="translate(-54.46 -24.61)"/><path class="cls-15" d="M561.1,242.9l-1.59,1.24Z" transform="translate(-54.46 -24.61)"/><path class="cls-17" d="M481,315.71h1.24l-1.26,1.22A3.78,3.78,0,0,1,481,315.71Z" transform="translate(-54.46 -24.61)"/><path class="cls-10" d="M340.33,185.25l1.47-7.46-.06-5.27-.21-2.35c-1.16-3.67-2.1-7.43-3.51-11-3.69-9.35-8.69-18.53-1.65-28.71h-3.22l-1.5-3.45,3.82-.5c1.45-1.85,3.9-3.56,4.17-5.57,1.93-14.54,10.34-23.45,23.63-28.42l3-2.45-.12-.25a17,17,0,0,0,3.36-1.23q29.15-18.34,53.3,6c.87,3.45,1.51,7,2.71,10.31.88,2.44,2.49,4.62,3.77,6.91l5.24.65c2.33,15.34-2.51,20.27-16.4,17-4.28-2.75-7.2,0-9.22,3-2.73,4-4.57,8.61-6.94,12.88-1.55,2.8-3.37,5.45-5.08,8.17l-2.37-.76c0-3.11.09-6.23,0-9.34-.21-5.5-3.25-7.45-7.37-3.87-3.45,3-5.34,7.78-7.92,11.77l-1.95,1.28c-1.58,3-4,5.89-4.61,9.1-2.95,14.6-13.29,22-25.85,27.13-1.82.76-4.3-.08-6.47-.18Z" transform="translate(-54.46 -24.61)"/><path class="cls-14" d="M282.29,395.69c-.07-.4,0-.92-.24-1.17-5.68-6.15-5.56-6.7,2.86-9.57v-6.33l6.64,2.5c.19-3.73.4-7.82.62-11.91l-1.95-.52-7.8,9.92h-4.05q1.26-3.75,2.53-7.5c.15-.6.29-1.21.44-1.82l1-1.75.33-1.18,1-1.38,1.32-2.3-.14-.3.58.16.59-.1c4.59,1.43,8.22-.24,12.27-2.58s9.08-3.1,13.68-4.56c5.8,7.18,3,15.73-5.74,17.19-2.92.49-5.87.83-9.06,2.54,1.4.34,2.9,1.17,4.18.92,4.22-.83,8.39-1.64,10.33,3.48s-.09,10.16-5.07,13.31c2.83,4.3,2,10.91-1.91,15.56-3.82-3.54-6.8,0-10.06,1.2l-1.27-.15-4.65-7.12c-5.5,1.7-9.71,7.8-16.08,3.35-.79-7.55,5.11-4,8.26-4.95l8-1.32c.49-1.15,1-2.3,1.46-3.45,1,2.16,2,4.33,3,6.49l2.24-.91c-.27-3.11-.53-6.21-.82-9.63l-3.49,3.28c-1.52-1.5-2.76-3.75-4-3.75-4.21,0-1.07,2.88-1.45,4.48-.19.79-1.24,1.38-1.9,2.05ZM310,358.49V358h-2v.5Z" transform="translate(-54.46 -24.61)"/><path class="cls-23" d="M421.37,238l1.38,5.15c1.07,7.5,2.14,15,3.17,22.25l-10.25,3.37-13.78,2.39-7.26,1-7,1-2.2-9.7,4.29-5.69L383.69,255c-.53-3.14-1.06-6.29-1.67-9.88l31.77-6.82ZM413,263.2c-9.55-1.33-16.6-4.46-16.92-15.57,0-.69-2.61-1.32-4.07-2l3.44,18.79Z" transform="translate(-54.46 -24.61)"/><path class="cls-8" d="M350.32,224.56c1.17,1.42,3.63,3.62,3.31,4.16-4.33,7.2-3.31,15.93-7,23.28-2,4-3.2,8.48-5.46,12.33-1.16,2-3.85,3-5.85,4.5-3.25-2.95-7-1.42-10.62-1.19-.2-4.95,4.47-13.73,7.64-15.19-.32-1.75-1.34-3.71-.76-4.85,1.95-3.82,4-7.51,4.91-11.79.64-3,1.74-6,2.64-8.93l3.86-6.25L340.38,217c2-1.23,3.89-3,6.09-3.59,3-.85,4.25-1.95,2.55-4.93,4.69-1.85,7.44-5.46,9.16-10,0-.11.36-.1.56-.15-1.34,5.07-2.69,10.14-4.33,16.33,1.75,2.38.57,6.56-4.28,9.66l-2.29,0-1.13-2.17-.84.55,1.86,1.75Z" transform="translate(-54.46 -24.61)"/><path class="cls-9" d="M421.37,238l-7.58.32L406.74,233V190.94l1.75-.22c6.85,14.18,7.9,29.58,8.5,45.46Z" transform="translate(-54.46 -24.61)"/><path class="cls-11" d="M466.14,436.54l1.38,4.83c-.49,3.36-1,6.73-1.45,10.09L442.9,437.6q1.28-7,2.56-14Z" transform="translate(-54.46 -24.61)"/><path class="cls-16" d="M446.44,356.33c-1.13,1.51-2.4,2.94-3.37,4.55s-1.86,3.67-3.28,6.55c-1.09-2.07-2-2.95-1.88-3.68,1.32-8.49,2.84-16.94,4.19-25.42.67-4.2,1.3-8.42,1.59-12.65.64-9.52,1.05-19.05,1.56-28.58,4.27,6.63,6,13.71,4.07,21.53-.68,2.7-1.09,5.46-1.62,8.2-.81,1.58-2.33,3.16-2.31,4.73C445.53,339.82,446.05,348.07,446.44,356.33Z" transform="translate(-54.46 -24.61)"/><path class="cls-8" d="M316.73,309.5c-.83,5.35-1.64,10.69-2.49,16-.27,1.67-.63,3.32-1,5l-11.06-1.23v9.64l-6.34-3.53,3.75-2.32c-1.11-9.48,3.65-16.37,7.42-23.55Zm-4,4.51c-.66-.34-1-.71-1.31-.64s-.45.56-.66.86Z" transform="translate(-54.46 -24.61)"/><path class="cls-16" d="M295.88,335.4l6.34,3.53c4.22.43,8.39.73,11.13-3.51.32,5.61.7,11.23.85,16.85,0,.51-1.47,1.05-2.26,1.57.3-3.56.81-7.12.77-10.68,0-.91-2-2.74-2.62-2.57-5.59,1.43-11.09,3.23-16.61,4.92l.43,2.2,8.6.66-4.81,6.19,14.21-.7c0,.48,0,1,0,1.43-4.6,1.46-9.61,2.2-13.68,4.56s-7.68,4-12.27,2.58l1.14-4.79c.51-2.42,1-4.84,1.54-7.26l1-.25c.61,2.94,1.22,5.87,2.15,10.4,2.13-1.88,5.09-3.32,5.05-4.7-.09-3.93-1.39-7.84-6.92-6.72Z" transform="translate(-54.46 -24.61)"/><path class="cls-16" d="M415.43,154.09q-3.6,12.39-7.19,24.78l-4.15-4.14-2.52.77c1.46-5.92,2.74-11.89,4.43-17.75a82,82,0,0,1,7.13-17.7,78,78,0,0,0,.11,9.18C413.44,150.91,414.66,152.48,415.43,154.09Z" transform="translate(-54.46 -24.61)"/><path class="cls-16" d="M442.55,381.92c0,8.31.23,16.62-.15,24.9-.1,2.23-1.72,4.65-3.25,6.47-1,1.17-3.08,1.4-4.67,2.06-.54-1.4-1.7-2.9-1.51-4.19C434.46,401,435.27,390.57,442.55,381.92Z" transform="translate(-54.46 -24.61)"/><path class="cls-12" d="M454.05,374.85q1.76,6.72,3.52,13.43-.52,9.9-1.06,19.8l-8.91-1.16q.66-9.19,1.31-18.38Q451.49,381.7,454.05,374.85Z" transform="translate(-54.46 -24.61)"/><path class="cls-16" d="M348,307.12c1.11.63,2.88,1,3.21,1.94,3.25,9.09,6.31,18.25,9.29,27.44a30.72,30.72,0,0,1,.76,5.38l-3.69-.31.07.06-1.3-1.3.06.06-1.3-1.3.07.07-1.3-1.3.07.07-1.3-1.3.06.06-1.29-1.29.05.06-1.28-2.54,0,.09Q349.16,320.07,348,307.12Z" transform="translate(-54.46 -24.61)"/><path class="cls-14" d="M324.72,267.64c3.61-.23,7.37-1.76,10.62,1.19.07,1.26.14,2.51.2,3.77H324.63l-.52,2.72,6.41,2.12-1.23,10c-5.18-.76-8.42-3.72-9.87-8.71Z" transform="translate(-54.46 -24.61)"/><path class="cls-24" d="M339,193.56c3.19-.89,6.4-2.59,9.56-2.49,4.91.15,9.79,1.53,14.68,2.39-.06.67-.12,1.34-.17,2l-4.43.74c-2.85.49-5.72,1.43-8.55,1.32-2.57-.09-5.11-1.33-8.51-2.31V206h-.06l-7.49-.18.13-2.44Q336.63,198.48,339,193.56Z" transform="translate(-54.46 -24.61)"/><path class="cls-11" d="M464.8,418v8.93l-19.41-7c0-1.06,0-2.12.05-3.17,2.3-.84,4.85-1.29,6.85-2.58,5.39-3.48,8.65-1.5,11,3.65Z" transform="translate(-54.46 -24.61)"/><path class="cls-22" d="M341.62,206v-10.8c3.4,1,5.94,2.22,8.51,2.31,2.83.11,5.7-.83,8.55-1.32l.06,2.13c-.2,0-.52,0-.56.14-1.72,4.57-4.47,8.18-9.16,10Z" transform="translate(-54.46 -24.61)"/><path class="cls-9" d="M445.39,420l19.41,7c.45,3.2.89,6.4,1.34,9.6l-20.68-13C445.44,422.38,445.41,421.18,445.39,420Z" transform="translate(-54.46 -24.61)"/><path class="cls-14" d="M326.82,292.22l-7.43,7.3-6.1-7q1.24-3.24,2.48-6.47C321.55,284.35,323.67,289.21,326.82,292.22Z" transform="translate(-54.46 -24.61)"/><path class="cls-16" d="M392.07,298.44l2-9.77,9.2,26.3-2.15.93q-3.28-4.47-6.56-8.93C393.72,304.13,392.9,301.28,392.07,298.44Z" transform="translate(-54.46 -24.61)"/><path class="cls-22" d="M339,193.56q-2.42,4.92-4.84,9.84l-5-1-2.11-5,2.23-3.73,11-8.47,0,3.46.05-.05-1.09,2.26C339.22,191.8,339.13,192.68,339,193.56Z" transform="translate(-54.46 -24.61)"/><path class="cls-15" d="M446.44,356.33c-.39-8.26-.91-16.51-1.05-24.77,0-1.57,1.5-3.15,2.31-4.73l.05,0q.53,14.25,1,28.51l.47,4.81.84,1.21c.89,2.84,1.78,5.67,2.68,8.51a4.08,4.08,0,0,0-.57.34l-1.83,4.84Z" transform="translate(-54.46 -24.61)"/><path class="cls-15" d="M447.7,326.83c.53-2.74.94-5.5,1.62-8.2,1.95-7.82.2-14.9-4.07-21.53l-3.65-5,3.7-1.78,6,11.88.18,4.77c0,2,.05,4.06.07,6.09l-.09,4-3.72,9.78Z" transform="translate(-54.46 -24.61)"/><path class="cls-14" d="M316.73,309.5l-9.68,0q1.24-3.7,2.47-7.39h7.38l2.94.2Z" transform="translate(-54.46 -24.61)"/><path class="cls-6" d="M390.61,193c-6.18-8.72-1.38-18.47-2.16-27.77l-5.11-.91c0-.32,0-.64,0-.95h7.29Z" transform="translate(-54.46 -24.61)"/><path class="cls-20" d="M392.07,298.44c.83,2.84,1.65,5.69,2.48,8.53-1.47-1.76-3.72-3.31-4.25-5.32-1.76-6.62-3.05-13.38-4.18-20.14-.28-1.71.69-3.63.94-4.81C388.7,283.81,390.39,291.13,392.07,298.44Z" transform="translate(-54.46 -24.61)"/><path class="cls-19" d="M463.3,417.88c-2.36-5.15-5.62-7.13-11-3.65-2,1.29-4.55,1.74-6.85,2.58,0-.7,0-1.4.05-2.09l12-5.45,5.86-.59c-.29.69-.57,1.38-.85,2.07l-.84.22.92.37a3.67,3.67,0,0,1,1.06.63l0,0c.08.81.17,1.63.26,2.44Z" transform="translate(-54.46 -24.61)"/><path class="cls-16" d="M287.39,424.16l14.77,1.38v2.3c-4.49,2.51-8.9,4.3-13.14-.58-.52-.6-1.92-.42-2.91-.6Z" transform="translate(-54.46 -24.61)"/><path class="cls-6" d="M348,307.12q1.13,12.94,2.23,25.89c-1.21-5.19-3-10.32-3.49-15.57a84.17,84.17,0,0,1,.67-18.86Z" transform="translate(-54.46 -24.61)"/><path class="cls-6" d="M415.63,406.93c-5.3-11.71-1.92-22.78,2.58-33.77-3.42,11.08-5.08,22.3-2.64,33.82Z" transform="translate(-54.46 -24.61)"/><path class="cls-8" d="M316.9,302.15h-7.38q1.89-4.81,3.77-9.64l6.1,7Z" transform="translate(-54.46 -24.61)"/><path class="cls-11" d="M457.51,409.27l-12,5.45q1.06-3.9,2.11-7.8l8.91,1.16a4.23,4.23,0,0,1,.93-.12Z" transform="translate(-54.46 -24.61)"/><path class="cls-18" d="M326.82,292.22c-3.15-3-5.27-7.87-11.05-6.19,1.22-2.43,2.43-4.87,3.65-7.3,1.45,5,4.69,7.95,9.87,8.71C328.47,289,327.64,290.62,326.82,292.22Z" transform="translate(-54.46 -24.61)"/><path class="cls-19" d="M450.38,375.09l1.83-4.84c.47.72.94,1.45,1.4,2.18.15.8.3,1.61.44,2.42q-2.57,6.84-5.14,13.69Z" transform="translate(-54.46 -24.61)"/><path class="cls-8" d="M330.52,277.44l-6.41-2.12.52-2.72h10.91Z" transform="translate(-54.46 -24.61)"/><path class="cls-22" d="M383.69,255l6.05,2.75-4.29,5.69C384.86,260.63,384.28,257.82,383.69,255Z" transform="translate(-54.46 -24.61)"/><path class="cls-15" d="M424.31,287.25l17.23,4.91Z" transform="translate(-54.46 -24.61)"/><path class="cls-8" d="M304.52,409.47c-3.31.88-6.61,5.75-9.92,0,3.26-1.17,6.24-4.74,10.06-1.2A9.27,9.27,0,0,1,304.52,409.47Z" transform="translate(-54.46 -24.61)"/><path class="cls-15" d="M416.93,282.31l7.36,4.92Z" transform="translate(-54.46 -24.61)"/><path class="cls-6" d="M357.61,341.57l3.69.31,3.1,2.45-.83,1.3Z" transform="translate(-54.46 -24.61)"/><path class="cls-6" d="M377.29,152.66l1.95-1.28,2.24,6.39-1.1.43Z" transform="translate(-54.46 -24.61)"/><path class="cls-15" d="M413.28,279.84l3.61,2.43Z" transform="translate(-54.46 -24.61)"/><path class="cls-8" d="M303.37,440.26c0-1.67,0-3.35.05-5C303.41,436.91,303.39,438.59,303.37,440.26Z" transform="translate(-54.46 -24.61)"/><path class="cls-6" d="M415.57,407l1.31,2.13-.85.33c-.13-.83-.27-1.67-.4-2.51Z" transform="translate(-54.46 -24.61)"/><path class="cls-8" d="M303.4,432.92c0-.83,0-1.65,0-2.47C303.37,431.27,303.39,432.09,303.4,432.92Z" transform="translate(-54.46 -24.61)"/><path class="cls-10" d="M339.32,190.92l1.09-2.26Z" transform="translate(-54.46 -24.61)"/><path class="cls-6" d="M350.22,332.92l1.28,2.54Z" transform="translate(-54.46 -24.61)"/><path class="cls-6" d="M367.52,346.27l-.48-.18a3.58,3.58,0,0,1,.56-.47s.23.23.36.35Z" transform="translate(-54.46 -24.61)"/><path class="cls-6" d="M355.14,339.09l1.3,1.3Z" transform="translate(-54.46 -24.61)"/><path class="cls-6" d="M353.91,337.86l1.3,1.3Z" transform="translate(-54.46 -24.61)"/><path class="cls-6" d="M352.68,336.63l1.3,1.3Z" transform="translate(-54.46 -24.61)"/><path class="cls-6" d="M351.45,335.4l1.29,1.29Z" transform="translate(-54.46 -24.61)"/><path class="cls-6" d="M356.38,340.33l1.3,1.3Z" transform="translate(-54.46 -24.61)"/><path class="cls-24" d="M422.57,273.91l-6.9-5.15,10.25-3.37c-1-7.25-2.1-14.75-3.17-22.25l9.75,4.71c.46.79.93,1.58,1.4,2.37l18.86,17.57c.89,1.91,1.77,3.83,2.66,5.75l-10.27,4-2.27.09H429.05l0-.07Z" transform="translate(-54.46 -24.61)"/><path class="cls-9" d="M452.13,225.7c-9.54-22.66-14-46-9.74-70.67C453.68,177.44,454.4,201.36,452.13,225.7Z" transform="translate(-54.46 -24.61)"/><path class="cls-9" d="M463.35,214.21c-5-6.67,7.71-63.43,17.3-77.38C483.12,152.54,472.64,199.39,463.35,214.21Z" transform="translate(-54.46 -24.61)"/><path class="cls-9" d="M437.63,228.14a23.68,23.68,0,0,1-1.61,4,27.28,27.28,0,0,1-2.94,3.44c-6.54-19.06-8.34-44.18-4-64.23C437.56,189.34,438.54,208.59,437.63,228.14Z" transform="translate(-54.46 -24.61)"/><path class="cls-9" d="M499.6,116.24l1.15.93q-2.19,23.54-4.39,47.05c-.21,1.17-.43,2.34-.65,3.51q-1.23,4.94-2.47,9.86c-.31.82-.61,1.65-.91,2.47l-3.12,8.61c-1.08-2.45-2.15-4.91-3.23-7.36l.09-2.53c.28-2.25.57-4.49.86-6.74l6.15-37.65q1.43-4.8,2.83-9.59l1.2-3.48Z" transform="translate(-54.46 -24.61)"/><path class="cls-5" d="M422.85,94.64q-24.12-24.42-53.3-6a17,17,0,0,1-3.36,1.23l6.05-7.15,1.52-1.17c8.8-.86,17.59-2.13,26.41-2.39,4.71-.14,9.48,1.47,14.22,2.3l0,0,1.26,1.27,0,0,1.26,1.26,0,0,1.26,1.26,0,0,1.26,1.26,0,0,1.26,1.27,0,0,1.26,1.26,0,0,1.26,2.5,0,0C422.94,92.38,422.89,93.51,422.85,94.64Z" transform="translate(-54.46 -24.61)"/><path class="cls-17" d="M333.15,130.46h3.22c-7,10.18-2,19.36,1.65,28.71,1.41,3.57,2.35,7.33,3.51,11-4-7.54-7.44-15.37-12-22.53C324.83,140.25,332,136.17,333.15,130.46Z" transform="translate(-54.46 -24.61)"/><path class="cls-15" d="M414.39,81.41c-4.74-.83-9.51-2.44-14.22-2.3-8.82.26-17.61,1.53-26.41,2.39l-.14-.16c.06-.38.13-.76.19-1.14a60.09,60.09,0,0,1,33.51-2C409.8,78.71,412,80.29,414.39,81.41Z" transform="translate(-54.46 -24.61)"/><path class="cls-12" d="M495.91,124.8c0-.41-.1-.81-.13-1.22-.32-5.62,1.44-13.42-1.54-16.27s-10.75-1.06-16.41-1.25c-1.83-.06-3.67,0-5.51,0l-1.19-1.2H497v9.83l.12,6.63Z" transform="translate(-54.46 -24.61)"/><path class="cls-15" d="M422.85,94.64c0-1.13.09-2.26.13-3.4q3.18,10.31,6.35,20.62c-1.28-2.29-2.89-4.47-3.77-6.91C424.36,101.62,423.72,98.09,422.85,94.64Z" transform="translate(-54.46 -24.61)"/><path class="cls-17" d="M325.56,165.55q-1.21-11.24-2.45-22.48Q324.34,154.31,325.56,165.55Z" transform="translate(-54.46 -24.61)"/><path class="cls-15" d="M366.31,90.07l-3,2.45-11.7,1.34-.28-.34Z" transform="translate(-54.46 -24.61)"/><path class="cls-17" d="M326.68,177.45q-.58-5.58-1.16-11.17Q326.09,171.86,326.68,177.45Z" transform="translate(-54.46 -24.61)"/><path class="cls-15" d="M335.47,126.51l-3.82.5,3.63-3.83.43.34Z" transform="translate(-54.46 -24.61)"/><path class="cls-15" d="M336.6,120.81l1.26-8.63.09.08q-.58,4.32-1.18,8.66Z" transform="translate(-54.46 -24.61)"/><path class="cls-15" d="M339,108.45l2.47-6.2.31.28c-.86,2-1.73,4-2.59,6Z" transform="translate(-54.46 -24.61)"/><path class="cls-15" d="M343.83,99.67,347.6,96l.25.28L344.18,100Z" transform="translate(-54.46 -24.61)"/><path class="cls-19" d="M486.93,172c-.29,2.25-.58,4.49-.86,6.74C486.35,176.53,486.64,174.29,486.93,172Z" transform="translate(-54.46 -24.61)"/><path class="cls-17" d="M341.74,172.52l.06,5.27Z" transform="translate(-54.46 -24.61)"/><path class="cls-15" d="M337.86,112.18l1.17-3.73.19.13c-.43,1.22-.85,2.45-1.27,3.68Z" transform="translate(-54.46 -24.61)"/><path class="cls-15" d="M423,91.28l-1.26-2.5Z" transform="translate(-54.46 -24.61)"/><path class="cls-15" d="M348.85,94.81l2.44-1.29.28.34-2.44,1.26Z" transform="translate(-54.46 -24.61)"/><path class="cls-15" d="M335.28,123.18l1.32-2.37.17.11-1,2.6Z" transform="translate(-54.46 -24.61)"/><path class="cls-15" d="M341.5,102.25l1.12-1.35.35.36-1.15,1.27Z" transform="translate(-54.46 -24.61)"/><path class="cls-15" d="M342.62,100.9l1.22-1.23.33.32-1.2,1.27Z" transform="translate(-54.46 -24.61)"/><path class="cls-15" d="M347.6,96l1.26-1.19.27.3-1.28,1.17Z" transform="translate(-54.46 -24.61)"/><path class="cls-15" d="M421.77,88.81l-1.26-1.26Z" transform="translate(-54.46 -24.61)"/><path class="cls-15" d="M420.54,87.58l-1.26-1.27Z" transform="translate(-54.46 -24.61)"/><path class="cls-15" d="M419.31,86.34l-1.26-1.26Z" transform="translate(-54.46 -24.61)"/><path class="cls-15" d="M418.08,85.11l-1.26-1.26Z" transform="translate(-54.46 -24.61)"/><path class="cls-15" d="M416.84,83.87l-1.26-1.26Z" transform="translate(-54.46 -24.61)"/><path class="cls-15" d="M415.61,82.64l-1.26-1.27Z" transform="translate(-54.46 -24.61)"/><path class="cls-15" d="M373.76,81.5l-1.52,1.17c.07-.43.13-.86.19-1.3.4,0,.79,0,1.19,0Z" transform="translate(-54.46 -24.61)"/><path class="cls-5" d="M373.62,81.34c-.4,0-.79,0-1.19,0l1.38-1.17C373.75,80.58,373.68,81,373.62,81.34Z" transform="translate(-54.46 -24.61)"/><path class="cls-26" d="M295,102.65l10.7-.85,11.64,94.13c-3,0-6,0-9.06,0-3.89.06-7.77.18-11.65.27-1.82-2.46-3.4-5.15-5.52-7.31-3.53-3.6-7.41-6.86-11.14-10.26l5.05-4q1.06-8.37,2.14-16.75l3.15-4.94c-1.57-.51-3.11-1.15-4.71-1.52-2.73-.62-5.55-.88-8.24-1.63-5.3-1.48-8.81,1.11-9.58,5.7-.72,4.36.38,9.05.86,13.58A44.79,44.79,0,0,0,270,174.7a91.59,91.59,0,0,1-8.56,3.78c-3.57,1.2-7.29,2-10.95,2.89L243.85,179c-4.83-.65-9.6-5.59-14.5-.16l.06,0-2.52,1.27.05,0-2.52,1.27.05,0-1.28,1.28,0,0-3.31,1.41-5,3.08-4-2c-.4-2.22-.92-4.42-1.18-6.65-1.67-14-3.22-28.07-5-42.09-.19-1.5-1.27-3.77-2.43-4.13-6.76-2.15-11.8,2.18-11,9.11.12,1,.36,2,.5,3q3.35,24.65,6.67,49.28l-2.44.06.07,0-2.53-1.27,0,0-2.51-1.27,0,0-8.68-3.74.06,0-9.94-1.24.07,0-1.28,1.29,0,0-2.87,1.3c-2.31,1-5.24,1.48-6.81,3.19-6,6.51-11.78,13.22-17.1,20.26-3.12,4.12-5.21,9-7.76,13.56l0,2.43,0,0-1.26,2.52,0-.06c-.42.85-.84,1.69-1.27,2.53l0-.06-1.29,1.29.05-.06-1.28,2.53,0-.06c-.83,2.49-1.67,5-2.5,7.46l0-.06-1.28,2.53,0-.07L127,250.38l0-.07c-.82,1.8-2,3.53-2.39,5.42-1.71,8.56-4.12,17.13-4.55,25.78-.57,11.74.45,23.56.78,35.34.4,2.39,1.37,4.84,1.1,7.15-1.06,8.91,1.33,16.68,6.66,23.76,2.07,2.74,3.75,5.77,5.61,8.68l1.43,0,0-.05,1.27,2.53,0,0c.43.42.86.85,1.28,1.28l0-.05,1.28,1.28-.06,0,2.53,1.27,0,0c3.58,4.62,6.53,4.91,12.39,1.23l-.07,0,3-1.28.15.06,3-1.28-.06,0,13.64-3.73-.08,0,3-1.29.14.06,36.41-8.55c-3,7.75-6.06,15.49-9,23.26-2.81,7.41-5.52,14.86-8.27,22.29l0,.07-2.57,7.25h0l-2.34,5,0,.05q-1.14,2.43-2.29,4.84c-.19.8-.38,1.6-.58,2.4L184,423c-2.19,2.82-2.06,7.65-7,8.08l-52.39,6.57c-1.67-13-3.31-25.61-4.88-38.19Q107.46,301.7,95.26,203.93c-2.93-23.43-5.76-46.87-8.85-70.27-.56-4.22.84-5.72,4.77-5.57,5.4,4.39,11.4,2.17,17.14,1.22,1.47-.24,2.61-2.44,3.9-3.75l2.39-.46,1.58-.27q54.34-6.63,108.7-13.28c14.66-1.8,29.3-3.71,43.95-5.58l5.26-.79,1.95-.16c2.07,1.1,4.05,2.86,6.22,3.12a18.42,18.42,0,0,0,8.41-1.11C292.43,106.36,293.6,104.16,295,102.65Z" transform="translate(-54.46 -24.61)"/><path class="cls-17" d="M113.3,440.21c-.75-1.64-2-3.23-2.18-4.95-1.52-11.7-2.79-23.44-4.23-35.16C105,385,103,369.83,101.22,354.68c-.45-3.88-.1-7.84-.13-11.76,1.22,7.81,2.61,15.59,3.62,23.42q3.78,29,7.25,58.07C112.59,429.66,112.86,434.94,113.3,440.21Z" transform="translate(-54.46 -24.61)"/><path class="cls-17" d="M90.15,255.27l-1.32,0C87.53,244.59,86.13,234,85,223.3c-.91-8.25-1.56-16.53-2.33-24.79,1.58,9.16,3.45,18.28,4.67,27.49C88.57,235.71,89.22,245.51,90.15,255.27Z" transform="translate(-54.46 -24.61)"/><path class="cls-9" d="M534,156.58c13.48-4.63,26.78-9.89,40.48-13.69,12.85-3.56,26.13-5.56,39.46-7.22-19.23,11.08-40.29,16.46-61.52,21.38l-3.63.89-2.45.21-11,1c-1.42-1.37-5.35,2.48-5.08-2.43l.07-.07Z" transform="translate(-54.46 -24.61)"/><path class="cls-19" d="M534,156.58l-3.65.06,11.07-12,2.31,2.14Z" transform="translate(-54.46 -24.61)"/><path class="cls-13" d="M564.12,455.46l9.19-5.44L582,452.6l.79,1.38c-.24,2.85-4.53,5.87.35,8.52.71,3.55-.88,4.76-4.32,4.64-5.09-.19-10.23.25-15.27-.29-2.43-.26-4.68-2.17-7-3.33,1.64-2,3.24-4,5-5.86A23.22,23.22,0,0,1,564.12,455.46Z" transform="translate(-54.46 -24.61)"/><path class="cls-2" d="M582.79,454c.18.37.35.75.53,1.12l-.18,7.4C578.26,459.85,582.55,456.83,582.79,454Z" transform="translate(-54.46 -24.61)"/><path class="cls-27" d="M196.16,393.43c2.75-7.43,5.46-14.88,8.27-22.29,2.95-7.77,6-15.51,9-23.26l1.15-1.41c1.17,2.26,2.34,4.53,3.53,6.85l7.59,2.92c-3.08-.49-4.26,1.24-4.58,4-1.1.23-2.94.16-3.19.76-1.95,4.59-3.59,9.31-5.67,14.9h12l24.69-.11,21,0-3.85,10.15c-.51-.75-1-2.15-1.52-2.16-6.62-.15-13.25-.09-20-.09.28,4.56.5,8.18.72,11.8l-3.06-12.08c-10.23,0-20.45,0-30.67.05-.9,0-2.31.42-2.62,1.06-2.07,4.22-3.9,8.56-6.21,13.77h42.54l.22.11c.36,5.88-2.33,4-6.29,3.49-5.81-.72-11.89,1.09-17.88,1.26-2.86.09-5.75-1.51-8.65-1.6-3.15-.09-7,2-9.33.74s-3.2-5.37-4.89-8.12C198.1,393.65,196.93,393.66,196.16,393.43Z" transform="translate(-54.46 -24.61)"/><path class="cls-25" d="M246.43,422.72H193.64l2.6-10.6,4.74-6.54h2.55l41.86.23.34.28Q246.08,414.39,246.43,422.72Z" transform="translate(-54.46 -24.61)"/><path class="cls-5" d="M246.79,431.74c-4.7,13.58-4.7,13.58-18.82,13.59H184c1-2.69,1.65-4.56,2.33-6.43l.83-1.27,0-.14,21.22-3.43-.06,0,9.93-1.27-.07,0c5.65-.4,11.29-.91,16.94-1.17C239,431.53,242.92,431.71,246.79,431.74Z" transform="translate(-54.46 -24.61)"/><path class="cls-27" d="M288.66,350.38c-.51,2.42-1,4.84-1.54,7.26l-2.31,4.73.14.3-1.34-.11-3.66,0,0,0-4-2.28-32.81.08L233,359.31l-2.28-.35-.09-2.74,11.67-4.81.4,0,.41,0,18.43,1.2c3,.43,6,.76,8.91,1.32,6.19,1.19,10.09-.81,10.88-7.43l2.15-2.85Z" transform="translate(-54.46 -24.61)"/><path class="cls-2" d="M243.16,360.36l32.81-.08c.06.25.12.5.16.75-1.17,2.57-2.35,5.13-3.52,7.69q-1.35,3.54-2.68,7.06l-21,0c4.48-6.46-1.89-7.11-5.07-9.47Z" transform="translate(-54.46 -24.61)"/><path class="cls-2" d="M245.25,395.48c-.22-3.62-.44-7.24-.72-11.8,6.77,0,13.4-.06,20,.09.52,0,1,1.41,1.52,2.16-.27.31-.7.59-.76.93-2.12,11.63-10.22,12.89-19.86,11.53l-.22-.11C245.24,397.35,245.24,396.42,245.25,395.48Z" transform="translate(-54.46 -24.61)"/><path class="cls-14" d="M187.86,435.33l3.21-6,43.06.19-15.89,3.38.07,0-9.93,1.27.06,0Z" transform="translate(-54.46 -24.61)"/><path class="cls-24" d="M246.43,422.72q-.36-8.33-.7-16.64l2.09-.26,8.61.29a2.27,2.27,0,0,0,.05.86l0,3.65h0l-5.08,10.89Z" transform="translate(-54.46 -24.61)"/><path class="cls-27" d="M234.13,429.49l-43.06-.19c1.49-.46,3-1.31,4.46-1.31q24-.15,48,0c1.39,0,2.77,1.06,4.15,1.63Z" transform="translate(-54.46 -24.61)"/><path class="cls-17" d="M234.13,429.49l13.52.14c-.29.7-.57,1.41-.86,2.11-3.87,0-7.75-.21-11.61,0-5.65.26-11.29.77-16.94,1.17Z" transform="translate(-54.46 -24.61)"/><path class="cls-27" d="M245.39,405.8l-41.86-.23c4.16-.36,8.32-.94,12.48-1,7.91-.16,15.83-.13,23.73,0C241.63,404.59,243.51,405.36,245.39,405.8Z" transform="translate(-54.46 -24.61)"/><path class="cls-27" d="M251.39,421.51l5.08-10.89c-.39,4.9-.62,9.82-1.26,14.69-.18,1.38-1.52,2.62-2.33,3.92l-.12-.1Z" transform="translate(-54.46 -24.61)"/><path class="cls-27" d="M201,405.58l-4.74,6.54-5-6.35,2.34-5Z" transform="translate(-54.46 -24.61)"/><path class="cls-27" d="M256.45,410.62l0-3.65c.42-1.23.84-2.47,1.25-3.7h0l6.65-1.61-3.92,9.88Z" transform="translate(-54.46 -24.61)"/><path class="cls-27" d="M184,423l4.37-9.95,4-1.21.09.08C189.63,415.64,190.77,422.37,184,423Z" transform="translate(-54.46 -24.61)"/><path class="cls-17" d="M187.86,435.33l20.58-1.27-21.22,3.43C187.43,436.77,187.65,436.05,187.86,435.33Z" transform="translate(-54.46 -24.61)"/><path class="cls-27" d="M193.56,400.75l2.57-7.25C194,395.47,200.56,400.51,193.56,400.75Z" transform="translate(-54.46 -24.61)"/><path class="cls-27" d="M272.61,368.72c1.17-2.56,2.35-5.12,3.52-7.69Z" transform="translate(-54.46 -24.61)"/><path class="cls-27" d="M281.34,369.28c-.15.61-.29,1.22-.44,1.82-1-1.68-2-3.35-3.32-5.65l5.05.9-.33,1.18Z" transform="translate(-54.46 -24.61)"/><path class="cls-27" d="M257.73,403.27l-4.49-.6c.21-.74.41-1.49.62-2.23l3.89,2.82Z" transform="translate(-54.46 -24.61)"/><path class="cls-27" d="M188.9,410.66q1.15-2.42,2.29-4.84Q190.05,408.25,188.9,410.66Z" transform="translate(-54.46 -24.61)"/><path class="cls-27" d="M256.43,406.11l-8.61-.29Z" transform="translate(-54.46 -24.61)"/><path class="cls-27" d="M252.88,429.23c-.31,1.77-.61,3.54-.92,5.31l-1.82-.6c.87-1.6,1.74-3.21,2.62-4.81Z" transform="translate(-54.46 -24.61)"/><path class="cls-27" d="M259.29,415.15c-.34-.15-.87-.22-1-.47s.24-.66.38-1c.34.14.88.22,1,.46S259.44,414.81,259.29,415.15Z" transform="translate(-54.46 -24.61)"/><path class="cls-27" d="M246.6,445.16c.41-1.24.81-2.48,1.22-3.73l.11.1c-.41,1.24-.82,2.48-1.24,3.71Z" transform="translate(-54.46 -24.61)"/><path class="cls-16" d="M283.61,362.56l1.34.11-1.32,2.3C283.62,364.16,283.62,363.36,283.61,362.56Z" transform="translate(-54.46 -24.61)"/><path class="cls-27" d="M192.34,411.85l.52-1.57a4.35,4.35,0,0,1,.44.31c-.28.45-.58.89-.88,1.34Z" transform="translate(-54.46 -24.61)"/><path class="cls-27" d="M249.06,439l.53-1.59c.15.11.45.3.44.31-.27.47-.57.92-.86,1.37Z" transform="translate(-54.46 -24.61)"/><path class="cls-27" d="M249.17,439.08l-1.24,2.45-.11-.1c.41-.81.83-1.62,1.24-2.44Z" transform="translate(-54.46 -24.61)"/><path class="cls-27" d="M245.36,447.62l1.24-2.46.09.08c-.4.83-.81,1.66-1.21,2.48Z" transform="translate(-54.46 -24.61)"/><path class="cls-27" d="M245.48,447.72c-.19.53-.37,1-.55,1.57a3.84,3.84,0,0,1-.43-.32c.26-.46.56-.9.86-1.35Z" transform="translate(-54.46 -24.61)"/><path class="cls-27" d="M243.4,452.26c.12,0,.31,0,.36.05a1.13,1.13,0,0,1,.11.43l-.63-.06Z" transform="translate(-54.46 -24.61)"/><path class="cls-27" d="M267.73,402c0,.43-.07.86-.11,1.28C267.66,402.84,267.7,402.41,267.73,402Z" transform="translate(-54.46 -24.61)"/><path class="cls-27" d="M280,362.58l-.29.51.27-.53Z" transform="translate(-54.46 -24.61)"/><path class="cls-17" d="M187.18,437.63l-.83,1.27Z" transform="translate(-54.46 -24.61)"/><path class="cls-17" d="M161.53,109.79l39.53-5c-6.5,1.19-13,2.68-19.5,3.5S168.21,109.33,161.53,109.79Z" transform="translate(-54.46 -24.61)"/><path class="cls-17" d="M201,104.86c6.5-1.2,12.95-2.74,19.5-3.53,7-.84,14.16-1,21.25-1.43-6.9,1.19-13.78,2.65-20.73,3.5C214.39,104.22,207.68,104.4,201,104.86Z" transform="translate(-54.46 -24.61)"/><path class="cls-17" d="M250.32,98.7l7.58-4.82,1.92,4.82Z" transform="translate(-54.46 -24.61)"/><path class="cls-17" d="M241.69,99.93l8.7-1.27Z" transform="translate(-54.46 -24.61)"/><path class="cls-7" d="M274.1,105.18l-5.26.79Z" transform="translate(-54.46 -24.61)"/><path class="cls-7" d="M116.19,124.83l-1.58.27Z" transform="translate(-54.46 -24.61)"/><path class="cls-14" d="M283.58,418c-2.61,1.09-5.14,2.56-7.86,3.13a8.63,8.63,0,0,1-5.46-1.17c-.75-.42-1.14-3.37-.76-3.59,1.33-.79,3.21-.61,4.61-1.34s2.27-2,3.39-3.07l4-4.72c1.69,2.24,3.11,4.15,4.54,6.05.43,1.19.86,2.38,1.3,3.57l0,0Z" transform="translate(-54.46 -24.61)"/><path class="cls-24" d="M286.05,413.29c-1.43-1.9-2.85-3.81-4.54-6.05l-4,4.72-4.9-6.39c6.37,4.45,10.58-1.65,16.08-3.35l4.65,7.13a3.17,3.17,0,0,0-1.06.12l-1.38,1.14-3.76,1.31Z" transform="translate(-54.46 -24.61)"/><path class="cls-8" d="M282.29,395.69l1.62,2.17c.66-.67,1.71-1.26,1.9-2.05.38-1.6-2.76-4.5,1.45-4.48,1.25,0,2.49,2.25,4,3.75l3.49-3.28c.29,3.42.55,6.52.82,9.63l-2.24.91c-1-2.16-2-4.33-3-6.49-.48,1.15-1,2.3-1.46,3.45l-8,1.32Q281.56,398.15,282.29,395.69Z" transform="translate(-54.46 -24.61)"/><path class="cls-24" d="M282.42,378.61l7.8-9.92,1.95.52c-.22,4.09-.43,8.18-.62,11.91l-6.64-2.5Z" transform="translate(-54.46 -24.61)"/><path class="cls-16" d="M283.58,418l3.79-1.17c-.74.94-1.47,1.89-2.2,2.84Z" transform="translate(-54.46 -24.61)"/><path class="cls-16" d="M284.93,421.65,286,423Z" transform="translate(-54.46 -24.61)"/><path class="cls-19" d="M535.37,159.14c-9.63,1.85-14.66,9.8-21.08,15.9l-4.83,1.47-.16-.18,6.62-7.11a26.07,26.07,0,0,0,12.61-20.13l3.19.29q-.71,3.66-1.43,7.33C530,161.62,534,157.77,535.37,159.14Z" transform="translate(-54.46 -24.61)"/><path class="cls-19" d="M533,146.83l-1.31,2.54Z" transform="translate(-54.46 -24.61)"/><path class="cls-24" d="M466.07,451.46c.48-3.36,1-6.73,1.45-10.09l16.88-.94c.11.73.22,1.47.34,2.21l-4.07,1.51L474,442.51c-.28,3.53-.49,6.32-.71,9.11l-7,.81A4.68,4.68,0,0,0,466.07,451.46Z" transform="translate(-54.46 -24.61)"/><path class="cls-8" d="M473.33,451.62c.22-2.79.43-5.58.71-9.11l6.63,1.64c-.32,2.72-.65,5.45-1,8.17l-4.88,3.27C474.24,454,473.79,452.83,473.33,451.62Z" transform="translate(-54.46 -24.61)"/><path class="cls-20" d="M479.7,452.32c.32-2.72.65-5.45,1-8.17l4.07-1.51c4.31,0,4,2.15,2.26,4.95l0,5.16Z" transform="translate(-54.46 -24.61)"/><path class="cls-12" d="M680.75,181.27c4.45.12,8.9.21,13.35.38.21,0,.4.56,1.4,2h-16C680,182.89,680.35,182.08,680.75,181.27Z" transform="translate(-54.46 -24.61)"/><path class="cls-11" d="M487,447.59c1.77-2.8,2.05-4.92-2.26-4.95-.12-.74-.23-1.48-.34-2.21l6.53-.24c.53-1.22,1.07-2.45,1.66-3.77L506.15,441c.29-.53.58-1.05.86-1.58l-15.82-13.63c-.28,3.5-.42,5.31-.56,7.12q-.31-9.56-.62-19.11c13.68,3.51,27.5,5.65,41.7,4.63-13.24-6.52-27.33-9.4-41.77-10.93-.57-3.36-1.13-6.72-1.7-10.08,2.95.55,6.09.62,8.81,1.72,17.77,7.16,36.1,11.56,55.39,11.74-17.27-9.43-36-13.52-55.46-15l14.82-7.7c19.92,6.8,40.26,11.09,61.46,10.05-.73,9.74-1.9,19.48-2,29.23-.08,5.9,1.43,11.82,2.22,17.74-8.45.41-16.9,1.07-25.36,1.18-14.28.2-28.56-.05-42.83.12C499.17,446.54,493.09,447.2,487,447.59Z" transform="translate(-54.46 -24.61)"/><path class="cls-5" d="M605.52,442.71c-.18.57-.36,1.65-.55,1.65q-10.54.15-21.08,0c-.2,0-.39-1.07-.58-1.64,1.6-5.55,3.69-11,4.66-16.67,1.34-7.78,2-15.69,2.66-23.57.38-4.27.15-8.22-3.37-11.83-1.4-1.43-.12-5.46-.06-8.31l5.79,2.42c1.47,5.55,3.1,11.06,4.36,16.66s2.24,11.07,3.11,16.65c1,6.39,1.63,12.84,2.7,19.22C603.47,439.19,604.71,440.92,605.52,442.71Z" transform="translate(-54.46 -24.61)"/><path class="cls-9" d="M573.26,398.2c-21.2,1-41.54-3.25-61.46-10.05,0-1.16,0-2.32,0-3.48,13.79,2,27.62,3.81,41.34,6.21,6.79,1.19,13.39,3.53,20.07,5.36Z" transform="translate(-54.46 -24.61)"/><path class="cls-12" d="M573.23,377.78H537.86l-.27-1.58,35.81-13.67Q573.33,370.17,573.23,377.78Z" transform="translate(-54.46 -24.61)"/><path class="cls-2" d="M582.13,442.72q-.07,4.95-.13,9.88L573.31,450c.06-.37.14-.74.23-1.1a38.07,38.07,0,0,1,1.21-4.4c.58-1.46,1.54-4,2.18-3.95C578.71,440.7,580.4,441.93,582.13,442.72Z" transform="translate(-54.46 -24.61)"/><path class="cls-12" d="M593,384.79l-5.79-2.42c-1.93-4.71-2.86-9.24,2.63-13.37C591,374.58,592,379.68,593,384.79Z" transform="translate(-54.46 -24.61)"/><path class="cls-11" d="M536.42,371.19q15.08-17.25,30.13-34.51c1.47-1.68,2.76-3.52,4.13-5.29q-1.11,13.41-2.24,26.82L533.88,375.1Z" transform="translate(-54.46 -24.61)"/><path class="cls-9" d="M489.94,407.48c14.44,1.53,28.53,4.41,41.77,10.93-14.2,1-28-1.12-41.7-4.63C490,411.68,490,409.58,489.94,407.48Z" transform="translate(-54.46 -24.61)"/><path class="cls-19" d="M490.63,432.89c.14-1.81.28-3.62.56-7.12L507,439.4c-.28.53-.57,1.05-.86,1.58l-13.56-4.56c-.59,1.32-1.13,2.55-1.66,3.77Z" transform="translate(-54.46 -24.61)"/><path class="cls-17" d="M474.82,400.77c1.07,4.27,2.49,8.49,3.14,12.82,1.25,8.21,2.06,16.49,3.05,24.74l-2.11.71c-1-2.14-2.67-4.23-2.81-6.43-.67-10.58-.92-21.19-1.32-31.8Z" transform="translate(-54.46 -24.61)"/><path class="cls-17" d="M453.61,372.43c-.46-.73-.93-1.46-1.4-2.18a4.65,4.65,0,0,1,.56-.34h8l-1.54-10c4.33,9.13,4.33,9.13,14.37,8.83,1.22,0,2.44-.05,3.65-.07l.11.16C469.84,372.82,461.6,371.78,453.61,372.43Z" transform="translate(-54.46 -24.61)"/><path class="cls-19" d="M457.44,408a4.23,4.23,0,0,0-.93.12q.53-9.9,1.06-19.8,1.8,4.43,3.61,8.84Q459.31,402.54,457.44,408Z" transform="translate(-54.46 -24.61)"/><path class="cls-12" d="M457.44,408q1.88-5.41,3.74-10.84l3.45-.62c-.43,4.19-.85,8.18-1.26,12.17l-5.86.6C457.48,408.83,457.46,408.39,457.44,408Z" transform="translate(-54.46 -24.61)"/><path class="cls-17" d="M468.47,387.69q-2-5.81-4-11.62l1.6-.55q2.08,5.76,4.19,11.53Z" transform="translate(-54.46 -24.61)"/><path class="cls-17" d="M478.62,396l-3.8,4.8-.05,0q-.63-2.44-1.25-4.91l.06-.06,4.77-.13Z" transform="translate(-54.46 -24.61)"/><path class="cls-12" d="M463.3,417.88l.6-3.51.9,3.64Z" transform="translate(-54.46 -24.61)"/><path class="cls-17" d="M472.28,394.68l-1.07-1.4.73-.37c.14.56.29,1.12.43,1.69Z" transform="translate(-54.46 -24.61)"/><path class="cls-12" d="M462.6,411.34l-.92-.37.84-.22Z" transform="translate(-54.46 -24.61)"/><path class="cls-12" d="M463.66,412l.45-.55c0,.11,0,.25-.06.31a1.42,1.42,0,0,1-.41.2Z" transform="translate(-54.46 -24.61)"/><polygon class="cls-17" points="416.24 365.73 415.91 365.87 415.96 365.51 416.24 365.73"/><path class="cls-17" d="M473.52,395.9l-1.24-1.22.09-.08,1.21,1.24Z" transform="translate(-54.46 -24.61)"/><path class="cls-17" d="M478.35,395.71l.72-.47c-.16.24-.31.49-.46.73Z" transform="translate(-54.46 -24.61)"/><path class="cls-17" d="M453.84,299.67c-4.82-4.93-4.49-12,.78-18.67a46.24,46.24,0,0,0,2.78-4.46l3.5,1.93,1.54,2.6c0,.42-.09.84-.13,1.27l-5.17,2.22-.09.95,6.55.49.22.21C456.6,287.81,457.5,295.43,453.84,299.67Z" transform="translate(-54.46 -24.61)"/><path class="cls-22" d="M457.54,338l4.94-3.78c1.36,1.64,2.73,3.29,4.08,4.94l-7.91,7.1-.87,1.48-8.62,5.74,5.64-14.67Z" transform="translate(-54.46 -24.61)"/><path class="cls-14" d="M462.31,282.34c0-.43.09-.85.13-1.27l7.54-3.64,3.65,3.54c-1.73,2.13-3.45,4.27-5.62,7C465.93,287.07,467.73,280.44,462.31,282.34Z" transform="translate(-54.46 -24.61)"/><path class="cls-17" d="M469.72,293.62l3.45,19.83-1.94.25q-1.55-10-3.11-20Z" transform="translate(-54.46 -24.61)"/><path class="cls-17" d="M451.56,313.1l2.29,1.36q.67,11.66,1.36,23.3L455,338a16.2,16.2,0,0,1-1.19-3.26c-.84-5.86-1.56-11.73-2.32-17.6Z" transform="translate(-54.46 -24.61)"/><path class="cls-17" d="M466.57,339.12l-4.09-4.94,7.25-.1.31.27Z" transform="translate(-54.46 -24.61)"/><path class="cls-17" d="M473.41,329.14l1.31-2.4.18.18-1.23,2.45Z" transform="translate(-54.46 -24.61)"/><path class="cls-17" d="M470.9,332.8l1.33-2.39.25.22-1.27,2.45Z" transform="translate(-54.46 -24.61)"/><path class="cls-17" d="M457.54,338l-2.74.82A4.7,4.7,0,0,0,455,338l.24-.19Z" transform="translate(-54.46 -24.61)"/><path class="cls-17" d="M463.6,286l.68-.47-.46.68Z" transform="translate(-54.46 -24.61)"/><path class="cls-17" d="M469.73,334.08l1.17-1.28.31.28L470,334.36Z" transform="translate(-54.46 -24.61)"/><path class="cls-17" d="M472.23,330.41l1.19-1.26.25.22-1.19,1.26Z" transform="translate(-54.46 -24.61)"/><polygon class="cls-17" points="415.79 291.65 416.11 291.53 416.06 291.86 415.79 291.65"/><path class="cls-17" d="M453.8,314.5l1.22-1.17Z" transform="translate(-54.46 -24.61)"/><path class="cls-1" d="M494.54,392.13l-3,1.31Z" transform="translate(-54.46 -24.61)"/><path class="cls-9" d="M521.53,136.63,511.29,167.2q-1.25,2.27-2.51,4.53l-2-6.64q2-12.89,4-25.77,7.25-21.87,14.48-43.76l3.37.83Z" transform="translate(-54.46 -24.61)"/><path class="cls-4" d="M510.78,139.32q-2,12.88-4,25.77c-.41,1.71-.83,3.41-1.24,5.12l-.27,3.58c-.59,1.74-1.18,3.49-1.78,5.23l-1.72-2.1-.74.89,2.35,1.33-8.44,9.7-2.88,2.59-1.58.59-1.17-1.09-.09-2.26,3.12-8.61,4.15-.7,0-1.12-3.21-.65q1.23-4.93,2.47-9.86c.22-1.17.44-2.34.65-3.51q2.2-23.52,4.39-47c.39,6.65.59,13.31,1.27,19.93.24,2.43,1,6,2.63,6.87C508.74,146.16,508.9,141.22,510.78,139.32Z" transform="translate(-54.46 -24.61)"/><path class="cls-5" d="M452.76,267.79,433.9,250.22c2.21-3.36,4.81-4.17,8.63-2.17s7.81,3.16,11.74,4.7l4.63,4c-.09,5.15.44,10,5.91,12.54Z" transform="translate(-54.46 -24.61)"/><path class="cls-23" d="M458.9,256.72l-4.63-4,5.86-7.16c1.9-1.4,3.74-2.89,5.71-4.18,4.05-2.67,10.06-1,13.46,3.67-4.88.45-7.28,3.5-8.33,8C465.57,249.76,462.36,253.65,458.9,256.72Z" transform="translate(-54.46 -24.61)"/><path class="cls-12" d="M508.78,171.73q1.26-2.26,2.51-4.53l4.63,2-6.62,7.11-.58.09-.59,0-.17-.17Z" transform="translate(-54.46 -24.61)"/><path class="cls-11" d="M505.26,173.79l.27-3.58Z" transform="translate(-54.46 -24.61)"/><path class="cls-11" d="M490.47,192c-.37.84-.75,1.68-1.13,2.52l-.95-.3.91-3.31Z" transform="translate(-54.46 -24.61)"/><path class="cls-11" d="M492.05,191.43l2.88-2.59Z" transform="translate(-54.46 -24.61)"/><path class="cls-12" d="M508.13,176.4l-.72.55.55-.72Z" transform="translate(-54.46 -24.61)"/><path class="cls-11" d="M494.47,193.57l-.4.72c0-.13-.08-.31,0-.37a2,2,0,0,1,.5-.29Z" transform="translate(-54.46 -24.61)"/><path class="cls-17" d="M563.65,241.8l1.27-1.26Z" transform="translate(-54.46 -24.61)"/><path class="cls-17" d="M562.42,243l1.26-1.26Z" transform="translate(-54.46 -24.61)"/><path class="cls-19" d="M452.76,267.79l12.05,1.47q-1.95,4.61-3.91,9.21l-3.5-1.93a6.54,6.54,0,0,0-1.08-.26l-.9-2.74C454.53,271.62,453.65,269.7,452.76,267.79Z" transform="translate(-54.46 -24.61)"/><path class="cls-5" d="M347.85,96.28l1.28-1.17,2.44-1.25,11.7-1.34c-13.29,5-21.7,13.88-23.63,28.42-.27,2-2.72,3.72-4.17,5.57l.24-3c.36-.86.71-1.73,1.06-2.6q.6-4.33,1.18-8.66c.42-1.23.84-2.46,1.27-3.68.86-2,1.73-4,2.59-6l1.16-1.27,1.2-1.27C345.4,98.75,346.63,97.52,347.85,96.28Z" transform="translate(-54.46 -24.61)"/><path class="cls-6" d="M284.81,362.37l2.31-4.73L286,362.43l-.59.1Z" transform="translate(-54.46 -24.61)"/><path class="cls-2" d="M310,358.49h-2V358h2Z" transform="translate(-54.46 -24.61)"/><path class="cls-6" d="M281.34,369.28l1-1.75Z" transform="translate(-54.46 -24.61)"/><path class="cls-15" d="M413,263.2l-17.55,1.21L392,245.62c1.46.69,4,1.32,4.07,2C396.43,258.74,403.48,261.87,413,263.2Z" transform="translate(-54.46 -24.61)"/><path class="cls-6" d="M288.66,350.38l-5.23-6.71c-.72-7-6-6.83-11.06-7,0-.32.05-.64.07-1l4.71-6.39h11.29c1.68-3.81,3.2-7.08,4.56-10.42,1.26-3.11.39-5.14-3.23-5.46,1.69-2.39,3.45-4.73,5-7.19,3.93-6.13,12.37-10.93,6.07-20.14h6.92a47.87,47.87,0,0,0,3.14-6.41c2.93-8.12,5.62-16.33,8.4-24.5v0l2.46-5.12c-.08-2.28,3.59-6-2.35-6l1.75-2.38c-4.07.33-7.67.21-6.69-5.05,2.87.05,5.83.55,8.58,0,1.77-.36,4.47-2.12,4.62-3.48.9-7.91,6.57-6.21,11.46-6.28-.9,3-2,5.9-2.64,8.93-.89,4.28-3,8-4.91,11.79-.58,1.14.44,3.1.76,4.85-3.17,1.46-7.84,10.24-7.64,15.19l-5.3,11.09c-1.22,2.43-2.43,4.87-3.65,7.3q-1.23,3.23-2.48,6.47-1.87,4.83-3.77,9.64-1.23,3.69-2.47,7.39c-3.77,7.18-8.53,14.07-7.42,23.55l-3.75,2.32L290,349.11a5.14,5.14,0,0,0-.28,1Zm2.33-15-2.43,5,1.76.5c.25-1.8.51-3.59.76-5.39l2.53-3.56-1.59-.76Zm3.46-7.43-.28-.38-.35.31.47.49Z" transform="translate(-54.46 -24.61)"/><path class="cls-2" d="M339.15,226.88c-4.89.07-10.56-1.63-11.46,6.28-.15,1.36-2.85,3.12-4.62,3.48-2.75.55-5.71.05-8.58,0L312,237,277.45,237l-2.44-.14c1.94-5.64,3.84-11.29,5.86-16.89a2.53,2.53,0,0,1,1.64-1.33c3.57-.67,7.17-1.19,10.76-1.76,4.16,2.93,8.42,5.73,12.45,8.83,3.74,2.87,7,3.18,11,.23,3-2.22,6.72-3.49,10.11-5.18l6.05,0,10.08-.08Z" transform="translate(-54.46 -24.61)"/><path class="cls-16" d="M341.62,206l7.4,2.49c1.7,3,.47,4.08-2.55,4.93-2.2.62-4.07,2.36-6.09,3.59h0l-2.49-3.68,3.68-7.35Z" transform="translate(-54.46 -24.61)"/><path class="cls-16" d="M343,220.63l-10.08.08a40.9,40.9,0,0,0,5.66-1.34c.77-.3,1.19-1.52,1.78-2.32h0Z" transform="translate(-54.46 -24.61)"/><path class="cls-2" d="M347.73,224.5l-1.86-1.75.84-.55,1.13,2.17Z" transform="translate(-54.46 -24.61)"/><path class="cls-2" d="M347.84,224.37l2.29,0,.19.22-2.59-.05Z" transform="translate(-54.46 -24.61)"/><path class="cls-15" d="M429.05,277.63h13.83c-4.27.85-8.53,1.74-12.83,2.45C429.86,280.11,429.39,278.48,429.05,277.63Z" transform="translate(-54.46 -24.61)"/><path class="cls-15" d="M455.42,273.54l.9,2.74-11.17,1.26Z" transform="translate(-54.46 -24.61)"/><path class="cls-15" d="M422.57,273.91l6.51,3.65Z" transform="translate(-54.46 -24.61)"/><path class="cls-2" d="M312.74,314l-2,.22c.21-.3.39-.8.66-.86S312.08,313.67,312.74,314Z" transform="translate(-54.46 -24.61)"/><path class="cls-14" d="M311.91,353.86l-14.21.7,4.81-6.19-8.6-.66-.43-2.2c5.52-1.69,11-3.49,16.61-4.92.66-.17,2.61,1.66,2.62,2.57,0,3.56-.47,7.12-.77,10.68Z" transform="translate(-54.46 -24.61)"/><path class="cls-14" d="M289.69,350.13a5.14,5.14,0,0,1,.28-1c5.53-1.12,6.83,2.79,6.92,6.72,0,1.38-2.92,2.82-5.05,4.7C290.91,356,290.3,353.07,289.69,350.13Z" transform="translate(-54.46 -24.61)"/><path class="cls-16" d="M286.05,413.29l1.08-1.37,6.59,2,.54,1.31-6.91,1.62C286.91,415.67,286.48,414.48,286.05,413.29Z" transform="translate(-54.46 -24.61)"/><path class="cls-14" d="M290.89,410.61l1.38-1.14Z" transform="translate(-54.46 -24.61)"/><path class="cls-20" d="M341.56,206l-3.68,7.35-11,7.36c-3.39,1.69-7.1,3-10.11,5.18-4,3-7.31,2.64-11-.23-4-3.1-8.29-5.9-12.45-8.83,10.19-9.4,10.19-9.4,3.38-20.61,3.89-.09,7.77-.21,11.66-.27,3-.05,6,0,9.06,0l9.73,1.52c.7,1.66,1.41,3.32,2.11,5l-10.78,2.15-13.52,2.05c-.12.76-.23,1.52-.35,2.28,2.09.54,4.21,1.62,6.25,1.49,2.58-.16,5.09-1.31,7.63-2l15.63-2.52Z" transform="translate(-54.46 -24.61)"/><path class="cls-8" d="M334.07,205.84l-15.63,2.52c0-1.26,0-2.53,0-3.79l10.78-2.15,5,1C334.16,204.21,334.11,205,334.07,205.84Z" transform="translate(-54.46 -24.61)"/><path class="cls-4" d="M497.11,121.32l-.12-6.63,2.61,1.55Z" transform="translate(-54.46 -24.61)"/><path class="cls-11" d="M493.24,177.59l3.21.65,0,1.12-4.15.7C492.63,179.24,492.93,178.41,493.24,177.59Z" transform="translate(-54.46 -24.61)"/><path class="cls-11" d="M496.36,164.22c-.21,1.17-.43,2.34-.65,3.51C495.93,166.56,496.15,165.39,496.36,164.22Z" transform="translate(-54.46 -24.61)"/><path class="cls-25" d="M300.87,286.12c6.3,9.21-2.14,14-6.07,20.14-1.58,2.46-3.34,4.8-5,7.19l-12.62,15.88-4.71,6.38L261,329.38c.93-3.08,1.83-6.16,2.8-9.22.86-2.68,1.79-5.33,2.69-8l3.63-5c4.3-5.26,8.61-10.52,12.84-15.84.14-.17-.48-.94-.75-1.44,0-.45-.09-.91-.13-1.36l-4.27-5c-5-5.28-9.61-10.93-15-15.7-3.12-2.75-6.92-2.44-8.3,2.75-1,3.92-2.14,7.83-3.21,11.74l-1,6.2a7.11,7.11,0,0,0-.13,1.22L244,304.75l-1.2,8.31-4.08,16.29a.93.93,0,0,0-.45,1.07q-1.14,3.1-2.29,6.22l6.31,4.58-6.17,2.07,6.62,3.17.07,2.65-.54,2.3-11.68,4.81-4.87,0-7.59-2.92c-1.19-2.32-2.36-4.59-3.53-6.85l-37.56,10-.15-.06-3,1.29.08,0-13.64,3.73.06,0-3,1.28-.15-.06-3,1.28.07,0-12.39-1.23,0,0-2.53-1.27.06,0-1.28-1.28,0,.05c-.42-.43-.85-.86-1.28-1.28l0,0c-.43-.84-.85-1.68-1.27-2.53l0,.05-1.43,0c-1.86-2.91-3.54-5.94-5.61-8.68-5.33-7.08-7.72-14.85-6.66-23.76.27-2.31-.7-4.76-1.1-7.15.34-3.12.83-6.23,1-9.35.58-12.71.75-25.44,1.7-38.12.47-6.41,2.28-12.72,3.48-19.07l0,.07c.43-1.26.85-2.51,1.27-3.77l0,.07,1.28-2.53,0,.06c.83-2.49,1.67-5,2.5-7.46l0,.06,1.28-2.53-.05.06,1.29-1.29,0,.06c.43-.84.85-1.68,1.27-2.53l0,.06,1.26-2.52,0,0c0-.81,0-1.62,0-2.43,2.55-4.55,4.64-9.44,7.76-13.56,5.32-7,11.13-13.75,17.1-20.26,1.57-1.71,4.5-2.16,6.81-3.19l2.87-1.3,0,0,1.28-1.29-.07,0,9.94,1.24-.06,0,8.68,3.74,0,0c.83.43,1.67.85,2.51,1.27l0,0,2.53,1.27-.07,0,2.56,1.17-2.35,6.7c-4.16-2.22-8.47-4.2-12.44-6.71-5.22-3.29-9.5-2.61-13.67,1.79-5.34,5.64-11.55,10.57-16.2,16.71C147.31,222,140.35,231,136,241c-10.55,24.08-13.32,49.7-10,75.74,1.59,12.63,5.23,24.86,12.61,35.6,3.09,4.49,6.65,6.24,12.54,4.71,20-5.19,40.1-9.91,60.26-14.4,6-1.33,7.58-4.78,8.3-10.22,1.24-9.28,3.2-18.45,4.86-27.67,9.24-5,11.42-13.23,11.17-23-.29-11.31-.06-22.64,0-34,11.35,6.29,23.2,8.5,35.7,4,1.54-.55,2.64-2.29,3.95-3.48l8.13,12.23,3.77,4.74c.44.77.88,1.55,1.31,2.33l11.3,16.1C300.16,284.48,300.52,285.3,300.87,286.12Z" transform="translate(-54.46 -24.61)"/><path class="cls-21" d="M275.3,248.25c-1.31,1.19-2.41,2.93-3.95,3.48-12.5,4.54-24.35,2.33-35.7-4-3-5-1.28-8.8,2.26-13,3.25-3.82,5.41-8.57,8.05-12.91l.41-2.35-.09-25.85.72-2.39,3.5-9.95c3.66-.94,7.38-1.69,10.95-2.89,2.95-1,5.72-2.5,8.57-3.77l10,4c3.73,3.4,7.61,6.66,11.14,10.26,2.12,2.16,3.7,4.85,5.52,7.31,6.8,11.21,6.8,11.21-3.39,20.61-3.59.57-7.19,1.09-10.76,1.76a2.53,2.53,0,0,0-1.64,1.33c-2,5.6-3.92,11.25-5.86,16.89l.3,7.47C275.3,245.61,275.3,246.93,275.3,248.25Z" transform="translate(-54.46 -24.61)"/><path class="cls-7" d="M196.26,201.47l2.35-6.7-.12-1.23q-3.33-24.64-6.67-49.28c-.14-1-.38-2-.5-3-.8-6.93,4.24-11.26,11-9.11,1.16.36,2.24,2.63,2.43,4.13,1.77,14,3.32,28.06,5,42.09.26,2.23.78,4.43,1.18,6.65.93,4.79-1.17,10.68,4.91,13.63l6.06,4.83c1.93,3.47,4.07,6.86,5.72,10.46,1,2.11,1.18,4.57,1.74,6.87l-6.13,0h0l-4.94-2.47,0,0L215.81,217l-1.26-1.24-7.29-7.05-6,9.42-2.63,1.38,0,2.44,0,0-1.25,1.25v0l-2.47,1.24h0l-1.23,1.23h0l-1.22,1.23h0l-2.45,1.22h0l-1.24-.09c-1.36-2.78-3.13-4.93-.59-8.68,2.2-3.24,2.14-8,3.08-12.13Z" transform="translate(-54.46 -24.61)"/><path class="cls-18" d="M280,178.67l-10-4a43.69,43.69,0,0,1-1.35-5.62c-.48-4.53-1.58-9.22-.86-13.58.77-4.59,4.28-7.18,9.58-5.7,2.69.75,5.51,1,8.24,1.63,1.6.37,3.14,1,4.71,1.52l-3.15,4.94a44.23,44.23,0,0,0-6.53,2.83c-.89.56-1.81,2.59-1.45,3.36,1.71,3.63,3.85,7.06,5.84,10.56Z" transform="translate(-54.46 -24.61)"/><path class="cls-25" d="M215.83,198.62c-6.08-3-4-8.84-4.91-13.63l4,2,5-3.08,3.31-1.41,0,0,1.28-1.28-.05,0,2.52-1.27-.05,0,2.52-1.27-.06,0c4.27.65,8.55,1.25,12.81,2,1.72.3,3.74,1.22,1.69-1.82l6.65,2.37q-1.75,5-3.5,9.95c-9.28-9-15.22-9.13-24.16-.23C220.41,193.5,218.16,196.1,215.83,198.62Z" transform="translate(-54.46 -24.61)"/><path class="cls-22" d="M127,250.31c-1.2,6.35-3,12.66-3.48,19.07-1,12.68-1.12,25.41-1.7,38.12-.15,3.12-.64,6.23-1,9.35-.33-11.78-1.35-23.6-.78-35.34.43-8.65,2.84-17.22,4.55-25.78C125,253.84,126.22,252.11,127,250.31Z" transform="translate(-54.46 -24.61)"/><path class="cls-20" d="M285.05,174.65c-2-3.5-4.13-6.93-5.84-10.56-.36-.77.56-2.8,1.45-3.36a44.23,44.23,0,0,1,6.53-2.83Q286.13,166.27,285.05,174.65Z" transform="translate(-54.46 -24.61)"/><path class="cls-22" d="M177,356.43l37.56-10-1.15,1.41Z" transform="translate(-54.46 -24.61)"/><path class="cls-22" d="M243.85,179c2.05,3,0,2.12-1.69,1.82-4.26-.73-8.54-1.33-12.81-2C234.25,173.41,239,178.35,243.85,179Z" transform="translate(-54.46 -24.61)"/><path class="cls-22" d="M141.8,362.55l12.39,1.23C148.33,367.46,145.38,367.17,141.8,362.55Z" transform="translate(-54.46 -24.61)"/><path class="cls-22" d="M160.29,361.35l13.64-3.73Z" transform="translate(-54.46 -24.61)"/><path class="cls-22" d="M191.17,191.17l-8.68-3.74Z" transform="translate(-54.46 -24.61)"/><path class="cls-22" d="M182.55,187.47l-9.94-1.24Z" transform="translate(-54.46 -24.61)"/><path class="cls-22" d="M132,236.75c-.83,2.49-1.67,5-2.5,7.46C130.3,241.72,131.14,239.24,132,236.75Z" transform="translate(-54.46 -24.61)"/><path class="cls-22" d="M223.23,182.5l-3.31,1.41Z" transform="translate(-54.46 -24.61)"/><path class="cls-22" d="M128.27,246.61c-.42,1.26-.84,2.51-1.27,3.77C127.43,249.12,127.85,247.87,128.27,246.61Z" transform="translate(-54.46 -24.61)"/><path class="cls-22" d="M173.85,357.66l3-1.29Z" transform="translate(-54.46 -24.61)"/><path class="cls-22" d="M136.91,225.74c0,.81,0,1.62,0,2.43C136.89,227.36,136.9,226.55,136.91,225.74Z" transform="translate(-54.46 -24.61)"/><path class="cls-22" d="M139.32,361.32l2.53,1.27Z" transform="translate(-54.46 -24.61)"/><path class="cls-22" d="M157.32,362.6l3-1.28Z" transform="translate(-54.46 -24.61)"/><path class="cls-22" d="M154.12,363.82l3-1.28Z" transform="translate(-54.46 -24.61)"/><path class="cls-22" d="M198.49,193.54l.12,1.23-2.56-1.17Z" transform="translate(-54.46 -24.61)"/><path class="cls-22" d="M196.12,193.64l-2.53-1.27Z" transform="translate(-54.46 -24.61)"/><path class="cls-22" d="M193.64,192.4c-.84-.42-1.68-.84-2.51-1.27C192,191.56,192.8,192,193.64,192.4Z" transform="translate(-54.46 -24.61)"/><path class="cls-22" d="M171.45,187.43l-2.87,1.3Z" transform="translate(-54.46 -24.61)"/><path class="cls-22" d="M226.94,180l-2.52,1.27Z" transform="translate(-54.46 -24.61)"/><path class="cls-22" d="M229.41,178.8l-2.52,1.27Z" transform="translate(-54.46 -24.61)"/><path class="cls-22" d="M129.51,244.15l-1.28,2.53Z" transform="translate(-54.46 -24.61)"/><path class="cls-22" d="M133.21,234.28l-1.28,2.53Z" transform="translate(-54.46 -24.61)"/><path class="cls-22" d="M135.67,230.58c-.42.85-.84,1.69-1.27,2.53C134.83,232.27,135.25,231.43,135.67,230.58Z" transform="translate(-54.46 -24.61)"/><path class="cls-22" d="M136.9,228.12l-1.26,2.52Z" transform="translate(-54.46 -24.61)"/><path class="cls-22" d="M135.64,356.37c.42.85.84,1.69,1.27,2.53C136.48,358.06,136.06,357.22,135.64,356.37Z" transform="translate(-54.46 -24.61)"/><path class="cls-22" d="M172.68,186.19l-1.28,1.29Z" transform="translate(-54.46 -24.61)"/><path class="cls-22" d="M138.1,360.08l1.28,1.28Z" transform="translate(-54.46 -24.61)"/><path class="cls-22" d="M224.47,181.26l-1.28,1.28Z" transform="translate(-54.46 -24.61)"/><path class="cls-22" d="M134.45,233.05l-1.29,1.29Z" transform="translate(-54.46 -24.61)"/><path class="cls-22" d="M136.86,358.85c.43.42.86.85,1.28,1.28C137.72,359.7,137.29,359.27,136.86,358.85Z" transform="translate(-54.46 -24.61)"/><path class="cls-22" d="M134.25,356.44l1.43,0Z" transform="translate(-54.46 -24.61)"/><path class="cls-3" d="M548.8,157.94l-2.45.21Z" transform="translate(-54.46 -24.61)"/><path class="cls-25" d="M245.25,395.48c0,.94,0,1.87,0,2.8H202.69c2.31-5.21,4.14-9.55,6.21-13.77.31-.64,1.72-1.06,2.62-1.06,10.22-.08,20.44-.05,30.67-.05Z" transform="translate(-54.46 -24.61)"/><path class="cls-5" d="M243.85,366.28c3.18,2.36,9.55,3,5.07,9.47l-24.69.11-6.83-1.56,3.72-12.86c3.73,1.28,7.92,4.33,9.55-2.48l2.28.34Z" transform="translate(-54.46 -24.61)"/><path class="cls-19" d="M221.12,361.44,217.4,374.3l6.83,1.56h-12c2.08-5.59,3.72-10.31,5.67-14.9.25-.6,2.09-.53,3.19-.76C221.12,360.61,221.12,361,221.12,361.44Z" transform="translate(-54.46 -24.61)"/><path class="cls-20" d="M221.12,361.44c0-.41,0-.83,0-1.24.32-2.72,1.5-4.45,4.58-4l4.87,0,.09,2.74C229,365.77,224.85,362.72,221.12,361.44Z" transform="translate(-54.46 -24.61)"/><path class="cls-17" d="M208.38,434.1l9.93-1.27Z" transform="translate(-54.46 -24.61)"/><path class="cls-5" d="M281.28,346.52c-.79,6.62-4.69,8.62-10.88,7.43-2.94-.56-5.93-.89-8.91-1.32-.14-.15-.25-.37-.42-.43-13.59-4.7-13.59-4.7-4.5-15.45a3.57,3.57,0,0,0,1.09-.44c2.48,2.27,4.78,5.24,8.69,2.44,2.33,1.44,4.59,3,7,4.28S278.64,345.37,281.28,346.52Z" transform="translate(-54.46 -24.61)"/><path class="cls-24" d="M256.57,336.75c-9.09,10.75-9.09,10.75,4.5,15.45.17.06.28.28.42.43l-18.43-1.2c-.09-.77-.17-1.54-.26-2.32s-.05-1.77-.07-2.65c0-3.18.05-6.37.08-9.56Z" transform="translate(-54.46 -24.61)"/><path class="cls-24" d="M281.28,346.52c-2.64-1.15-5.36-2.17-7.91-3.49s-4.69-2.84-7-4.28l6-2.07c5.07.16,10.34,0,11.06,7Z" transform="translate(-54.46 -24.61)"/><path class="cls-19" d="M243.85,366.28l-10.9-7,10.21,1.06Z" transform="translate(-54.46 -24.61)"/><path class="cls-22" d="M242.8,349.11c.09.78.17,1.55.26,2.32l-.41,0-.4,0C242.44,350.65,242.62,349.88,242.8,349.11Z" transform="translate(-54.46 -24.61)"/><path class="cls-12" d="M687.75,186.26c1.63,0,3.49-.49,4.84.14s2.74,2.36,2.73,3.59a4.62,4.62,0,0,1-2.83,3.44,22.87,22.87,0,0,1-8.53,0c-1.64-.32-3.87-1.91-4.28-3.36-.94-3.36,1.55-4.07,4.38-3.9,1.23.07,2.46,0,3.69,0Z" transform="translate(-54.46 -24.61)"/><path class="cls-11" d="M503.37,179.14,501,177.81l.74-.89,1.72,2.1Z" transform="translate(-54.46 -24.61)"/><path class="cls-2" d="M275.3,248.25c0-1.32,0-2.64,0-3.95l44.12-.23c5.94,0,2.27,3.76,2.36,6.05-.83,1.7-1.65,3.41-2.47,5.11v0c-1.56,1.7-3.13,3.39-4.7,5.09l-31.2.18Z" transform="translate(-54.46 -24.61)"/><path class="cls-27" d="M314.63,260.3c1.57-1.7,3.14-3.39,4.7-5.09-2.78,8.17-5.47,16.38-8.4,24.5a47.87,47.87,0,0,1-3.14,6.41h-6.92c-.35-.82-.71-1.64-1.06-2.47,2.66-.52,6.83-.19,7.71-1.73,2.57-4.5,3.83-9.75,5.48-14.37H288.51c-.43-.78-.87-1.56-1.31-2.33,7.72,0,15.43-.07,23.14-.08C313.64,265.14,316,264.36,314.63,260.3Z" transform="translate(-54.46 -24.61)"/><path class="cls-8" d="M277.15,329.33l12.62-15.88c3.62.32,4.49,2.35,3.23,5.46-1.36,3.34-2.88,6.61-4.56,10.42Z" transform="translate(-54.46 -24.61)"/><path class="cls-27" d="M319.43,244.07l-44.12.23-.3-7.47,2.44.14c-.31,3.24.73,4.9,4.42,4.8,8.42-.21,16.83-.12,25.25,0,3.31,0,5-1.3,4.91-4.71l2.46-.37c-1,5.25,2.62,5.37,6.69,5Z" transform="translate(-54.46 -24.61)"/><path class="cls-20" d="M272.37,336.68l-6,2.07c-3.91,2.8-6.21-.17-8.69-2.44l2.58-6.9.39,0H261l11.42,6.33C272.42,336,272.4,336.36,272.37,336.68Z" transform="translate(-54.46 -24.61)"/><path class="cls-27" d="M291.08,335.47c-.25,1.8-.51,3.59-.76,5.39l-1.76-.5,2.43-5Z" transform="translate(-54.46 -24.61)"/><path class="cls-27" d="M291,335.39l1-4.24,1.59.76-2.53,3.56Z" transform="translate(-54.46 -24.61)"/><path class="cls-27" d="M319.32,255.23c.82-1.7,1.64-3.41,2.47-5.11C321,251.82,320.14,253.53,319.32,255.23Z" transform="translate(-54.46 -24.61)"/><path class="cls-27" d="M294.45,328l-.16.42-.47-.49.35-.31Z" transform="translate(-54.46 -24.61)"/><path class="cls-6" d="M312,237c.13,3.41-1.6,4.74-4.91,4.71-8.42-.08-16.83-.17-25.25,0-3.69.1-4.73-1.56-4.42-4.8Z" transform="translate(-54.46 -24.61)"/><path class="cls-8" d="M326.88,220.73l11-7.36,2.49,3.68c-.59.8-1,2-1.78,2.32a40.9,40.9,0,0,1-5.66,1.34Z" transform="translate(-54.46 -24.61)"/><path class="cls-19" d="M318.43,204.57c0,1.26,0,2.53,0,3.79-2.54.72-5.05,1.87-7.63,2-2,.13-4.16-.95-6.25-1.49.12-.76.23-1.52.35-2.28Z" transform="translate(-54.46 -24.61)"/><path class="cls-22" d="M196.26,201.47l-5.1,5.77c-1.83-1.63-3.63-3.31-5.51-4.88-6.18-5.12-9.14-5.43-14.91.13-6.31,6.1-12,12.88-17.9,19.36l-2.59,4.91c-7.11,4.77-9.59,12.35-12.1,19.91L137,251.53c-6.42,21.26-11.11,42.88-7.06,65.06,1.8,9.86,6.36,19.25,10,28.72,1.74,4.54,5.87,5.63,10.24,4.69a82.63,82.63,0,0,0,13.5-3.95c7.7-3.1,15-7.23,22.83-9.88,6.88-2.33,14.34-2.89,21.38-4.82,7.24-2,10.4-7.61,9-14.66-2.44-12.74-5.69-25.32-8.6-38,.06-.84.11-1.68.16-2.53q-.57-9.85-1.15-19.7c.3-1.17.59-2.35.89-3.52-.39-7.76-.22-15.61-1.41-23.24-.63-4-3.64-7.72-5.58-11.56l6-9.42,7.29,7.05c-.81,2.43-2.62,5-2.27,7.27,1.56,10,3.72,19.94,5.67,29.9l.6,2.13c3.35,15.67,5.66,31.45,4.85,47.56,0,.66.73,1.36,1.13,2-1.66,9.22-3.62,18.39-4.86,27.67-.72,5.44-2.3,8.89-8.3,10.22-20.16,4.49-40.27,9.21-60.26,14.4-5.89,1.53-9.45-.22-12.54-4.71-7.38-10.74-11-23-12.61-35.6-3.29-26-.52-51.66,10-75.74,4.36-10,11.32-18.93,18-27.69,4.65-6.14,10.86-11.07,16.2-16.71,4.17-4.4,8.45-5.08,13.67-1.79C187.79,197.27,192.1,199.25,196.26,201.47Z" transform="translate(-54.46 -24.61)"/><path class="cls-17" d="M224.53,304.71c-.4-.69-1.17-1.39-1.13-2,.81-16.11-1.5-31.89-4.85-47.56l4.46.37,3.81,2.38,1.24,1.2,3.74,2.54.77-1.61-4.34-1.1L227,257.66l-3.63-2.55L218,253c-1.95-10-4.11-19.88-5.67-29.9-.35-2.25,1.46-4.84,2.27-7.27l1.26,1.24,2.48,1.25,0,0,4.94,2.47h0c5.83,4.42,12,4.71,19.72,2l-13.59-2c-.56-2.3-.77-4.76-1.74-6.87-1.65-3.6-3.79-7-5.72-10.46.57-1.07,1.08-2.19,1.73-3.21,6.57-10.28,7.5-10.59,19.06-6.93a17.8,17.8,0,0,0,3.6.4l.09,25.85-1.8,1,1.39,1.36c-2.64,4.34-4.8,9.09-8.05,12.91-3.54,4.15-5.23,8-2.26,13,0,11.33-.24,22.66,0,34C236,291.48,233.77,299.73,224.53,304.71Z" transform="translate(-54.46 -24.61)"/><path class="cls-24" d="M244,304.75l6.15-14.95,32.09.11c.27.5.89,1.27.75,1.44-4.23,5.32-8.54,10.58-12.84,15.84-2.93-.36-5.85-.8-8.79-1.06C255.57,305.62,249.78,305.2,244,304.75Z" transform="translate(-54.46 -24.61)"/><path class="cls-24" d="M261,329.38h-.39l-.39,0-21.25,0-.28-.11,4.08-16.29,23.72-.89c-.9,2.66-1.83,5.31-2.69,8C262.85,323.22,262,326.3,261,329.38Z" transform="translate(-54.46 -24.61)"/><path class="cls-24" d="M251.29,282.38c1.07-3.91,2.17-7.82,3.21-11.74,1.38-5.19,5.18-5.5,8.3-2.75,5.42,4.77,10.06,10.42,15,15.7-2.25,0-4.49.08-6.72,0C264.5,283.2,257.89,282.77,251.29,282.38Z" transform="translate(-54.46 -24.61)"/><path class="cls-24" d="M288.51,267.55H313c-1.65,4.62-2.91,9.87-5.48,14.37-.88,1.54-5,1.21-7.71,1.73Z" transform="translate(-54.46 -24.61)"/><path class="cls-6" d="M266.51,312.17l-23.72.89,1.2-8.31c5.79.45,11.58.87,17.36,1.38,2.94.26,5.86.7,8.79,1.06Z" transform="translate(-54.46 -24.61)"/><path class="cls-27" d="M239,329.46l21.25,0-2.58,6.9a3.57,3.57,0,0,1-1.09.44l-13.76.15-6.84-.26q1.16-3.12,2.29-6.22Z" transform="translate(-54.46 -24.61)"/><path class="cls-6" d="M314.63,260.3c1.33,4.06-1,4.84-4.29,4.84-7.71,0-15.42.05-23.14.08l-3.77-4.74Z" transform="translate(-54.46 -24.61)"/><path class="cls-6" d="M251.29,282.38c6.6.39,13.21.82,19.82,1.17,2.23.12,4.47,0,6.72,0l4.27,5-31.83,0Z" transform="translate(-54.46 -24.61)"/><path class="cls-27" d="M250.27,288.58l31.83,0c0,.45.09.91.13,1.36l-32.09-.11A7.11,7.11,0,0,1,250.27,288.58Z" transform="translate(-54.46 -24.61)"/><path class="cls-22" d="M236,336.64l6.84.26c0,3.19-.05,6.38-.08,9.56l-6.62-3.17,6.17-2.07Z" transform="translate(-54.46 -24.61)"/><path class="cls-20" d="M239,329.46l-.73,1a.93.93,0,0,1,.45-1.07Z" transform="translate(-54.46 -24.61)"/><path class="cls-22" d="M246.28,193.71a17.8,17.8,0,0,1-3.6-.4c-11.56-3.66-12.49-3.35-19.06,6.93-.65,1-1.16,2.14-1.73,3.21l-6.06-4.83c2.33-2.52,4.58-5.12,7-7.53,8.94-8.9,14.88-8.82,24.16.23Z" transform="translate(-54.46 -24.61)"/><path class="cls-12" d="M246,221.91l-1.39-1.36,1.8-1C246.23,220.34,246.1,221.12,246,221.91Z" transform="translate(-54.46 -24.61)"/><path class="cls-17" d="M208.3,278.73c2.91,12.64,6.16,25.22,8.6,38,1.36,7.05-1.8,12.67-9,14.66-7,1.93-14.5,2.49-21.38,4.82-7.82,2.65-15.13,6.78-22.83,9.88a82.63,82.63,0,0,1-13.5,3.95c-4.37.94-8.5-.15-10.24-4.69-3.64-9.47-8.2-18.86-10-28.72-4-22.18.64-43.8,7.06-65.06l4.81,2-3.63-6.84c2.51-7.56,5-15.14,12.1-19.91-2.42,21,23.76,25.89,37.31,16.64-5.37.66-10.78,2.1-16.11,1.83-11.22-.58-22-6.32-17.82-21.28.16-.58-.51-1.39-.79-2.1,5.94-6.48,11.59-13.26,17.9-19.36,5.77-5.56,8.73-5.25,14.91-.13,1.88,1.57,3.68,3.25,5.51,4.88-.94,4.11-.88,8.89-3.08,12.13-2.54,3.75-.77,5.9.59,8.68l1.24.09h0l2.45-1.22h0l1.22-1.23h0l1.23-1.23h0l2.47-1.24v0l1.25-1.25,0,0,1.61-2-1.57-.49,2.63-1.38c1.94,3.84,4.95,7.51,5.58,11.56,1.19,7.63,1,15.48,1.41,23.24l-15.95,15.74-3.66,2.48c-2.07.88-4.16,1.7-6.19,2.66-8.44,4-17.17,7-26.64,6-4.37-.48-8.61-2.12-14.15-3.55,8.82,6.48,18.06,8,29.62,4.12,6.17-2.08,11.76-5.9,17.6-8.94l3.72-2.47,14.76-12.51q.57,9.84,1.15,19.7l-10.09,10.95c-2.52,1.23-5.14,2.31-7.56,3.72-10.57,6.21-21.74,10.71-34.19,9.9-5.38-.35-10.65-2.37-16-3.63l-.63-.49.5.62c3.35,1.83,6.52,4.77,10.06,5.3,18.34,2.77,34.18-3.28,48.08-15.09ZM198.46,307l-1.25,1.21L196,309.42l-1.58.54.38.71,1.4-1.05,1.23-1.23c.41-.42.82-.83,1.22-1.25l1.23-1.21,3.93-4.75-1.89-1.08q-1.12,2.82-2.23,5.64Zm-29.52-78.81a1.51,1.51,0,0,0,.21.4c.06.07.21.06.32.09l-.51-.51a1.62,1.62,0,0,0-.2-.42c-.06-.07-.2-.06-.31-.09Zm24.69,25.9,1.62-.48-.31-.47-1.34.93-1.23,1.22-1.63.48.32.48,1.34-.93Zm-55.5,17.24a1.83,1.83,0,0,0-.21-.42c-.06-.07-.21-.06-.32-.08l.51.52.49,1.64.48-.32Zm7.38-9.83,1.33.91.32-.47-1.61-.49-3.71-3.7-.49-1.62-.47.32.92,1.34Zm43.27,54.35,4.34-2.74-1.36-1.42-3.22,3.89-3.7,2.48c-15.74,5.29-30.83,14.15-48.58,8.24,9.06,7.35,36.69,2.57,48.84-8Zm-34.39-51,.28,1.16,24.68-3.45-.27-2Zm29.33-32.6-.09-1.22h-8.5l0,1.22Zm-1.76,27,.49,1,3-1.36-.53-1.12Zm-16.19-34.26.26-.84-.47.13Zm-15.69,38.21c0,.13,0,.32.09.38a1.35,1.35,0,0,0,.47.1l-.13-.65Z" transform="translate(-54.46 -24.61)"/><path class="cls-12" d="M229.35,220.78l13.59,2c-7.69,2.68-13.89,2.39-19.72-2Z" transform="translate(-54.46 -24.61)"/><path class="cls-12" d="M223.21,220.74l-4.94-2.47Z" transform="translate(-54.46 -24.61)"/><path class="cls-12" d="M198.58,219.55l1.57.49-1.61,2C198.55,221.18,198.57,220.37,198.58,219.55Z" transform="translate(-54.46 -24.61)"/><path class="cls-12" d="M197.32,223.2l-2.47,1.24Z" transform="translate(-54.46 -24.61)"/><path class="cls-12" d="M218.29,218.29,215.81,217Z" transform="translate(-54.46 -24.61)"/><path class="cls-12" d="M192.37,226.92l-2.45,1.22Z" transform="translate(-54.46 -24.61)"/><path class="cls-12" d="M189.91,228.14l-1.24-.09Z" transform="translate(-54.46 -24.61)"/><path class="cls-12" d="M193.61,225.68l-1.22,1.23Z" transform="translate(-54.46 -24.61)"/><path class="cls-12" d="M198.56,222l-1.25,1.25Z" transform="translate(-54.46 -24.61)"/><path class="cls-12" d="M194.85,224.45l-1.23,1.23Z" transform="translate(-54.46 -24.61)"/><path class="cls-4" d="M152.84,221.85c.28.71.95,1.52.79,2.1-4.15,15,6.6,20.7,17.82,21.28,5.33.27,10.74-1.17,16.11-1.83-13.55,9.25-39.73,4.36-37.31-16.64Z" transform="translate(-54.46 -24.61)"/><path class="cls-4" d="M207.31,256.49,192.55,269l-.3-.29L208.2,253C207.9,254.14,207.61,255.32,207.31,256.49Z" transform="translate(-54.46 -24.61)"/><path class="cls-4" d="M198.37,287.14l10.09-10.95c-.05.85-.1,1.69-.16,2.53l-9.65,8.75Z" transform="translate(-54.46 -24.61)"/><path class="cls-12" d="M138.15,246.67l3.63,6.84-4.81-2Q137.56,249.1,138.15,246.67Z" transform="translate(-54.46 -24.61)"/><path class="cls-4" d="M218,253l5.43,2.14-.37.36-4.46-.37Z" transform="translate(-54.46 -24.61)"/><path class="cls-4" d="M228.24,258.88l4.33,1.1-.77,1.61-3.74-2.54Z" transform="translate(-54.46 -24.61)"/><path class="cls-4" d="M226.82,257.85,223,255.47l.37-.36,3.63,2.55Z" transform="translate(-54.46 -24.61)"/><path class="cls-4" d="M227,257.66l1.22,1.22-.17.17-1.24-1.2Z" transform="translate(-54.46 -24.61)"/><path class="cls-4" d="M140.65,297.13c5.32,1.26,10.59,3.28,16,3.63,12.45.81,23.62-3.69,34.19-9.9,2.42-1.41,5-2.49,7.56-3.72l.28.33c-13.89,11.81-29.73,17.86-48.07,15.09-3.54-.53-6.71-3.47-10.06-5.3Z" transform="translate(-54.46 -24.61)"/><path class="cls-4" d="M185.1,318.29c-12.15,10.55-39.78,15.33-48.84,8,17.75,5.91,32.84-2.95,48.58-8.24Z" transform="translate(-54.46 -24.61)"/><path class="cls-4" d="M188.83,271.48c-5.84,3-11.43,6.85-17.6,8.93-11.56,3.88-20.8,2.36-29.62-4.12,5.54,1.43,9.78,3.07,14.15,3.55,9.47,1,18.2-2,26.64-6,2-1,4.12-1.78,6.19-2.66Z" transform="translate(-54.46 -24.61)"/><path class="cls-12" d="M154.39,264.81l24.69-4.29.27,2L154.67,266Z" transform="translate(-54.46 -24.61)"/><path class="cls-12" d="M183.72,232.21h-8.55l0-1.22h8.5Z" transform="translate(-54.46 -24.61)"/><path class="cls-4" d="M199.66,305.74l2.24-5.64,1.89,1.08-3.93,4.75Z" transform="translate(-54.46 -24.61)"/><path class="cls-4" d="M188.54,315.55l3.22-3.89,1.36,1.42-4.34,2.74Z" transform="translate(-54.46 -24.61)"/><path class="cls-12" d="M141.85,257.72l3.7,3.7,0,.05-3.71-3.71Z" transform="translate(-54.46 -24.61)"/><path class="cls-12" d="M182,259.2l2.94-1.49.53,1.12-3,1.36Z" transform="translate(-54.46 -24.61)"/><path class="cls-4" d="M188.78,315.82l-3.68,2.47-.26-.26,3.7-2.48Z" transform="translate(-54.46 -24.61)"/><path class="cls-4" d="M188.59,271.19l3.66-2.48.3.29-3.72,2.47Z" transform="translate(-54.46 -24.61)"/><path class="cls-12" d="M165.77,224.94l-.21-.71.47-.13Z" transform="translate(-54.46 -24.61)"/><path class="cls-4" d="M138.13,271.3l1,1.34-.48.32-.49-1.64Z" transform="translate(-54.46 -24.61)"/><path class="cls-12" d="M150.08,263.15l.43-.17.13.65a1.35,1.35,0,0,1-.47-.1C150.09,263.47,150.1,263.28,150.08,263.15Z" transform="translate(-54.46 -24.61)"/><path class="cls-12" d="M145.55,261.42l1.61.49-.32.47-1.33-.91Z" transform="translate(-54.46 -24.61)"/><path class="cls-4" d="M196.18,309.62l-1.4,1.05-.38-.71,1.58-.54Z" transform="translate(-54.46 -24.61)"/><path class="cls-12" d="M192.4,255.29l-1.34.93-.32-.48,1.63-.48Z" transform="translate(-54.46 -24.61)"/><path class="cls-12" d="M141.8,257.76l-.92-1.34.47-.32c.17.54.33,1.08.5,1.62Z" transform="translate(-54.46 -24.61)"/><path class="cls-12" d="M193.6,254l1.34-.93.31.47-1.62.48Z" transform="translate(-54.46 -24.61)"/><path class="cls-4" d="M140.52,297.26l-.5-.62.63.49Z" transform="translate(-54.46 -24.61)"/><path class="cls-4" d="M138.11,271.32l-.51-.52c.11,0,.26,0,.32.08a1.83,1.83,0,0,1,.21.42Z" transform="translate(-54.46 -24.61)"/><path class="cls-12" d="M168.94,228.16l-.49-.53c.11,0,.25,0,.31.09a1.62,1.62,0,0,1,.2.42Z" transform="translate(-54.46 -24.61)"/><path class="cls-12" d="M169,228.14l.51.51c-.11,0-.26,0-.32-.09a1.51,1.51,0,0,1-.21-.4Z" transform="translate(-54.46 -24.61)"/><path class="cls-12" d="M193.63,254.06l-1.23,1.23,0,0L193.6,254Z" transform="translate(-54.46 -24.61)"/><path class="cls-4" d="M196,309.42l1.23-1.24.21.21-1.24,1.23Z" transform="translate(-54.46 -24.61)"/><path class="cls-4" d="M198.63,307.15c-.4.41-.81.82-1.21,1.24l-.21-.21,1.25-1.21Z" transform="translate(-54.46 -24.61)"/><path class="cls-4" d="M199.86,305.93l-1.23,1.21-.17-.17,1.21-1.23Z" transform="translate(-54.46 -24.61)"/></g></g></svg>