<?xml version="1.0" encoding="utf-8"?>
<!-- Generator: Adobe Illustrator 24.0.1, SVG Export Plug-In . SVG Version: 6.00 Build 0)  -->
<svg version="1.1" xmlns="http://www.w3.org/2000/svg" xmlns:xlink="http://www.w3.org/1999/xlink" x="0px" y="0px"
	 viewBox="0 0 3710 3710" style="enable-background:new 0 0 3710 3710;" xml:space="preserve">
<style type="text/css">
	.st0{fill:#FFFFFF;}
	.st1{fill:#F4F7FA;}
	.st2{opacity:0.3;}
	.st3{clip-path:url(#SVGID_3_);}
	.st4{opacity:0.5;}
	.st5{clip-path:url(#SVGID_6_);}
	.st6{fill:#D8DEE8;}
	.st7{fill:url(#SVGID_7_);}
	.st8{opacity:0.2;fill:#B7C0CE;}
	.st9{fill:url(#SVGID_8_);}
	.st10{fill:url(#SVGID_9_);}
	.st11{fill:url(#SVGID_10_);}
	.st12{fill:url(#SVGID_11_);}
	.st13{fill:url(#SVGID_12_);}
	.st14{fill:url(#SVGID_13_);}
	.st15{fill:url(#SVGID_14_);}
	.st16{fill:url(#SVGID_15_);}
	.st17{opacity:0.5;fill:#FFFFFF;}
	.st18{fill:url(#SVGID_16_);}
	.st19{fill:url(#SVGID_17_);}
	.st20{fill:url(#SVGID_18_);}
	.st21{fill:url(#SVGID_19_);}
	.st22{fill:#97A6B7;}
	.st23{opacity:0.74;fill:#FFFFFF;}
	.st24{opacity:0.3;fill:#97A6B7;}
	.st25{fill:url(#SVGID_20_);}
	.st26{fill:url(#SVGID_21_);}
	.st27{fill:url(#SVGID_22_);}
	.st28{fill:url(#SVGID_23_);}
	.st29{fill:url(#SVGID_24_);}
	.st30{fill:url(#SVGID_25_);}
	.st31{opacity:0.3;fill:url(#SVGID_26_);}
	.st32{fill:url(#SVGID_27_);}
	.st33{opacity:0.15;fill:url(#SVGID_28_);}
	.st34{fill:url(#SVGID_29_);}
	.st35{fill:url(#SVGID_30_);}
	.st36{fill:url(#SVGID_31_);}
	.st37{fill:url(#SVGID_32_);}
	.st38{fill:url(#SVGID_33_);}
	.st39{opacity:0.15;fill:url(#SVGID_34_);}
	.st40{fill:url(#SVGID_35_);}
	.st41{fill:url(#SVGID_36_);}
	.st42{fill:url(#SVGID_37_);}
	.st43{fill:url(#SVGID_38_);}
	.st44{fill:url(#SVGID_39_);}
	.st45{fill:url(#SVGID_40_);}
	.st46{fill:url(#SVGID_41_);}
	.st47{opacity:0.3;fill:url(#SVGID_42_);}
	.st48{fill:url(#SVGID_43_);}
	.st49{fill:url(#SVGID_44_);}
	.st50{opacity:0.3;fill:url(#SVGID_45_);}
	.st51{fill:url(#SVGID_46_);}
	.st52{fill:url(#SVGID_47_);}
	.st53{fill:url(#SVGID_48_);}
	.st54{fill:url(#SVGID_49_);}
	.st55{fill:url(#SVGID_50_);}
	.st56{fill:url(#SVGID_51_);}
	.st57{fill:url(#SVGID_52_);}
	.st58{enable-background:new    ;}
	.st59{fill:url(#SVGID_53_);}
	.st60{fill:url(#SVGID_54_);}
	.st61{fill:url(#SVGID_55_);}
	.st62{fill:url(#SVGID_56_);}
	.st63{fill:url(#SVGID_57_);}
	.st64{fill:url(#SVGID_58_);}
	.st65{fill:url(#SVGID_59_);}
	.st66{fill:url(#SVGID_60_);}
	.st67{opacity:0.45;fill:url(#SVGID_61_);}
	.st68{opacity:0.3;fill:url(#SVGID_62_);}
	.st69{fill:url(#SVGID_63_);}
	.st70{fill:#7C346F;}
	.st71{fill:url(#SVGID_64_);}
	.st72{fill:url(#SVGID_65_);}
	.st73{fill:url(#SVGID_66_);}
	.st74{opacity:0.3;fill:url(#SVGID_67_);}
	.st75{fill:url(#SVGID_68_);}
	.st76{fill:url(#SVGID_69_);}
	.st77{fill:url(#SVGID_70_);}
	.st78{fill:url(#SVGID_71_);}
	.st79{fill:url(#SVGID_72_);}
	.st80{fill:url(#SVGID_73_);}
	.st81{fill:url(#SVGID_74_);}
	.st82{fill:url(#SVGID_75_);}
	.st83{fill:url(#SVGID_76_);}
	.st84{fill:url(#SVGID_77_);}
	.st85{fill:url(#SVGID_78_);}
	.st86{fill:url(#SVGID_79_);}
	.st87{fill:url(#SVGID_80_);}
	.st88{fill:url(#SVGID_81_);}
	.st89{fill:url(#SVGID_82_);}
	.st90{fill:url(#SVGID_83_);}
	.st91{fill:url(#SVGID_84_);}
	.st92{fill:url(#SVGID_85_);}
	.st93{opacity:0.3;fill:#FFFFFF;}
	.st94{fill:url(#SVGID_86_);}
</style>
<g id="Background">
	<g>
		<g>
			<rect class="st0" width="3710" height="3710"/>
		</g>
	</g>
</g>
<g id="Illustration">
	<g>
		<path class="st1" d="M1898.3,514.1C1185.5,493.4,568,1003.5,474.7,1672.8c-102,731.8,459.4,1390.3,1150.2,1495.7
			c859.2,131.2,1692.6-627.7,1617.8-1450.9C3186.3,1097.3,2623,535.2,1898.3,514.1z"/>
		<g>
			<g>
				<g class="st2">
					<defs>
						<path id="SVGID_1_" class="st2" d="M2051.8,2888.3c-97.4-119.2-221.8-308.2-256.4-556.8c-45.4-326,103.3-468,159.5-1002.3
							c35.5-337.8,56.9-574-96.1-722.1C1738.8,491.2,1526.1,443,1383.3,517c-118.7,61.5-202.9,214.5-237.4,327.1
							c-28.1,91.8-24.6,161.6-85.2,203.9c-62,43.2-117.9,6.7-174.6,37.3c-114.9,62-87.5,321.5-83.1,363.4
							c49.2,466.5,425.3,826.5,591.2,981.6C1531.5,2558.4,1746.8,2733.6,2051.8,2888.3z"/>
					</defs>
					<linearGradient id="SVGID_2_" gradientUnits="userSpaceOnUse" x1="959.436" y1="-201.3359" x2="1892.5342" y2="2785.9744">
						<stop  offset="0" style="stop-color:#FCB148"/>
						<stop  offset="5.207239e-02" style="stop-color:#FDBA46"/>
						<stop  offset="0.1424" style="stop-color:#FFC244"/>
						<stop  offset="0.3183" style="stop-color:#FFC444"/>
						<stop  offset="0.4849" style="stop-color:#FDB946"/>
						<stop  offset="0.7754" style="stop-color:#F99C4D"/>
						<stop  offset="0.8658" style="stop-color:#F8924F"/>
						<stop  offset="1" style="stop-color:#F8924F"/>
					</linearGradient>
					<use xlink:href="#SVGID_1_"  style="overflow:visible;fill:url(#SVGID_2_);"/>
					<clipPath id="SVGID_3_">
						<use xlink:href="#SVGID_1_"  style="overflow:visible;"/>
					</clipPath>
					<g class="st3">
						<path class="st0" d="M2168.5,2987.6c-184.1-99.4-339.4-209.4-461.4-327c-180.5-174-282.7-359.9-303.6-552.5
							c-16.4-150.7,17.9-307.2,61.2-505.3c35.9-164.3,76.2-277.3,111.7-377.1c46.1-129.4,82.5-231.7,87.1-385.9
							c4.7-156.7-25.9-317.2-91-477l6.3-2.6c65.4,160.7,96.2,322.1,91.5,479.7c-4.6,155.3-41.2,258-87.4,388
							c-35.5,99.6-75.6,212.5-111.5,376.3c-44.9,205.3-77.4,353.6-61.1,503.1c20.8,191,122.2,375.5,301.6,548.3
							c121.6,117.2,276.3,226.8,459.9,325.9L2168.5,2987.6z"/>
						<path class="st0" d="M1494.7,1486.8l-0.6-3.8c-49.7-312.7-185.7-522.3-291.1-643.1c-114-130.7-217.5-188.2-218.5-188.8l3.3-6
							c1,0.6,105.6,58.6,220.4,190.3c105.5,120.9,241.5,330.4,292,642.6c20.7-6.6,125.3-42.9,236.8-130.9
							c72.7-57.4,134.2-125.3,182.6-201.9c60.5-95.6,100.7-205.1,119.6-325.3l6.7,1.1c-19,121.2-59.6,231.6-120.7,328
							c-48.9,77.2-110.8,145.7-184.2,203.6c-125,98.6-241.4,132.7-242.6,133.1L1494.7,1486.8z"/>
						<path class="st0" d="M1409,1932.1l-2.3-1c-77.3-34.3-156.9-109.2-236.6-222.7c-63.6-90.5-127.5-205.8-189.8-342.5
							c-106.1-232.6-172-449.8-172.6-452l6.5-2c0.7,2.2,66.4,219,172.3,451.2c97.2,213,248.9,482.7,420.8,560.7
							c15.7-17.3,139.9-151.8,289.4-264.1c83.7-62.8,215-93.3,310.5-107.8c103.2-15.7,187.9-16.6,188.8-16.6l0.1,6.8
							c-0.8,0-85.1,0.9-187.9,16.5c-94.6,14.4-224.8,44.5-307.3,106.5c-158.8,119.2-288.8,263.6-290.1,265L1409,1932.1z"/>
						<path class="st0" d="M1661.4,2609.9l-6.6-1.6c-1.6-0.4-164.6-41.8-370.7-144.6c-190.2-94.9-457.2-263.1-648.7-525.2
							l-370-506.4l5.5-4l370,506.4c190.7,261,456.7,428.5,646.3,523.1c182.2,90.9,330.5,133.6,362.8,142.4
							c-35.6-89.8-41.2-179.3-16.7-266c20-70.9,60.1-140.2,119.1-205.8c100.3-111.5,222.4-174.8,223.6-175.4l3.1,6.1
							c-1.2,0.6-122.3,63.4-221.8,174c-58.3,64.8-97.8,133.1-117.5,203c-24.6,87.3-18.2,177.4,19.1,267.8L1661.4,2609.9z"/>
					</g>
				</g>
			</g>
			<g>
				<g class="st4">
					<defs>
						<path id="SVGID_4_" class="st4" d="M1920.6,2770.5c-213.5,37.9-490.1,51.6-767.9-38.3c-70.9-22.9-508.8-164.7-486.8-386
							c7.7-78,66-100,77.9-204c14.1-123.3-58.6-171.3-122.4-311.1c-38-83.4-149.4-327.6-31.5-493.3c70.4-99,219.6-165.5,340.8-154.2
							c177.8,16.5,260.8,196.9,396.6,505c120.4,273.1,107.5,347.4,197.2,542.3C1591.2,2375.5,1706.8,2570.6,1920.6,2770.5z"/>
					</defs>
					<linearGradient id="SVGID_5_" gradientUnits="userSpaceOnUse" x1="1115.1747" y1="2085.0383" x2="443.0476" y2="2365.958">
						<stop  offset="3.597120e-03" style="stop-color:#E38DDD"/>
						<stop  offset="1" style="stop-color:#9571F6"/>
					</linearGradient>
					<use xlink:href="#SVGID_4_"  style="overflow:visible;fill:url(#SVGID_5_);"/>
					<clipPath id="SVGID_6_">
						<use xlink:href="#SVGID_4_"  style="overflow:visible;"/>
					</clipPath>
					<g class="st5">
						<path class="st0" d="M2279.9,2826.3c-37.8,0-75.5-1.9-113.1-5.7c-298.3-30.2-572.8-184-816.1-457.2
							c-252.9-284-408.6-626-494.7-862.8c-59.9-164.9-76.3-355.7-48.5-567.3l6.8,0.9c-27.6,210.5-11.4,400.3,48.2,564.1
							c85.9,236.3,241.3,577.4,493.4,860.6c242.1,271.9,515.2,425,811.7,455c37.3,3.8,74.8,5.7,112.4,5.7
							c186.3,0,375-46.4,562.5-138.4l3,6.1C2657,2779.6,2467.2,2826.2,2279.9,2826.3z"/>
						<path class="st0" d="M1069.1,1960.2l-3-1.6c-502.7-260.4-546.7-650.3-548.2-763.6c0-2.1-0.1-4-0.1-4.5l6.8-0.9
							c0.1,0.8,0.1,2.1,0.2,5.3c1.5,112.1,45,497.3,541.5,756c8.6-17.2,51-105.9,79.8-229.1c29.5-126.2,50.1-315.5-18.6-500.5
							l6.4-2.4c69.4,186.7,48.5,377.4,18.8,504.6c-32.2,137.7-81.4,232.6-81.9,233.6L1069.1,1960.2z"/>
						<path class="st0" d="M1035,2416.8c-9.3,0-18.5-0.2-27.6-0.5c-85.3-3.2-165.1-21.1-237.2-53.2
							c-122.9-54.7-181.7-133-182.3-133.8l5.5-4.1c0.6,0.8,58.5,77.9,180,131.8c71.3,31.7,150.2,49.3,234.6,52.4
							c105,3.9,218.9-14.9,338.3-55.8c6.6-25.8,81.7-333.6,7.6-717.1l-78.1-404.2l6.7-1.3l78.1,404.2
							c77.4,400.3-7.3,718.7-8.1,721.9l-0.5,1.7l-1.7,0.6C1239.5,2397.6,1133.7,2416.8,1035,2416.8z"/>
					</g>
				</g>
			</g>
		</g>
		<g>
			<g>
				<polygon class="st0" points="1682.9,2874.1 2674.7,2965.1 2674.7,1307.2 1574.6,1345 				"/>
				<polygon class="st6" points="1360.1,2843.9 1851.5,2892 1851.5,1386.1 1360.1,1401 				"/>
				
					<linearGradient id="SVGID_7_" gradientUnits="userSpaceOnUse" x1="254.646" y1="2113.2197" x2="-125.0271" y2="2129.3074" gradientTransform="matrix(-1 0 0 1 1531.8922 0)">
					<stop  offset="0.494" style="stop-color:#EBEFF2"/>
					<stop  offset="1" style="stop-color:#FFFFFF"/>
				</linearGradient>
				<polygon class="st7" points="1368.3,2844.5 1842.4,2887.9 1842.4,1386.4 1368.3,1400.8 				"/>
				<polygon class="st8" points="1368.3,1431.4 1842.4,1418.5 1842.4,1386.4 1368.3,1400.8 				"/>
				<g>
					<g>
						
							<linearGradient id="SVGID_8_" gradientUnits="userSpaceOnUse" x1="-1047.8853" y1="1432.6699" x2="-866.7008" y2="2924.2869" gradientTransform="matrix(-1 0 0 1 1531.8922 0)">
							<stop  offset="3.597120e-03" style="stop-color:#E38DDD"/>
							<stop  offset="1" style="stop-color:#9571F6"/>
						</linearGradient>
						<polygon class="st9" points="2395,2337.7 2655,2352.7 2655,1408.6 2395,1415.3 						"/>
						
							<linearGradient id="SVGID_9_" gradientUnits="userSpaceOnUse" x1="-779.945" y1="1399.1971" x2="-603.2598" y2="2853.7747" gradientTransform="matrix(-1 0 0 1 1531.8922 0)">
							<stop  offset="3.597120e-03" style="stop-color:#E38DDD"/>
							<stop  offset="1" style="stop-color:#9571F6"/>
						</linearGradient>
						<polygon class="st10" points="2129.7,2322.5 2377.3,2336.7 2377.3,1415.7 2129.7,1422.1 						"/>
						
							<linearGradient id="SVGID_10_" gradientUnits="userSpaceOnUse" x1="-524.6438" y1="1367.3357" x2="-352.2397" y2="2786.6682" gradientTransform="matrix(-1 0 0 1 1531.8922 0)">
							<stop  offset="3.597120e-03" style="stop-color:#E38DDD"/>
							<stop  offset="1" style="stop-color:#9571F6"/>
						</linearGradient>
						<polygon class="st11" points="1876.8,2307.9 2112.9,2321.5 2112.9,1422.5 1876.8,1428.5 						"/>
					</g>
				</g>
				
					<linearGradient id="SVGID_11_" gradientUnits="userSpaceOnUse" x1="-139.1982" y1="2177.3616" x2="125.5662" y2="2700.1021" gradientTransform="matrix(-1 0 0 1 1531.8922 0)">
					<stop  offset="0.494" style="stop-color:#EBEFF2"/>
					<stop  offset="1" style="stop-color:#FFFFFF"/>
				</linearGradient>
				<polygon class="st12" points="1400.4,2507.6 1807.5,2536.7 1807.5,2095.1 1400.4,2083.1 				"/>
				<g class="st2">
					
						<linearGradient id="SVGID_12_" gradientUnits="userSpaceOnUse" x1="-1123.0691" y1="1660.5691" x2="-344.9474" y2="1660.5691" gradientTransform="matrix(-1 0 0 1 1531.8922 0)">
						<stop  offset="3.597120e-03" style="stop-color:#E38DDD"/>
						<stop  offset="1" style="stop-color:#9571F6"/>
					</linearGradient>
					<polygon class="st13" points="1876.8,1677.2 2655,1675.6 2655,1643.9 1876.8,1647.7 					"/>
					
						<linearGradient id="SVGID_13_" gradientUnits="userSpaceOnUse" x1="-1123.0691" y1="1897.2258" x2="-344.9474" y2="1897.2258" gradientTransform="matrix(-1 0 0 1 1531.8922 0)">
						<stop  offset="3.597120e-03" style="stop-color:#E38DDD"/>
						<stop  offset="1" style="stop-color:#9571F6"/>
					</linearGradient>
					<polygon class="st14" points="1876.8,1904.4 2655,1919.5 2655,1887.9 1876.8,1874.9 					"/>
					
						<linearGradient id="SVGID_14_" gradientUnits="userSpaceOnUse" x1="-1123.0691" y1="2132.7986" x2="-344.9474" y2="2132.7986" gradientTransform="matrix(-1 0 0 1 1531.8922 0)">
						<stop  offset="3.597120e-03" style="stop-color:#E38DDD"/>
						<stop  offset="1" style="stop-color:#9571F6"/>
					</linearGradient>
					<polygon class="st15" points="1876.8,2131.7 2655,2163.4 2655,2131.8 1876.8,2102.2 					"/>
				</g>
				<g>
					<polygon class="st6" points="1610.4,2522.6 1775.9,2534.4 1775.9,2148.7 1610.4,2142.9 					"/>
					<polygon class="st6" points="1429.8,2509.7 1589.6,2521.1 1589.6,2142.2 1429.8,2136.7 					"/>
				</g>
				<g>
					<polygon class="st0" points="1876.8,1655.8 2675.8,1652.5 2675.8,1620.8 1876.8,1626.3 					"/>
					<polygon class="st0" points="1876.8,1883 2675.8,1896.8 2675.8,1865.1 1876.8,1853.5 					"/>
					<polygon class="st0" points="1876.8,2110.2 2675.8,2141.2 2675.8,2109.5 1876.8,2080.7 					"/>
				</g>
				
					<linearGradient id="SVGID_15_" gradientUnits="userSpaceOnUse" x1="-593.7086" y1="1199.2064" x2="-593.7086" y2="1543.2518" gradientTransform="matrix(-1 0 0 1 1531.8922 0)">
					<stop  offset="0.494" style="stop-color:#EBEFF2"/>
					<stop  offset="1" style="stop-color:#FFFFFF"/>
				</linearGradient>
				<polygon class="st16" points="1575.4,1368.9 2675.8,1336 2675.8,1282.3 1575.4,1324.3 				"/>
				<polygon class="st0" points="1557.8,1340.4 2701.4,1300 2701.4,1277.1 1557.8,1324.7 				"/>
				<g>
					<path class="st17" d="M1499,2185.7c40.7,3.9,67.1,20.8,90.6,39v296.3l-159.8-11.4v-314.1
						C1449.1,2187.4,1471.5,2183.1,1499,2185.7z"/>
					<path class="st17" d="M1705.4,2278.4c24.9-0.6,48.5-7.2,70.5-17.6v273.6l-165.5-11.8v-281.2
						C1635.9,2261.7,1662,2279.4,1705.4,2278.4z"/>
				</g>
				<g>
					<path class="st17" d="M1949.9,2026c103.1-141.3,84.8-238.5,163-279.9v575.4l-236.1-13.6v-193.7
						C1908.4,2082.7,1933.3,2048.7,1949.9,2026z"/>
					<path class="st17" d="M2355.6,1775c7.6-2.4,14.8-5.2,21.7-8.5v570.3l-247.6-14.2v-583.6C2207.7,1713,2255.4,1806,2355.6,1775z"
						/>
					<path class="st17" d="M2611.5,1495.8c12.9-5,27.3-8.1,43.5-8.3v865.2l-260-14.9v-581.2
						C2493.1,1693,2510.2,1534.9,2611.5,1495.8z"/>
				</g>
				<rect x="1850.9" y="1406.5" class="st6" width="14.7" height="1485.5"/>
			</g>
			<g>
				
					<linearGradient id="SVGID_16_" gradientUnits="userSpaceOnUse" x1="-924.5443" y1="1881.9539" x2="-1598.3092" y2="2145.4556" gradientTransform="matrix(-1 0 0 1 1531.8922 0)">
					<stop  offset="0.494" style="stop-color:#EBEFF2"/>
					<stop  offset="1" style="stop-color:#FFFFFF"/>
				</linearGradient>
				<polygon class="st18" points="3154.1,1356.3 2675,1296.2 2675,2765.9 3154.1,2584.8 				"/>
				<g>
					<polygon class="st6" points="3017.7,2878.9 3136.5,2845.1 3136.5,1429.3 3017.7,1419.3 					"/>
					<polygon class="st6" points="2872.1,2920.4 3008.9,2881.4 3008.9,1418.6 2872.1,1407.1 					"/>
					<polygon class="st6" points="2702.7,2968.6 2861.9,2923.3 2861.9,1406.3 2702.7,1392.9 					"/>
				</g>
			</g>
			
				<linearGradient id="SVGID_17_" gradientUnits="userSpaceOnUse" x1="-1643.5389" y1="1309.6514" x2="-1169.5356" y2="1309.6514" gradientTransform="matrix(-1 0 0 1 1531.8922 0)">
				<stop  offset="0" style="stop-color:#FFFFFF"/>
				<stop  offset="0.506" style="stop-color:#EBEFF2"/>
			</linearGradient>
			<polygon class="st19" points="3175.4,1358.4 2701.4,1296.2 2701.4,1260.9 3175.4,1328.4 			"/>
			<polygon class="st6" points="3175.4,1359 3154.1,1364.7 2674.7,1303.7 2701.4,1296.2 			"/>
			<path class="st0" d="M1846.9,2582c0,0.9,0,1.9,0,2.8c0,4.7,7.2,4.7,7.2,0c0-0.9,0-1.9,0-2.8
				C1854.2,2577.4,1846.9,2577.4,1846.9,2582L1846.9,2582z"/>
			<linearGradient id="SVGID_18_" gradientUnits="userSpaceOnUse" x1="1638.4484" y1="1104.7225" x2="2675.8245" y2="1104.7225">
				<stop  offset="0.494" style="stop-color:#EBEFF2"/>
				<stop  offset="1" style="stop-color:#FFFFFF"/>
			</linearGradient>
			<polygon class="st20" points="1638.4,1317.4 1638.4,963.8 2674.7,892.1 2675.8,1281.7 			"/>
			<polygon class="st6" points="2674.7,892.1 3136.5,1022.5 3136.5,1332.9 2675.8,1281.7 			"/>
			<polygon class="st6" points="1807.5,1985.9 1409.2,1976.1 1409.2,1447 1807.5,1439.8 			"/>
			<linearGradient id="SVGID_19_" gradientUnits="userSpaceOnUse" x1="310.1952" y1="1559.7731" x2="3723.0449" y2="789.9594">
				<stop  offset="3.597120e-03" style="stop-color:#E38DDD"/>
				<stop  offset="1" style="stop-color:#9571F6"/>
			</linearGradient>
			<polygon class="st21" points="1693.1,1022.8 2633.7,954 2633.7,1260.7 1692.7,1299.6 			"/>
			<path class="st17" d="M2158.9,1205.1c-59.8,11.4-107.7,41.4-147.7,81.4l622.5-25.7v-135.1c-56.3,40.1-122,67.6-191.1,79.4
				C2348,1218.1,2256.8,1185.5,2158.9,1205.1z"/>
		</g>
		<g>
			<path class="st22" d="M1017.5,1597.5l1078.5,7.4c24.2,0.4,42.2,27.7,39.1,49.5l-186,1330.3c-4.2,30.2-36.4,35.3-60.2,32.1
				L838.7,2876.1c-19.7-2.6-33.3-20.8-30.6-40.5l168.2-1202.9C979.2,1613,997.6,1597.2,1017.5,1597.5z"/>
			<path class="st6" d="M1001,1585.6l1080.2,16.7c24.2,0.4,41.4,18.5,38.4,40.5L1932,2984c-3.1,22-24.9,37.2-48.8,34L820.7,2874.6
				c-19.7-2.7-33.3-20.9-30.5-40.8L959.8,1621C962.6,1601.1,981,1585.3,1001,1585.6z"/>
			<path class="st23" d="M1885.8,2999.7c12.9,1.7,24.7-6.5,26.3-18.4l187.3-1339c1.7-11.9-7.6-21.7-20.7-21.9l-1080-18.3
				c-10.8-0.2-20.8,8.4-22.3,19.2L806.5,2835.9c-1.5,10.7,5.9,20.6,16.5,22.1L1885.8,2999.7z"/>
			<polygon class="st0" points="898.6,2827.9 1808.3,2945.9 1981.5,1707.5 1058.5,1685 			"/>
			<path class="st24" d="M1429.6,1713.8l364.9,26.7l3.1-80.9c0.8-10.5-5.6-19.5-15.5-21.7l-60.2-13.2c-7.1-1.6-12.7-6.7-14.9-13.6
				l-4.7-14.7l-163.3-0.5L1429.6,1713.8z"/>
			
				<linearGradient id="SVGID_20_" gradientUnits="userSpaceOnUse" x1="4880.1006" y1="1580.072" x2="5462.335" y2="1580.072" gradientTransform="matrix(-1 0 -0.1393 0.9963 6915.5205 16.7562)">
				<stop  offset="0" style="stop-color:#444B8C"/>
				<stop  offset="0.9964" style="stop-color:#26264F"/>
			</linearGradient>
			<path class="st25" d="M1215,1721.3c-2,5.9,2.4,12.2,8.7,12.4l560.8,15.5c6.9,0.2,11.7-6.2,9.4-12.5l-27.9-77.1
				c-3.5-9.7-12.9-16.3-23.4-16.5l-64.2-1.2c-28.6-0.5-52.7-21.9-56-49.5l-7.7-63.9c-1.4-11.8-11.7-20.8-23.8-20.9l-20-0.1
				c-10.5-0.1-20.3-6-25-15.9c-1.7-3.5-2.5-7.4-2.5-11.3c-0.3-26.2-22-47.4-48.5-47.4c-26.3,0-47.4,20.9-47.4,46.8
				c0,14.8-11.6,26.9-26.5,26.7l-19.5-0.1c-11.7-0.1-21.4,8.6-22.6,20.1l-6.4,62.4c-2.8,26.9-25.4,46.9-52.4,46.4l-59.6-1.1
				c-9.6-0.2-18.1,5.8-21.2,14.9L1215,1721.3z M1481.2,1473.2c-0.1-7.7,6.2-13.8,13.9-13.8c7.8,0,14.1,6.3,14.2,13.9
				c0.1,7.7-6.2,13.9-14,13.8C1487.5,1487.1,1481.2,1480.8,1481.2,1473.2z"/>
			<path class="st22" d="M1211.4,1722.7c-2,5.9,2.4,12.2,8.7,12.4l560.9,15.5c6.9,0.2,11.7-6.2,9.4-12.5l-27.9-77.1
				c-3.5-9.7-12.9-16.3-23.4-16.5l-64.2-1.2c-28.6-0.5-52.7-21.9-56-49.5l-7.7-63.9c-1.4-11.8-11.7-20.8-23.8-20.9l-20-0.1
				c-10.5-0.1-20.3-6-25-15.9c-1.7-3.5-2.5-7.4-2.5-11.3c-0.3-26.2-22-47.4-48.5-47.4c-26.3,0-47.4,20.9-47.4,46.8
				c0,14.8-11.6,26.9-26.5,26.8l-19.5-0.1c-11.7-0.1-21.4,8.6-22.6,20.1l-6.4,62.4c-2.8,26.9-25.4,46.9-52.4,46.4l-59.6-1.1
				c-9.6-0.2-18.1,5.8-21.2,14.9L1211.4,1722.7z M1477.6,1474.6c-0.1-7.7,6.2-13.8,13.9-13.8c7.8,0,14.1,6.3,14.2,13.9
				c0.1,7.7-6.2,13.9-14,13.8C1484,1488.5,1477.7,1482.3,1477.6,1474.6z"/>
			<g>
				<path class="st17" d="M1327.3,1691.1c54.4-27.1,89.8-3.3,125.7-35.4c38.4-34.2,22.6-83.4,60.2-103.8c24-13,41.8,1,67.9-1.3
					c9.5-0.8,20-3.8,31.4-10.2l6.4,53.3c3.3,27.6,27.4,49,56,49.5l64.2,1.2c10.5,0.2,19.9,6.8,23.4,16.5l27.9,77.1
					c2.3,6.3-2.5,12.7-9.4,12.5l-509.1-14.1C1287.5,1717.4,1305.9,1701.8,1327.3,1691.1z"/>
			</g>
			<g class="st2">
				<path class="st22" d="M1208.8,2780.6c-7.7,21.8-29.6,35.8-52.4,33.4l-127.8-13c-31.1-3.2-49.9-34.9-38.1-64.2l368.4-916
					c8.5-21.1,30-34.8,52.3-33.4l168.8,10.6c22.7,1.4,40.4,17.8,43.2,39.7l120.7,974.2c3.9,31.8-24.2,59.6-57,56.3l-126.8-12.9
					c-23.6-2.4-41.7-20.8-43.2-43.9l-9.3-136l-253.2-24.2L1208.8,2780.6z M1489.6,2445.3l-28.3-381.6l-130.6,367.7L1489.6,2445.3z"
					/>
			</g>
		</g>
		<g>
			
				<linearGradient id="SVGID_21_" gradientUnits="userSpaceOnUse" x1="155.0032" y1="3338.7468" x2="101.467" y2="3162.2219" gradientTransform="matrix(-0.993 0.1177 0.1177 0.993 1497.196 -89.6996)">
				<stop  offset="0" style="stop-color:#444B8C"/>
				<stop  offset="0.9964" style="stop-color:#26264F"/>
			</linearGradient>
			<path class="st26" d="M1778,3152.8c6.6,10.5,5.6,15.5,4.4,17.7c-3.3,6.6-13.5,1.8-38.2,7.3c-2.9,0.7-8.4,2-15.6,1.1
				c-6.1-0.8-13.5-3.2-13.4-4.9c0-0.6,1.1-0.9,1.5-1.1c6.8-2.2,48.8-20.1,48.8-20.1L1778,3152.8z"/>
			
				<linearGradient id="SVGID_22_" gradientUnits="userSpaceOnUse" x1="108.8507" y1="3304.3745" x2="108.8507" y2="3020.7698" gradientTransform="matrix(-0.993 0.1177 0.1177 0.993 1497.196 -89.6996)">
				<stop  offset="0" style="stop-color:#FFC444"/>
				<stop  offset="0.9964" style="stop-color:#F36F56"/>
			</linearGradient>
			<path class="st27" d="M1778.8,3128l-1.3,25.3c0,0-9.9,8.7-13.6-0.2c-2.7-6.4-4.5-24.1-4.5-24.1L1778.8,3128z"/>
			
				<linearGradient id="SVGID_23_" gradientUnits="userSpaceOnUse" x1="213.2739" y1="3304.3752" x2="213.2739" y2="3020.7598" gradientTransform="matrix(-0.993 0.1177 0.1177 0.993 1497.196 -89.6996)">
				<stop  offset="0" style="stop-color:#FFC444"/>
				<stop  offset="0.9964" style="stop-color:#F36F56"/>
			</linearGradient>
			<polygon class="st28" points="1654,3153.5 1667.5,3181 1682.5,3177 1676.2,3150.9 			"/>
			
				<linearGradient id="SVGID_24_" gradientUnits="userSpaceOnUse" x1="232.9936" y1="3315.0952" x2="179.4563" y2="3138.5667" gradientTransform="matrix(-0.993 0.1177 0.1177 0.993 1497.196 -89.6996)">
				<stop  offset="0" style="stop-color:#444B8C"/>
				<stop  offset="0.9964" style="stop-color:#26264F"/>
			</linearGradient>
			<path class="st29" d="M1673.9,3196.3c6.5-9.5,13.1-9.4,13.8-15.6c0.5-4.8-2.9-10.3-7.5-12.1c-6.5-2.4-13.4,3.2-14.9,4.4
				c-10.6,8.6-6.3,19.9-16.5,26c-2.1,1.2-5.4,2.7-8.6,6.4c-1.4,1.6-4.8,5.6-3.7,7.9c1.3,2.7,8.1,1.9,14.5,1.2
				c7.7-0.9,11.6-1.4,15.1-4.1C1670.8,3206.8,1668.9,3203.6,1673.9,3196.3z"/>
			
				<linearGradient id="SVGID_25_" gradientUnits="userSpaceOnUse" x1="84.3289" y1="2692.4109" x2="58.2836" y2="3278.4304" gradientTransform="matrix(-0.993 0.1177 0.1177 0.993 1497.196 -89.6996)">
				<stop  offset="0" style="stop-color:#311944"/>
				<stop  offset="1" style="stop-color:#893976"/>
			</linearGradient>
			<path class="st30" d="M1798.1,2525.2c3.2,58.1,0.1,108.3-5.1,149.5c-5.6,44.3-10.3,52.3-10.7,82.7
				c-0.8,66.1,21.1,73.7,31.1,147.5c11.1,81.5-5.3,148.3-11.8,173.8c-5.7,22.3-12.1,40.5-16.9,53.1c-7,7.2-18.6,5.6-30.9,4.1
				c-10.6-73.8-21.9-143.2-32.6-217c-23.6-110.4-47.2-220.9-70.9-331.3C1699.6,2566.7,1748.9,2546,1798.1,2525.2z"/>
			
				<linearGradient id="SVGID_26_" gradientUnits="userSpaceOnUse" x1="84.3289" y1="2692.4111" x2="58.2836" y2="3278.4307" gradientTransform="matrix(-0.993 0.1177 0.1177 0.993 1497.196 -89.6996)">
				<stop  offset="0" style="stop-color:#311944"/>
				<stop  offset="1" style="stop-color:#893976"/>
			</linearGradient>
			<path class="st31" d="M1753.7,3135.8c-10.6-73.8-21.9-143.2-32.6-217c-23.6-110.4-47.2-220.9-70.9-331.3
				c49.3-20.8,98.5-41.5,147.8-62.3c0.2,3.8,0.3,7.6,0.5,11.3c-65.9,67.6-75.8,117.6-72.3,150.9c4.2,40.4,28,58.6,28.5,117.6
				c0.4,42.2-11.6,50.6-8.5,88.4c4,48.7,27.2,74.4,39.7,101.7c12.1,26.4,18.8,64.6,4.3,121c-2,5.9-4,11.1-5.7,15.6
				C1777.7,3138.9,1766,3137.3,1753.7,3135.8z"/>
			
				<linearGradient id="SVGID_27_" gradientUnits="userSpaceOnUse" x1="481.3775" y1="2941.7109" x2="3.8744" y2="2920.0059" gradientTransform="matrix(-0.993 0.1177 0.1177 0.993 1497.196 -89.6996)">
				<stop  offset="0" style="stop-color:#311944"/>
				<stop  offset="1" style="stop-color:#893976"/>
			</linearGradient>
			<path class="st32" d="M1713.1,2588.4c-32,65.9-48.6,117.1-57.3,148.6c-5.3,19.2-9.9,39.1-9.2,64.7c0.8,31.3,9.1,56.5,15.9,72.4
				c9.6,20.4,18.7,44.3,25.4,71.6c21.8,88.6,7,165.6-5.8,210.2c-8.7,4.1-17.4,8.2-26.2,12.2c-25.1-55.3-56.8-134.2-83-232.4
				c-14.3-53.7-25.3-95.8-29.9-150.1c-4.8-57.2-4.2-148.5,33.7-260.5C1622.1,2546.3,1667.6,2567.4,1713.1,2588.4z"/>
			<path class="st0" d="M1651.2,2094.6c-56.4,14.6-99.1,28.4-116.1,60c-17.9,33.4,16.7,54.5,31.4,123.2c22.4,105.2-35.4,150-9,255.6
				c8.9,35.6,23.5,62.5,33.3,78.4c19.7,13.6,50.8,31.7,91.9,42.3c59.7,15.5,87.4,1.3,165.8-0.7c128.3-3.3,150.5,32.2,206.3,4.6
				c56.4-27.9,93.5-93.6,78.9-119.1c-8.7-15.3-31.3-3.4-66.4-20.2c-45.3-21.6-40.9-56.6-78.4-83.2c-53.8-38.2-98.7,8.6-144.8-24.7
				c-46.6-33.6-59.3-123.8-45.3-179.3c9.2-36.2,6.2-74.6,12.2-111.5c0.5-3.1,0.7-7.9-1.6-13.2c-8.9-20.2-47.2-21-76.2-21.4
				C1689.1,2085.1,1655.9,2093.4,1651.2,2094.6z"/>
			
				<linearGradient id="SVGID_28_" gradientUnits="userSpaceOnUse" x1="2381.6448" y1="2438.897" x2="2646.1125" y2="2982.7322" gradientTransform="matrix(0.9575 -0.2886 0.2886 0.9575 -1502.8842 536.33)">
				<stop  offset="0" style="stop-color:#AA80F9"/>
				<stop  offset="0.9964" style="stop-color:#6165D7"/>
			</linearGradient>
			<path class="st33" d="M2044.8,2618.3c-18.7-10.3-11.9-44.5-39.5-60.1c-25.7-14.4-42.8,8.7-79.6,0.6
				c-47.1-10.3-48.4-54.7-93.6-65.2c-32.5-7.5-40.4,13.5-86,18.1c-45.5,4.7-106.8-9.2-148.7-54.4c-17.8-19.2-28.6-40.4-35.2-60.2
				c-8.9,40.4-19,79.6-4.8,136.3c8.9,35.6,23.5,62.5,33.3,78.4c19.7,13.6,50.8,31.7,91.9,42.3c59.7,15.5,87.4,1.3,165.8-0.7
				c128.3-3.3,150.5,32.2,206.3,4.6c36-17.8,64.1-51,75.9-79.4C2083.3,2619.6,2058.3,2625.8,2044.8,2618.3z"/>
			
				<linearGradient id="SVGID_29_" gradientUnits="userSpaceOnUse" x1="147.7668" y1="2128.2449" x2="86.6873" y2="2227.05" gradientTransform="matrix(-0.993 0.1177 0.1177 0.993 1497.196 -89.6996)">
				<stop  offset="0" style="stop-color:#FFC444"/>
				<stop  offset="0.9964" style="stop-color:#F36F56"/>
			</linearGradient>
			<path class="st34" d="M1609.9,1998.3c0,0-13.3,30.9-12.6,51.8c0.7,20.9,24,17.4,24,17.4l0.2,13.2c0.2,11.2-6.3,21.5-16.5,26.3
				l-9,4.2c0,0,61.5,7.9,92.5-18.1l-9.6-0.1c-13.6-0.2-25.1-9.9-27.6-23.3l-1-5.6C1650.4,2064,1655.5,1998.4,1609.9,1998.3z"/>
			<g>
				
					<linearGradient id="SVGID_30_" gradientUnits="userSpaceOnUse" x1="375.2519" y1="2281.2195" x2="252.1353" y2="2480.3787" gradientTransform="matrix(-0.993 0.1177 0.1177 0.993 1497.196 -89.6996)">
					<stop  offset="0" style="stop-color:#444B8C"/>
					<stop  offset="0.9964" style="stop-color:#26264F"/>
				</linearGradient>
				<path class="st35" d="M1548.4,2335.8l-91.9-158.5c-1.1-2-3.4-2.9-5.6-2.4l-128.6,30c-3.4,0.8-5.1,4.7-3.2,7.7l106.6,170.5
					c1.3,2.1,3.8,2.9,6.1,2.1l113-40.8L1548.4,2335.8z"/>
				
					<linearGradient id="SVGID_31_" gradientUnits="userSpaceOnUse" x1="394.5794" y1="2275.7366" x2="288.2333" y2="2475.4065" gradientTransform="matrix(-0.9946 0.104 0.104 0.9946 1561.4523 -80.9972)">
					<stop  offset="0" style="stop-color:#FFC444"/>
					<stop  offset="0.9964" style="stop-color:#F36F56"/>
				</linearGradient>
				<path class="st36" d="M1525.8,2317.8l-74.4-128.3c-0.9-1.6-2.8-2.4-4.5-2l-104.1,24.3c-2.8,0.6-4.1,3.8-2.6,6.3l86.3,138
					c1,1.7,3.1,2.4,4.9,1.7l91.5-33L1525.8,2317.8z"/>
				
					<linearGradient id="SVGID_32_" gradientUnits="userSpaceOnUse" x1="362.6774" y1="2268.4438" x2="391.9785" y2="2207.6711" gradientTransform="matrix(-0.993 0.1177 0.1177 0.993 1497.196 -89.6996)">
					<stop  offset="0" style="stop-color:#AA80F9"/>
					<stop  offset="0.9964" style="stop-color:#6165D7"/>
				</linearGradient>
				<path class="st37" d="M1429.4,2190.9l-5.9-10.3c-0.8-1.4-2.5-2.2-4.1-1.8l-53.5,12c-2.5,0.6-3.7,3.4-2.4,5.6l6.6,11.2
					c0.8,1.4,2.5,2.1,4.1,1.8l52.9-12.9C1429.5,2195.8,1430.7,2193.1,1429.4,2190.9z"/>
			</g>
			
				<linearGradient id="SVGID_33_" gradientUnits="userSpaceOnUse" x1="401.2982" y1="2359.926" x2="371.7568" y2="2407.7136" gradientTransform="matrix(-0.993 0.1177 0.1177 0.993 1497.196 -89.6996)">
				<stop  offset="0" style="stop-color:#FFC444"/>
				<stop  offset="0.9964" style="stop-color:#F36F56"/>
			</linearGradient>
			<path class="st38" d="M1399.7,2341.4c0,0-22.7-12.2-26.3-22.1c-3.5-9.9-4.9-29.1-4.9-29.1l15.2,25.7c0,0,5.8-2.3,7.4-11.5
				c1.6-9.2,6.9-1.5,5.8,5.4C1395.8,2316.6,1399.7,2341.4,1399.7,2341.4z"/>
			<path class="st0" d="M1544.2,2143.5c-10.5,8-26.2,21.8-39.1,42.7c-36.8,59.5-14.1,116.4-47.1,140.8c-9.4,7-26.6,13.6-59.6,5.7
				l-11.5,7.8c0,0-7,77.5,85.5,70.7c92.5-6.8,126.4-126.2,126.4-126.2L1544.2,2143.5z"/>
			<linearGradient id="SVGID_34_" gradientUnits="userSpaceOnUse" x1="1387.9594" y1="2327.4614" x2="1598.7697" y2="2327.4614">
				<stop  offset="0" style="stop-color:#AA80F9"/>
				<stop  offset="0.9964" style="stop-color:#6165D7"/>
			</linearGradient>
			<path class="st39" d="M1573.5,2243.4c-18-0.1-31,62-33.3,73.6c-9.6,40.1-22.5,51.6-33.2,54c-16.1,3.7-24.3-14.1-50.2-12.3
				c-18,1.2-24.4,10.5-42.7,8.5c-11.4-1.2-20.3-6-26.1-9.9c1.5,8.5,5.4,23,17.1,34.8c12.3,12.4,33,21.6,67.3,19
				c92.5-6.8,126.4-126.2,126.4-126.2C1587.2,2245.7,1576.9,2243.4,1573.5,2243.4z"/>
			
				<linearGradient id="SVGID_35_" gradientUnits="userSpaceOnUse" x1="-191.4506" y1="2542.1128" x2="55.485" y2="2014.4728" gradientTransform="matrix(-0.993 0.1177 0.1177 0.993 1497.196 -89.6996)">
				<stop  offset="0" style="stop-color:#444B8C"/>
				<stop  offset="0.9964" style="stop-color:#26264F"/>
			</linearGradient>
			<path class="st40" d="M1621.8,2027c3.1-0.5,5.3-4.7,7.6-3.7c2.3,1,2.6,6.8,1,11c-1.3,3.5-3.8,5.5-5.2,6.5c2.7,3.1,6.2,8.1,8,14.7
				c4.1,14.8-2.9,27.5-5.6,34.8c-12.3,33.1,15.1,81.5,42.8,104.8c22.5,18.9,31.5,9.8,45.2,25.7c26.8,30.8-3.5,69.7,12.7,112.9
				c24.5,65.7,132.3,76.9,136.8,77.3c1.8,0.2,2.9,0.3,4.8,0.4c48.2,3.6,121.4,9.1,169-34.2c35.6-32.4,48.8-84.7,42.2-129.3
				c-1.7-11.7-9-56.2-48.5-89.7c-6.3-5.3-43.4-36.7-89.7-33.3c-24.6,1.8-28.8,10.9-48,7.1c-26.3-5.2-44.1-27.2-55.1-40.9
				c-20.3-25.2-13.4-31.5-27.5-43.5c-27.6-23.6-55.8-0.9-84.8-21.3c-28.7-20.1-15-51.8-42.5-69c-28.3-17.7-78.8-6.5-87.7,18.1
				C1589.6,1996.7,1612.3,2028.6,1621.8,2027z"/>
		</g>
		<g>
			
				<linearGradient id="SVGID_36_" gradientUnits="userSpaceOnUse" x1="-12586.5986" y1="722.1817" x2="-12665.2471" y2="522.4282" gradientTransform="matrix(-0.8596 -0.5109 -0.5109 0.8596 -9597.8223 -4548.3511)">
				<stop  offset="0" style="stop-color:#311944"/>
				<stop  offset="1" style="stop-color:#6B3976"/>
			</linearGradient>
			<path class="st41" d="M1036.4,2439.1c7.1-5.6,12.2-1.5,18.6-6.8c8.1-6.6,10-21.3,5.9-31.8c-4-10.3-10.9-9.2-26.9-23.3
				c-17.2-15.2-15.8-22.3-31.7-32.6c-4.1-2.7-11.9-7.6-23.2-10c-9-1.9-26.9-5.6-39.2,5.5c-13.5,12.2-10.2,32.9-9.8,34.8
				c-18.3,11.8-22.2,20.2-21.4,26.1c0,0,0.9,6.2,19.3,21.8l0,0c0,0-0.4,10.9,0.7,15.6c1.3,5.4,6.9,12.3,27.1,17.9
				c2.9-2.8,7.2-6.8,12.8-11c10.5-7.9,15.8-11.8,19.3-10.4c8.8,3.6-2.7,35.1,8,41.3c6.9,4,21.3-3.4,28.5-13.3
				C1031.6,2453.3,1028.3,2445.5,1036.4,2439.1z"/>
			
				<linearGradient id="SVGID_37_" gradientUnits="userSpaceOnUse" x1="1933.4802" y1="3189.4128" x2="1985.8689" y2="3189.4128" gradientTransform="matrix(-0.996 8.970000e-02 8.970000e-02 0.996 2456.5469 -160.4537)">
				<stop  offset="0" style="stop-color:#444B8C"/>
				<stop  offset="0.9964" style="stop-color:#26264F"/>
			</linearGradient>
			<path class="st42" d="M767.9,3181.9c-2.7,2.5-2.9,8.3-3,12.2c-0.1,1.7-0.1,2.6,0.2,3.1c1.6,4.3,10.1,4.2,23.5,4.8
				c21.1,0.9,27.5,2.1,28.9-1.1c1.4-3-2.7-7.6-3.1-8.1c-2.4-2.7-5.3-3.6-10.7-5c-10.1-2.7-16.9-4-19-4.4
				C771.8,3180.7,769.7,3180.2,767.9,3181.9z"/>
			
				<linearGradient id="SVGID_38_" gradientUnits="userSpaceOnUse" x1="1476.3372" y1="3157.553" x2="1499.322" y2="3109.9792" gradientTransform="matrix(-0.9976 6.940000e-02 6.940000e-02 0.9976 2040.621 -60.6691)">
				<stop  offset="0" style="stop-color:#311944"/>
				<stop  offset="1" style="stop-color:#A03976"/>
			</linearGradient>
			<path class="st43" d="M782.7,3160.8l0.8,24c-0.7,1.1-8,4.2-13.4,0.9L766,3162L782.7,3160.8z"/>
			
				<linearGradient id="SVGID_39_" gradientUnits="userSpaceOnUse" x1="1676.1957" y1="3103.9404" x2="1731.8547" y2="3103.9404" gradientTransform="matrix(-0.977 0.2133 0.2133 0.977 1968.0525 -210.6557)">
				<stop  offset="0" style="stop-color:#444B8C"/>
				<stop  offset="0.9964" style="stop-color:#26264F"/>
			</linearGradient>
			<path class="st44" d="M940.8,3177.3c-3.6,3.6-4.8,10.5-2,14.1c2.8,3.5,7.3,1.2,19.8,2.3c13.4,1.1,16.7,4.5,25.9,2.4
				c3.7-0.8,10.4-2.9,10.4-5.6c0-1.9-3.2-3-14.1-7.3c-15.4-6.1-15.3-6.4-18.6-7.1C953.9,3174.4,945.6,3172.5,940.8,3177.3z"/>
			
				<linearGradient id="SVGID_40_" gradientUnits="userSpaceOnUse" x1="1486.6068" y1="3132.0808" x2="1510.0782" y2="3083.5005" gradientTransform="matrix(-0.9894 0.1453 0.1453 0.9894 1974.5804 -128.6684)">
				<stop  offset="0" style="stop-color:#311944"/>
				<stop  offset="1" style="stop-color:#A03976"/>
			</linearGradient>
			<path class="st45" d="M950.5,3155.9l5.5,22.7c-0.6,1.2-7.6,4.8-13.3,2l-8.8-22.2L950.5,3155.9z"/>
			
				<linearGradient id="SVGID_41_" gradientUnits="userSpaceOnUse" x1="1380.4944" y1="3037.9526" x2="1232.0402" y2="2703.3018" gradientTransform="matrix(0.9986 5.330000e-02 -5.330000e-02 0.9986 -237.5799 -19.3005)">
				<stop  offset="0" style="stop-color:#AA80F9"/>
				<stop  offset="0.9964" style="stop-color:#6165D7"/>
			</linearGradient>
			<path class="st46" d="M917,2663.5c-3,75.1-2.4,159.8,5,252.1c7.3,91.3,20,174.1,34.7,247.1c-8.7,1.8-17.4,3.7-26.1,5.5
				c-20.7-21.4-46.4-54.8-57.2-100.6c-6.7-28.4-3.2-42.7-6.6-77.3c-5.4-55.2-20.6-84.9-35.6-130c-13.5-40.5-28.8-99.8-34.5-178.2
				C836.8,2676,876.9,2669.7,917,2663.5z"/>
			
				<linearGradient id="SVGID_42_" gradientUnits="userSpaceOnUse" x1="1357.4728" y1="3048.165" x2="1209.0187" y2="2713.5142" gradientTransform="matrix(0.9986 5.330000e-02 -5.330000e-02 0.9986 -237.5799 -19.3005)">
				<stop  offset="0" style="stop-color:#AA80F9"/>
				<stop  offset="0.9964" style="stop-color:#6165D7"/>
			</linearGradient>
			<path class="st47" d="M905,3014.6c-9.6-37.9-28-47.9-28.7-83.7c-0.5-25.3,8.6-27.4,8-51.6c-0.9-36.7-22.4-56-33.2-79.1
				c-11.4-24.4-15.8-63.6,15-128.8c-23.2,3.6-46.3,7.2-69.5,10.7c5.7,78.4,21.1,137.7,34.5,178.2c15,45.1,30.3,74.7,35.6,130
				c3.4,34.7-0.1,48.9,6.6,77.3c10.8,45.8,36.5,79.2,57.2,100.6c2.2-0.5,4.4-0.9,6.6-1.4c-22.3-26.6-30.2-50.4-32.2-69.8
				C901.7,3065.7,914.6,3052.8,905,3014.6z"/>
			
				<linearGradient id="SVGID_43_" gradientUnits="userSpaceOnUse" x1="867.3818" y1="3073.3054" x2="720.1674" y2="2741.449" gradientTransform="matrix(0.9976 -6.940000e-02 6.940000e-02 0.9976 -160.8932 92.9864)">
				<stop  offset="0" style="stop-color:#AA80F9"/>
				<stop  offset="0.9964" style="stop-color:#6165D7"/>
			</linearGradient>
			<path class="st48" d="M881.6,2664.8c-10.3,95.2-47.2,179.5-55.7,278.3c-6.4,74.1-31.3,155.4-36.3,227.7
				c-8.8,0.6-17.6,1.2-26.4,1.8c-7.6-16.2-17.6-40.9-23.6-72.1c-7.3-38-4-60.1-6-99.2c-2.3-43.8-8.4-53.6-17.3-109.2
				c-18.1-112.8-27.1-169.2,1.6-202.4C727,2678.9,802.3,2656.8,881.6,2664.8z"/>
			<g>
				<linearGradient id="SVGID_44_" gradientUnits="userSpaceOnUse" x1="936.1711" y1="2820.3369" x2="1068.1278" y2="2324.9741">
					<stop  offset="0" style="stop-color:#FF9085"/>
					<stop  offset="1" style="stop-color:#FB6FBB"/>
				</linearGradient>
				<path class="st49" d="M898.1,2696.2c-0.8,8.8-6.5,2.5-4.2,8.4c20.9,52.4,102.6,44.1,144.5,0c45.5-48,62.8-127.8-6.3-190.6
					c-34.4-31.3-74.3-40-92.2-41.9c-8.7,23.1-20.8,64.2-14.7,108.9c1.5,10.6,2.6,18.7,6.3,29.3c12.4,35.4,34.1,43.3,31.4,62.8
					c-2.4,17.7-22.2,26.8-23,27.2C919.3,2709.6,899.6,2697.2,898.1,2696.2z"/>
				<g class="st2">
					<linearGradient id="SVGID_45_" gradientUnits="userSpaceOnUse" x1="919.5062" y1="2815.8977" x2="1051.4631" y2="2320.5342">
						<stop  offset="0" style="stop-color:#FF9085"/>
						<stop  offset="1" style="stop-color:#FB6FBB"/>
					</linearGradient>
					<path class="st50" d="M943.1,2724.4c40.2,10.6,83.5-39.4,77.5-62.8c-3.1-11.9-17.4-11.3-23-27.2c-6.7-19.1,9.5-32.6,4.2-46.1
						c-3.1-7.9-38.8-20.8-77.9-24.3c0.2,5.6,0.7,11.2,1.5,16.9c1.5,10.6,2.6,18.7,6.3,29.3c12.4,35.4,34.1,43.3,31.4,62.8
						c-2.4,17.7-22.2,26.8-23,27.2c-9.5,4.2-18.8,3.9-26.2,2.2C920.2,2711.6,929.7,2720.9,943.1,2724.4z"/>
				</g>
				<linearGradient id="SVGID_46_" gradientUnits="userSpaceOnUse" x1="1135.8636" y1="2243.4478" x2="1186.9359" y2="2528.3767">
					<stop  offset="0" style="stop-color:#311944"/>
					<stop  offset="1" style="stop-color:#A03976"/>
				</linearGradient>
				<path class="st51" d="M1123.7,2264.3c0,0,40.3,10.5,47.3,40.3c0,0-1.8,3.5-8.8,0c-7-3.5-17.5-7-24.5-12.3s-19.2-12.3-19.2-12.3
					S1114.9,2269.5,1123.7,2264.3z"/>
				<linearGradient id="SVGID_47_" gradientUnits="userSpaceOnUse" x1="825.1438" y1="2776.929" x2="951.7922" y2="2301.4937">
					<stop  offset="0" style="stop-color:#FF9085"/>
					<stop  offset="1" style="stop-color:#FB6FBB"/>
				</linearGradient>
				<path class="st52" d="M696.8,2781.3c-5.8-63.6-4.6-161.2,37.7-267.3c29.5-73.9,73.6-184.6,189-234.7
					c81.7-35.5,160.2-23.7,201.3-13.8c-1.4,7.1-2.9,14.1-4.3,21.1c-12.8-0.9-119.6-6.4-171,74.8c-6.5,10.3-38.6,61-20.5,100.6
					c21.7,47.5,72.6,15.9,88,60c8.7,24.7-6.5,59.3-26.8,92.3c-34.9,56.8-39.5,59.7-58.2,103.1c-18.4,42.8-0.8,67.7-24.2,85.5
					c-23.8,18.2-64.3,9.1-66.1,8.7c-22.5-5.3-25.6-14.9-45.2-16.1c-23.7-1.5-29.3,11.9-50.2,11
					C735.3,2806.1,718.7,2801.7,696.8,2781.3z"/>
				<linearGradient id="SVGID_48_" gradientUnits="userSpaceOnUse" x1="912.2607" y1="2690.449" x2="938.7918" y2="2838.4646">
					<stop  offset="0" style="stop-color:#311944"/>
					<stop  offset="1" style="stop-color:#A03976"/>
				</linearGradient>
				<path class="st53" d="M938.4,2716.7c0,0-12.6-18.9-25.1-16.8c-12.6,2.1-18.9,6.3-18.9,10.5c0,4.2,9.1,10.6,18.1,8.4
					C921.7,2716.7,934.2,2729.3,938.4,2716.7z"/>
				<g>
					<linearGradient id="SVGID_49_" gradientUnits="userSpaceOnUse" x1="1028.478" y1="2341.1045" x2="921.2151" y2="2559.0088">
						<stop  offset="0" style="stop-color:#311944"/>
						<stop  offset="1" style="stop-color:#A03976"/>
					</linearGradient>
					<path class="st54" d="M982.6,2479.2c-5.3-8.3-7-20.3,2.5-24.4c1.7-13.6,1.2-23.3,2.9-36.8c-10.2,14.7-28.9,19.3-37.9,34.6
						c-2.1,3.5-3.5,10.7-8.3,11.6c-3.5,0.7-6.8-2.8-9-5c-5.6-5.6-3.9-5.1-8.1-11.7c-0.9-1.4,0.2-0.2-0.9-1.4
						c-0.1-0.1-4.3,5.8-4.7,6.4c-3.4,6.2-2.4,13.4-1.3,20c1.5,9,3.8,17.3,9.8,24.4c10,11.9,24.2,18.4,39.6,19
						c4.6,0.2,9.4-0.1,14-0.5c6.2-0.6,13.8-1.3,18.2-6.3c4-4.5,5.5-12.6,0.9-17.4C995.1,2486.3,987.1,2486.3,982.6,2479.2z"/>
				</g>
				<g class="st2">
					<linearGradient id="SVGID_50_" gradientUnits="userSpaceOnUse" x1="727.3901" y1="2751.5491" x2="852.4255" y2="2282.1687">
						<stop  offset="0" style="stop-color:#FF9085"/>
						<stop  offset="1" style="stop-color:#FB6FBB"/>
					</linearGradient>
					<path class="st55" d="M767,2736.3c8.5-36.6,38.1-40.2,41-77.3c3.9-48.9-44.8-68.5-41.1-114.7c3.3-39.9,40-37.1,72.1-95.2
						c31.7-57.4,12.9-89.7,37.2-134.4c2.9-5.3,6.3-10.6,10.4-16c-88.5,55.7-126.1,149.8-152.1,215.2
						c-42.3,106.1-43.5,203.7-37.7,267.3c21.9,20.4,38.5,24.9,49.5,25.3c12.7,0.5,19.8-4.2,28.7-7.7
						C763.6,2771.2,763.7,2750.9,767,2736.3z"/>
				</g>
			</g>
			
				<linearGradient id="SVGID_51_" gradientUnits="userSpaceOnUse" x1="-10635.2383" y1="6662.043" x2="-10666.6348" y2="6740.5327" gradientTransform="matrix(-0.9993 -3.900000e-02 -3.900000e-02 0.9993 -9424.2832 -4751.6831)">
				<stop  offset="0" style="stop-color:#311944"/>
				<stop  offset="1" style="stop-color:#A03976"/>
			</linearGradient>
			<path class="st56" d="M947.1,2443c0,0,0.2,29.3,27.2,43.2c24.2,12.4,58.9-37.7,50.7-57.7c-2.7-6.7-11.8-14.2-21.2-16.7
				c-5.6-1.5-8.4-0.5-17.4-3.2c-8.4-2.5-9.9-4.5-13.2-4c-4.1,0.7-9.5,5.1-14.1,23.1c-1.7-7.2-6-12.1-10.9-12.6
				c-0.8-0.1-3,0.1-4.9,1.2C936.4,2420.2,937.3,2431.1,947.1,2443z"/>
		</g>
		<g>
			<g>
				<g>
					
						<linearGradient id="SVGID_52_" gradientUnits="userSpaceOnUse" x1="2572.1235" y1="3013.3547" x2="2866.8564" y2="3013.3547" gradientTransform="matrix(-0.998 6.340000e-02 6.340000e-02 0.998 5030.2319 -264.4713)">
						<stop  offset="0" style="stop-color:#6B3976"/>
						<stop  offset="1" style="stop-color:#311944"/>
					</linearGradient>
					<path class="st57" d="M2380.3,3069.7c4.4-0.3,8.4-3.2,9.8-7.7l69.3-229.2c7.9-26,32.4-43.4,59.5-42.4l116.2,4.2
						c6,0.2,11.1-4.5,11.3-10.5c0.2-6-4.5-11.1-10.5-11.3l-116.2-4.2c-37-1.3-70.4,22.5-81.3,57.9l-69.3,229.2
						c-1.8,5.8,1.5,11.9,7.3,13.7C2377.7,3069.6,2379.1,3069.8,2380.3,3069.7z"/>
				</g>
				<g>
					<g class="st58">
						<g>
							
								<linearGradient id="SVGID_53_" gradientUnits="userSpaceOnUse" x1="2692.8582" y1="3176.3696" x2="2913.8252" y2="3176.3696" gradientTransform="matrix(-0.998 6.340000e-02 6.340000e-02 0.998 5030.2319 -264.4713)">
								<stop  offset="0" style="stop-color:#6B3976"/>
								<stop  offset="1" style="stop-color:#311944"/>
							</linearGradient>
							<path class="st59" d="M2444.6,3049c-3-1.6-7.4-3.6-13-4.8c-5.4-1.1-10.1-1.1-13.4-0.8l-93.6,8c-3.6,0.3-4.2,6.7-0.9,8.5
								l108.4,57.1c8.4,4.5,17.5,6.4,26.5,5.6l81.5-7c6.6-0.6,8.5-9.4,2.7-12.6C2510,3085,2477.3,3067,2444.6,3049z"/>
						</g>
					</g>
				</g>
			</g>
			
				<linearGradient id="SVGID_54_" gradientUnits="userSpaceOnUse" x1="4731.6294" y1="2908.5269" x2="5072.0981" y2="3048.5327" gradientTransform="matrix(0.998 -6.340000e-02 6.340000e-02 0.998 -2262.9568 198.8676)">
				<stop  offset="0" style="stop-color:#FF9085"/>
				<stop  offset="1" style="stop-color:#FB6FBB"/>
			</linearGradient>
			<path class="st60" d="M2796.5,2755.8c-8.5,52.7-32.2,74.7-79.5,84.8c-47.3,10.1-91.5-9.3-138.5-18.8
				c-14.1-2.8-28.6,6.3-32.7,19.8c-4.1,13.5-3.2,25.1,17.1,30.2c87.7,20.8,198.5,11.8,272.5,11.6c69.5-0.2,80.3-2.6,113.9-27.9
				C2897.3,2823.6,2845.9,2790.9,2796.5,2755.8z"/>
			
				<linearGradient id="SVGID_55_" gradientUnits="userSpaceOnUse" x1="4628.8003" y1="2944.1975" x2="5040.3555" y2="2944.1975" gradientTransform="matrix(0.998 -6.340000e-02 6.340000e-02 0.998 -2262.9568 198.8676)">
				<stop  offset="3.597000e-03" style="stop-color:#6165D7"/>
				<stop  offset="1" style="stop-color:#AA80F9"/>
			</linearGradient>
			<path class="st61" d="M2796.5,2755.8c-8.5,52.7-32.2,74.7-79.5,84.8c-47.3,10.1-91.5-9.3-138.5-18.8
				c-14.1-2.8-28.6,6.3-32.7,19.8c-4.1,13.5-3.2,25.1,17.1,30.2c87.7,20.8,226.2,22.6,300.2,22.5c70.3-0.2,61.1-7.6,93.5-34.2
				C2902.1,2826.7,2848.2,2792.6,2796.5,2755.8z"/>
			
				<linearGradient id="SVGID_56_" gradientUnits="userSpaceOnUse" x1="4908.6714" y1="2986.5559" x2="5055.002" y2="2986.5559" gradientTransform="matrix(0.998 -6.340000e-02 6.340000e-02 0.998 -2262.9568 198.8676)">
				<stop  offset="0" style="stop-color:#FFC444"/>
				<stop  offset="0.9964" style="stop-color:#F36F56"/>
			</linearGradient>
			<path class="st62" d="M2917.7,2835.9c-5.7,1.5-11.5,2.8-17.6,3.8c-15.8,2.7-36.4-3.1-51.8-1.2c-15.4,1.8-22.8,11.4-23.2,25.1
				c-0.5,13.7,6.3,25.7,21.2,26.6c14.9,0.9,35,2.8,50.5,1.8c28.4-1.8,52.7-8.4,75.1-22.8C2953.8,2858.2,2935.7,2847.1,2917.7,2835.9
				z"/>
			<g>
				<g>
					
						<linearGradient id="SVGID_57_" gradientUnits="userSpaceOnUse" x1="945.6044" y1="2573.4976" x2="1067.7747" y2="2573.4976" gradientTransform="matrix(-1 0 0 1 4004.9812 0)">
						<stop  offset="0" style="stop-color:#893976"/>
						<stop  offset="1" style="stop-color:#311944"/>
					</linearGradient>
					<path class="st63" d="M2948.5,2736.4c5.7,0,10.6-4.3,11.3-10.1l27.8-262.3c2.1-20.1,8.1-28.8,10.9-30.5c0.5-0.3,0.5-0.3,1-0.1
						l44.6,16.3c5.9,2.1,12.4-0.9,14.5-6.7c2.1-5.9-0.9-12.4-6.7-14.5l-44.6-16.3c-7-2.6-14.4-1.8-20.7,2.2
						c-11.4,7.1-19,23.9-21.5,47.4l-27.8,262.3c-0.7,6.2,3.8,11.8,10.1,12.5C2947.7,2736.4,2948.2,2736.4,2948.5,2736.4z"/>
				</g>
				
					<linearGradient id="SVGID_58_" gradientUnits="userSpaceOnUse" x1="4850.4458" y1="2683.6885" x2="5101.1675" y2="2786.7891" gradientTransform="matrix(0.998 -6.340000e-02 6.340000e-02 0.998 -2262.9568 198.8676)">
					<stop  offset="0" style="stop-color:#FF9085"/>
					<stop  offset="1" style="stop-color:#FB6FBB"/>
				</linearGradient>
				<path class="st64" d="M2860.9,2860.6c39.3-30.3,50.1-57.3,59.4-106.9c20-106.5,26.3-226.7,35.5-337c1.4-17.1,69.3-30.5-2.8-28.6
					c-10.6,0.3-172.5,22.3-178.5,23.2c-47,6.3-39.7,12.6-41.7,30.5c-11.3,100.5-18.9,222.2-30.5,316.3c-0.4,2.8-0.8,5.6-1.2,8.2
					c49.4,35.2,100.8,67.8,152.8,99.6C2856.2,2864.3,2858.5,2862.5,2860.9,2860.6z"/>
				
					<linearGradient id="SVGID_59_" gradientUnits="userSpaceOnUse" x1="4791.3184" y1="2753.2563" x2="5099.5093" y2="2753.2563" gradientTransform="matrix(0.998 -6.340000e-02 6.340000e-02 0.998 -2262.9568 198.8676)">
					<stop  offset="3.597000e-03" style="stop-color:#6165D7"/>
					<stop  offset="1" style="stop-color:#AA80F9"/>
				</linearGradient>
				<path class="st65" d="M2866.9,2866c39.3-30.3,44-62.6,53.4-112.3c20-106.5,26.3-226.7,35.5-337c1.4-17.1,69.3-30.5-2.8-28.6
					c-10.6,0.3-172.5,22.3-178.5,23.2c-47,6.3-39.7,12.6-41.7,30.5c-11.3,100.5-18.9,222.2-30.5,316.3c-0.4,2.8-0.8,5.6-1.2,8.2
					c51.7,36.8,105.7,70.9,160.2,104.2C2863.1,2869,2864.9,2867.5,2866.9,2866z"/>
				
					<linearGradient id="SVGID_60_" gradientUnits="userSpaceOnUse" x1="4907.2471" y1="2758.1201" x2="5107.3994" y2="2758.1201" gradientTransform="matrix(0.998 -6.340000e-02 6.340000e-02 0.998 -2262.9568 198.8676)">
					<stop  offset="3.597000e-03" style="stop-color:#6165D7"/>
					<stop  offset="1" style="stop-color:#AA80F9"/>
				</linearGradient>
				<path class="st66" d="M2903.1,2858c29.6-30.2,49.8-57.6,57.7-107.4c16.9-106.7,26.8-228.9,34.2-338.5
					c1.3-19.5-8.7-25.9-23.5-25.6c-14.8,0.3-26.5,9.3-28.2,28.3c-9.5,106.9-16.6,232.1-34.4,334.3c-9.8,56.7-41.4,85.3-86.5,97.5
					c18,11.2,36.1,22.3,54.2,33.3C2885.7,2873.8,2894.5,2866.7,2903.1,2858z"/>
				
					<linearGradient id="SVGID_61_" gradientUnits="userSpaceOnUse" x1="4818.9243" y1="2758.1338" x2="4998.2837" y2="2758.1338" gradientTransform="matrix(0.998 -6.340000e-02 6.340000e-02 0.998 -2262.9568 198.8676)">
					<stop  offset="3.597120e-03" style="stop-color:#E38DDD"/>
					<stop  offset="1" style="stop-color:#9571F6"/>
				</linearGradient>
				<path class="st67" d="M2903.1,2858c29.6-30.2,49.8-57.6,57.7-107.4c16.9-106.7,26.8-228.9,34.2-338.5
					c1.3-19.5-8.7-25.9-23.5-25.6c-0.2,0-0.4,0-0.6,0c-30.7,41.3-0.4,114.3-7.3,165.1c-3.1,14.9-20.9,28-25.3,43
					c-14.4,46.3,9.9,92.8,6.3,141.2c-3.1,34.9-8.6,75.3-42.2,92.2c-20.9,9.7-40.4,19.6-58.3,31.9c10.8,6.6,21.6,13.3,32.5,19.8
					C2885.7,2873.8,2894.5,2866.7,2903.1,2858z"/>
			</g>
			
				<linearGradient id="SVGID_62_" gradientUnits="userSpaceOnUse" x1="4925.9697" y1="2994.8811" x2="5006.1958" y2="2994.8811" gradientTransform="matrix(0.998 -6.340000e-02 6.340000e-02 0.998 -2262.9568 198.8676)">
				<stop  offset="0" style="stop-color:#FFC444"/>
				<stop  offset="0.9964" style="stop-color:#F36F56"/>
			</linearGradient>
			<path class="st68" d="M2939.4,2849.3c-16.5,11.3-31.6,24.6-45.2,41.4c-0.4,0.5-0.8,0.9-1.2,1.4c1.3,0,2.6-0.1,3.8-0.2
				c28.4-1.8,52.7-8.4,75.1-22.8C2961.1,2862.6,2950.2,2856,2939.4,2849.3z"/>
			<g>
				<g>
					
						<linearGradient id="SVGID_63_" gradientUnits="userSpaceOnUse" x1="4263.9214" y1="3261.6968" x2="4213.1187" y2="3198.4758" gradientTransform="matrix(-0.8609 0.5087 0.5087 0.8609 4433.71 -1908.157)">
						<stop  offset="0" style="stop-color:#AA80F9"/>
						<stop  offset="0.9964" style="stop-color:#6165D7"/>
					</linearGradient>
					<path class="st69" d="M2443.1,3019.8c0,0-9.4-0.8-17.1,8.1c-7.7,8.9-21.4,20.5-18.6,25.2c2.8,4.7,19.8-1.4,29.1-9.5
						C2445.6,3035.7,2448.4,3022.2,2443.1,3019.8z"/>
					<path class="st70" d="M2448.1,3006.1l-14.3,16.1c0,0,0,6.5,5.6,7.2c5.7,0.7,15.3-13.6,15.3-13.6L2448.1,3006.1z"/>
					
						<linearGradient id="SVGID_64_" gradientUnits="userSpaceOnUse" x1="4986.7417" y1="3023.7813" x2="4986.3408" y2="2708.1086" gradientTransform="matrix(1 0 0 1 -2370.7654 0)">
						<stop  offset="0" style="stop-color:#893976"/>
						<stop  offset="1" style="stop-color:#311944"/>
					</linearGradient>
					<path class="st71" d="M2793.2,2758.8c0.2,17.1-81.4,8.8-166,61.7c-22.1,13.8-41.7,30.1-55.6,39.2c-11.4,28.1-32.4,45.6-59,77.9
						c-15.9,19.3-36.9,47.9-57.5,86.4c-5.3-2.9-10.6-5.8-15.9-8.8c-2.4-39.3-6-164.5,66.7-213.8c0.3-0.2,0.8-0.6,1.9-1.3
						c15.5-10.3,39.1-25,107.5-58c24.4-11.8,39.7-18.7,55.3-29.9c1.4-1,2.3-1.8,4-2.5c14.3-6.1,28.5,4.5,60.9,20.6
						C2781,2752.9,2793.2,2752.1,2793.2,2758.8z"/>
					<g>
						
							<linearGradient id="SVGID_65_" gradientUnits="userSpaceOnUse" x1="1560.5944" y1="2973.9351" x2="1560.4836" y2="2886.6924" gradientTransform="matrix(-1 0 0 1 4004.9812 0)">
							<stop  offset="0" style="stop-color:#893976"/>
							<stop  offset="1" style="stop-color:#311944"/>
						</linearGradient>
						<path class="st72" d="M2438.4,2973.9c0.6-25.6,3.4-57.1,12-87.2c-2.2,9.3-4,19.1-5.9,29.6
							C2441.7,2931.4,2439.2,2950.9,2438.4,2973.9z"/>
						
							<linearGradient id="SVGID_66_" gradientUnits="userSpaceOnUse" x1="1565.6233" y1="3015.2593" x2="1565.623" y2="3015.0828" gradientTransform="matrix(-1 0 0 1 4004.9812 0)">
							<stop  offset="0" style="stop-color:#893976"/>
							<stop  offset="1" style="stop-color:#311944"/>
						</linearGradient>
						<path class="st73" d="M2439.3,3015.2c0,0,0.1,0,0.1,0.1C2439.4,3015.2,2439.3,3015.2,2439.3,3015.2c0,0,0-0.1,0-0.1
							C2439.3,3015.1,2439.3,3015.2,2439.3,3015.2z"/>
						
							<linearGradient id="SVGID_67_" gradientUnits="userSpaceOnUse" x1="1386.1355" y1="3024.1931" x2="1385.7596" y2="2727.9578" gradientTransform="matrix(-1 0 0 1 4004.9812 0)">
							<stop  offset="0" style="stop-color:#893976"/>
							<stop  offset="1" style="stop-color:#311944"/>
						</linearGradient>
						<path class="st74" d="M2451.8,2959.1c-0.7-11.5-2.6-20.2,2.9-29c8.2-13.1,21.7-8.8,29.5-20c11.5-16.5-9.7-37.3,0.7-52.7
							c9-13.4,27.8-1.6,48.7-16.2c21.3-14.9,17.1-37.9,34.9-44.7c6.5-2.5,13.8-1.9,21.5,0.8c-1-6.8,113.1-83.1,145.5-67
							c45.4,22.6,57.6,21.8,57.7,28.5c0.2,17.1-81.4,8.8-166,61.7c-22.1,13.8-41.7,30.1-55.6,39.2c-11.4,28.1-32.4,45.6-59,77.9
							c-15.9,19.3-36.9,47.9-57.5,86.4c-3.5-1.9-6.9-3.8-10.4-5.7C2452,2992.8,2452.7,2972.8,2451.8,2959.1z"/>
					</g>
					
						<linearGradient id="SVGID_68_" gradientUnits="userSpaceOnUse" x1="4262.2036" y1="3293.5642" x2="4211.4014" y2="3230.3433" gradientTransform="matrix(-0.8609 0.5087 0.5087 0.8609 4433.71 -1908.157)">
						<stop  offset="0" style="stop-color:#AA80F9"/>
						<stop  offset="0.9964" style="stop-color:#6165D7"/>
					</linearGradient>
					<path class="st75" d="M2460.8,3046.3c0,0-9.4-0.8-17.1,8.1c-7.7,8.9-21.4,20.5-18.6,25.2c2.8,4.7,19.8-1.4,29.1-9.5
						C2463.3,3062.2,2466.1,3048.8,2460.8,3046.3z"/>
					<path class="st70" d="M2465.8,3032.6l-14.3,16.1c0,0,0,6.5,5.6,7.2c5.7,0.7,15.3-13.6,15.3-13.6L2465.8,3032.6z"/>
					
						<linearGradient id="SVGID_69_" gradientUnits="userSpaceOnUse" x1="4939.3418" y1="2842.0842" x2="5121.3765" y2="2963.6858" gradientTransform="matrix(1 0 0 1 -2370.7654 0)">
						<stop  offset="0" style="stop-color:#893976"/>
						<stop  offset="1" style="stop-color:#311944"/>
					</linearGradient>
					<path class="st76" d="M2835.1,2833.1c-25.2,22.8-41.2,3.1-114.6,21.3c0,0-25.3,6.3-59,6.9c-9.9,25.7-26.3,51.3-32.1,60.2
						c-21.5,33.4-66.2,88.9-156.3,131l-15.5-18.4c9-10.5,22-26.7,35.7-47.6c23.4-35.8,29.1-54.8,58.6-109.7
						c12.9-24.1,22.7-40.6,30.9-52.1c4-10.8,11.2-23,22.2-32.3c6-5,11.8-10,48.5-17.8c42.4-8.9,63.6-13.4,82.8-20.7
						c31.7-12,31.6-19.3,49-20.6c27-2,64.1,11.9,71.9,40.3C2863.3,2795.8,2849.9,2819.7,2835.1,2833.1z"/>
				</g>
				
					<linearGradient id="SVGID_70_" gradientUnits="userSpaceOnUse" x1="1485.5405" y1="2661.2561" x2="1501.6635" y2="2787.2529" gradientTransform="matrix(-1 0 0 1 4090.1792 0)">
					<stop  offset="0" style="stop-color:#FFC444"/>
					<stop  offset="9.845980e-02" style="stop-color:#FEBC46"/>
					<stop  offset="0.9964" style="stop-color:#F36F56"/>
				</linearGradient>
				<path class="st77" d="M2603.5,2522.2c0,0-78.6,82.9-63.2,135.5c15.4,52.6,138.6-36.5,138.6-36.5L2603.5,2522.2z"/>
				
					<linearGradient id="SVGID_71_" gradientUnits="userSpaceOnUse" x1="-580.4713" y1="1752.9491" x2="-679.0018" y2="2025.5499" gradientTransform="matrix(-0.8034 0.5955 0.5955 0.8034 1053.1182 1196.0623)">
					<stop  offset="0" style="stop-color:#444B8C"/>
					<stop  offset="0.9964" style="stop-color:#26264F"/>
				</linearGradient>
				<path class="st78" d="M2634.5,2472.1c-6.4-1-25.9-9.6-31.1-26c-3.6-11.2,2.6-17.3-2-28.7c-5.3-12.9-15.8-11.2-25.3-23.7
					c-11.1-14.6-13.1-38.4-4.4-54c7.1-12.5,15.4-9.5,28.6-26.4c11.7-15,8.2-21.1,16.4-28.7c16.1-14.9,36.9,1.5,65.6-5.1
					c39.9-9.1,39.1-49.7,70.5-52.3c28.9-2.3,64.5,29.2,69.8,59.4c2.1,12.1-1.3,18.6,4.5,29.2c8.9,16.3,24.8,12,37.5,28.2
					c9.7,12.3,14.8,32.8,7,45c-9.2,14.3-29.1,6.2-38.3,20.3c-10,15.2,8.2,32.1-1.3,48c-9,15.1-34.6,16.9-49.4,16.1
					c-17.9-0.9-35.2-6.1-52.8-8.9C2696.9,2459.4,2666.7,2477.1,2634.5,2472.1z"/>
				
					<linearGradient id="SVGID_72_" gradientUnits="userSpaceOnUse" x1="1814.9287" y1="2688.9001" x2="1836.8228" y2="2859.9973" gradientTransform="matrix(1 0 0 1 920.9161 0)">
					<stop  offset="0" style="stop-color:#FFC444"/>
					<stop  offset="0.9964" style="stop-color:#F36F56"/>
				</linearGradient>
				<path class="st79" d="M2580.1,2560c-6.5-15.8,38.1-59.1,94-75.1c40.6-11.6,75-5.1,92.9-2c58.1,10.3,94.2,39.3,107.8,51.5
					c-11.1,6-41.9,24.5-57.1,59.5c-14.7,33.8-4.2,64.9,1.3,83c4.8,15.7,12,39.6,33.5,56.9c11.3,9.1,23.9,13.8,48.9,23
					c29.5,10.9,47.9,14,47.7,19.9c-0.2,7.5-30.2,13.7-29.1,18.4c0.1,0.3,0.3,0.4,0.3,0.6c0.4,3.3-33.3,11.4-75.9,17.8
					c-49.8,7.5-74.7,11.2-98.5,7.2c-37.1-6.3-30.9-17.8-68.1-24.2c-43.3-7.5-62.9,6.1-102.1-9c-6.6-2.5-33-12.7-32.2-23.3
					c0.9-13.1,44.5-8.6,82.4-42.1c16.7-14.7,24.8-30.2,27.6-36c3.6-7.5,18.8-46.3,3.6-88.6c-0.9-2.5-1.6-3.6-2.6-5.3
					C2636.1,2560.9,2586.3,2575,2580.1,2560z"/>
				
					<linearGradient id="SVGID_73_" gradientUnits="userSpaceOnUse" x1="1901.2354" y1="2601.6855" x2="1706.4948" y2="2656.9915" gradientTransform="matrix(1 0 0 1 920.9161 0)">
					<stop  offset="0" style="stop-color:#FFC444"/>
					<stop  offset="9.845980e-02" style="stop-color:#FEBC46"/>
					<stop  offset="0.9964" style="stop-color:#F36F56"/>
				</linearGradient>
				<path class="st80" d="M2742.4,2636c-9.4,18,51.5,62,97.2,66.4c24.8,2.4,49.2-9.6,63.8-27.8c22.6-28,15.6-62.9,13.2-75.2
					c-14.4-72.1-99.2-102.1-107-104.7c-20.6,32-20.3,52.1-15.9,64.7c3.6,10.4,13,21.5,31.8,43.8c16.7,19.8,25,26.9,22.6,32.9
					c-3,7.2-19,7.7-29.1,5.6c-18.8-3.8-57.2-10.6-59.9-14.9C2753.7,2627.7,2745.6,2629.8,2742.4,2636z"/>
				
					<linearGradient id="SVGID_74_" gradientUnits="userSpaceOnUse" x1="1350.9277" y1="2395.6487" x2="1353.126" y2="2500.0693" gradientTransform="matrix(-1 0 0 1 4090.1792 0)">
					<stop  offset="0" style="stop-color:#311944"/>
					<stop  offset="1" style="stop-color:#A03976"/>
				</linearGradient>
				<path class="st81" d="M2743.2,2438.2c0,0,3.7,29.6,14.6,36.4c10.9,6.8,28.6,15.6,30.5,18c1.9,2.4-67.7,9.9-102.2-7.5l0,0
					c11.4-2.4,14.5-3.2,14.5-3.2c3.1-0.9,8.8-2.5,14.6-5.8c3.9-2.2,10.3-6.6,16.1-14.9l-0.1-16.4L2743.2,2438.2z"/>
				
					<linearGradient id="SVGID_75_" gradientUnits="userSpaceOnUse" x1="2125.7942" y1="1382.147" x2="2008.4788" y2="1527.5522" gradientTransform="matrix(0.9733 0.2295 -0.2295 0.9733 1080.694 501.8301)">
					<stop  offset="0" style="stop-color:#311944"/>
					<stop  offset="1" style="stop-color:#A03976"/>
				</linearGradient>
				<path class="st82" d="M2737.2,2454.2c0,0-10.2,29.7-41.1,28.1c-27.6-1.4-32.4-70.1-15-83.5c5.8-4.5,18.2-7.1,27.8-4.5
					c6.8,1.8,27.7,16,25.5,39.7c5.7-3.7,11.7-3.8,14.1-1.1c3,3.4-0.7,10.4-1.5,12C2744,2450.4,2739.4,2453.1,2737.2,2454.2z"/>
				<g>
					
						<linearGradient id="SVGID_76_" gradientUnits="userSpaceOnUse" x1="1323.7144" y1="2540.324" x2="1468.1191" y2="2540.324" gradientTransform="matrix(-1 0 0 1 4090.1792 0)">
						<stop  offset="0" style="stop-color:#AA80F9"/>
						<stop  offset="0.9964" style="stop-color:#6165D7"/>
					</linearGradient>
					<path class="st83" d="M2690.8,2568.2l75.7-36.6l-69.8-18.8c-1.6-0.4-3.3-0.5-4.9-0.3l-69.7,9.8L2690.8,2568.2z"/>
					
						<linearGradient id="SVGID_77_" gradientUnits="userSpaceOnUse" x1="1400.0211" y1="2582.2407" x2="1472.0692" y2="2582.2407" gradientTransform="matrix(-1 0 0 1 4090.1792 0)">
						<stop  offset="0" style="stop-color:#AA80F9"/>
						<stop  offset="0.9964" style="stop-color:#6165D7"/>
					</linearGradient>
					<path class="st84" d="M2685.2,2641.9l-63.1-24.8c-2.2-0.9-4-3.7-4-6.4v-84.4c0-2.7,1.8-4.5,4-4l63.1,14c2.7,0.6,5,3.6,5,6.6
						v95.4C2690.2,2641.4,2687.9,2643,2685.2,2641.9z"/>
					
						<linearGradient id="SVGID_78_" gradientUnits="userSpaceOnUse" x1="1321.0762" y1="2586.5242" x2="1406.4951" y2="2586.5242" gradientTransform="matrix(-1 0 0 1 4090.1792 0)">
						<stop  offset="0" style="stop-color:#AA80F9"/>
						<stop  offset="0.9964" style="stop-color:#6165D7"/>
					</linearGradient>
					<path class="st85" d="M2765.2,2625.8l-76.5,16.2c-2.7,0.6-5-1.4-5-4.5v-95.8c0-3.1,2.2-5.7,5-5.9l76.5-5.1
						c2.2-0.1,3.9,1.9,3.9,4.6v84.6C2769.1,2622.8,2767.3,2625.4,2765.2,2625.8z"/>
				</g>
				
					<linearGradient id="SVGID_79_" gradientUnits="userSpaceOnUse" x1="1895.0431" y1="1281.7234" x2="1863.6509" y2="1484.0286" gradientTransform="matrix(1 0 0 1 920.9161 0)">
					<stop  offset="0" style="stop-color:#311944"/>
					<stop  offset="1" style="stop-color:#A03976"/>
				</linearGradient>
				<path class="st86" d="M2618.1,2594.6c0,0-12.5-11.6-13.9-25c-1.4-13.4,8.1-24.2,17.2-26.9c9.2-2.7,14,1.3,7.9,14.5
					S2613.5,2579,2618.1,2594.6z"/>
				
					<linearGradient id="SVGID_80_" gradientUnits="userSpaceOnUse" x1="7528.6782" y1="-3270.3262" x2="7497.2861" y2="-3068.0208" gradientTransform="matrix(-0.7481 -0.6636 -0.6636 0.7481 10406.0537 3559.0403)">
					<stop  offset="0" style="stop-color:#311944"/>
					<stop  offset="1" style="stop-color:#A03976"/>
				</linearGradient>
				<path class="st87" d="M2744.7,2633.2c0,0,17.1-0.4,27-9.5c9.9-9.2,10-23.5,5-31.6c-5-8.1-11.4-8.3-15.6,5.6
					C2757,2611.7,2758.6,2624.6,2744.7,2633.2z"/>
			</g>
			<g>
				<g>
					
						<linearGradient id="SVGID_81_" gradientUnits="userSpaceOnUse" x1="5381.6509" y1="2949.5164" x2="4838.1646" y2="2984.043" gradientTransform="matrix(1 0 0 1 -2370.7654 0)">
						<stop  offset="0" style="stop-color:#6B3976"/>
						<stop  offset="1" style="stop-color:#311944"/>
					</linearGradient>
					<path class="st88" d="M3016,3031.3c-0.3,5.8-5,10.2-10.6,10.6c-0.5,0-0.9,0-1.5,0l-366.4-22.3l-29.7,137.1
						c-1.1,5.1-5.4,8.6-10.3,8.9c-1,0.1-2.1,0-3.2-0.3c-6.1-1.3-10-7.4-8.6-13.5l28.9-133.6l-82.6-5.6l-33.9,110.6
						c-1.4,4.6-5.5,7.7-10.1,8c-1.3,0.1-2.7-0.1-4-0.5c-6-1.8-9.4-8.2-7.5-14.1l37-120.7l45-146.9c12.3-40.4,50.4-67.5,92.6-66
						l125.3,4.5c6.3,0.2,11.2,5.5,10.9,11.7c-0.2,6.3-5.5,11.2-11.7,10.9l-125.3-4.5c-31.9-1.1-60.8,19.4-70.1,50l-41.3,134.7
						l89.1,6l377.3,23C3011.6,3019.7,3016.4,3025,3016,3031.3z"/>
				</g>
			</g>
			<g>
				<g>
					
						<linearGradient id="SVGID_82_" gradientUnits="userSpaceOnUse" x1="4621.9019" y1="3227.1602" x2="4734.1328" y2="3227.1602" gradientTransform="matrix(0.998 -6.340000e-02 6.340000e-02 0.998 -2262.9568 198.8676)">
						<stop  offset="0" style="stop-color:#6B3976"/>
						<stop  offset="1" style="stop-color:#311944"/>
					</linearGradient>
					<path class="st89" d="M2554.3,3126.5c-2-30.9,21.6-57.6,52.4-59.6s57.6,21.6,59.6,52.4c2,30.9-21.6,57.6-52.4,59.6
						C2583,3181,2556.3,3157.4,2554.3,3126.5z M2586.9,3124.5c0.8,12.9,12,22.7,24.9,21.9c12.9-0.8,22.7-12,21.9-24.9
						c-0.8-12.9-12-22.7-24.9-21.9C2595.9,3100.4,2586.1,3111.6,2586.9,3124.5z"/>
				</g>
				
					<linearGradient id="SVGID_83_" gradientUnits="userSpaceOnUse" x1="2599.0813" y1="3225.1953" x2="2665.8201" y2="3225.1953" gradientTransform="matrix(-0.998 6.340000e-02 6.340000e-02 0.998 5030.2319 -264.4713)">
					<stop  offset="0" style="stop-color:#FFC444"/>
					<stop  offset="0.9964" style="stop-color:#F36F56"/>
				</linearGradient>
				<circle class="st90" cx="2607.5" cy="3121.2" r="33.4"/>
			</g>
			<g>
				<g>
					
						<linearGradient id="SVGID_84_" gradientUnits="userSpaceOnUse" x1="3939.5186" y1="3701.7144" x2="6599.2734" y2="2093.3259" gradientTransform="matrix(0.998 -6.340000e-02 6.340000e-02 0.998 -2262.9568 198.8676)">
						<stop  offset="0" style="stop-color:#FFC444"/>
						<stop  offset="0.9964" style="stop-color:#F36F56"/>
					</linearGradient>
					<path class="st91" d="M2758.9,3136.8c-45.6-46-73.1-109.1-77.5-177.8s15-134.7,54.4-186.2c39.9-52,95.6-82.8,156.8-86.7
						c61.2-3.9,120.3,19.6,166.5,66.2c45.6,46,73.1,109.1,77.5,177.8c4.4,68.6-15,134.7-54.4,186.2c-39.9,52-95.6,82.8-156.8,86.7
						S2805.1,3183.4,2758.9,3136.8z M2712.6,2957c8,125.3,102.5,221.6,210.8,214.7c108.3-6.9,189.9-114.4,181.9-239.6
						s-102.5-221.6-210.8-214.7C2786.3,2724.3,2704.7,2831.8,2712.6,2957z"/>
				</g>
				
					<linearGradient id="SVGID_85_" gradientUnits="userSpaceOnUse" x1="915.5895" y1="2940.9751" x2="1265.3063" y2="2940.9751" gradientTransform="matrix(-1 0 0 1 4004.9812 0)">
					<stop  offset="0" style="stop-color:#FF9085"/>
					<stop  offset="1" style="stop-color:#FB6FBB"/>
				</linearGradient>
				<path class="st92" d="M3088.9,2930c-7.1-112.2-90.4-198.3-186.1-192.2c-95.6,6.1-169.8,99.5-162.7,211.7
					c7.1,112.2,92.9,200.7,188.5,194.7C3024.3,3138.1,3096,3042.2,3088.9,2930z"/>
				
					<ellipse transform="matrix(0.998 -6.339880e-02 6.339880e-02 0.998 -180.2843 191.4985)" class="st93" cx="2927.4" cy="2936.5" rx="26.2" ry="34.7"/>
				<g>
					
						<linearGradient id="SVGID_86_" gradientUnits="userSpaceOnUse" x1="4777.7646" y1="3062.1694" x2="5206.8315" y2="3062.1694" gradientTransform="matrix(0.998 -6.340000e-02 6.340000e-02 0.998 -2262.9568 198.8676)">
						<stop  offset="0" style="stop-color:#6B3976"/>
						<stop  offset="1" style="stop-color:#311944"/>
					</linearGradient>
					<path class="st94" d="M2771.9,3118.1c-42.7-43-68.5-102-72.5-166.1c-4.1-64.1,14-125.9,50.9-173.9
						c37.6-48.9,90.1-77.9,147.8-81.6s113.5,18.4,156.9,62.2c42.7,43,68.5,102,72.5,166.1c4.1,64.1-14,125.9-50.9,173.9
						c-37.6,48.9-90.1,77.9-147.8,81.6S2815.4,3161.9,2771.9,3118.1z M2742.3,2949.3c7,109.8,89.5,194.2,183.9,188.2
						c94.4-6,165.6-100.2,158.6-209.9c-7-109.8-89.5-194.2-183.9-188.2C2806.4,2745.3,2735.3,2839.5,2742.3,2949.3z"/>
				</g>
			</g>
		</g>
	</g>
</g>
</svg>
